%TF.GenerationSoftware,KiCad,Pcbnew,8.0.1*%
%TF.CreationDate,2024-04-10T11:02:19-04:00*%
%TF.ProjectId,Baja Dashboard Schematic Part 2,42616a61-2044-4617-9368-626f61726420,rev?*%
%TF.SameCoordinates,Original*%
%TF.FileFunction,Copper,L2,Bot*%
%TF.FilePolarity,Positive*%
%FSLAX46Y46*%
G04 Gerber Fmt 4.6, Leading zero omitted, Abs format (unit mm)*
G04 Created by KiCad (PCBNEW 8.0.1) date 2024-04-10 11:02:19*
%MOMM*%
%LPD*%
G01*
G04 APERTURE LIST*
%TA.AperFunction,ComponentPad*%
%ADD10O,1.750000X3.000000*%
%TD*%
%TA.AperFunction,ComponentPad*%
%ADD11C,1.400000*%
%TD*%
%TA.AperFunction,ComponentPad*%
%ADD12O,1.400000X1.400000*%
%TD*%
%TA.AperFunction,ComponentPad*%
%ADD13R,1.700000X1.700000*%
%TD*%
%TA.AperFunction,ComponentPad*%
%ADD14O,1.700000X1.700000*%
%TD*%
%TA.AperFunction,ComponentPad*%
%ADD15R,4.000000X1.750000*%
%TD*%
%TA.AperFunction,ComponentPad*%
%ADD16C,1.600000*%
%TD*%
%TA.AperFunction,ComponentPad*%
%ADD17O,1.600000X1.600000*%
%TD*%
%TA.AperFunction,ComponentPad*%
%ADD18R,3.000000X2.000000*%
%TD*%
%TA.AperFunction,ComponentPad*%
%ADD19R,1.700000X3.000000*%
%TD*%
%TA.AperFunction,ViaPad*%
%ADD20C,0.600000*%
%TD*%
%TA.AperFunction,Conductor*%
%ADD21C,0.200000*%
%TD*%
G04 APERTURE END LIST*
D10*
%TO.P,D4,1,K*%
%TO.N,GND*%
X162250000Y-111500000D03*
%TO.P,D4,2,A*%
%TO.N,Net-(D4-A)*%
X164790000Y-111500000D03*
%TD*%
%TO.P,D2,1,K*%
%TO.N,GND*%
X150000000Y-111500000D03*
%TO.P,D2,2,A*%
%TO.N,Net-(D2-A)*%
X152540000Y-111500000D03*
%TD*%
D11*
%TO.P,R10,1*%
%TO.N,Net-(U4-D27)*%
X125000000Y-127620000D03*
D12*
%TO.P,R10,2*%
%TO.N,Net-(D13-A)*%
X125000000Y-120000000D03*
%TD*%
D13*
%TO.P,J1,1,Pin_1*%
%TO.N,Net-(J1-Pin_1)*%
X203250000Y-87750000D03*
D14*
%TO.P,J1,2,Pin_2*%
%TO.N,GND*%
X203250000Y-90290000D03*
%TO.P,J1,3,Pin_3*%
%TO.N,Net-(J1-Pin_3)*%
X203250000Y-92830000D03*
%TO.P,J1,4,Pin_4*%
%TO.N,+12V*%
X203250000Y-95370000D03*
%TD*%
D15*
%TO.P,U8,1,Vin*%
%TO.N,+12V*%
X192500000Y-89000000D03*
%TO.P,U8,2,GND*%
%TO.N,GND*%
X192500000Y-91540000D03*
%TO.P,U8,3,Vout*%
%TO.N,+5V*%
X192500000Y-94080000D03*
%TD*%
D10*
%TO.P,D1,1,K*%
%TO.N,GND*%
X144000000Y-111500000D03*
%TO.P,D1,2,A*%
%TO.N,Net-(D1-A)*%
X146540000Y-111500000D03*
%TD*%
D16*
%TO.P,R5,1*%
%TO.N,Net-(U4-D14)*%
X122000000Y-127810000D03*
D17*
%TO.P,R5,2*%
%TO.N,Net-(D8-A)*%
X122000000Y-120190000D03*
%TD*%
D10*
%TO.P,D6,1,K*%
%TO.N,GND*%
X174250000Y-111500000D03*
%TO.P,D6,2,A*%
%TO.N,Net-(D6-A)*%
X176790000Y-111500000D03*
%TD*%
%TO.P,D13,1,K*%
%TO.N,GND*%
X166500000Y-123750000D03*
%TO.P,D13,2,A*%
%TO.N,Net-(D13-A)*%
X169040000Y-123750000D03*
%TD*%
%TO.P,D9,1,K*%
%TO.N,GND*%
X131750000Y-111500000D03*
%TO.P,D9,2,A*%
%TO.N,Net-(D9-A)*%
X134290000Y-111500000D03*
%TD*%
D11*
%TO.P,R2,1*%
%TO.N,GND*%
X115190000Y-94650000D03*
D12*
%TO.P,R2,2*%
%TO.N,Net-(U2-R-EXT)*%
X122810000Y-94650000D03*
%TD*%
D10*
%TO.P,U5,1,2*%
%TO.N,Net-(U1-~{OUT2})*%
X168410000Y-74520000D03*
%TO.P,U5,2,1*%
%TO.N,Net-(U1-~{OUT1})*%
X165870000Y-74520000D03*
%TO.P,U5,3,GND*%
%TO.N,+5V*%
X163330000Y-74520000D03*
%TO.P,U5,4,6*%
%TO.N,Net-(U1-~{OUT6})*%
X160790000Y-74520000D03*
%TO.P,U5,5,5*%
%TO.N,Net-(U1-~{OUT5})*%
X158250000Y-74520000D03*
%TO.P,U5,6,4*%
%TO.N,Net-(U1-~{OUT4})*%
X158250000Y-105000000D03*
%TO.P,U5,7,7*%
%TO.N,Net-(U1-~{OUT7})*%
X160790000Y-105000000D03*
%TO.P,U5,8,GND*%
%TO.N,+5V*%
X163330000Y-105000000D03*
%TO.P,U5,9,3*%
%TO.N,Net-(U1-~{OUT3})*%
X165870000Y-105000000D03*
%TO.P,U5,10,0*%
%TO.N,Net-(U1-~{OUT0})*%
X168410000Y-105000000D03*
%TD*%
%TO.P,D3,1,K*%
%TO.N,GND*%
X156000000Y-111500000D03*
%TO.P,D3,2,A*%
%TO.N,Net-(D3-A)*%
X158540000Y-111500000D03*
%TD*%
D11*
%TO.P,R3,1*%
%TO.N,GND*%
X115190000Y-97800000D03*
D12*
%TO.P,R3,2*%
%TO.N,Net-(U3-R-EXT)*%
X122810000Y-97800000D03*
%TD*%
D11*
%TO.P,R1,1*%
%TO.N,GND*%
X115190000Y-91500000D03*
D12*
%TO.P,R1,2*%
%TO.N,Net-(U1-R-EXT)*%
X122810000Y-91500000D03*
%TD*%
D10*
%TO.P,D12,1,K*%
%TO.N,GND*%
X155750000Y-123750000D03*
%TO.P,D12,2,A*%
%TO.N,Net-(D12-A)*%
X158290000Y-123750000D03*
%TD*%
%TO.P,D11,1,K*%
%TO.N,GND*%
X144210000Y-123750000D03*
%TO.P,D11,2,A*%
%TO.N,Net-(D11-A)*%
X146750000Y-123750000D03*
%TD*%
D11*
%TO.P,R4,1*%
%TO.N,+3.3V*%
X115190000Y-100950000D03*
D12*
%TO.P,R4,2*%
%TO.N,Net-(D7-A)*%
X122810000Y-100950000D03*
%TD*%
D10*
%TO.P,D8,1,K*%
%TO.N,GND*%
X138000000Y-111500000D03*
%TO.P,D8,2,A*%
%TO.N,Net-(D8-A)*%
X140540000Y-111500000D03*
%TD*%
%TO.P,D7,1,K*%
%TO.N,GND*%
X133210000Y-123750000D03*
%TO.P,D7,2,A*%
%TO.N,Net-(D7-A)*%
X135750000Y-123750000D03*
%TD*%
%TO.P,U6,1,2*%
%TO.N,Net-(U2-~{OUT2})*%
X144410000Y-74770000D03*
%TO.P,U6,2,1*%
%TO.N,Net-(U2-~{OUT1})*%
X141870000Y-74770000D03*
%TO.P,U6,3,GND*%
%TO.N,+5V*%
X139330000Y-74770000D03*
%TO.P,U6,4,6*%
%TO.N,Net-(U2-~{OUT6})*%
X136790000Y-74770000D03*
%TO.P,U6,5,5*%
%TO.N,Net-(U2-~{OUT5})*%
X134250000Y-74770000D03*
%TO.P,U6,6,4*%
%TO.N,Net-(U2-~{OUT4})*%
X134250000Y-105250000D03*
%TO.P,U6,7,7*%
%TO.N,Net-(U2-~{OUT7})*%
X136790000Y-105250000D03*
%TO.P,U6,8,GND*%
%TO.N,+5V*%
X139330000Y-105250000D03*
%TO.P,U6,9,3*%
%TO.N,Net-(U2-~{OUT3})*%
X141870000Y-105250000D03*
%TO.P,U6,10,0*%
%TO.N,Net-(U2-~{OUT0})*%
X144410000Y-105250000D03*
%TD*%
D11*
%TO.P,R6,1*%
%TO.N,Net-(U4-D13)*%
X115190000Y-104100000D03*
D12*
%TO.P,R6,2*%
%TO.N,Net-(D9-A)*%
X122810000Y-104100000D03*
%TD*%
D10*
%TO.P,U8_Left1,1,RST*%
%TO.N,unconnected-(U8_Left1-RST-Pad1)*%
X93260000Y-139000000D03*
%TO.P,U8_Left1,2,ES*%
%TO.N,Net-(U4-TX2)*%
X95800000Y-139000000D03*
%TO.P,U8_Left1,3,DC*%
%TO.N,Net-(U4-RX2)*%
X98340000Y-139000000D03*
%TO.P,U8_Left1,4,SDA*%
%TO.N,Net-(U4-D23)*%
X100880000Y-139000000D03*
%TO.P,U8_Left1,5,SCL*%
%TO.N,Net-(U4-D18)*%
X103420000Y-139000000D03*
%TO.P,U8_Left1,6,GND*%
%TO.N,GND*%
X105960000Y-139000000D03*
%TO.P,U8_Left1,7,VCC*%
%TO.N,+3.3V*%
X108500000Y-139000000D03*
%TD*%
D11*
%TO.P,R9,1*%
%TO.N,Net-(U4-D15)*%
X128000000Y-127620000D03*
D12*
%TO.P,R9,2*%
%TO.N,Net-(D12-A)*%
X128000000Y-120000000D03*
%TD*%
D10*
%TO.P,D10,1,K*%
%TO.N,GND*%
X125750000Y-111500000D03*
%TO.P,D10,2,A*%
%TO.N,Net-(D10-A)*%
X128290000Y-111500000D03*
%TD*%
%TO.P,U7_Right1,1,RST*%
%TO.N,unconnected-(U7_Right1-RST-Pad1)*%
X194000000Y-139000000D03*
%TO.P,U7_Right1,2,ES*%
%TO.N,Net-(U4-D5)*%
X196540000Y-139000000D03*
%TO.P,U7_Right1,3,DC*%
%TO.N,Net-(U4-D4)*%
X199080000Y-139000000D03*
%TO.P,U7_Right1,4,SDA*%
%TO.N,Net-(U4-D23)*%
X201620000Y-139000000D03*
%TO.P,U7_Right1,5,SCL*%
%TO.N,Net-(U4-D18)*%
X204160000Y-139000000D03*
%TO.P,U7_Right1,6,GND*%
%TO.N,GND*%
X206700000Y-139000000D03*
%TO.P,U7_Right1,7,VCC*%
%TO.N,+3.3V*%
X209240000Y-139000000D03*
%TD*%
D11*
%TO.P,R7,1*%
%TO.N,Net-(U4-D12)*%
X132190000Y-131000000D03*
D12*
%TO.P,R7,2*%
%TO.N,Net-(D10-A)*%
X139810000Y-131000000D03*
%TD*%
D10*
%TO.P,D5,1,K*%
%TO.N,GND*%
X168250000Y-111500000D03*
%TO.P,D5,2,A*%
%TO.N,Net-(D5-A)*%
X170790000Y-111500000D03*
%TD*%
D11*
%TO.P,R8,1*%
%TO.N,Net-(U4-D2)*%
X122190000Y-131000000D03*
D12*
%TO.P,R8,2*%
%TO.N,Net-(D11-A)*%
X129810000Y-131000000D03*
%TD*%
D18*
%TO.P,U2,1,GND*%
%TO.N,GND*%
X97250000Y-111340000D03*
%TO.P,U2,2,SDI*%
%TO.N,Net-(U1-SDO)*%
X97250000Y-113880000D03*
%TO.P,U2,3,CLK*%
%TO.N,Net-(U1-CLK)*%
X97250000Y-116420000D03*
%TO.P,U2,4,LE(ED1)*%
%TO.N,Net-(U1-LE(ED1))*%
X97250000Y-118960000D03*
%TO.P,U2,5,~{OUT0}*%
%TO.N,Net-(U2-~{OUT0})*%
X97250000Y-121500000D03*
%TO.P,U2,6,~{OUT1}*%
%TO.N,Net-(U2-~{OUT1})*%
X97250000Y-124040000D03*
%TO.P,U2,7,~{OUT2}*%
%TO.N,Net-(U2-~{OUT2})*%
X97250000Y-126580000D03*
%TO.P,U2,8,~{OUT3}*%
%TO.N,Net-(U2-~{OUT3})*%
X97250000Y-129120000D03*
%TO.P,U2,9,~{OUT4}*%
%TO.N,Net-(U2-~{OUT4})*%
X88630000Y-129120000D03*
%TO.P,U2,10,~{OUT5}*%
%TO.N,Net-(U2-~{OUT5})*%
X88630000Y-126580000D03*
%TO.P,U2,11,~{OUT6}*%
%TO.N,Net-(U2-~{OUT6})*%
X88630000Y-124040000D03*
%TO.P,U2,12,~{OUT7}*%
%TO.N,Net-(U2-~{OUT7})*%
X88630000Y-121500000D03*
%TO.P,U2,13,~{OE}(ED2)*%
%TO.N,Net-(U1-~{OE}(ED2))*%
X88630000Y-118960000D03*
%TO.P,U2,14,SDO*%
%TO.N,Net-(U2-SDO)*%
X88630000Y-116420000D03*
%TO.P,U2,15,R-EXT*%
%TO.N,Net-(U2-R-EXT)*%
X88630000Y-113880000D03*
%TO.P,U2,16,VDD*%
%TO.N,+5V*%
X88630000Y-111340000D03*
%TD*%
D19*
%TO.P,U4,1,3V3*%
%TO.N,+3.3V*%
X215060000Y-126750000D03*
%TO.P,U4,2,GND*%
%TO.N,GND*%
X212520000Y-126750000D03*
%TO.P,U4,3,D15*%
%TO.N,Net-(U4-D15)*%
X209980000Y-126750000D03*
%TO.P,U4,4,D2*%
%TO.N,Net-(U4-D2)*%
X207440000Y-126750000D03*
%TO.P,U4,5,D4*%
%TO.N,Net-(U4-D4)*%
X204900000Y-126750000D03*
%TO.P,U4,6,RX2*%
%TO.N,Net-(U4-RX2)*%
X202360000Y-126750000D03*
%TO.P,U4,7,TX2*%
%TO.N,Net-(U4-TX2)*%
X199820000Y-126750000D03*
%TO.P,U4,8,D5*%
%TO.N,Net-(U4-D5)*%
X197280000Y-126750000D03*
%TO.P,U4,9,D18*%
%TO.N,Net-(U4-D18)*%
X194740000Y-126750000D03*
%TO.P,U4,10,D19*%
%TO.N,unconnected-(U4-D19-Pad10)*%
X192200000Y-126750000D03*
%TO.P,U4,11,D21*%
%TO.N,Net-(U4-D21)*%
X189660000Y-126750000D03*
%TO.P,U4,12,RX0*%
%TO.N,unconnected-(U4-RX0-Pad12)*%
X187120000Y-126750000D03*
%TO.P,U4,13,TX0*%
%TO.N,unconnected-(U4-TX0-Pad13)*%
X184580000Y-126750000D03*
%TO.P,U4,14,D22*%
%TO.N,Net-(U4-D22)*%
X182040000Y-126750000D03*
%TO.P,U4,15,D23*%
%TO.N,Net-(U4-D23)*%
X179500000Y-126750000D03*
%TO.P,U4,16,EN*%
%TO.N,unconnected-(U4-EN-Pad16)*%
X179500000Y-100350000D03*
%TO.P,U4,17,UP*%
%TO.N,unconnected-(U4-UP-Pad17)*%
X182040000Y-100350000D03*
%TO.P,U4,18,UN*%
%TO.N,unconnected-(U4-UN-Pad18)*%
X184580000Y-100350000D03*
%TO.P,U4,19,D34*%
%TO.N,unconnected-(U4-D34-Pad19)*%
X187120000Y-100350000D03*
%TO.P,U4,20,D35*%
%TO.N,unconnected-(U4-D35-Pad20)*%
X189660000Y-100350000D03*
%TO.P,U4,21,D32*%
%TO.N,Net-(U1-SDI)*%
X192200000Y-100350000D03*
%TO.P,U4,22,D33*%
%TO.N,Net-(U1-CLK)*%
X194740000Y-100350000D03*
%TO.P,U4,23,D25*%
%TO.N,Net-(U1-LE(ED1))*%
X197280000Y-100350000D03*
%TO.P,U4,24,D26*%
%TO.N,Net-(U1-~{OE}(ED2))*%
X199820000Y-100350000D03*
%TO.P,U4,25,D27*%
%TO.N,Net-(U4-D27)*%
X202360000Y-100350000D03*
%TO.P,U4,26,D14*%
%TO.N,Net-(U4-D14)*%
X204900000Y-100350000D03*
%TO.P,U4,27,D12*%
%TO.N,Net-(U4-D12)*%
X207440000Y-100350000D03*
%TO.P,U4,28,D13*%
%TO.N,Net-(U4-D13)*%
X209980000Y-100350000D03*
%TO.P,U4,29,GND*%
%TO.N,GND*%
X212520000Y-100350000D03*
%TO.P,U4,30,VIN*%
%TO.N,+5V*%
X215060000Y-100350000D03*
%TD*%
D10*
%TO.P,U7,1,Vcc*%
%TO.N,+3.3V*%
X157750000Y-99750000D03*
%TO.P,U7,2,GND(Logic)*%
%TO.N,GND*%
X155210000Y-99750000D03*
%TO.P,U7,3,RX*%
%TO.N,Net-(U4-D22)*%
X152670000Y-99750000D03*
%TO.P,U7,4,TX*%
%TO.N,Net-(U4-D21)*%
X150130000Y-99750000D03*
%TO.P,U7,5,SLNT*%
%TO.N,unconnected-(U7-SLNT-Pad5)*%
X147590000Y-99750000D03*
%TO.P,U7,6,CANH*%
%TO.N,Net-(J1-Pin_1)*%
X145050000Y-99750000D03*
%TO.P,U7,7,CANL*%
%TO.N,Net-(J1-Pin_3)*%
X142510000Y-99750000D03*
%TD*%
D18*
%TO.P,U3,1,GND*%
%TO.N,GND*%
X108250000Y-86960000D03*
%TO.P,U3,2,SDI*%
%TO.N,Net-(U2-SDO)*%
X108250000Y-89500000D03*
%TO.P,U3,3,CLK*%
%TO.N,Net-(U1-CLK)*%
X108250000Y-92040000D03*
%TO.P,U3,4,LE(ED1)*%
%TO.N,Net-(U1-LE(ED1))*%
X108250000Y-94580000D03*
%TO.P,U3,5,~{OUT0}*%
%TO.N,Net-(D1-A)*%
X108250000Y-97120000D03*
%TO.P,U3,6,~{OUT1}*%
%TO.N,Net-(D2-A)*%
X108250000Y-99660000D03*
%TO.P,U3,7,~{OUT2}*%
%TO.N,Net-(D3-A)*%
X108250000Y-102200000D03*
%TO.P,U3,8,~{OUT3}*%
%TO.N,Net-(D4-A)*%
X108250000Y-104740000D03*
%TO.P,U3,9,~{OUT4}*%
%TO.N,Net-(D5-A)*%
X99630000Y-104740000D03*
%TO.P,U3,10,~{OUT5}*%
%TO.N,Net-(D6-A)*%
X99630000Y-102200000D03*
%TO.P,U3,11,~{OUT6}*%
%TO.N,unconnected-(U3-~{OUT6}-Pad11)*%
X99630000Y-99660000D03*
%TO.P,U3,12,~{OUT7}*%
%TO.N,unconnected-(U3-~{OUT7}-Pad12)*%
X99630000Y-97120000D03*
%TO.P,U3,13,~{OE}(ED2)*%
%TO.N,GND*%
X99630000Y-94580000D03*
%TO.P,U3,14,SDO*%
%TO.N,unconnected-(U3-SDO-Pad14)*%
X99630000Y-92040000D03*
%TO.P,U3,15,R-EXT*%
%TO.N,Net-(U3-R-EXT)*%
X99630000Y-89500000D03*
%TO.P,U3,16,VDD*%
%TO.N,+5V*%
X99630000Y-86960000D03*
%TD*%
%TO.P,U1,1,GND*%
%TO.N,GND*%
X115500000Y-111340000D03*
%TO.P,U1,2,SDI*%
%TO.N,Net-(U1-SDI)*%
X115500000Y-113880000D03*
%TO.P,U1,3,CLK*%
%TO.N,Net-(U1-CLK)*%
X115500000Y-116420000D03*
%TO.P,U1,4,LE(ED1)*%
%TO.N,Net-(U1-LE(ED1))*%
X115500000Y-118960000D03*
%TO.P,U1,5,~{OUT0}*%
%TO.N,Net-(U1-~{OUT0})*%
X115500000Y-121500000D03*
%TO.P,U1,6,~{OUT1}*%
%TO.N,Net-(U1-~{OUT1})*%
X115500000Y-124040000D03*
%TO.P,U1,7,~{OUT2}*%
%TO.N,Net-(U1-~{OUT2})*%
X115500000Y-126580000D03*
%TO.P,U1,8,~{OUT3}*%
%TO.N,Net-(U1-~{OUT3})*%
X115500000Y-129120000D03*
%TO.P,U1,9,~{OUT4}*%
%TO.N,Net-(U1-~{OUT4})*%
X106880000Y-129120000D03*
%TO.P,U1,10,~{OUT5}*%
%TO.N,Net-(U1-~{OUT5})*%
X106880000Y-126580000D03*
%TO.P,U1,11,~{OUT6}*%
%TO.N,Net-(U1-~{OUT6})*%
X106880000Y-124040000D03*
%TO.P,U1,12,~{OUT7}*%
%TO.N,Net-(U1-~{OUT7})*%
X106880000Y-121500000D03*
%TO.P,U1,13,~{OE}(ED2)*%
%TO.N,Net-(U1-~{OE}(ED2))*%
X106880000Y-118960000D03*
%TO.P,U1,14,SDO*%
%TO.N,Net-(U1-SDO)*%
X106880000Y-116420000D03*
%TO.P,U1,15,R-EXT*%
%TO.N,Net-(U1-R-EXT)*%
X106880000Y-113880000D03*
%TO.P,U1,16,VDD*%
%TO.N,+5V*%
X106880000Y-111340000D03*
%TD*%
D20*
%TO.N,Net-(U4-D22)*%
X158760800Y-129317900D03*
%TO.N,Net-(U4-D18)*%
X108991400Y-131626900D03*
%TO.N,Net-(U4-D21)*%
X158108700Y-129962000D03*
%TO.N,Net-(U4-D23)*%
X178194000Y-133279900D03*
%TO.N,Net-(U2-~{OUT3})*%
X139577200Y-122917200D03*
%TO.N,Net-(U1-~{OUT7})*%
X157468200Y-108211400D03*
%TO.N,Net-(U2-SDO)*%
X102712000Y-89500000D03*
%TO.N,Net-(U2-~{OUT2})*%
X109377700Y-80972400D03*
%TO.N,Net-(U2-~{OUT0})*%
X142476900Y-120664000D03*
%TO.N,Net-(U1-~{OUT0})*%
X160538300Y-117023800D03*
%TO.N,Net-(U1-~{OUT5})*%
X135862900Y-80118500D03*
%TO.N,Net-(U1-LE(ED1))*%
X112868100Y-110476100D03*
X106939000Y-109034800D03*
%TO.N,Net-(U1-~{OE}(ED2))*%
X172008500Y-87274900D03*
X122116300Y-93009700D03*
%TO.N,Net-(U1-~{OUT4})*%
X159047100Y-118076900D03*
%TO.N,Net-(U1-~{OUT3})*%
X163327800Y-114430600D03*
%TO.N,Net-(U1-~{OUT6})*%
X138705000Y-83018600D03*
%TO.N,Net-(U1-CLK)*%
X107706900Y-108633100D03*
X113910800Y-109433400D03*
%TO.N,Net-(U1-~{OUT2})*%
X134921000Y-85442000D03*
%TO.N,+5V*%
X97542800Y-108930400D03*
%TO.N,Net-(U1-~{OUT1})*%
X134302400Y-117636400D03*
%TO.N,+3.3V*%
X120898300Y-102276800D03*
X163374000Y-121725000D03*
%TO.N,Net-(U2-R-EXT)*%
X117667300Y-106883800D03*
%TO.N,Net-(D13-A)*%
X128808400Y-123330300D03*
%TO.N,Net-(D11-A)*%
X140929200Y-129570800D03*
%TO.N,Net-(D10-A)*%
X129466700Y-112909200D03*
%TO.N,Net-(D6-A)*%
X168554700Y-102746900D03*
%TO.N,Net-(D5-A)*%
X167534800Y-108191400D03*
%TO.N,Net-(D4-A)*%
X111326400Y-105465000D03*
X121344300Y-105475900D03*
X127619800Y-116495400D03*
%TO.N,Net-(D3-A)*%
X113847000Y-96659200D03*
X144578700Y-97546500D03*
%TO.N,Net-(D2-A)*%
X112525500Y-96771300D03*
X140807500Y-100524500D03*
%TO.N,Net-(D1-A)*%
X140809700Y-101452600D03*
%TD*%
D21*
%TO.N,Net-(U2-~{OUT6})*%
X89130000Y-124040000D02*
X86828300Y-124040000D01*
X136790000Y-74770000D02*
X136790000Y-76571700D01*
X86426600Y-123638300D02*
X86828300Y-124040000D01*
X86426600Y-96667200D02*
X86426600Y-123638300D01*
X105160000Y-77933800D02*
X86426600Y-96667200D01*
X135427900Y-77933800D02*
X105160000Y-77933800D01*
X136790000Y-76571700D02*
X135427900Y-77933800D01*
%TO.N,Net-(U4-D5)*%
X197280000Y-136458300D02*
X196540000Y-137198300D01*
X197280000Y-126250000D02*
X197280000Y-136458300D01*
X196540000Y-139000000D02*
X196540000Y-137198300D01*
%TO.N,Net-(U4-D22)*%
X152670000Y-99750000D02*
X152670000Y-101551700D01*
X159928000Y-128150700D02*
X158760800Y-129317900D01*
X159928000Y-119808600D02*
X159928000Y-128150700D01*
X157270000Y-117150600D02*
X159928000Y-119808600D01*
X157270000Y-110281600D02*
X157270000Y-117150600D01*
X152670000Y-105681600D02*
X157270000Y-110281600D01*
X152670000Y-101551700D02*
X152670000Y-105681600D01*
%TO.N,Net-(U4-D18)*%
X103420000Y-139000000D02*
X103420000Y-137198300D01*
X103420000Y-137198300D02*
X108991400Y-131626900D01*
%TO.N,Net-(U4-D21)*%
X158108700Y-128659000D02*
X158108700Y-129962000D01*
X159477800Y-127289900D02*
X158108700Y-128659000D01*
X159477800Y-122300000D02*
X159477800Y-127289900D01*
X154270000Y-117092200D02*
X159477800Y-122300000D01*
X154270000Y-110039500D02*
X154270000Y-117092200D01*
X150130000Y-105899500D02*
X154270000Y-110039500D01*
X150130000Y-99750000D02*
X150130000Y-105899500D01*
%TO.N,Net-(U4-D23)*%
X185902100Y-128551700D02*
X179500000Y-128551700D01*
X195270000Y-137919600D02*
X185902100Y-128551700D01*
X195270000Y-140034800D02*
X195270000Y-137919600D01*
X196036900Y-140801700D02*
X195270000Y-140034800D01*
X201620000Y-140801700D02*
X196036900Y-140801700D01*
X201620000Y-139000000D02*
X201620000Y-140801700D01*
X179500000Y-126250000D02*
X179500000Y-127400800D01*
X179500000Y-127400800D02*
X179500000Y-128551700D01*
X178194000Y-128706800D02*
X178194000Y-133279900D01*
X179500000Y-127400800D02*
X178194000Y-128706800D01*
%TO.N,Net-(U4-D4)*%
X204900000Y-131378300D02*
X199080000Y-137198300D01*
X204900000Y-126250000D02*
X204900000Y-131378300D01*
X199080000Y-139000000D02*
X199080000Y-137198300D01*
%TO.N,Net-(U2-~{OUT1})*%
X96750000Y-124040000D02*
X99051700Y-124040000D01*
X141870000Y-74770000D02*
X141870000Y-72968300D01*
X138835000Y-72968300D02*
X141870000Y-72968300D01*
X138060000Y-73743300D02*
X138835000Y-72968300D01*
X138060000Y-75882300D02*
X138060000Y-73743300D01*
X123824900Y-90117400D02*
X138060000Y-75882300D01*
X121452300Y-90117400D02*
X123824900Y-90117400D01*
X112894000Y-98675700D02*
X121452300Y-90117400D01*
X112894000Y-104895800D02*
X112894000Y-98675700D01*
X108153200Y-109636600D02*
X112894000Y-104895800D01*
X105650800Y-109636600D02*
X108153200Y-109636600D01*
X103899000Y-111388400D02*
X105650800Y-109636600D01*
X103899000Y-119192700D02*
X103899000Y-111388400D01*
X99051700Y-124040000D02*
X103899000Y-119192700D01*
%TO.N,Net-(U2-~{OUT4})*%
X89130000Y-129120000D02*
X90431700Y-129120000D01*
X93308500Y-129120000D02*
X90431700Y-129120000D01*
X102056700Y-137868200D02*
X93308500Y-129120000D01*
X102056700Y-139947100D02*
X102056700Y-137868200D01*
X102929600Y-140820000D02*
X102056700Y-139947100D01*
X109038900Y-140820000D02*
X102929600Y-140820000D01*
X110632600Y-139226300D02*
X109038900Y-140820000D01*
X110632600Y-136926100D02*
X110632600Y-139226300D01*
X114917600Y-132641100D02*
X110632600Y-136926100D01*
X116117200Y-132641100D02*
X114917600Y-132641100D01*
X120820400Y-127937900D02*
X116117200Y-132641100D01*
X120820400Y-127693600D02*
X120820400Y-127937900D01*
X120742600Y-127615800D02*
X120820400Y-127693600D01*
X120742600Y-103948300D02*
X120742600Y-127615800D01*
X121525300Y-103165600D02*
X120742600Y-103948300D01*
X121525300Y-100796900D02*
X121525300Y-103165600D01*
X122682500Y-99639700D02*
X121525300Y-100796900D01*
X130441400Y-99639700D02*
X122682500Y-99639700D01*
X134250000Y-103448300D02*
X130441400Y-99639700D01*
X134250000Y-105250000D02*
X134250000Y-103448300D01*
%TO.N,Net-(U2-~{OUT3})*%
X141870000Y-120624400D02*
X141870000Y-105250000D01*
X139577200Y-122917200D02*
X141870000Y-120624400D01*
%TO.N,Net-(U1-~{OUT7})*%
X160790000Y-105000000D02*
X160790000Y-106801700D01*
X158877900Y-106801700D02*
X157468200Y-108211400D01*
X160790000Y-106801700D02*
X158877900Y-106801700D01*
%TO.N,Net-(U2-SDO)*%
X102712000Y-87115300D02*
X102712000Y-89500000D01*
X100711800Y-85115100D02*
X102712000Y-87115300D01*
X98546700Y-85115100D02*
X100711800Y-85115100D01*
X89603700Y-94058100D02*
X98546700Y-85115100D01*
X89603700Y-106805300D02*
X89603700Y-94058100D01*
X86828300Y-109580700D02*
X89603700Y-106805300D01*
X86828300Y-116420000D02*
X86828300Y-109580700D01*
X89130000Y-116420000D02*
X86828300Y-116420000D01*
%TO.N,Net-(U2-~{OUT2})*%
X104733600Y-85616500D02*
X109377700Y-80972400D01*
X104733600Y-102628500D02*
X104733600Y-85616500D01*
X97435400Y-109926700D02*
X104733600Y-102628500D01*
X95704700Y-109926700D02*
X97435400Y-109926700D01*
X95448300Y-110183100D02*
X95704700Y-109926700D01*
X95448300Y-126580000D02*
X95448300Y-110183100D01*
X96750000Y-126580000D02*
X95448300Y-126580000D01*
%TO.N,Net-(U2-~{OUT0})*%
X144410000Y-105250000D02*
X144410000Y-107051700D01*
X147727200Y-115413700D02*
X142476900Y-120664000D01*
X147727200Y-110368900D02*
X147727200Y-115413700D01*
X144410000Y-107051700D02*
X147727200Y-110368900D01*
%TO.N,Net-(U1-~{OUT0})*%
X168410000Y-105000000D02*
X168410000Y-106801700D01*
X160538300Y-117023700D02*
X160538300Y-117023800D01*
X161604600Y-117023700D02*
X160538300Y-117023700D01*
X166933100Y-111695200D02*
X161604600Y-117023700D01*
X166933100Y-107942300D02*
X166933100Y-111695200D01*
X168073700Y-106801700D02*
X166933100Y-107942300D01*
X168410000Y-106801700D02*
X168073700Y-106801700D01*
%TO.N,Net-(U1-~{OUT5})*%
X107380000Y-126580000D02*
X108681700Y-126580000D01*
X117018300Y-98963100D02*
X135862900Y-80118500D01*
X117018300Y-105474800D02*
X117018300Y-98963100D01*
X109083400Y-113409700D02*
X117018300Y-105474800D01*
X109083400Y-126178300D02*
X109083400Y-113409700D01*
X108681700Y-126580000D02*
X109083400Y-126178300D01*
%TO.N,Net-(U1-LE(ED1))*%
X96750000Y-118960000D02*
X99051700Y-118960000D01*
X107750000Y-94580000D02*
X106448300Y-94580000D01*
X106939000Y-109234900D02*
X106939000Y-109034800D01*
X107976600Y-109234900D02*
X106939000Y-109234900D01*
X108334300Y-108877200D02*
X107976600Y-109234900D01*
X108334300Y-108090000D02*
X108334300Y-108877200D01*
X106448300Y-106204000D02*
X108334300Y-108090000D01*
X106448300Y-94580000D02*
X106448300Y-106204000D01*
X103497300Y-114514400D02*
X99051700Y-118960000D01*
X103497300Y-111152900D02*
X103497300Y-114514400D01*
X105415300Y-109234900D02*
X103497300Y-111152900D01*
X106939000Y-109234900D02*
X105415300Y-109234900D01*
X115000000Y-118960000D02*
X113698300Y-118960000D01*
X112868100Y-118129800D02*
X112868100Y-110476100D01*
X113698300Y-118960000D02*
X112868100Y-118129800D01*
%TO.N,Net-(U1-~{OE}(ED2))*%
X90431700Y-125294900D02*
X90431700Y-118960000D01*
X95558500Y-130421700D02*
X90431700Y-125294900D01*
X98881100Y-130421700D02*
X95558500Y-130421700D01*
X105078300Y-124224500D02*
X98881100Y-130421700D01*
X105078300Y-118960000D02*
X105078300Y-124224500D01*
X89130000Y-118960000D02*
X90431700Y-118960000D01*
X106229200Y-118960000D02*
X107380000Y-118960000D01*
X106229200Y-118960000D02*
X105078300Y-118960000D01*
X108681700Y-113243400D02*
X108681700Y-118960000D01*
X115219900Y-106705200D02*
X108681700Y-113243400D01*
X115219900Y-105670100D02*
X115219900Y-106705200D01*
X116475300Y-104414700D02*
X115219900Y-105670100D01*
X116475300Y-98779300D02*
X116475300Y-104414700D01*
X122116300Y-93138300D02*
X116475300Y-98779300D01*
X122116300Y-93009700D02*
X122116300Y-93138300D01*
X177636900Y-92903300D02*
X172008500Y-87274900D01*
X194649600Y-92903300D02*
X177636900Y-92903300D01*
X199820000Y-98073700D02*
X194649600Y-92903300D01*
X199820000Y-100850000D02*
X199820000Y-98073700D01*
X107380000Y-118960000D02*
X108681700Y-118960000D01*
%TO.N,Net-(U1-~{OUT4})*%
X157978800Y-106801700D02*
X158250000Y-106801700D01*
X156804300Y-107976200D02*
X157978800Y-106801700D01*
X156804300Y-108421100D02*
X156804300Y-107976200D01*
X157438100Y-109054900D02*
X156804300Y-108421100D01*
X158485000Y-109054900D02*
X157438100Y-109054900D01*
X159716900Y-110286800D02*
X158485000Y-109054900D01*
X159716900Y-114512200D02*
X159716900Y-110286800D01*
X159047100Y-115182000D02*
X159716900Y-114512200D01*
X159047100Y-118076900D02*
X159047100Y-115182000D01*
X158250000Y-105000000D02*
X158250000Y-106801700D01*
%TO.N,Net-(U1-~{OUT3})*%
X165870000Y-105000000D02*
X165870000Y-106801700D01*
X163520000Y-114238400D02*
X163327800Y-114430600D01*
X163520000Y-109151700D02*
X163520000Y-114238400D01*
X165870000Y-106801700D02*
X163520000Y-109151700D01*
%TO.N,Net-(U1-~{OUT6})*%
X106463300Y-124040000D02*
X107380000Y-124040000D01*
X105078300Y-125425000D02*
X106463300Y-124040000D01*
X105078300Y-130246800D02*
X105078300Y-125425000D01*
X105308000Y-130476500D02*
X105078300Y-130246800D01*
X117070200Y-130476500D02*
X105308000Y-130476500D01*
X119218800Y-128327900D02*
X117070200Y-130476500D01*
X119218800Y-103103400D02*
X119218800Y-128327900D01*
X121123600Y-101198600D02*
X119218800Y-103103400D01*
X121123600Y-100630600D02*
X121123600Y-101198600D01*
X122516200Y-99238000D02*
X121123600Y-100630600D01*
X123367200Y-99238000D02*
X122516200Y-99238000D01*
X138705000Y-83900200D02*
X123367200Y-99238000D01*
X138705000Y-83018600D02*
X138705000Y-83900200D01*
%TO.N,Net-(U1-CLK)*%
X96750000Y-116420000D02*
X99051700Y-116420000D01*
X107750000Y-92040000D02*
X106448300Y-92040000D01*
X115000000Y-116420000D02*
X113698300Y-116420000D01*
X106046600Y-107527300D02*
X106046800Y-107527500D01*
X106046600Y-92441700D02*
X106046600Y-107527300D01*
X106448300Y-92040000D02*
X106046600Y-92441700D01*
X99051700Y-114522600D02*
X99051700Y-116420000D01*
X106046800Y-107527500D02*
X99051700Y-114522600D01*
X106601300Y-107527500D02*
X106046800Y-107527500D01*
X107706900Y-108633100D02*
X106601300Y-107527500D01*
X113698300Y-109645900D02*
X113910800Y-109433400D01*
X113698300Y-116420000D02*
X113698300Y-109645900D01*
%TO.N,Net-(U1-~{OUT2})*%
X115000000Y-126580000D02*
X117301700Y-126580000D01*
X134921000Y-87116100D02*
X134921000Y-85442000D01*
X123200800Y-98836300D02*
X134921000Y-87116100D01*
X122349900Y-98836300D02*
X123200800Y-98836300D01*
X118522100Y-102664100D02*
X122349900Y-98836300D01*
X118522100Y-125359600D02*
X118522100Y-102664100D01*
X117301700Y-126580000D02*
X118522100Y-125359600D01*
%TO.N,+5V*%
X90431700Y-94356600D02*
X97828300Y-86960000D01*
X90431700Y-111340000D02*
X90431700Y-94356600D01*
X89130000Y-111340000D02*
X90431700Y-111340000D01*
X100130000Y-86960000D02*
X97828300Y-86960000D01*
X163330000Y-105000000D02*
X163330000Y-103198300D01*
X139330000Y-74770000D02*
X139330000Y-105250000D01*
X92841300Y-108930400D02*
X90431700Y-111340000D01*
X97542800Y-108930400D02*
X92841300Y-108930400D01*
X172448300Y-94080000D02*
X163330000Y-103198300D01*
X192500000Y-94080000D02*
X172448300Y-94080000D01*
%TO.N,Net-(U1-~{OUT1})*%
X165870000Y-74520000D02*
X165870000Y-76321700D01*
X136003500Y-115935300D02*
X134302400Y-117636400D01*
X136003500Y-111123100D02*
X136003500Y-115935300D01*
X140532400Y-106594200D02*
X136003500Y-111123100D01*
X140532400Y-102055600D02*
X140532400Y-106594200D01*
X140205800Y-101729000D02*
X140532400Y-102055600D01*
X140205800Y-99737500D02*
X140205800Y-101729000D01*
X163621600Y-76321700D02*
X140205800Y-99737500D01*
X165870000Y-76321700D02*
X163621600Y-76321700D01*
%TO.N,Net-(U4-D27)*%
X202360000Y-100850000D02*
X202360000Y-102151700D01*
X188713300Y-102151700D02*
X202360000Y-102151700D01*
X173000800Y-117864200D02*
X188713300Y-102151700D01*
X170092000Y-117864200D02*
X173000800Y-117864200D01*
X160829200Y-127127000D02*
X170092000Y-117864200D01*
X160829200Y-128121000D02*
X160829200Y-127127000D01*
X156529400Y-132420800D02*
X160829200Y-128121000D01*
X138129100Y-132420800D02*
X156529400Y-132420800D01*
X134887000Y-129178700D02*
X138129100Y-132420800D01*
X126558700Y-129178700D02*
X134887000Y-129178700D01*
X125000000Y-127620000D02*
X126558700Y-129178700D01*
%TO.N,Net-(U4-D12)*%
X207440000Y-100850000D02*
X207440000Y-102151700D01*
X205567000Y-104024700D02*
X207440000Y-102151700D01*
X193153000Y-104024700D02*
X205567000Y-104024700D01*
X164304000Y-132873700D02*
X193153000Y-104024700D01*
X134063700Y-132873700D02*
X164304000Y-132873700D01*
X132190000Y-131000000D02*
X134063700Y-132873700D01*
%TO.N,+3.3V*%
X209240000Y-138099100D02*
X209240000Y-137597400D01*
X209240000Y-139000000D02*
X209240000Y-138099100D01*
X209240000Y-137597400D02*
X209240000Y-137198300D01*
X215060000Y-131378300D02*
X215060000Y-126250000D01*
X209240000Y-137198300D02*
X215060000Y-131378300D01*
X108500000Y-139000000D02*
X108500000Y-137198300D01*
X157750000Y-99750000D02*
X157750000Y-101551700D01*
X113742500Y-131955800D02*
X108500000Y-137198300D01*
X116234500Y-131955800D02*
X113742500Y-131955800D01*
X120374500Y-127815800D02*
X116234500Y-131955800D01*
X120374500Y-127815700D02*
X120374500Y-127815800D01*
X120340900Y-127782100D02*
X120374500Y-127815700D01*
X120340900Y-102834200D02*
X120340900Y-127782100D01*
X120898300Y-102276800D02*
X120340900Y-102834200D01*
X159684600Y-101551700D02*
X157750000Y-101551700D01*
X161978700Y-103845800D02*
X159684600Y-101551700D01*
X161978700Y-106298000D02*
X161978700Y-103845800D01*
X160318700Y-107958000D02*
X161978700Y-106298000D01*
X160318700Y-114678300D02*
X160318700Y-107958000D01*
X159917000Y-115080000D02*
X160318700Y-114678300D01*
X159917000Y-118268000D02*
X159917000Y-115080000D01*
X163374000Y-121725000D02*
X159917000Y-118268000D01*
%TO.N,Net-(U2-R-EXT)*%
X122810000Y-94650000D02*
X122810000Y-95651700D01*
X117667300Y-100794400D02*
X117667300Y-106883800D01*
X122810000Y-95651700D02*
X117667300Y-100794400D01*
%TO.N,Net-(U1-R-EXT)*%
X122810000Y-91500000D02*
X122810000Y-92501700D01*
X113739200Y-107520800D02*
X107380000Y-113880000D01*
X113739200Y-100947400D02*
X113739200Y-107520800D01*
X121514600Y-93172000D02*
X113739200Y-100947400D01*
X121514600Y-92760600D02*
X121514600Y-93172000D01*
X121867200Y-92408000D02*
X121514600Y-92760600D01*
X122365500Y-92408000D02*
X121867200Y-92408000D01*
X122459200Y-92501700D02*
X122365500Y-92408000D01*
X122810000Y-92501700D02*
X122459200Y-92501700D01*
%TO.N,+12V*%
X195728300Y-89000000D02*
X202098300Y-95370000D01*
X192500000Y-89000000D02*
X195728300Y-89000000D01*
X203250000Y-95370000D02*
X202098300Y-95370000D01*
%TO.N,Net-(D13-A)*%
X125000000Y-120000000D02*
X126001700Y-120000000D01*
X126001700Y-120523600D02*
X128808400Y-123330300D01*
X126001700Y-120000000D02*
X126001700Y-120523600D01*
%TO.N,Net-(D12-A)*%
X128000000Y-120000000D02*
X128000000Y-121001700D01*
X158290000Y-123750000D02*
X157113300Y-123750000D01*
X139013800Y-132015500D02*
X128000000Y-121001700D01*
X149819200Y-132015500D02*
X139013800Y-132015500D01*
X157113300Y-124721400D02*
X149819200Y-132015500D01*
X157113300Y-123750000D02*
X157113300Y-124721400D01*
%TO.N,Net-(D11-A)*%
X145573300Y-124926700D02*
X140929200Y-129570800D01*
X145573300Y-123750000D02*
X145573300Y-124926700D01*
X146750000Y-123750000D02*
X145573300Y-123750000D01*
%TO.N,Net-(D10-A)*%
X139810000Y-124000800D02*
X139810000Y-131000000D01*
X129466700Y-113657500D02*
X139810000Y-124000800D01*
X129466700Y-112909200D02*
X129466700Y-113657500D01*
%TO.N,Net-(D9-A)*%
X133113300Y-110526500D02*
X133113300Y-111500000D01*
X126686800Y-104100000D02*
X133113300Y-110526500D01*
X122810000Y-104100000D02*
X126686800Y-104100000D01*
X134290000Y-111500000D02*
X133113300Y-111500000D01*
%TO.N,Net-(D7-A)*%
X122810000Y-100950000D02*
X122810000Y-101951700D01*
X135750000Y-123750000D02*
X134573300Y-123750000D01*
X122810000Y-102519700D02*
X122810000Y-101951700D01*
X121790200Y-103539500D02*
X122810000Y-102519700D01*
X121790200Y-105070900D02*
X121790200Y-103539500D01*
X121946000Y-105226700D02*
X121790200Y-105070900D01*
X121946000Y-109998100D02*
X121946000Y-105226700D01*
X127841600Y-115893700D02*
X121946000Y-109998100D01*
X127869000Y-115893700D02*
X127841600Y-115893700D01*
X134573300Y-122598000D02*
X127869000Y-115893700D01*
X134573300Y-123750000D02*
X134573300Y-122598000D01*
%TO.N,Net-(D6-A)*%
X176790000Y-111500000D02*
X176790000Y-109698300D01*
X175506100Y-109698300D02*
X168554700Y-102746900D01*
X176790000Y-109698300D02*
X175506100Y-109698300D01*
%TO.N,Net-(D5-A)*%
X169613300Y-110269900D02*
X167534800Y-108191400D01*
X169613300Y-111500000D02*
X169613300Y-110269900D01*
X170790000Y-111500000D02*
X169613300Y-111500000D01*
%TO.N,Net-(D4-A)*%
X121344300Y-110219900D02*
X127619800Y-116495400D01*
X121344300Y-105475900D02*
X121344300Y-110219900D01*
X110601400Y-104740000D02*
X111326400Y-105465000D01*
X107750000Y-104740000D02*
X110601400Y-104740000D01*
%TO.N,Net-(D3-A)*%
X110051700Y-100454500D02*
X113847000Y-96659200D01*
X110051700Y-102200000D02*
X110051700Y-100454500D01*
X158540000Y-111500000D02*
X158540000Y-109698300D01*
X107750000Y-102200000D02*
X110051700Y-102200000D01*
X157513400Y-109698300D02*
X158540000Y-109698300D01*
X153940000Y-106124900D02*
X157513400Y-109698300D01*
X153940000Y-98712000D02*
X153940000Y-106124900D01*
X152774500Y-97546500D02*
X153940000Y-98712000D01*
X144578700Y-97546500D02*
X152774500Y-97546500D01*
%TO.N,Net-(D2-A)*%
X110051700Y-99245100D02*
X112525500Y-96771300D01*
X110051700Y-99660000D02*
X110051700Y-99245100D01*
X146201100Y-103359400D02*
X152540000Y-109698300D01*
X143642400Y-103359400D02*
X146201100Y-103359400D01*
X140807500Y-100524500D02*
X143642400Y-103359400D01*
X152540000Y-111500000D02*
X152540000Y-109698300D01*
X107750000Y-99660000D02*
X110051700Y-99660000D01*
%TO.N,Net-(D1-A)*%
X146540000Y-111500000D02*
X145363300Y-111500000D01*
X143140000Y-103782900D02*
X140809700Y-101452600D01*
X143140000Y-108100000D02*
X143140000Y-103782900D01*
X145363300Y-110323300D02*
X143140000Y-108100000D01*
X145363300Y-111500000D02*
X145363300Y-110323300D01*
%TD*%
%TA.AperFunction,Conductor*%
%TO.N,GND*%
G36*
X175392539Y-67570185D02*
G01*
X175438294Y-67622989D01*
X175449500Y-67674500D01*
X175449500Y-76927525D01*
X175449500Y-77072475D01*
X175477563Y-77177206D01*
X175487017Y-77212488D01*
X175559488Y-77338011D01*
X175559490Y-77338013D01*
X175559491Y-77338015D01*
X175661985Y-77440509D01*
X175661986Y-77440510D01*
X175661988Y-77440511D01*
X175787511Y-77512982D01*
X175787512Y-77512982D01*
X175787515Y-77512984D01*
X175927525Y-77550500D01*
X217325500Y-77550500D01*
X217392539Y-77570185D01*
X217438294Y-77622989D01*
X217449500Y-77674500D01*
X217449500Y-96927525D01*
X217449500Y-97072475D01*
X217479720Y-97185256D01*
X217487017Y-97212488D01*
X217559488Y-97338011D01*
X217559490Y-97338013D01*
X217559491Y-97338015D01*
X217661985Y-97440509D01*
X217661986Y-97440510D01*
X217661988Y-97440511D01*
X217787511Y-97512982D01*
X217787512Y-97512982D01*
X217787515Y-97512984D01*
X217927525Y-97550500D01*
X226325500Y-97550500D01*
X226392539Y-97570185D01*
X226438294Y-97622989D01*
X226449500Y-97674500D01*
X226449500Y-142325500D01*
X226429815Y-142392539D01*
X226377011Y-142438294D01*
X226325500Y-142449500D01*
X189674500Y-142449500D01*
X189607461Y-142429815D01*
X189561706Y-142377011D01*
X189550500Y-142325500D01*
X189550500Y-133927527D01*
X189550500Y-133927525D01*
X189512984Y-133787515D01*
X189440509Y-133661985D01*
X189338015Y-133559491D01*
X189338013Y-133559490D01*
X189338011Y-133559488D01*
X189212488Y-133487017D01*
X189212489Y-133487017D01*
X189201006Y-133483940D01*
X189072475Y-133449500D01*
X189072472Y-133449500D01*
X179119212Y-133449500D01*
X179052173Y-133429815D01*
X179006418Y-133377011D01*
X178995992Y-133311617D01*
X178999565Y-133279904D01*
X178999565Y-133279896D01*
X178979369Y-133100650D01*
X178979368Y-133100645D01*
X178919789Y-132930378D01*
X178823816Y-132777638D01*
X178823814Y-132777636D01*
X178823813Y-132777634D01*
X178821550Y-132774796D01*
X178820659Y-132772615D01*
X178820111Y-132771742D01*
X178820264Y-132771645D01*
X178795144Y-132710109D01*
X178794500Y-132697487D01*
X178794500Y-129006897D01*
X178814185Y-128939858D01*
X178830819Y-128919216D01*
X178837066Y-128912969D01*
X178898389Y-128879484D01*
X178968081Y-128884468D01*
X179011694Y-128916707D01*
X179013733Y-128914669D01*
X179019480Y-128920416D01*
X179131284Y-129032220D01*
X179131286Y-129032221D01*
X179131290Y-129032224D01*
X179241123Y-129095635D01*
X179268216Y-129111277D01*
X179420943Y-129152200D01*
X179579057Y-129152200D01*
X185602003Y-129152200D01*
X185669042Y-129171885D01*
X185689684Y-129188519D01*
X193437062Y-136935897D01*
X193470547Y-136997220D01*
X193465563Y-137066912D01*
X193423691Y-137122845D01*
X193405676Y-137134063D01*
X193279080Y-137198567D01*
X193204916Y-137252451D01*
X193103922Y-137325828D01*
X193103920Y-137325830D01*
X193103919Y-137325830D01*
X192950830Y-137478919D01*
X192950830Y-137478920D01*
X192950828Y-137478922D01*
X192896174Y-137554145D01*
X192823567Y-137654080D01*
X192725273Y-137846990D01*
X192725272Y-137846993D01*
X192658370Y-138052901D01*
X192624500Y-138266746D01*
X192624500Y-139733253D01*
X192658370Y-139947098D01*
X192725272Y-140153006D01*
X192725273Y-140153009D01*
X192806345Y-140312120D01*
X192823567Y-140345919D01*
X192950828Y-140521078D01*
X193103922Y-140674172D01*
X193279081Y-140801433D01*
X193344732Y-140834884D01*
X193471990Y-140899726D01*
X193471993Y-140899727D01*
X193513694Y-140913276D01*
X193677903Y-140966630D01*
X193891746Y-141000500D01*
X193891747Y-141000500D01*
X194108253Y-141000500D01*
X194108254Y-141000500D01*
X194322097Y-140966630D01*
X194528009Y-140899726D01*
X194720919Y-140801433D01*
X194896078Y-140674172D01*
X194896085Y-140674164D01*
X194897404Y-140673039D01*
X194898010Y-140672767D01*
X194900019Y-140671308D01*
X194900325Y-140671729D01*
X194961166Y-140644470D01*
X195030252Y-140654908D01*
X195065615Y-140679650D01*
X195552039Y-141166074D01*
X195552049Y-141166085D01*
X195556379Y-141170415D01*
X195556380Y-141170416D01*
X195668184Y-141282220D01*
X195668186Y-141282221D01*
X195668190Y-141282224D01*
X195786690Y-141350639D01*
X195805116Y-141361277D01*
X195916919Y-141391234D01*
X195957842Y-141402200D01*
X195957843Y-141402200D01*
X195957844Y-141402200D01*
X201699055Y-141402200D01*
X201699057Y-141402200D01*
X201851784Y-141361277D01*
X201988716Y-141282220D01*
X202100520Y-141170416D01*
X202179577Y-141033484D01*
X202211787Y-140913274D01*
X202248151Y-140853615D01*
X202275267Y-140834884D01*
X202340917Y-140801434D01*
X202340916Y-140801434D01*
X202340919Y-140801433D01*
X202516078Y-140674172D01*
X202669172Y-140521078D01*
X202789683Y-140355208D01*
X202845012Y-140312545D01*
X202914625Y-140306566D01*
X202976420Y-140339172D01*
X202990313Y-140355205D01*
X203110828Y-140521078D01*
X203263922Y-140674172D01*
X203439081Y-140801433D01*
X203504732Y-140834884D01*
X203631990Y-140899726D01*
X203631993Y-140899727D01*
X203673694Y-140913276D01*
X203837903Y-140966630D01*
X204051746Y-141000500D01*
X204051747Y-141000500D01*
X204268253Y-141000500D01*
X204268254Y-141000500D01*
X204482097Y-140966630D01*
X204688009Y-140899726D01*
X204880919Y-140801433D01*
X205056078Y-140674172D01*
X205209172Y-140521078D01*
X205329991Y-140354784D01*
X205385320Y-140312120D01*
X205454933Y-140306141D01*
X205516728Y-140338747D01*
X205530626Y-140354785D01*
X205651211Y-140520754D01*
X205651211Y-140520755D01*
X205804244Y-140673788D01*
X205979342Y-140801005D01*
X206172182Y-140899263D01*
X206172185Y-140899264D01*
X206378017Y-140966142D01*
X206450000Y-140977543D01*
X206450000Y-139288816D01*
X206466060Y-139304876D01*
X206552939Y-139355036D01*
X206649840Y-139381000D01*
X206750160Y-139381000D01*
X206847061Y-139355036D01*
X206933940Y-139304876D01*
X206950000Y-139288816D01*
X206950000Y-140977542D01*
X207021980Y-140966142D01*
X207021983Y-140966142D01*
X207227814Y-140899264D01*
X207227817Y-140899263D01*
X207420657Y-140801005D01*
X207595754Y-140673788D01*
X207595755Y-140673788D01*
X207748788Y-140520755D01*
X207748793Y-140520749D01*
X207869373Y-140354786D01*
X207924703Y-140312120D01*
X207994316Y-140306141D01*
X208056111Y-140338747D01*
X208070006Y-140354781D01*
X208190828Y-140521078D01*
X208343922Y-140674172D01*
X208519081Y-140801433D01*
X208584732Y-140834884D01*
X208711990Y-140899726D01*
X208711993Y-140899727D01*
X208753694Y-140913276D01*
X208917903Y-140966630D01*
X209131746Y-141000500D01*
X209131747Y-141000500D01*
X209348253Y-141000500D01*
X209348254Y-141000500D01*
X209562097Y-140966630D01*
X209768009Y-140899726D01*
X209960919Y-140801433D01*
X210136078Y-140674172D01*
X210289172Y-140521078D01*
X210416433Y-140345919D01*
X210514726Y-140153009D01*
X210581630Y-139947097D01*
X210615500Y-139733254D01*
X210615500Y-138266746D01*
X210581630Y-138052903D01*
X210548167Y-137949914D01*
X210514727Y-137846993D01*
X210514726Y-137846990D01*
X210433437Y-137687454D01*
X210416433Y-137654081D01*
X210289172Y-137478922D01*
X210136573Y-137326323D01*
X210103088Y-137265000D01*
X210108072Y-137195308D01*
X210136573Y-137150961D01*
X212744800Y-134542734D01*
X214402721Y-132884813D01*
X216099500Y-132884813D01*
X216129686Y-133152719D01*
X216129687Y-133152728D01*
X216129688Y-133152732D01*
X216144687Y-133218446D01*
X216189684Y-133415594D01*
X216189687Y-133415602D01*
X216278734Y-133670082D01*
X216395714Y-133912994D01*
X216404846Y-133927527D01*
X216539162Y-134141289D01*
X216707266Y-134352085D01*
X216897915Y-134542734D01*
X217108711Y-134710838D01*
X217337003Y-134854284D01*
X217579921Y-134971267D01*
X217771049Y-135038145D01*
X217834397Y-135060312D01*
X217834405Y-135060315D01*
X217834408Y-135060315D01*
X217834409Y-135060316D01*
X218097268Y-135120312D01*
X218365187Y-135150499D01*
X218365188Y-135150500D01*
X218365191Y-135150500D01*
X218634812Y-135150500D01*
X218634812Y-135150499D01*
X218902732Y-135120312D01*
X219165591Y-135060316D01*
X219420079Y-134971267D01*
X219662997Y-134854284D01*
X219891289Y-134710838D01*
X220102085Y-134542734D01*
X220292734Y-134352085D01*
X220460838Y-134141289D01*
X220604284Y-133912997D01*
X220721267Y-133670079D01*
X220810316Y-133415591D01*
X220870312Y-133152732D01*
X220900500Y-132884809D01*
X220900500Y-132615191D01*
X220870312Y-132347268D01*
X220810316Y-132084409D01*
X220802306Y-132061519D01*
X220734950Y-131869026D01*
X220721267Y-131829921D01*
X220604284Y-131587003D01*
X220460838Y-131358711D01*
X220292734Y-131147915D01*
X220102085Y-130957266D01*
X220095910Y-130952342D01*
X220033058Y-130902219D01*
X219891289Y-130789162D01*
X219662997Y-130645716D01*
X219662994Y-130645714D01*
X219420082Y-130528734D01*
X219165602Y-130439687D01*
X219165594Y-130439684D01*
X218967566Y-130394486D01*
X218902732Y-130379688D01*
X218902728Y-130379687D01*
X218902719Y-130379686D01*
X218634813Y-130349500D01*
X218634809Y-130349500D01*
X218365191Y-130349500D01*
X218365186Y-130349500D01*
X218097280Y-130379686D01*
X218097268Y-130379688D01*
X217834405Y-130439684D01*
X217834397Y-130439687D01*
X217579917Y-130528734D01*
X217337005Y-130645714D01*
X217108712Y-130789161D01*
X216897915Y-130957265D01*
X216707265Y-131147915D01*
X216539161Y-131358712D01*
X216395714Y-131587005D01*
X216278734Y-131829917D01*
X216189687Y-132084397D01*
X216189684Y-132084405D01*
X216129688Y-132347268D01*
X216129686Y-132347280D01*
X216099500Y-132615186D01*
X216099500Y-132884813D01*
X214402721Y-132884813D01*
X215428713Y-131858821D01*
X215428716Y-131858820D01*
X215540520Y-131747016D01*
X215590639Y-131660204D01*
X215619577Y-131610085D01*
X215660501Y-131457357D01*
X215660501Y-131299243D01*
X215660501Y-131291648D01*
X215660500Y-131291630D01*
X215660500Y-128874499D01*
X215680185Y-128807460D01*
X215732989Y-128761705D01*
X215784500Y-128750499D01*
X215957871Y-128750499D01*
X215957872Y-128750499D01*
X216017483Y-128744091D01*
X216152331Y-128693796D01*
X216267546Y-128607546D01*
X216353796Y-128492331D01*
X216404091Y-128357483D01*
X216410500Y-128297873D01*
X216410499Y-125202128D01*
X216404091Y-125142517D01*
X216398132Y-125126541D01*
X216353797Y-125007671D01*
X216353793Y-125007664D01*
X216267547Y-124892455D01*
X216267544Y-124892452D01*
X216152335Y-124806206D01*
X216152328Y-124806202D01*
X216017482Y-124755908D01*
X216017483Y-124755908D01*
X215957883Y-124749501D01*
X215957881Y-124749500D01*
X215957873Y-124749500D01*
X215957864Y-124749500D01*
X214162129Y-124749500D01*
X214162123Y-124749501D01*
X214102516Y-124755908D01*
X213967671Y-124806202D01*
X213967669Y-124806204D01*
X213863894Y-124883890D01*
X213798430Y-124908307D01*
X213730157Y-124893456D01*
X213715272Y-124883890D01*
X213612088Y-124806646D01*
X213612086Y-124806645D01*
X213477379Y-124756403D01*
X213477372Y-124756401D01*
X213417844Y-124750000D01*
X212770000Y-124750000D01*
X212770000Y-125961184D01*
X212753940Y-125945124D01*
X212667061Y-125894964D01*
X212570160Y-125869000D01*
X212469840Y-125869000D01*
X212372939Y-125894964D01*
X212286060Y-125945124D01*
X212270000Y-125961184D01*
X212270000Y-124750000D01*
X211622155Y-124750000D01*
X211562627Y-124756401D01*
X211562620Y-124756403D01*
X211427913Y-124806645D01*
X211427910Y-124806647D01*
X211324727Y-124883890D01*
X211259262Y-124908307D01*
X211190989Y-124893455D01*
X211176105Y-124883889D01*
X211072335Y-124806206D01*
X211072328Y-124806202D01*
X210937482Y-124755908D01*
X210937483Y-124755908D01*
X210877883Y-124749501D01*
X210877881Y-124749500D01*
X210877873Y-124749500D01*
X210877864Y-124749500D01*
X209082129Y-124749500D01*
X209082123Y-124749501D01*
X209022516Y-124755908D01*
X208887671Y-124806202D01*
X208887669Y-124806203D01*
X208784311Y-124883578D01*
X208718847Y-124907995D01*
X208650574Y-124893144D01*
X208635689Y-124883578D01*
X208532330Y-124806203D01*
X208532328Y-124806202D01*
X208397482Y-124755908D01*
X208397483Y-124755908D01*
X208337883Y-124749501D01*
X208337881Y-124749500D01*
X208337873Y-124749500D01*
X208337864Y-124749500D01*
X206542129Y-124749500D01*
X206542123Y-124749501D01*
X206482516Y-124755908D01*
X206347671Y-124806202D01*
X206347669Y-124806203D01*
X206244311Y-124883578D01*
X206178847Y-124907995D01*
X206110574Y-124893144D01*
X206095689Y-124883578D01*
X205992330Y-124806203D01*
X205992328Y-124806202D01*
X205857482Y-124755908D01*
X205857483Y-124755908D01*
X205797883Y-124749501D01*
X205797881Y-124749500D01*
X205797873Y-124749500D01*
X205797864Y-124749500D01*
X204002129Y-124749500D01*
X204002123Y-124749501D01*
X203942516Y-124755908D01*
X203807671Y-124806202D01*
X203807669Y-124806203D01*
X203704311Y-124883578D01*
X203638847Y-124907995D01*
X203570574Y-124893144D01*
X203555689Y-124883578D01*
X203452330Y-124806203D01*
X203452328Y-124806202D01*
X203317482Y-124755908D01*
X203317483Y-124755908D01*
X203257883Y-124749501D01*
X203257881Y-124749500D01*
X203257873Y-124749500D01*
X203257864Y-124749500D01*
X201462129Y-124749500D01*
X201462123Y-124749501D01*
X201402516Y-124755908D01*
X201267671Y-124806202D01*
X201267669Y-124806203D01*
X201164311Y-124883578D01*
X201098847Y-124907995D01*
X201030574Y-124893144D01*
X201015689Y-124883578D01*
X200912330Y-124806203D01*
X200912328Y-124806202D01*
X200777482Y-124755908D01*
X200777483Y-124755908D01*
X200717883Y-124749501D01*
X200717881Y-124749500D01*
X200717873Y-124749500D01*
X200717864Y-124749500D01*
X198922129Y-124749500D01*
X198922123Y-124749501D01*
X198862516Y-124755908D01*
X198727671Y-124806202D01*
X198727669Y-124806203D01*
X198624311Y-124883578D01*
X198558847Y-124907995D01*
X198490574Y-124893144D01*
X198475689Y-124883578D01*
X198372330Y-124806203D01*
X198372328Y-124806202D01*
X198237482Y-124755908D01*
X198237483Y-124755908D01*
X198177883Y-124749501D01*
X198177881Y-124749500D01*
X198177873Y-124749500D01*
X198177864Y-124749500D01*
X196382129Y-124749500D01*
X196382123Y-124749501D01*
X196322516Y-124755908D01*
X196187671Y-124806202D01*
X196187669Y-124806203D01*
X196084311Y-124883578D01*
X196018847Y-124907995D01*
X195950574Y-124893144D01*
X195935689Y-124883578D01*
X195832330Y-124806203D01*
X195832328Y-124806202D01*
X195697482Y-124755908D01*
X195697483Y-124755908D01*
X195637883Y-124749501D01*
X195637881Y-124749500D01*
X195637873Y-124749500D01*
X195637864Y-124749500D01*
X193842129Y-124749500D01*
X193842123Y-124749501D01*
X193782516Y-124755908D01*
X193647671Y-124806202D01*
X193647669Y-124806203D01*
X193544311Y-124883578D01*
X193478847Y-124907995D01*
X193410574Y-124893144D01*
X193395689Y-124883578D01*
X193292330Y-124806203D01*
X193292328Y-124806202D01*
X193157482Y-124755908D01*
X193157483Y-124755908D01*
X193097883Y-124749501D01*
X193097881Y-124749500D01*
X193097873Y-124749500D01*
X193097864Y-124749500D01*
X191302129Y-124749500D01*
X191302123Y-124749501D01*
X191242516Y-124755908D01*
X191107671Y-124806202D01*
X191107669Y-124806203D01*
X191004311Y-124883578D01*
X190938847Y-124907995D01*
X190870574Y-124893144D01*
X190855689Y-124883578D01*
X190752330Y-124806203D01*
X190752328Y-124806202D01*
X190617482Y-124755908D01*
X190617483Y-124755908D01*
X190557883Y-124749501D01*
X190557881Y-124749500D01*
X190557873Y-124749500D01*
X190557864Y-124749500D01*
X188762129Y-124749500D01*
X188762123Y-124749501D01*
X188702516Y-124755908D01*
X188567671Y-124806202D01*
X188567669Y-124806203D01*
X188464311Y-124883578D01*
X188398847Y-124907995D01*
X188330574Y-124893144D01*
X188315689Y-124883578D01*
X188212330Y-124806203D01*
X188212328Y-124806202D01*
X188077482Y-124755908D01*
X188077483Y-124755908D01*
X188017883Y-124749501D01*
X188017881Y-124749500D01*
X188017873Y-124749500D01*
X188017864Y-124749500D01*
X186222129Y-124749500D01*
X186222123Y-124749501D01*
X186162516Y-124755908D01*
X186027671Y-124806202D01*
X186027669Y-124806203D01*
X185924311Y-124883578D01*
X185858847Y-124907995D01*
X185790574Y-124893144D01*
X185775689Y-124883578D01*
X185672330Y-124806203D01*
X185672328Y-124806202D01*
X185537482Y-124755908D01*
X185537483Y-124755908D01*
X185477883Y-124749501D01*
X185477881Y-124749500D01*
X185477873Y-124749500D01*
X185477864Y-124749500D01*
X183682129Y-124749500D01*
X183682123Y-124749501D01*
X183622516Y-124755908D01*
X183487671Y-124806202D01*
X183487669Y-124806203D01*
X183384311Y-124883578D01*
X183318847Y-124907995D01*
X183250574Y-124893144D01*
X183235689Y-124883578D01*
X183132330Y-124806203D01*
X183132328Y-124806202D01*
X182997482Y-124755908D01*
X182997483Y-124755908D01*
X182937883Y-124749501D01*
X182937881Y-124749500D01*
X182937873Y-124749500D01*
X182937864Y-124749500D01*
X181142129Y-124749500D01*
X181142123Y-124749501D01*
X181082516Y-124755908D01*
X180947671Y-124806202D01*
X180947669Y-124806203D01*
X180844311Y-124883578D01*
X180778847Y-124907995D01*
X180710574Y-124893144D01*
X180695689Y-124883578D01*
X180592330Y-124806203D01*
X180592328Y-124806202D01*
X180457482Y-124755908D01*
X180457483Y-124755908D01*
X180397883Y-124749501D01*
X180397881Y-124749500D01*
X180397873Y-124749500D01*
X180397864Y-124749500D01*
X178602129Y-124749500D01*
X178602123Y-124749501D01*
X178542516Y-124755908D01*
X178407671Y-124806202D01*
X178407664Y-124806206D01*
X178292455Y-124892452D01*
X178292452Y-124892455D01*
X178206206Y-125007664D01*
X178206202Y-125007671D01*
X178155908Y-125142517D01*
X178149501Y-125202116D01*
X178149501Y-125202123D01*
X178149500Y-125202135D01*
X178149500Y-127850702D01*
X178129815Y-127917741D01*
X178113181Y-127938383D01*
X177713481Y-128338082D01*
X177713479Y-128338085D01*
X177673718Y-128406955D01*
X177673717Y-128406956D01*
X177634423Y-128475015D01*
X177593499Y-128627743D01*
X177593499Y-128627745D01*
X177593499Y-128795846D01*
X177593500Y-128795859D01*
X177593500Y-132697487D01*
X177573815Y-132764526D01*
X177566450Y-132774796D01*
X177564186Y-132777634D01*
X177468211Y-132930376D01*
X177408631Y-133100645D01*
X177408630Y-133100650D01*
X177388435Y-133279896D01*
X177388435Y-133279904D01*
X177392008Y-133311617D01*
X177379953Y-133380439D01*
X177332604Y-133431818D01*
X177268788Y-133449500D01*
X164876798Y-133449500D01*
X164809759Y-133429815D01*
X164764004Y-133377011D01*
X164754060Y-133307853D01*
X164773444Y-133265405D01*
X164771501Y-133264434D01*
X164771504Y-133264428D01*
X164778020Y-133255387D01*
X164783085Y-133244297D01*
X164789117Y-133237819D01*
X164794724Y-133232211D01*
X164794727Y-133232206D01*
X193365416Y-104661519D01*
X193426739Y-104628034D01*
X193453097Y-104625200D01*
X205480331Y-104625200D01*
X205480347Y-104625201D01*
X205487943Y-104625201D01*
X205646054Y-104625201D01*
X205646057Y-104625201D01*
X205798785Y-104584277D01*
X205860231Y-104548801D01*
X205935716Y-104505220D01*
X206047520Y-104393416D01*
X206047520Y-104393414D01*
X206057724Y-104383211D01*
X206057728Y-104383206D01*
X207798506Y-102642428D01*
X207798511Y-102642424D01*
X207808714Y-102632220D01*
X207808716Y-102632220D01*
X207920520Y-102520416D01*
X207970962Y-102433048D01*
X207976003Y-102424317D01*
X207976005Y-102424313D01*
X207982828Y-102412496D01*
X208033396Y-102364282D01*
X208090213Y-102350499D01*
X208337871Y-102350499D01*
X208337872Y-102350499D01*
X208397483Y-102344091D01*
X208532331Y-102293796D01*
X208635690Y-102216421D01*
X208701152Y-102192004D01*
X208769425Y-102206855D01*
X208784303Y-102216416D01*
X208887076Y-102293352D01*
X208887668Y-102293795D01*
X208887671Y-102293797D01*
X209022517Y-102344091D01*
X209022516Y-102344091D01*
X209029444Y-102344835D01*
X209082127Y-102350500D01*
X210877872Y-102350499D01*
X210937483Y-102344091D01*
X211072331Y-102293796D01*
X211176106Y-102216109D01*
X211241570Y-102191692D01*
X211309843Y-102206543D01*
X211324729Y-102216110D01*
X211427910Y-102293352D01*
X211427913Y-102293354D01*
X211562620Y-102343596D01*
X211562627Y-102343598D01*
X211622155Y-102349999D01*
X211622172Y-102350000D01*
X212270000Y-102350000D01*
X212270000Y-101138816D01*
X212286060Y-101154876D01*
X212372939Y-101205036D01*
X212469840Y-101231000D01*
X212570160Y-101231000D01*
X212667061Y-101205036D01*
X212753940Y-101154876D01*
X212770000Y-101138816D01*
X212770000Y-102350000D01*
X213417828Y-102350000D01*
X213417844Y-102349999D01*
X213477372Y-102343598D01*
X213477379Y-102343596D01*
X213612086Y-102293354D01*
X213612089Y-102293352D01*
X213715271Y-102216110D01*
X213780735Y-102191692D01*
X213849008Y-102206543D01*
X213863888Y-102216105D01*
X213967076Y-102293352D01*
X213967668Y-102293795D01*
X213967671Y-102293797D01*
X214102517Y-102344091D01*
X214102516Y-102344091D01*
X214109444Y-102344835D01*
X214162127Y-102350500D01*
X215957872Y-102350499D01*
X216017483Y-102344091D01*
X216152331Y-102293796D01*
X216267546Y-102207546D01*
X216353796Y-102092331D01*
X216404091Y-101957483D01*
X216410500Y-101897873D01*
X216410499Y-98802128D01*
X216404091Y-98742517D01*
X216355459Y-98612129D01*
X216353797Y-98607671D01*
X216353793Y-98607664D01*
X216267547Y-98492455D01*
X216267544Y-98492452D01*
X216152335Y-98406206D01*
X216152328Y-98406202D01*
X216017482Y-98355908D01*
X216017483Y-98355908D01*
X215957883Y-98349501D01*
X215957881Y-98349500D01*
X215957873Y-98349500D01*
X215957864Y-98349500D01*
X214162129Y-98349500D01*
X214162123Y-98349501D01*
X214102516Y-98355908D01*
X213967671Y-98406202D01*
X213967669Y-98406204D01*
X213863894Y-98483890D01*
X213798430Y-98508307D01*
X213730157Y-98493456D01*
X213715272Y-98483890D01*
X213612088Y-98406646D01*
X213612086Y-98406645D01*
X213477379Y-98356403D01*
X213477372Y-98356401D01*
X213417844Y-98350000D01*
X212770000Y-98350000D01*
X212770000Y-100561184D01*
X212753940Y-100545124D01*
X212667061Y-100494964D01*
X212570160Y-100469000D01*
X212469840Y-100469000D01*
X212372939Y-100494964D01*
X212286060Y-100545124D01*
X212270000Y-100561184D01*
X212270000Y-98350000D01*
X211622155Y-98350000D01*
X211562627Y-98356401D01*
X211562620Y-98356403D01*
X211427913Y-98406645D01*
X211427910Y-98406647D01*
X211324727Y-98483890D01*
X211259262Y-98508307D01*
X211190989Y-98493455D01*
X211176105Y-98483889D01*
X211072335Y-98406206D01*
X211072328Y-98406202D01*
X210937482Y-98355908D01*
X210937483Y-98355908D01*
X210877883Y-98349501D01*
X210877881Y-98349500D01*
X210877873Y-98349500D01*
X210877864Y-98349500D01*
X209082129Y-98349500D01*
X209082123Y-98349501D01*
X209022516Y-98355908D01*
X208887671Y-98406202D01*
X208887669Y-98406203D01*
X208784311Y-98483578D01*
X208718847Y-98507995D01*
X208650574Y-98493144D01*
X208635689Y-98483578D01*
X208532330Y-98406203D01*
X208532328Y-98406202D01*
X208397482Y-98355908D01*
X208397483Y-98355908D01*
X208337883Y-98349501D01*
X208337881Y-98349500D01*
X208337873Y-98349500D01*
X208337864Y-98349500D01*
X206542129Y-98349500D01*
X206542123Y-98349501D01*
X206482516Y-98355908D01*
X206347671Y-98406202D01*
X206347669Y-98406203D01*
X206244311Y-98483578D01*
X206178847Y-98507995D01*
X206110574Y-98493144D01*
X206095689Y-98483578D01*
X205992330Y-98406203D01*
X205992328Y-98406202D01*
X205857482Y-98355908D01*
X205857483Y-98355908D01*
X205797883Y-98349501D01*
X205797881Y-98349500D01*
X205797873Y-98349500D01*
X205797864Y-98349500D01*
X204002129Y-98349500D01*
X204002123Y-98349501D01*
X203942516Y-98355908D01*
X203807671Y-98406202D01*
X203807669Y-98406203D01*
X203704311Y-98483578D01*
X203638847Y-98507995D01*
X203570574Y-98493144D01*
X203555689Y-98483578D01*
X203452330Y-98406203D01*
X203452328Y-98406202D01*
X203317482Y-98355908D01*
X203317483Y-98355908D01*
X203257883Y-98349501D01*
X203257881Y-98349500D01*
X203257873Y-98349500D01*
X203257864Y-98349500D01*
X201462129Y-98349500D01*
X201462123Y-98349501D01*
X201402516Y-98355908D01*
X201267671Y-98406202D01*
X201267669Y-98406203D01*
X201164311Y-98483578D01*
X201098847Y-98507995D01*
X201030574Y-98493144D01*
X201015689Y-98483578D01*
X200912330Y-98406203D01*
X200912328Y-98406202D01*
X200777482Y-98355908D01*
X200777483Y-98355908D01*
X200717883Y-98349501D01*
X200717881Y-98349500D01*
X200717873Y-98349500D01*
X200717865Y-98349500D01*
X200544500Y-98349500D01*
X200477461Y-98329815D01*
X200431706Y-98277011D01*
X200420500Y-98225500D01*
X200420500Y-98162760D01*
X200420501Y-98162747D01*
X200420501Y-97994645D01*
X200420501Y-97994643D01*
X200379577Y-97841915D01*
X200300520Y-97704984D01*
X195137189Y-92541654D01*
X195137187Y-92541651D01*
X195137187Y-92541652D01*
X195130120Y-92534585D01*
X195130120Y-92534584D01*
X195036318Y-92440782D01*
X195002834Y-92379458D01*
X195000000Y-92353101D01*
X195000000Y-91790000D01*
X192788816Y-91790000D01*
X192804876Y-91773940D01*
X192855036Y-91687061D01*
X192881000Y-91590160D01*
X192881000Y-91489840D01*
X192855036Y-91392939D01*
X192804876Y-91306060D01*
X192788816Y-91290000D01*
X195000000Y-91290000D01*
X195000000Y-90617172D01*
X194999999Y-90617155D01*
X194993598Y-90557627D01*
X194993596Y-90557620D01*
X194943354Y-90422913D01*
X194943350Y-90422906D01*
X194884825Y-90344727D01*
X194860407Y-90279263D01*
X194875258Y-90210990D01*
X194884815Y-90196118D01*
X194943796Y-90117331D01*
X194994091Y-89982483D01*
X195000500Y-89922873D01*
X195000500Y-89724500D01*
X195020185Y-89657461D01*
X195072989Y-89611706D01*
X195124500Y-89600500D01*
X195428203Y-89600500D01*
X195495242Y-89620185D01*
X195515884Y-89636819D01*
X201613439Y-95734374D01*
X201613449Y-95734385D01*
X201617779Y-95738715D01*
X201617780Y-95738716D01*
X201729584Y-95850520D01*
X201729586Y-95850521D01*
X201729590Y-95850524D01*
X201802502Y-95892619D01*
X201866516Y-95929577D01*
X201978319Y-95959534D01*
X201987009Y-95961862D01*
X202046667Y-95998229D01*
X202067290Y-96029228D01*
X202075963Y-96047828D01*
X202075965Y-96047831D01*
X202173189Y-96186680D01*
X202211505Y-96241401D01*
X202378599Y-96408495D01*
X202417042Y-96435413D01*
X202572165Y-96544032D01*
X202572167Y-96544033D01*
X202572170Y-96544035D01*
X202786337Y-96643903D01*
X203014592Y-96705063D01*
X203193937Y-96720754D01*
X203249999Y-96725659D01*
X203250000Y-96725659D01*
X203250001Y-96725659D01*
X203306063Y-96720754D01*
X203485408Y-96705063D01*
X203713663Y-96643903D01*
X203927830Y-96544035D01*
X204121401Y-96408495D01*
X204288495Y-96241401D01*
X204424035Y-96047830D01*
X204523903Y-95833663D01*
X204585063Y-95605408D01*
X204605659Y-95370000D01*
X204585063Y-95134592D01*
X204523903Y-94906337D01*
X204424035Y-94692171D01*
X204417848Y-94683334D01*
X204288494Y-94498597D01*
X204121402Y-94331506D01*
X204121396Y-94331501D01*
X203935842Y-94201575D01*
X203892217Y-94146998D01*
X203885023Y-94077500D01*
X203916546Y-94015145D01*
X203935842Y-93998425D01*
X203958026Y-93982891D01*
X204121401Y-93868495D01*
X204288495Y-93701401D01*
X204424035Y-93507830D01*
X204523903Y-93293663D01*
X204585063Y-93065408D01*
X204605659Y-92830000D01*
X204585063Y-92594592D01*
X204523903Y-92366337D01*
X204424035Y-92152171D01*
X204412326Y-92135448D01*
X204288494Y-91958597D01*
X204121402Y-91791506D01*
X204121401Y-91791505D01*
X203935405Y-91661269D01*
X203891781Y-91606692D01*
X203884588Y-91537193D01*
X203916110Y-91474839D01*
X203935405Y-91458119D01*
X204121082Y-91328105D01*
X204288105Y-91161082D01*
X204423600Y-90967578D01*
X204523429Y-90753492D01*
X204523432Y-90753486D01*
X204580636Y-90540000D01*
X203683012Y-90540000D01*
X203715925Y-90482993D01*
X203750000Y-90355826D01*
X203750000Y-90224174D01*
X203715925Y-90097007D01*
X203683012Y-90040000D01*
X204580636Y-90040000D01*
X204580635Y-90039999D01*
X204523432Y-89826513D01*
X204523429Y-89826507D01*
X204423600Y-89612422D01*
X204423599Y-89612420D01*
X204288113Y-89418926D01*
X204288108Y-89418920D01*
X204166053Y-89296865D01*
X204132568Y-89235542D01*
X204137552Y-89165850D01*
X204179424Y-89109917D01*
X204210400Y-89093002D01*
X204342331Y-89043796D01*
X204457546Y-88957546D01*
X204543796Y-88842331D01*
X204594091Y-88707483D01*
X204600500Y-88647873D01*
X204600499Y-86852128D01*
X204594091Y-86792517D01*
X204586676Y-86772637D01*
X204543797Y-86657671D01*
X204543793Y-86657664D01*
X204457547Y-86542455D01*
X204457544Y-86542452D01*
X204342335Y-86456206D01*
X204342328Y-86456202D01*
X204207482Y-86405908D01*
X204207483Y-86405908D01*
X204147883Y-86399501D01*
X204147881Y-86399500D01*
X204147873Y-86399500D01*
X204147864Y-86399500D01*
X202352129Y-86399500D01*
X202352123Y-86399501D01*
X202292516Y-86405908D01*
X202157671Y-86456202D01*
X202157664Y-86456206D01*
X202042455Y-86542452D01*
X202042452Y-86542455D01*
X201956206Y-86657664D01*
X201956202Y-86657671D01*
X201905909Y-86792516D01*
X201905908Y-86792516D01*
X201899501Y-86852116D01*
X201899501Y-86852123D01*
X201899500Y-86852135D01*
X201899500Y-88647870D01*
X201899501Y-88647876D01*
X201905908Y-88707483D01*
X201956202Y-88842328D01*
X201956206Y-88842335D01*
X202042452Y-88957544D01*
X202042455Y-88957547D01*
X202157664Y-89043793D01*
X202157671Y-89043797D01*
X202157674Y-89043798D01*
X202289598Y-89093002D01*
X202345531Y-89134873D01*
X202369949Y-89200337D01*
X202355098Y-89268610D01*
X202333947Y-89296865D01*
X202211886Y-89418926D01*
X202076400Y-89612420D01*
X202076399Y-89612422D01*
X201976570Y-89826507D01*
X201976567Y-89826513D01*
X201919364Y-90039999D01*
X201919364Y-90040000D01*
X202816988Y-90040000D01*
X202784075Y-90097007D01*
X202750000Y-90224174D01*
X202750000Y-90355826D01*
X202784075Y-90482993D01*
X202816988Y-90540000D01*
X201919364Y-90540000D01*
X201976567Y-90753486D01*
X201976570Y-90753492D01*
X202076399Y-90967578D01*
X202211894Y-91161082D01*
X202378917Y-91328105D01*
X202564595Y-91458119D01*
X202608219Y-91512696D01*
X202615412Y-91582195D01*
X202583890Y-91644549D01*
X202564595Y-91661269D01*
X202378594Y-91791508D01*
X202211505Y-91958597D01*
X202075965Y-92152169D01*
X202075964Y-92152171D01*
X201976098Y-92366335D01*
X201976094Y-92366344D01*
X201914938Y-92594586D01*
X201914936Y-92594596D01*
X201894341Y-92829999D01*
X201894341Y-92830000D01*
X201914936Y-93065403D01*
X201914938Y-93065413D01*
X201976094Y-93293655D01*
X201976096Y-93293659D01*
X201976097Y-93293663D01*
X202064758Y-93483796D01*
X202075965Y-93507830D01*
X202075967Y-93507834D01*
X202154294Y-93619696D01*
X202202035Y-93687877D01*
X202211501Y-93701395D01*
X202211506Y-93701402D01*
X202378597Y-93868493D01*
X202378603Y-93868498D01*
X202564158Y-93998425D01*
X202607783Y-94053002D01*
X202614977Y-94122500D01*
X202583454Y-94184855D01*
X202564158Y-94201575D01*
X202378597Y-94331505D01*
X202231500Y-94478603D01*
X202170177Y-94512088D01*
X202100485Y-94507104D01*
X202056138Y-94478603D01*
X196215890Y-88638355D01*
X196215888Y-88638352D01*
X196097017Y-88519481D01*
X196097009Y-88519475D01*
X195980359Y-88452128D01*
X195980356Y-88452127D01*
X195960085Y-88440423D01*
X195807357Y-88399499D01*
X195649243Y-88399499D01*
X195641647Y-88399499D01*
X195641631Y-88399500D01*
X195124499Y-88399500D01*
X195057460Y-88379815D01*
X195011705Y-88327011D01*
X195000499Y-88275500D01*
X195000499Y-88077129D01*
X195000498Y-88077123D01*
X195000497Y-88077116D01*
X194994091Y-88017517D01*
X194990483Y-88007844D01*
X194943797Y-87882671D01*
X194943793Y-87882664D01*
X194857547Y-87767455D01*
X194857544Y-87767452D01*
X194742335Y-87681206D01*
X194742328Y-87681202D01*
X194607482Y-87630908D01*
X194607483Y-87630908D01*
X194547883Y-87624501D01*
X194547881Y-87624500D01*
X194547873Y-87624500D01*
X194547864Y-87624500D01*
X190452129Y-87624500D01*
X190452123Y-87624501D01*
X190392516Y-87630908D01*
X190257671Y-87681202D01*
X190257664Y-87681206D01*
X190142455Y-87767452D01*
X190142452Y-87767455D01*
X190056206Y-87882664D01*
X190056202Y-87882671D01*
X190005908Y-88017517D01*
X190000537Y-88067482D01*
X189999501Y-88077123D01*
X189999500Y-88077135D01*
X189999500Y-89922870D01*
X189999501Y-89922876D01*
X190005908Y-89982483D01*
X190056202Y-90117328D01*
X190056204Y-90117331D01*
X190115174Y-90196104D01*
X190139592Y-90261569D01*
X190124741Y-90329842D01*
X190115175Y-90344727D01*
X190056647Y-90422910D01*
X190056645Y-90422913D01*
X190006403Y-90557620D01*
X190006401Y-90557627D01*
X190000000Y-90617155D01*
X190000000Y-91290000D01*
X192211184Y-91290000D01*
X192195124Y-91306060D01*
X192144964Y-91392939D01*
X192119000Y-91489840D01*
X192119000Y-91590160D01*
X192144964Y-91687061D01*
X192195124Y-91773940D01*
X192211184Y-91790000D01*
X190000000Y-91790000D01*
X190000000Y-92178800D01*
X189980315Y-92245839D01*
X189927511Y-92291594D01*
X189876000Y-92302800D01*
X177936998Y-92302800D01*
X177869959Y-92283115D01*
X177849317Y-92266481D01*
X172839200Y-87256365D01*
X172805715Y-87195042D01*
X172803663Y-87182586D01*
X172793868Y-87095645D01*
X172734289Y-86925378D01*
X172638316Y-86772638D01*
X172510762Y-86645084D01*
X172487455Y-86630439D01*
X172358023Y-86549111D01*
X172187754Y-86489531D01*
X172187749Y-86489530D01*
X172008504Y-86469335D01*
X172008496Y-86469335D01*
X171829250Y-86489530D01*
X171829245Y-86489531D01*
X171658976Y-86549111D01*
X171506237Y-86645084D01*
X171378684Y-86772637D01*
X171282711Y-86925376D01*
X171223131Y-87095645D01*
X171223130Y-87095650D01*
X171202935Y-87274896D01*
X171202935Y-87274903D01*
X171223130Y-87454149D01*
X171223131Y-87454154D01*
X171282711Y-87624423D01*
X171372583Y-87767452D01*
X171378684Y-87777162D01*
X171506238Y-87904716D01*
X171658978Y-88000689D01*
X171829245Y-88060268D01*
X171916169Y-88070061D01*
X171980580Y-88097126D01*
X171989965Y-88105600D01*
X177152183Y-93267819D01*
X177185668Y-93329142D01*
X177180684Y-93398834D01*
X177138812Y-93454767D01*
X177073348Y-93479184D01*
X177064502Y-93479500D01*
X172534970Y-93479500D01*
X172534954Y-93479499D01*
X172527358Y-93479499D01*
X172369243Y-93479499D01*
X172297638Y-93498686D01*
X172216514Y-93520423D01*
X172216509Y-93520426D01*
X172079590Y-93599475D01*
X172079582Y-93599481D01*
X162849481Y-102829582D01*
X162849479Y-102829585D01*
X162833445Y-102857358D01*
X162806679Y-102903718D01*
X162770423Y-102966515D01*
X162739850Y-103080613D01*
X162738213Y-103086724D01*
X162701847Y-103146384D01*
X162674734Y-103165114D01*
X162609079Y-103198567D01*
X162446646Y-103316582D01*
X162380840Y-103340062D01*
X162312786Y-103324236D01*
X162286080Y-103303945D01*
X160172190Y-101190055D01*
X160172188Y-101190052D01*
X160053317Y-101071181D01*
X160053309Y-101071175D01*
X159954411Y-101014077D01*
X159954410Y-101014076D01*
X159954410Y-101014077D01*
X159916385Y-100992123D01*
X159763657Y-100951199D01*
X159605543Y-100951199D01*
X159597947Y-100951199D01*
X159597931Y-100951200D01*
X159179739Y-100951200D01*
X159112700Y-100931515D01*
X159066945Y-100878711D01*
X159057001Y-100809553D01*
X159061808Y-100788882D01*
X159088125Y-100707883D01*
X159091630Y-100697097D01*
X159125500Y-100483254D01*
X159125500Y-99016746D01*
X159091630Y-98802903D01*
X159058178Y-98699947D01*
X159024727Y-98596993D01*
X159024726Y-98596990D01*
X158965225Y-98480215D01*
X158926433Y-98404081D01*
X158799172Y-98228922D01*
X158646078Y-98075828D01*
X158470919Y-97948567D01*
X158444479Y-97935095D01*
X158278009Y-97850273D01*
X158278006Y-97850272D01*
X158072098Y-97783370D01*
X157965175Y-97766435D01*
X157858254Y-97749500D01*
X157641746Y-97749500D01*
X157570465Y-97760790D01*
X157427901Y-97783370D01*
X157221993Y-97850272D01*
X157221990Y-97850273D01*
X157029080Y-97948567D01*
X156965663Y-97994643D01*
X156853922Y-98075828D01*
X156853920Y-98075830D01*
X156853919Y-98075830D01*
X156700829Y-98228920D01*
X156580009Y-98395214D01*
X156524678Y-98437879D01*
X156455065Y-98443858D01*
X156393270Y-98411252D01*
X156379373Y-98395214D01*
X156258788Y-98229245D01*
X156258788Y-98229244D01*
X156105755Y-98076211D01*
X155930657Y-97948994D01*
X155737817Y-97850736D01*
X155737814Y-97850735D01*
X155531983Y-97783857D01*
X155460000Y-97772456D01*
X155460000Y-99461184D01*
X155443940Y-99445124D01*
X155357061Y-99394964D01*
X155260160Y-99369000D01*
X155159840Y-99369000D01*
X155062939Y-99394964D01*
X154976060Y-99445124D01*
X154960000Y-99461184D01*
X154960000Y-97772456D01*
X154959999Y-97772456D01*
X154888016Y-97783857D01*
X154888015Y-97783857D01*
X154682185Y-97850735D01*
X154682182Y-97850736D01*
X154489342Y-97948994D01*
X154310306Y-98079073D01*
X154309609Y-98078114D01*
X154250908Y-98104412D01*
X154181823Y-98093970D01*
X154146466Y-98069231D01*
X153262090Y-97184855D01*
X153262088Y-97184852D01*
X153143217Y-97065981D01*
X153143216Y-97065980D01*
X153056404Y-97015860D01*
X153056404Y-97015859D01*
X153056400Y-97015858D01*
X153006285Y-96986923D01*
X152853557Y-96945999D01*
X152695443Y-96945999D01*
X152687847Y-96945999D01*
X152687831Y-96946000D01*
X145161112Y-96946000D01*
X145094073Y-96926315D01*
X145083797Y-96918945D01*
X145080963Y-96916685D01*
X145080962Y-96916684D01*
X145021969Y-96879616D01*
X144928223Y-96820711D01*
X144757954Y-96761131D01*
X144757949Y-96761130D01*
X144578704Y-96740935D01*
X144578696Y-96740935D01*
X144399450Y-96761130D01*
X144399438Y-96761133D01*
X144346090Y-96779800D01*
X144276311Y-96783361D01*
X144215684Y-96748631D01*
X144183458Y-96686637D01*
X144189864Y-96617062D01*
X144217453Y-96575080D01*
X157157721Y-83634813D01*
X181599500Y-83634813D01*
X181629686Y-83902719D01*
X181629688Y-83902731D01*
X181689684Y-84165594D01*
X181689687Y-84165602D01*
X181778734Y-84420082D01*
X181895714Y-84662994D01*
X181895716Y-84662997D01*
X182039162Y-84891289D01*
X182207266Y-85102085D01*
X182397915Y-85292734D01*
X182608711Y-85460838D01*
X182837003Y-85604284D01*
X183079921Y-85721267D01*
X183271049Y-85788145D01*
X183334397Y-85810312D01*
X183334405Y-85810315D01*
X183334408Y-85810315D01*
X183334409Y-85810316D01*
X183597268Y-85870312D01*
X183865187Y-85900499D01*
X183865188Y-85900500D01*
X183865191Y-85900500D01*
X184134812Y-85900500D01*
X184134812Y-85900499D01*
X184402732Y-85870312D01*
X184665591Y-85810316D01*
X184920079Y-85721267D01*
X185162997Y-85604284D01*
X185391289Y-85460838D01*
X185602085Y-85292734D01*
X185792734Y-85102085D01*
X185960838Y-84891289D01*
X186104284Y-84662997D01*
X186221267Y-84420079D01*
X186310316Y-84165591D01*
X186370312Y-83902732D01*
X186400500Y-83634809D01*
X186400500Y-83365191D01*
X186370312Y-83097268D01*
X186310316Y-82834409D01*
X186221267Y-82579921D01*
X186104284Y-82337003D01*
X185960838Y-82108711D01*
X185792734Y-81897915D01*
X185602085Y-81707266D01*
X185391289Y-81539162D01*
X185162997Y-81395716D01*
X185162994Y-81395714D01*
X184920082Y-81278734D01*
X184665602Y-81189687D01*
X184665594Y-81189684D01*
X184456604Y-81141984D01*
X184402732Y-81129688D01*
X184402728Y-81129687D01*
X184402719Y-81129686D01*
X184134813Y-81099500D01*
X184134809Y-81099500D01*
X183865191Y-81099500D01*
X183865186Y-81099500D01*
X183597280Y-81129686D01*
X183597268Y-81129688D01*
X183334405Y-81189684D01*
X183334397Y-81189687D01*
X183079917Y-81278734D01*
X182837005Y-81395714D01*
X182608712Y-81539161D01*
X182397915Y-81707265D01*
X182207265Y-81897915D01*
X182039161Y-82108712D01*
X181895714Y-82337005D01*
X181778734Y-82579917D01*
X181689687Y-82834397D01*
X181689684Y-82834405D01*
X181629688Y-83097268D01*
X181629686Y-83097280D01*
X181599500Y-83365186D01*
X181599500Y-83634813D01*
X157157721Y-83634813D01*
X163834016Y-76958519D01*
X163895339Y-76925034D01*
X163921697Y-76922200D01*
X165949055Y-76922200D01*
X165949057Y-76922200D01*
X166101784Y-76881277D01*
X166238716Y-76802220D01*
X166350520Y-76690416D01*
X166429577Y-76553484D01*
X166461787Y-76433274D01*
X166498151Y-76373615D01*
X166525267Y-76354884D01*
X166590917Y-76321434D01*
X166590916Y-76321434D01*
X166590919Y-76321433D01*
X166766078Y-76194172D01*
X166919172Y-76041078D01*
X167039683Y-75875208D01*
X167095012Y-75832545D01*
X167164625Y-75826566D01*
X167226420Y-75859172D01*
X167240313Y-75875205D01*
X167360828Y-76041078D01*
X167513922Y-76194172D01*
X167689081Y-76321433D01*
X167783697Y-76369642D01*
X167881990Y-76419726D01*
X167881993Y-76419727D01*
X167923694Y-76433276D01*
X168087903Y-76486630D01*
X168301746Y-76520500D01*
X168301747Y-76520500D01*
X168518253Y-76520500D01*
X168518254Y-76520500D01*
X168732097Y-76486630D01*
X168938009Y-76419726D01*
X169130919Y-76321433D01*
X169306078Y-76194172D01*
X169459172Y-76041078D01*
X169586433Y-75865919D01*
X169684726Y-75673009D01*
X169751630Y-75467097D01*
X169785500Y-75253254D01*
X169785500Y-73786746D01*
X169751630Y-73572903D01*
X169705467Y-73430827D01*
X169684727Y-73366993D01*
X169684726Y-73366990D01*
X169634642Y-73268697D01*
X169586433Y-73174081D01*
X169459172Y-72998922D01*
X169306078Y-72845828D01*
X169130919Y-72718567D01*
X168938009Y-72620273D01*
X168938006Y-72620272D01*
X168732098Y-72553370D01*
X168625175Y-72536435D01*
X168518254Y-72519500D01*
X168301746Y-72519500D01*
X168230465Y-72530790D01*
X168087901Y-72553370D01*
X167881993Y-72620272D01*
X167881990Y-72620273D01*
X167689080Y-72718567D01*
X167664376Y-72736516D01*
X167513922Y-72845828D01*
X167513920Y-72845830D01*
X167513919Y-72845830D01*
X167360830Y-72998919D01*
X167360830Y-72998920D01*
X167360828Y-72998922D01*
X167290420Y-73095830D01*
X167240318Y-73164789D01*
X167184988Y-73207454D01*
X167115374Y-73213433D01*
X167053579Y-73180827D01*
X167039682Y-73164789D01*
X166991877Y-73098992D01*
X166919172Y-72998922D01*
X166766078Y-72845828D01*
X166590919Y-72718567D01*
X166398009Y-72620273D01*
X166398006Y-72620272D01*
X166192098Y-72553370D01*
X166085175Y-72536435D01*
X165978254Y-72519500D01*
X165761746Y-72519500D01*
X165690465Y-72530790D01*
X165547901Y-72553370D01*
X165341993Y-72620272D01*
X165341990Y-72620273D01*
X165149080Y-72718567D01*
X165124376Y-72736516D01*
X164973922Y-72845828D01*
X164973920Y-72845830D01*
X164973919Y-72845830D01*
X164820830Y-72998919D01*
X164820830Y-72998920D01*
X164820828Y-72998922D01*
X164750420Y-73095830D01*
X164700318Y-73164789D01*
X164644988Y-73207454D01*
X164575374Y-73213433D01*
X164513579Y-73180827D01*
X164499682Y-73164789D01*
X164451877Y-73098992D01*
X164379172Y-72998922D01*
X164226078Y-72845828D01*
X164050919Y-72718567D01*
X163858009Y-72620273D01*
X163858006Y-72620272D01*
X163652098Y-72553370D01*
X163545175Y-72536435D01*
X163438254Y-72519500D01*
X163221746Y-72519500D01*
X163150465Y-72530790D01*
X163007901Y-72553370D01*
X162801993Y-72620272D01*
X162801990Y-72620273D01*
X162609080Y-72718567D01*
X162584376Y-72736516D01*
X162433922Y-72845828D01*
X162433920Y-72845830D01*
X162433919Y-72845830D01*
X162280830Y-72998919D01*
X162280830Y-72998920D01*
X162280828Y-72998922D01*
X162210420Y-73095830D01*
X162160318Y-73164789D01*
X162104988Y-73207454D01*
X162035374Y-73213433D01*
X161973579Y-73180827D01*
X161959682Y-73164789D01*
X161911877Y-73098992D01*
X161839172Y-72998922D01*
X161686078Y-72845828D01*
X161510919Y-72718567D01*
X161318009Y-72620273D01*
X161318006Y-72620272D01*
X161112098Y-72553370D01*
X161005175Y-72536435D01*
X160898254Y-72519500D01*
X160681746Y-72519500D01*
X160610465Y-72530790D01*
X160467901Y-72553370D01*
X160261993Y-72620272D01*
X160261990Y-72620273D01*
X160069080Y-72718567D01*
X160044376Y-72736516D01*
X159893922Y-72845828D01*
X159893920Y-72845830D01*
X159893919Y-72845830D01*
X159740830Y-72998919D01*
X159740830Y-72998920D01*
X159740828Y-72998922D01*
X159670420Y-73095830D01*
X159620318Y-73164789D01*
X159564988Y-73207454D01*
X159495374Y-73213433D01*
X159433579Y-73180827D01*
X159419682Y-73164789D01*
X159371877Y-73098992D01*
X159299172Y-72998922D01*
X159146078Y-72845828D01*
X158970919Y-72718567D01*
X158778009Y-72620273D01*
X158778006Y-72620272D01*
X158572098Y-72553370D01*
X158465175Y-72536435D01*
X158358254Y-72519500D01*
X158141746Y-72519500D01*
X158070465Y-72530790D01*
X157927901Y-72553370D01*
X157721993Y-72620272D01*
X157721990Y-72620273D01*
X157529080Y-72718567D01*
X157504376Y-72736516D01*
X157353922Y-72845828D01*
X157353920Y-72845830D01*
X157353919Y-72845830D01*
X157200830Y-72998919D01*
X157200830Y-72998920D01*
X157200828Y-72998922D01*
X157146174Y-73074145D01*
X157073567Y-73174080D01*
X156975273Y-73366990D01*
X156975272Y-73366993D01*
X156908370Y-73572901D01*
X156874500Y-73786746D01*
X156874500Y-75253253D01*
X156908370Y-75467098D01*
X156975272Y-75673006D01*
X156975273Y-75673009D01*
X157056562Y-75832545D01*
X157073567Y-75865919D01*
X157200828Y-76041078D01*
X157353922Y-76194172D01*
X157529081Y-76321433D01*
X157623697Y-76369642D01*
X157721990Y-76419726D01*
X157721993Y-76419727D01*
X157763694Y-76433276D01*
X157927903Y-76486630D01*
X158141746Y-76520500D01*
X158141747Y-76520500D01*
X158358253Y-76520500D01*
X158358254Y-76520500D01*
X158572097Y-76486630D01*
X158778009Y-76419726D01*
X158970919Y-76321433D01*
X159146078Y-76194172D01*
X159299172Y-76041078D01*
X159419683Y-75875208D01*
X159475012Y-75832545D01*
X159544625Y-75826566D01*
X159606420Y-75859172D01*
X159620313Y-75875205D01*
X159740828Y-76041078D01*
X159893922Y-76194172D01*
X160069081Y-76321433D01*
X160163697Y-76369642D01*
X160261990Y-76419726D01*
X160261993Y-76419727D01*
X160303694Y-76433276D01*
X160467903Y-76486630D01*
X160681746Y-76520500D01*
X160681747Y-76520500D01*
X160898253Y-76520500D01*
X160898254Y-76520500D01*
X161112097Y-76486630D01*
X161318009Y-76419726D01*
X161510919Y-76321433D01*
X161686078Y-76194172D01*
X161839172Y-76041078D01*
X161959683Y-75875208D01*
X162015012Y-75832545D01*
X162084625Y-75826566D01*
X162146420Y-75859172D01*
X162160313Y-75875205D01*
X162280828Y-76041078D01*
X162433922Y-76194172D01*
X162586352Y-76304919D01*
X162629016Y-76360248D01*
X162634995Y-76429861D01*
X162602389Y-76491656D01*
X162601146Y-76492917D01*
X140142181Y-98951883D01*
X140080858Y-98985368D01*
X140011166Y-98980384D01*
X139955233Y-98938512D01*
X139930816Y-98873048D01*
X139930500Y-98864202D01*
X139930500Y-76708776D01*
X139950185Y-76641737D01*
X139998204Y-76598291D01*
X140050919Y-76571433D01*
X140226078Y-76444172D01*
X140379172Y-76291078D01*
X140499683Y-76125208D01*
X140555012Y-76082545D01*
X140624625Y-76076566D01*
X140686420Y-76109172D01*
X140700313Y-76125205D01*
X140820828Y-76291078D01*
X140973922Y-76444172D01*
X141149081Y-76571433D01*
X141201791Y-76598290D01*
X141341990Y-76669726D01*
X141341993Y-76669727D01*
X141405669Y-76690416D01*
X141547903Y-76736630D01*
X141761746Y-76770500D01*
X141761747Y-76770500D01*
X141978253Y-76770500D01*
X141978254Y-76770500D01*
X142192097Y-76736630D01*
X142398009Y-76669726D01*
X142590919Y-76571433D01*
X142766078Y-76444172D01*
X142919172Y-76291078D01*
X143039683Y-76125208D01*
X143095012Y-76082545D01*
X143164625Y-76076566D01*
X143226420Y-76109172D01*
X143240313Y-76125205D01*
X143360828Y-76291078D01*
X143513922Y-76444172D01*
X143689081Y-76571433D01*
X143741791Y-76598290D01*
X143881990Y-76669726D01*
X143881993Y-76669727D01*
X143945669Y-76690416D01*
X144087903Y-76736630D01*
X144301746Y-76770500D01*
X144301747Y-76770500D01*
X144518253Y-76770500D01*
X144518254Y-76770500D01*
X144732097Y-76736630D01*
X144938009Y-76669726D01*
X145130919Y-76571433D01*
X145306078Y-76444172D01*
X145459172Y-76291078D01*
X145586433Y-76115919D01*
X145684726Y-75923009D01*
X145751630Y-75717097D01*
X145785500Y-75503254D01*
X145785500Y-74036746D01*
X145751630Y-73822903D01*
X145684726Y-73616991D01*
X145684726Y-73616990D01*
X145586432Y-73424080D01*
X145579682Y-73414789D01*
X145459172Y-73248922D01*
X145306078Y-73095828D01*
X145130919Y-72968567D01*
X145130915Y-72968565D01*
X144938009Y-72870273D01*
X144938006Y-72870272D01*
X144732098Y-72803370D01*
X144625175Y-72786435D01*
X144518254Y-72769500D01*
X144301746Y-72769500D01*
X144230465Y-72780790D01*
X144087901Y-72803370D01*
X143881993Y-72870272D01*
X143881990Y-72870273D01*
X143689080Y-72968567D01*
X143647301Y-72998922D01*
X143513922Y-73095828D01*
X143513920Y-73095830D01*
X143513919Y-73095830D01*
X143360830Y-73248919D01*
X143360830Y-73248920D01*
X143360828Y-73248922D01*
X143275044Y-73366993D01*
X143240318Y-73414789D01*
X143184988Y-73457454D01*
X143115374Y-73463433D01*
X143053579Y-73430827D01*
X143039682Y-73414789D01*
X143004956Y-73366993D01*
X142919172Y-73248922D01*
X142766078Y-73095828D01*
X142590919Y-72968567D01*
X142590918Y-72968566D01*
X142590916Y-72968565D01*
X142525264Y-72935113D01*
X142474469Y-72887139D01*
X142461787Y-72856728D01*
X142429577Y-72736516D01*
X142419214Y-72718567D01*
X142350524Y-72599590D01*
X142350518Y-72599582D01*
X142238717Y-72487781D01*
X142238709Y-72487775D01*
X142101790Y-72408726D01*
X142101786Y-72408724D01*
X142101784Y-72408723D01*
X141949057Y-72367800D01*
X141949056Y-72367800D01*
X138921670Y-72367800D01*
X138921654Y-72367799D01*
X138914058Y-72367799D01*
X138755943Y-72367799D01*
X138679579Y-72388261D01*
X138603214Y-72408723D01*
X138603209Y-72408726D01*
X138466290Y-72487775D01*
X138466282Y-72487781D01*
X137859838Y-73094226D01*
X137798515Y-73127711D01*
X137728823Y-73122727D01*
X137690529Y-73098116D01*
X137689782Y-73098992D01*
X137686085Y-73095835D01*
X137686078Y-73095828D01*
X137510919Y-72968567D01*
X137510915Y-72968565D01*
X137318009Y-72870273D01*
X137318006Y-72870272D01*
X137112098Y-72803370D01*
X137005175Y-72786435D01*
X136898254Y-72769500D01*
X136681746Y-72769500D01*
X136610465Y-72780790D01*
X136467901Y-72803370D01*
X136261993Y-72870272D01*
X136261990Y-72870273D01*
X136069080Y-72968567D01*
X136027301Y-72998922D01*
X135893922Y-73095828D01*
X135893920Y-73095830D01*
X135893919Y-73095830D01*
X135740830Y-73248919D01*
X135740830Y-73248920D01*
X135740828Y-73248922D01*
X135655044Y-73366993D01*
X135620318Y-73414789D01*
X135564988Y-73457454D01*
X135495374Y-73463433D01*
X135433579Y-73430827D01*
X135419682Y-73414789D01*
X135384956Y-73366993D01*
X135299172Y-73248922D01*
X135146078Y-73095828D01*
X134970919Y-72968567D01*
X134970915Y-72968565D01*
X134778009Y-72870273D01*
X134778006Y-72870272D01*
X134572098Y-72803370D01*
X134465175Y-72786435D01*
X134358254Y-72769500D01*
X134141746Y-72769500D01*
X134070465Y-72780790D01*
X133927901Y-72803370D01*
X133721993Y-72870272D01*
X133721990Y-72870273D01*
X133529080Y-72968567D01*
X133487301Y-72998922D01*
X133353922Y-73095828D01*
X133353920Y-73095830D01*
X133353919Y-73095830D01*
X133200830Y-73248919D01*
X133200830Y-73248920D01*
X133200828Y-73248922D01*
X133146174Y-73324145D01*
X133073567Y-73424080D01*
X132975273Y-73616990D01*
X132975272Y-73616993D01*
X132908370Y-73822901D01*
X132874500Y-74036746D01*
X132874500Y-75503253D01*
X132908370Y-75717098D01*
X132975272Y-75923006D01*
X132975273Y-75923009D01*
X133056562Y-76082545D01*
X133073567Y-76115919D01*
X133200828Y-76291078D01*
X133353922Y-76444172D01*
X133529081Y-76571433D01*
X133581791Y-76598290D01*
X133721990Y-76669726D01*
X133721993Y-76669727D01*
X133785669Y-76690416D01*
X133927903Y-76736630D01*
X134141746Y-76770500D01*
X134141747Y-76770500D01*
X134358253Y-76770500D01*
X134358254Y-76770500D01*
X134572097Y-76736630D01*
X134778009Y-76669726D01*
X134970919Y-76571433D01*
X135146078Y-76444172D01*
X135299172Y-76291078D01*
X135419683Y-76125208D01*
X135475012Y-76082545D01*
X135544625Y-76076566D01*
X135606420Y-76109172D01*
X135620313Y-76125205D01*
X135740828Y-76291078D01*
X135740829Y-76291079D01*
X135740830Y-76291080D01*
X135893426Y-76443676D01*
X135926911Y-76504999D01*
X135921927Y-76574691D01*
X135893426Y-76619038D01*
X135215484Y-77296981D01*
X135154161Y-77330466D01*
X135127803Y-77333300D01*
X122642211Y-77333300D01*
X122575172Y-77313615D01*
X122529417Y-77260811D01*
X122519473Y-77191653D01*
X122522432Y-77177223D01*
X122550500Y-77072475D01*
X122550500Y-67674500D01*
X122570185Y-67607461D01*
X122622989Y-67561706D01*
X122674500Y-67550500D01*
X164927525Y-67550500D01*
X175325500Y-67550500D01*
X175392539Y-67570185D01*
G37*
%TD.AperFunction*%
%TA.AperFunction,Conductor*%
G36*
X116031742Y-131096685D02*
G01*
X116077497Y-131149489D01*
X116087441Y-131218647D01*
X116058416Y-131282203D01*
X116052384Y-131288681D01*
X116022084Y-131318981D01*
X115960761Y-131352466D01*
X115934403Y-131355300D01*
X113829170Y-131355300D01*
X113829154Y-131355299D01*
X113821558Y-131355299D01*
X113663443Y-131355299D01*
X113595473Y-131373512D01*
X113510714Y-131396223D01*
X113510709Y-131396226D01*
X113373790Y-131475275D01*
X113373782Y-131475281D01*
X108019481Y-136829582D01*
X108019479Y-136829585D01*
X107969361Y-136916394D01*
X107969359Y-136916396D01*
X107940425Y-136966509D01*
X107940424Y-136966510D01*
X107930069Y-137005157D01*
X107913089Y-137068528D01*
X107908213Y-137086724D01*
X107871847Y-137146384D01*
X107844734Y-137165114D01*
X107779083Y-137198565D01*
X107704916Y-137252451D01*
X107603922Y-137325828D01*
X107603920Y-137325830D01*
X107603919Y-137325830D01*
X107450829Y-137478920D01*
X107330009Y-137645214D01*
X107274678Y-137687879D01*
X107205065Y-137693858D01*
X107143270Y-137661252D01*
X107129373Y-137645214D01*
X107008788Y-137479245D01*
X107008788Y-137479244D01*
X106855755Y-137326211D01*
X106680657Y-137198994D01*
X106487817Y-137100736D01*
X106487814Y-137100735D01*
X106281983Y-137033857D01*
X106210000Y-137022456D01*
X106210000Y-138711184D01*
X106193940Y-138695124D01*
X106107061Y-138644964D01*
X106010160Y-138619000D01*
X105909840Y-138619000D01*
X105812939Y-138644964D01*
X105726060Y-138695124D01*
X105710000Y-138711184D01*
X105710000Y-137022456D01*
X105709999Y-137022456D01*
X105638016Y-137033857D01*
X105638015Y-137033857D01*
X105432185Y-137100735D01*
X105432182Y-137100736D01*
X105239342Y-137198994D01*
X105064245Y-137326211D01*
X105064244Y-137326211D01*
X104911210Y-137479245D01*
X104790626Y-137645214D01*
X104735295Y-137687879D01*
X104665682Y-137693858D01*
X104603887Y-137661252D01*
X104589994Y-137645219D01*
X104469172Y-137478922D01*
X104316573Y-137326323D01*
X104283088Y-137265000D01*
X104288072Y-137195308D01*
X104316573Y-137150961D01*
X106613250Y-134854284D01*
X109009935Y-132457598D01*
X109071256Y-132424115D01*
X109083711Y-132422063D01*
X109170655Y-132412268D01*
X109340922Y-132352689D01*
X109493662Y-132256716D01*
X109621216Y-132129162D01*
X109717189Y-131976422D01*
X109776768Y-131806155D01*
X109776769Y-131806149D01*
X109796965Y-131626903D01*
X109796965Y-131626896D01*
X109776769Y-131447650D01*
X109776768Y-131447645D01*
X109758776Y-131396226D01*
X109717189Y-131277378D01*
X109717187Y-131277375D01*
X109717187Y-131277374D01*
X109710651Y-131266971D01*
X109691651Y-131199734D01*
X109712019Y-131132899D01*
X109765288Y-131087686D01*
X109815645Y-131077000D01*
X115964703Y-131077000D01*
X116031742Y-131096685D01*
G37*
%TD.AperFunction*%
%TA.AperFunction,Conductor*%
G36*
X212770000Y-128750000D02*
G01*
X213417828Y-128750000D01*
X213417844Y-128749999D01*
X213477372Y-128743598D01*
X213477379Y-128743596D01*
X213612086Y-128693354D01*
X213612089Y-128693352D01*
X213715271Y-128616110D01*
X213780735Y-128591692D01*
X213849008Y-128606543D01*
X213863888Y-128616105D01*
X213959312Y-128687540D01*
X213967668Y-128693795D01*
X213967671Y-128693797D01*
X214012618Y-128710561D01*
X214102517Y-128744091D01*
X214162127Y-128750500D01*
X214335500Y-128750499D01*
X214402539Y-128770183D01*
X214448294Y-128822987D01*
X214459500Y-128874499D01*
X214459500Y-131078202D01*
X214439815Y-131145241D01*
X214423181Y-131165883D01*
X208759481Y-136829582D01*
X208759479Y-136829585D01*
X208709361Y-136916394D01*
X208709359Y-136916396D01*
X208680425Y-136966509D01*
X208680424Y-136966510D01*
X208670069Y-137005157D01*
X208653089Y-137068528D01*
X208648213Y-137086724D01*
X208611847Y-137146384D01*
X208584734Y-137165114D01*
X208519083Y-137198565D01*
X208444916Y-137252451D01*
X208343922Y-137325828D01*
X208343920Y-137325830D01*
X208343919Y-137325830D01*
X208190829Y-137478920D01*
X208070009Y-137645214D01*
X208014678Y-137687879D01*
X207945065Y-137693858D01*
X207883270Y-137661252D01*
X207869373Y-137645214D01*
X207748788Y-137479245D01*
X207748788Y-137479244D01*
X207595755Y-137326211D01*
X207420657Y-137198994D01*
X207227817Y-137100736D01*
X207227814Y-137100735D01*
X207021983Y-137033857D01*
X206950000Y-137022456D01*
X206950000Y-138711184D01*
X206933940Y-138695124D01*
X206847061Y-138644964D01*
X206750160Y-138619000D01*
X206649840Y-138619000D01*
X206552939Y-138644964D01*
X206466060Y-138695124D01*
X206450000Y-138711184D01*
X206450000Y-137022456D01*
X206449999Y-137022456D01*
X206378016Y-137033857D01*
X206378015Y-137033857D01*
X206172185Y-137100735D01*
X206172182Y-137100736D01*
X205979342Y-137198994D01*
X205804245Y-137326211D01*
X205804244Y-137326211D01*
X205651210Y-137479245D01*
X205530626Y-137645214D01*
X205475295Y-137687879D01*
X205405682Y-137693858D01*
X205343887Y-137661252D01*
X205329994Y-137645219D01*
X205209172Y-137478922D01*
X205056078Y-137325828D01*
X204880919Y-137198567D01*
X204834343Y-137174835D01*
X204688009Y-137100273D01*
X204688006Y-137100272D01*
X204482098Y-137033370D01*
X204367037Y-137015146D01*
X204268254Y-136999500D01*
X204051746Y-136999500D01*
X204016030Y-137005157D01*
X203837901Y-137033370D01*
X203631993Y-137100272D01*
X203631990Y-137100273D01*
X203439080Y-137198567D01*
X203364916Y-137252451D01*
X203263922Y-137325828D01*
X203263920Y-137325830D01*
X203263919Y-137325830D01*
X203110830Y-137478919D01*
X203110830Y-137478920D01*
X203110828Y-137478922D01*
X203002530Y-137627979D01*
X202990318Y-137644789D01*
X202934988Y-137687454D01*
X202865374Y-137693433D01*
X202803579Y-137660827D01*
X202789682Y-137644789D01*
X202785061Y-137638429D01*
X202669172Y-137478922D01*
X202516078Y-137325828D01*
X202340919Y-137198567D01*
X202294343Y-137174835D01*
X202148009Y-137100273D01*
X202148006Y-137100272D01*
X201942098Y-137033370D01*
X201827037Y-137015146D01*
X201728254Y-136999500D01*
X201511746Y-136999500D01*
X201476030Y-137005157D01*
X201297901Y-137033370D01*
X201091993Y-137100272D01*
X201091990Y-137100273D01*
X200899080Y-137198567D01*
X200824916Y-137252451D01*
X200723922Y-137325828D01*
X200723920Y-137325830D01*
X200723919Y-137325830D01*
X200570830Y-137478919D01*
X200570830Y-137478920D01*
X200570828Y-137478922D01*
X200462530Y-137627979D01*
X200450318Y-137644789D01*
X200394988Y-137687454D01*
X200325374Y-137693433D01*
X200263579Y-137660827D01*
X200249682Y-137644789D01*
X200245061Y-137638429D01*
X200129172Y-137478922D01*
X199976573Y-137326323D01*
X199943088Y-137265000D01*
X199948072Y-137195308D01*
X199976573Y-137150961D01*
X202584800Y-134542734D01*
X205268713Y-131858821D01*
X205268716Y-131858820D01*
X205380520Y-131747016D01*
X205430639Y-131660204D01*
X205459577Y-131610085D01*
X205500501Y-131457357D01*
X205500501Y-131299243D01*
X205500501Y-131291648D01*
X205500500Y-131291630D01*
X205500500Y-128874499D01*
X205520185Y-128807460D01*
X205572989Y-128761705D01*
X205624500Y-128750499D01*
X205797871Y-128750499D01*
X205797872Y-128750499D01*
X205857483Y-128744091D01*
X205992331Y-128693796D01*
X206095690Y-128616421D01*
X206161152Y-128592004D01*
X206229425Y-128606855D01*
X206244303Y-128616416D01*
X206339312Y-128687540D01*
X206347668Y-128693795D01*
X206347671Y-128693797D01*
X206482517Y-128744091D01*
X206482516Y-128744091D01*
X206489444Y-128744835D01*
X206542127Y-128750500D01*
X208337872Y-128750499D01*
X208397483Y-128744091D01*
X208532331Y-128693796D01*
X208635690Y-128616421D01*
X208701152Y-128592004D01*
X208769425Y-128606855D01*
X208784303Y-128616416D01*
X208879312Y-128687540D01*
X208887668Y-128693795D01*
X208887671Y-128693797D01*
X209022517Y-128744091D01*
X209022516Y-128744091D01*
X209029444Y-128744835D01*
X209082127Y-128750500D01*
X210877872Y-128750499D01*
X210937483Y-128744091D01*
X211072331Y-128693796D01*
X211176106Y-128616109D01*
X211241570Y-128591692D01*
X211309843Y-128606543D01*
X211324729Y-128616110D01*
X211427910Y-128693352D01*
X211427913Y-128693354D01*
X211562620Y-128743596D01*
X211562627Y-128743598D01*
X211622155Y-128749999D01*
X211622172Y-128750000D01*
X212270000Y-128750000D01*
X212270000Y-126538816D01*
X212286060Y-126554876D01*
X212372939Y-126605036D01*
X212469840Y-126631000D01*
X212570160Y-126631000D01*
X212667061Y-126605036D01*
X212753940Y-126554876D01*
X212770000Y-126538816D01*
X212770000Y-128750000D01*
G37*
%TD.AperFunction*%
%TA.AperFunction,Conductor*%
G36*
X121548303Y-111273584D02*
G01*
X121554781Y-111279616D01*
X126789098Y-116513933D01*
X126822583Y-116575256D01*
X126824637Y-116587730D01*
X126834430Y-116674649D01*
X126894010Y-116844921D01*
X126935286Y-116910611D01*
X126989984Y-116997662D01*
X127117538Y-117125216D01*
X127270278Y-117221189D01*
X127399149Y-117266283D01*
X127440545Y-117280768D01*
X127440550Y-117280769D01*
X127619796Y-117300965D01*
X127619800Y-117300965D01*
X127619804Y-117300965D01*
X127799049Y-117280769D01*
X127799052Y-117280768D01*
X127799055Y-117280768D01*
X127969322Y-117221189D01*
X128090135Y-117145277D01*
X128117689Y-117127964D01*
X128184926Y-117108964D01*
X128251761Y-117129332D01*
X128271342Y-117145277D01*
X132761467Y-121635402D01*
X132794952Y-121696725D01*
X132789968Y-121766417D01*
X132748096Y-121822350D01*
X132712106Y-121841013D01*
X132682190Y-121850733D01*
X132682182Y-121850736D01*
X132489342Y-121948994D01*
X132314245Y-122076211D01*
X132314244Y-122076211D01*
X132161211Y-122229244D01*
X132161211Y-122229245D01*
X132033994Y-122404342D01*
X131935736Y-122597182D01*
X131935735Y-122597185D01*
X131868857Y-122803018D01*
X131835000Y-123016779D01*
X131835000Y-123500000D01*
X132921184Y-123500000D01*
X132905124Y-123516060D01*
X132854964Y-123602939D01*
X132829000Y-123699840D01*
X132829000Y-123800160D01*
X132854964Y-123897061D01*
X132905124Y-123983940D01*
X132921184Y-124000000D01*
X131898897Y-124000000D01*
X131831858Y-123980315D01*
X131811216Y-123963681D01*
X128861859Y-121014324D01*
X128828374Y-120953001D01*
X128833358Y-120883309D01*
X128866002Y-120835006D01*
X128890981Y-120812236D01*
X129025058Y-120634689D01*
X129124229Y-120435528D01*
X129185115Y-120221536D01*
X129205643Y-120000000D01*
X129202242Y-119963302D01*
X129185115Y-119778464D01*
X129185114Y-119778462D01*
X129171195Y-119729543D01*
X129124229Y-119564472D01*
X129124224Y-119564461D01*
X129025061Y-119365316D01*
X129025056Y-119365308D01*
X128890979Y-119187761D01*
X128726562Y-119037876D01*
X128726560Y-119037874D01*
X128537404Y-118920754D01*
X128537398Y-118920752D01*
X128329940Y-118840382D01*
X128111243Y-118799500D01*
X127888757Y-118799500D01*
X127670060Y-118840382D01*
X127565360Y-118880943D01*
X127462601Y-118920752D01*
X127462595Y-118920754D01*
X127273439Y-119037874D01*
X127273437Y-119037876D01*
X127109020Y-119187761D01*
X126974943Y-119365308D01*
X126974938Y-119365316D01*
X126875775Y-119564461D01*
X126875769Y-119564476D01*
X126814885Y-119778462D01*
X126814883Y-119778471D01*
X126814348Y-119784248D01*
X126788557Y-119849184D01*
X126731754Y-119889867D01*
X126661973Y-119893382D01*
X126601369Y-119858612D01*
X126571104Y-119804892D01*
X126561277Y-119768216D01*
X126547010Y-119743504D01*
X126482224Y-119631290D01*
X126482218Y-119631282D01*
X126370417Y-119519481D01*
X126370409Y-119519475D01*
X126233490Y-119440426D01*
X126233485Y-119440423D01*
X126171329Y-119423768D01*
X126084467Y-119400494D01*
X126024809Y-119364130D01*
X126017609Y-119355447D01*
X125890979Y-119187761D01*
X125726562Y-119037876D01*
X125726560Y-119037874D01*
X125537404Y-118920754D01*
X125537398Y-118920752D01*
X125329940Y-118840382D01*
X125111243Y-118799500D01*
X124888757Y-118799500D01*
X124670060Y-118840382D01*
X124565360Y-118880943D01*
X124462601Y-118920752D01*
X124462595Y-118920754D01*
X124273439Y-119037874D01*
X124273437Y-119037876D01*
X124109020Y-119187761D01*
X123974943Y-119365308D01*
X123974938Y-119365316D01*
X123875775Y-119564461D01*
X123875769Y-119564476D01*
X123814885Y-119778462D01*
X123814884Y-119778464D01*
X123794357Y-119999999D01*
X123794357Y-120000000D01*
X123814884Y-120221535D01*
X123814885Y-120221537D01*
X123875769Y-120435523D01*
X123875775Y-120435538D01*
X123974938Y-120634683D01*
X123974943Y-120634691D01*
X124109020Y-120812238D01*
X124273437Y-120962123D01*
X124273439Y-120962125D01*
X124462595Y-121079245D01*
X124462596Y-121079245D01*
X124462599Y-121079247D01*
X124670060Y-121159618D01*
X124888757Y-121200500D01*
X124888759Y-121200500D01*
X125111241Y-121200500D01*
X125111243Y-121200500D01*
X125329940Y-121159618D01*
X125537401Y-121079247D01*
X125559324Y-121065672D01*
X125626684Y-121047116D01*
X125693383Y-121067924D01*
X125712283Y-121083418D01*
X127977698Y-123348833D01*
X128011183Y-123410156D01*
X128013237Y-123422630D01*
X128023030Y-123509549D01*
X128082610Y-123679821D01*
X128082611Y-123679822D01*
X128178584Y-123832562D01*
X128306138Y-123960116D01*
X128388843Y-124012083D01*
X128456947Y-124054876D01*
X128458878Y-124056089D01*
X128629145Y-124115668D01*
X128629150Y-124115669D01*
X128808396Y-124135865D01*
X128808400Y-124135865D01*
X128808404Y-124135865D01*
X128987649Y-124115669D01*
X128987652Y-124115668D01*
X128987655Y-124115668D01*
X129157922Y-124056089D01*
X129310662Y-123960116D01*
X129438216Y-123832562D01*
X129534189Y-123679822D01*
X129545399Y-123647786D01*
X129586119Y-123591009D01*
X129651071Y-123565260D01*
X129719633Y-123578715D01*
X129750122Y-123601057D01*
X134515584Y-128366519D01*
X134549069Y-128427842D01*
X134544085Y-128497534D01*
X134502213Y-128553467D01*
X134436749Y-128577884D01*
X134427903Y-128578200D01*
X129029780Y-128578200D01*
X128962741Y-128558515D01*
X128916986Y-128505711D01*
X128907042Y-128436553D01*
X128930826Y-128379473D01*
X128998179Y-128290282D01*
X129025058Y-128254689D01*
X129124229Y-128055528D01*
X129185115Y-127841536D01*
X129205643Y-127620000D01*
X129202242Y-127583302D01*
X129185115Y-127398464D01*
X129185114Y-127398462D01*
X129174187Y-127360058D01*
X129124229Y-127184472D01*
X129118711Y-127173390D01*
X129025061Y-126985316D01*
X129025056Y-126985308D01*
X128890979Y-126807761D01*
X128726562Y-126657876D01*
X128726560Y-126657874D01*
X128537404Y-126540754D01*
X128537398Y-126540752D01*
X128329940Y-126460382D01*
X128111243Y-126419500D01*
X127888757Y-126419500D01*
X127670060Y-126460382D01*
X127565360Y-126500943D01*
X127462601Y-126540752D01*
X127462595Y-126540754D01*
X127273439Y-126657874D01*
X127273437Y-126657876D01*
X127109020Y-126807761D01*
X126974943Y-126985308D01*
X126974938Y-126985316D01*
X126875775Y-127184461D01*
X126875769Y-127184476D01*
X126814885Y-127398462D01*
X126814884Y-127398464D01*
X126794357Y-127619999D01*
X126794357Y-127620000D01*
X126814884Y-127841535D01*
X126814885Y-127841537D01*
X126875769Y-128055523D01*
X126875775Y-128055538D01*
X126974938Y-128254683D01*
X126974943Y-128254691D01*
X127069174Y-128379473D01*
X127093866Y-128444835D01*
X127079301Y-128513169D01*
X127030103Y-128562782D01*
X126970220Y-128578200D01*
X126858798Y-128578200D01*
X126791759Y-128558515D01*
X126771117Y-128541881D01*
X126519518Y-128290282D01*
X126211313Y-127982078D01*
X126177829Y-127920756D01*
X126179730Y-127860460D01*
X126185115Y-127841536D01*
X126205643Y-127620000D01*
X126202242Y-127583302D01*
X126185115Y-127398464D01*
X126185114Y-127398462D01*
X126174187Y-127360058D01*
X126124229Y-127184472D01*
X126118711Y-127173390D01*
X126025061Y-126985316D01*
X126025056Y-126985308D01*
X125890979Y-126807761D01*
X125726562Y-126657876D01*
X125726560Y-126657874D01*
X125537404Y-126540754D01*
X125537398Y-126540752D01*
X125329940Y-126460382D01*
X125111243Y-126419500D01*
X124888757Y-126419500D01*
X124670060Y-126460382D01*
X124565360Y-126500943D01*
X124462601Y-126540752D01*
X124462595Y-126540754D01*
X124273439Y-126657874D01*
X124273437Y-126657876D01*
X124109020Y-126807761D01*
X123974943Y-126985308D01*
X123974938Y-126985316D01*
X123875775Y-127184461D01*
X123875769Y-127184476D01*
X123814885Y-127398462D01*
X123814884Y-127398464D01*
X123794357Y-127619999D01*
X123794357Y-127620000D01*
X123814884Y-127841535D01*
X123814885Y-127841537D01*
X123875769Y-128055523D01*
X123875775Y-128055538D01*
X123974938Y-128254683D01*
X123974943Y-128254691D01*
X124109020Y-128432238D01*
X124273437Y-128582123D01*
X124273439Y-128582125D01*
X124462595Y-128699245D01*
X124462596Y-128699245D01*
X124462599Y-128699247D01*
X124670060Y-128779618D01*
X124888757Y-128820500D01*
X124888759Y-128820500D01*
X125111241Y-128820500D01*
X125111243Y-128820500D01*
X125249214Y-128794708D01*
X125318729Y-128801739D01*
X125359680Y-128828916D01*
X126189984Y-129659220D01*
X126189986Y-129659221D01*
X126189990Y-129659224D01*
X126326909Y-129738273D01*
X126326916Y-129738277D01*
X126479643Y-129779201D01*
X126479645Y-129779201D01*
X126645354Y-129779201D01*
X126645370Y-129779200D01*
X129065399Y-129779200D01*
X129132438Y-129798885D01*
X129178193Y-129851689D01*
X129188137Y-129920847D01*
X129159112Y-129984403D01*
X129130677Y-130008627D01*
X129083436Y-130037877D01*
X128919020Y-130187761D01*
X128784943Y-130365308D01*
X128784938Y-130365316D01*
X128685775Y-130564461D01*
X128685769Y-130564476D01*
X128624885Y-130778462D01*
X128624884Y-130778464D01*
X128604357Y-130999999D01*
X128604357Y-131000000D01*
X128624884Y-131221535D01*
X128624885Y-131221537D01*
X128685769Y-131435523D01*
X128685775Y-131435538D01*
X128784938Y-131634683D01*
X128784943Y-131634691D01*
X128919020Y-131812238D01*
X129083437Y-131962123D01*
X129083439Y-131962125D01*
X129272595Y-132079245D01*
X129272596Y-132079245D01*
X129272599Y-132079247D01*
X129480060Y-132159618D01*
X129698757Y-132200500D01*
X129698759Y-132200500D01*
X129921241Y-132200500D01*
X129921243Y-132200500D01*
X130139940Y-132159618D01*
X130347401Y-132079247D01*
X130536562Y-131962124D01*
X130700981Y-131812236D01*
X130835058Y-131634689D01*
X130838935Y-131626903D01*
X130889000Y-131526360D01*
X130936503Y-131475123D01*
X131004166Y-131457702D01*
X131070506Y-131479628D01*
X131111000Y-131526360D01*
X131164938Y-131634683D01*
X131164943Y-131634691D01*
X131299020Y-131812238D01*
X131463437Y-131962123D01*
X131463439Y-131962125D01*
X131652595Y-132079245D01*
X131652596Y-132079245D01*
X131652599Y-132079247D01*
X131860060Y-132159618D01*
X132078757Y-132200500D01*
X132078759Y-132200500D01*
X132301241Y-132200500D01*
X132301243Y-132200500D01*
X132439215Y-132174708D01*
X132508730Y-132181739D01*
X132549681Y-132208916D01*
X133578584Y-133237819D01*
X133612069Y-133299142D01*
X133607085Y-133368834D01*
X133565213Y-133424767D01*
X133499749Y-133449184D01*
X133490903Y-133449500D01*
X116362239Y-133449500D01*
X116295200Y-133429815D01*
X116249445Y-133377011D01*
X116239501Y-133307853D01*
X116268526Y-133244297D01*
X116327304Y-133206523D01*
X116330126Y-133205730D01*
X116348985Y-133200677D01*
X116406393Y-133167532D01*
X116485916Y-133121620D01*
X116597720Y-133009816D01*
X116597720Y-133009814D01*
X116607924Y-132999611D01*
X116607928Y-132999606D01*
X118607534Y-131000000D01*
X120984357Y-131000000D01*
X121004884Y-131221535D01*
X121004885Y-131221537D01*
X121065769Y-131435523D01*
X121065775Y-131435538D01*
X121164938Y-131634683D01*
X121164943Y-131634691D01*
X121299020Y-131812238D01*
X121463437Y-131962123D01*
X121463439Y-131962125D01*
X121652595Y-132079245D01*
X121652596Y-132079245D01*
X121652599Y-132079247D01*
X121860060Y-132159618D01*
X122078757Y-132200500D01*
X122078759Y-132200500D01*
X122301241Y-132200500D01*
X122301243Y-132200500D01*
X122519940Y-132159618D01*
X122727401Y-132079247D01*
X122916562Y-131962124D01*
X123080981Y-131812236D01*
X123215058Y-131634689D01*
X123314229Y-131435528D01*
X123375115Y-131221536D01*
X123395643Y-131000000D01*
X123393054Y-130972065D01*
X123375115Y-130778464D01*
X123375114Y-130778462D01*
X123362574Y-130734390D01*
X123314229Y-130564472D01*
X123313893Y-130563797D01*
X123215061Y-130365316D01*
X123215056Y-130365308D01*
X123080979Y-130187761D01*
X122916562Y-130037876D01*
X122916560Y-130037874D01*
X122727404Y-129920754D01*
X122727398Y-129920752D01*
X122726288Y-129920322D01*
X122519940Y-129840382D01*
X122301243Y-129799500D01*
X122078757Y-129799500D01*
X121860060Y-129840382D01*
X121797046Y-129864794D01*
X121652601Y-129920752D01*
X121652595Y-129920754D01*
X121463439Y-130037874D01*
X121463437Y-130037876D01*
X121299020Y-130187761D01*
X121164943Y-130365308D01*
X121164938Y-130365316D01*
X121065775Y-130564461D01*
X121065769Y-130564476D01*
X121004885Y-130778462D01*
X121004884Y-130778464D01*
X120984357Y-130999999D01*
X120984357Y-131000000D01*
X118607534Y-131000000D01*
X120891494Y-128716039D01*
X120952815Y-128682556D01*
X121022507Y-128687540D01*
X121066854Y-128716041D01*
X121160858Y-128810045D01*
X121179341Y-128822987D01*
X121347266Y-128940568D01*
X121553504Y-129036739D01*
X121773308Y-129095635D01*
X121935230Y-129109801D01*
X121999998Y-129115468D01*
X122000000Y-129115468D01*
X122000002Y-129115468D01*
X122056673Y-129110509D01*
X122226692Y-129095635D01*
X122446496Y-129036739D01*
X122652734Y-128940568D01*
X122839139Y-128810047D01*
X123000047Y-128649139D01*
X123130568Y-128462734D01*
X123226739Y-128256496D01*
X123285635Y-128036692D01*
X123302709Y-127841535D01*
X123305468Y-127810001D01*
X123305468Y-127809998D01*
X123294749Y-127687482D01*
X123285635Y-127583308D01*
X123226739Y-127363504D01*
X123130568Y-127157266D01*
X123000047Y-126970861D01*
X123000045Y-126970858D01*
X122839141Y-126809954D01*
X122652734Y-126679432D01*
X122652732Y-126679431D01*
X122446497Y-126583261D01*
X122446488Y-126583258D01*
X122226697Y-126524366D01*
X122226693Y-126524365D01*
X122226692Y-126524365D01*
X122226691Y-126524364D01*
X122226686Y-126524364D01*
X122000002Y-126504532D01*
X121999998Y-126504532D01*
X121773313Y-126524364D01*
X121773302Y-126524366D01*
X121553511Y-126583258D01*
X121553497Y-126583263D01*
X121519504Y-126599115D01*
X121450427Y-126609607D01*
X121386643Y-126581087D01*
X121348404Y-126522610D01*
X121343100Y-126486733D01*
X121343100Y-121513266D01*
X121362785Y-121446227D01*
X121415589Y-121400472D01*
X121484747Y-121390528D01*
X121519502Y-121400883D01*
X121553504Y-121416739D01*
X121773308Y-121475635D01*
X121935230Y-121489801D01*
X121999998Y-121495468D01*
X122000000Y-121495468D01*
X122000002Y-121495468D01*
X122056673Y-121490509D01*
X122226692Y-121475635D01*
X122446496Y-121416739D01*
X122652734Y-121320568D01*
X122839139Y-121190047D01*
X123000047Y-121029139D01*
X123130568Y-120842734D01*
X123226739Y-120636496D01*
X123285635Y-120416692D01*
X123302709Y-120221535D01*
X123305468Y-120190001D01*
X123305468Y-120189998D01*
X123290684Y-120021016D01*
X123285635Y-119963308D01*
X123226739Y-119743504D01*
X123130568Y-119537266D01*
X123000047Y-119350861D01*
X123000045Y-119350858D01*
X122839141Y-119189954D01*
X122652734Y-119059432D01*
X122652732Y-119059431D01*
X122446497Y-118963261D01*
X122446488Y-118963258D01*
X122226697Y-118904366D01*
X122226693Y-118904365D01*
X122226692Y-118904365D01*
X122226691Y-118904364D01*
X122226686Y-118904364D01*
X122000002Y-118884532D01*
X121999998Y-118884532D01*
X121773313Y-118904364D01*
X121773302Y-118904366D01*
X121553511Y-118963258D01*
X121553497Y-118963263D01*
X121519504Y-118979115D01*
X121450427Y-118989607D01*
X121386643Y-118961087D01*
X121348404Y-118902610D01*
X121343100Y-118866733D01*
X121343100Y-111367297D01*
X121362785Y-111300258D01*
X121415589Y-111254503D01*
X121484747Y-111244559D01*
X121548303Y-111273584D01*
G37*
%TD.AperFunction*%
%TA.AperFunction,Conductor*%
G36*
X206229425Y-102206855D02*
G01*
X206244300Y-102216413D01*
X206290872Y-102251277D01*
X206332741Y-102307209D01*
X206337725Y-102376901D01*
X206304240Y-102438223D01*
X205354584Y-103387881D01*
X205293261Y-103421366D01*
X205266903Y-103424200D01*
X193073943Y-103424200D01*
X192921214Y-103465123D01*
X192921213Y-103465123D01*
X192897313Y-103478921D01*
X192897314Y-103478922D01*
X192784287Y-103544177D01*
X192784282Y-103544181D01*
X192672478Y-103655986D01*
X164091584Y-132236881D01*
X164030261Y-132270366D01*
X164003903Y-132273200D01*
X157825597Y-132273200D01*
X157758558Y-132253515D01*
X157712803Y-132200711D01*
X157702859Y-132131553D01*
X157731884Y-132067997D01*
X157737916Y-132061519D01*
X158599701Y-131199734D01*
X161187706Y-128611727D01*
X161187711Y-128611724D01*
X161197914Y-128601520D01*
X161197916Y-128601520D01*
X161309720Y-128489716D01*
X161388777Y-128352784D01*
X161429700Y-128200057D01*
X161429700Y-127427097D01*
X161449385Y-127360058D01*
X161466019Y-127339416D01*
X164913319Y-123892116D01*
X164974642Y-123858631D01*
X165044334Y-123863615D01*
X165100267Y-123905487D01*
X165124684Y-123970951D01*
X165125000Y-123979797D01*
X165125000Y-124483220D01*
X165158857Y-124696981D01*
X165225735Y-124902814D01*
X165225736Y-124902817D01*
X165323994Y-125095657D01*
X165451211Y-125270754D01*
X165451211Y-125270755D01*
X165604244Y-125423788D01*
X165779342Y-125551005D01*
X165972182Y-125649263D01*
X165972185Y-125649264D01*
X166178017Y-125716142D01*
X166250000Y-125727543D01*
X166250000Y-124038816D01*
X166266060Y-124054876D01*
X166352939Y-124105036D01*
X166449840Y-124131000D01*
X166550160Y-124131000D01*
X166647061Y-124105036D01*
X166733940Y-124054876D01*
X166750000Y-124038816D01*
X166750000Y-125727542D01*
X166821980Y-125716142D01*
X166821983Y-125716142D01*
X167027814Y-125649264D01*
X167027817Y-125649263D01*
X167220657Y-125551005D01*
X167395754Y-125423788D01*
X167395755Y-125423788D01*
X167548788Y-125270755D01*
X167548793Y-125270749D01*
X167669373Y-125104786D01*
X167724703Y-125062120D01*
X167794316Y-125056141D01*
X167856111Y-125088747D01*
X167870006Y-125104781D01*
X167990828Y-125271078D01*
X168143922Y-125424172D01*
X168319081Y-125551433D01*
X168413697Y-125599642D01*
X168511990Y-125649726D01*
X168511993Y-125649727D01*
X168559129Y-125665042D01*
X168717903Y-125716630D01*
X168931746Y-125750500D01*
X168931747Y-125750500D01*
X169148253Y-125750500D01*
X169148254Y-125750500D01*
X169362097Y-125716630D01*
X169568009Y-125649726D01*
X169760919Y-125551433D01*
X169936078Y-125424172D01*
X170089172Y-125271078D01*
X170216433Y-125095919D01*
X170314726Y-124903009D01*
X170381630Y-124697097D01*
X170415500Y-124483254D01*
X170415500Y-123016746D01*
X170381630Y-122802903D01*
X170318135Y-122607482D01*
X170314727Y-122596993D01*
X170314726Y-122596990D01*
X170240232Y-122450789D01*
X170216433Y-122404081D01*
X170089172Y-122228922D01*
X169936078Y-122075828D01*
X169760919Y-121948567D01*
X169568009Y-121850273D01*
X169568006Y-121850272D01*
X169362098Y-121783370D01*
X169237756Y-121763676D01*
X169148254Y-121749500D01*
X168931746Y-121749500D01*
X168860465Y-121760790D01*
X168717901Y-121783370D01*
X168511993Y-121850272D01*
X168511990Y-121850273D01*
X168319080Y-121948567D01*
X168273893Y-121981398D01*
X168143922Y-122075828D01*
X168143920Y-122075830D01*
X168143919Y-122075830D01*
X167990829Y-122228920D01*
X167870009Y-122395214D01*
X167814678Y-122437879D01*
X167745065Y-122443858D01*
X167683270Y-122411252D01*
X167669373Y-122395214D01*
X167548788Y-122229245D01*
X167548788Y-122229244D01*
X167395755Y-122076211D01*
X167220657Y-121948994D01*
X167131446Y-121903539D01*
X167080650Y-121855565D01*
X167063855Y-121787744D01*
X167086392Y-121721609D01*
X167100049Y-121705385D01*
X170304416Y-118501019D01*
X170365739Y-118467534D01*
X170392097Y-118464700D01*
X172914131Y-118464700D01*
X172914147Y-118464701D01*
X172921743Y-118464701D01*
X173079854Y-118464701D01*
X173079857Y-118464701D01*
X173232585Y-118423777D01*
X173282704Y-118394839D01*
X173369516Y-118344720D01*
X173481320Y-118232916D01*
X173481320Y-118232914D01*
X173491528Y-118222707D01*
X173491529Y-118222704D01*
X188925717Y-102788519D01*
X188987040Y-102755034D01*
X189013398Y-102752200D01*
X202439055Y-102752200D01*
X202439057Y-102752200D01*
X202591784Y-102711277D01*
X202728716Y-102632220D01*
X202840520Y-102520416D01*
X202902825Y-102412498D01*
X202953391Y-102364284D01*
X203010212Y-102350499D01*
X203257871Y-102350499D01*
X203257872Y-102350499D01*
X203317483Y-102344091D01*
X203452331Y-102293796D01*
X203555690Y-102216421D01*
X203621152Y-102192004D01*
X203689425Y-102206855D01*
X203704303Y-102216416D01*
X203807076Y-102293352D01*
X203807668Y-102293795D01*
X203807671Y-102293797D01*
X203942517Y-102344091D01*
X203942516Y-102344091D01*
X203949444Y-102344835D01*
X204002127Y-102350500D01*
X205797872Y-102350499D01*
X205857483Y-102344091D01*
X205992331Y-102293796D01*
X206095690Y-102216421D01*
X206161152Y-102192004D01*
X206229425Y-102206855D01*
G37*
%TD.AperFunction*%
%TA.AperFunction,Conductor*%
G36*
X145968042Y-103979585D02*
G01*
X145988684Y-103996219D01*
X151643426Y-109650961D01*
X151676911Y-109712284D01*
X151671927Y-109781976D01*
X151643427Y-109826323D01*
X151490827Y-109978923D01*
X151370009Y-110145214D01*
X151314678Y-110187879D01*
X151245065Y-110193858D01*
X151183270Y-110161252D01*
X151169373Y-110145214D01*
X151048788Y-109979245D01*
X151048788Y-109979244D01*
X150895755Y-109826211D01*
X150720657Y-109698994D01*
X150527817Y-109600736D01*
X150527814Y-109600735D01*
X150321983Y-109533857D01*
X150250000Y-109522456D01*
X150250000Y-111211184D01*
X150233940Y-111195124D01*
X150147061Y-111144964D01*
X150050160Y-111119000D01*
X149949840Y-111119000D01*
X149852939Y-111144964D01*
X149766060Y-111195124D01*
X149750000Y-111211184D01*
X149750000Y-109522456D01*
X149749999Y-109522456D01*
X149678016Y-109533857D01*
X149678015Y-109533857D01*
X149472185Y-109600735D01*
X149472182Y-109600736D01*
X149279342Y-109698994D01*
X149104245Y-109826211D01*
X149104244Y-109826211D01*
X148951211Y-109979244D01*
X148951211Y-109979245D01*
X148823994Y-110154342D01*
X148725736Y-110347182D01*
X148725735Y-110347185D01*
X148658857Y-110553018D01*
X148625000Y-110766779D01*
X148625000Y-111250000D01*
X149711184Y-111250000D01*
X149695124Y-111266060D01*
X149644964Y-111352939D01*
X149619000Y-111449840D01*
X149619000Y-111550160D01*
X149644964Y-111647061D01*
X149695124Y-111733940D01*
X149711184Y-111750000D01*
X148625000Y-111750000D01*
X148625000Y-112233220D01*
X148658857Y-112446981D01*
X148725735Y-112652814D01*
X148725736Y-112652817D01*
X148823994Y-112845657D01*
X148951211Y-113020754D01*
X148951211Y-113020755D01*
X149104244Y-113173788D01*
X149279342Y-113301005D01*
X149472182Y-113399263D01*
X149472185Y-113399264D01*
X149678017Y-113466142D01*
X149750000Y-113477543D01*
X149750000Y-111788816D01*
X149766060Y-111804876D01*
X149852939Y-111855036D01*
X149949840Y-111881000D01*
X150050160Y-111881000D01*
X150147061Y-111855036D01*
X150233940Y-111804876D01*
X150250000Y-111788816D01*
X150250000Y-113477542D01*
X150321980Y-113466142D01*
X150321983Y-113466142D01*
X150527814Y-113399264D01*
X150527817Y-113399263D01*
X150720657Y-113301005D01*
X150895754Y-113173788D01*
X150895755Y-113173788D01*
X151048788Y-113020755D01*
X151048793Y-113020749D01*
X151169373Y-112854786D01*
X151224703Y-112812120D01*
X151294316Y-112806141D01*
X151356111Y-112838747D01*
X151370006Y-112854781D01*
X151490828Y-113021078D01*
X151643922Y-113174172D01*
X151819081Y-113301433D01*
X151902774Y-113344077D01*
X152011990Y-113399726D01*
X152011993Y-113399727D01*
X152109478Y-113431401D01*
X152217903Y-113466630D01*
X152431746Y-113500500D01*
X152431747Y-113500500D01*
X152648253Y-113500500D01*
X152648254Y-113500500D01*
X152862097Y-113466630D01*
X153068009Y-113399726D01*
X153260919Y-113301433D01*
X153436078Y-113174172D01*
X153457819Y-113152431D01*
X153519142Y-113118946D01*
X153588834Y-113123930D01*
X153644767Y-113165802D01*
X153669184Y-113231266D01*
X153669500Y-113240112D01*
X153669500Y-117005530D01*
X153669499Y-117005548D01*
X153669499Y-117171254D01*
X153669498Y-117171254D01*
X153710424Y-117323989D01*
X153710425Y-117323990D01*
X153738907Y-117373321D01*
X153738908Y-117373322D01*
X153756977Y-117404618D01*
X153789479Y-117460914D01*
X153789481Y-117460917D01*
X153908349Y-117579785D01*
X153908355Y-117579790D01*
X157933529Y-121604964D01*
X157967014Y-121666287D01*
X157962030Y-121735979D01*
X157920158Y-121791912D01*
X157884167Y-121810576D01*
X157761990Y-121850274D01*
X157569080Y-121948567D01*
X157523893Y-121981398D01*
X157393922Y-122075828D01*
X157393920Y-122075830D01*
X157393919Y-122075830D01*
X157240829Y-122228920D01*
X157120009Y-122395214D01*
X157064678Y-122437879D01*
X156995065Y-122443858D01*
X156933270Y-122411252D01*
X156919373Y-122395214D01*
X156798788Y-122229245D01*
X156798788Y-122229244D01*
X156645755Y-122076211D01*
X156470657Y-121948994D01*
X156277817Y-121850736D01*
X156277814Y-121850735D01*
X156071983Y-121783857D01*
X156000000Y-121772456D01*
X156000000Y-123461184D01*
X155983940Y-123445124D01*
X155897061Y-123394964D01*
X155800160Y-123369000D01*
X155699840Y-123369000D01*
X155602939Y-123394964D01*
X155516060Y-123445124D01*
X155500000Y-123461184D01*
X155500000Y-121772456D01*
X155499999Y-121772456D01*
X155428016Y-121783857D01*
X155428015Y-121783857D01*
X155222185Y-121850735D01*
X155222182Y-121850736D01*
X155029342Y-121948994D01*
X154854245Y-122076211D01*
X154854244Y-122076211D01*
X154701211Y-122229244D01*
X154701211Y-122229245D01*
X154573994Y-122404342D01*
X154475736Y-122597182D01*
X154475735Y-122597185D01*
X154408857Y-122803018D01*
X154375000Y-123016779D01*
X154375000Y-123500000D01*
X155461184Y-123500000D01*
X155445124Y-123516060D01*
X155394964Y-123602939D01*
X155369000Y-123699840D01*
X155369000Y-123800160D01*
X155394964Y-123897061D01*
X155445124Y-123983940D01*
X155461184Y-124000000D01*
X154375000Y-124000000D01*
X154375000Y-124483220D01*
X154408857Y-124696981D01*
X154475735Y-124902814D01*
X154475736Y-124902817D01*
X154573994Y-125095657D01*
X154701211Y-125270754D01*
X154701211Y-125270755D01*
X154854244Y-125423788D01*
X155029342Y-125551005D01*
X155145646Y-125610265D01*
X155196442Y-125658239D01*
X155213237Y-125726060D01*
X155190700Y-125792195D01*
X155177032Y-125808431D01*
X149606784Y-131378681D01*
X149545461Y-131412166D01*
X149519103Y-131415000D01*
X141104272Y-131415000D01*
X141037233Y-131395315D01*
X140991478Y-131342511D01*
X140981534Y-131273353D01*
X140985006Y-131257066D01*
X140989731Y-131240460D01*
X140995115Y-131221536D01*
X141015643Y-131000000D01*
X141013054Y-130972065D01*
X140995115Y-130778464D01*
X140995114Y-130778462D01*
X140982574Y-130734390D01*
X140934229Y-130564472D01*
X140924267Y-130544467D01*
X140912008Y-130475683D01*
X140938882Y-130411189D01*
X140996358Y-130371461D01*
X141021385Y-130365978D01*
X141053721Y-130362335D01*
X141108449Y-130356169D01*
X141108452Y-130356168D01*
X141108455Y-130356168D01*
X141278722Y-130296589D01*
X141431462Y-130200616D01*
X141559016Y-130073062D01*
X141654989Y-129920322D01*
X141714568Y-129750055D01*
X141724361Y-129663129D01*
X141751426Y-129598718D01*
X141759890Y-129589343D01*
X145820240Y-125528993D01*
X145881561Y-125495510D01*
X145951253Y-125500494D01*
X145980804Y-125516357D01*
X146029081Y-125551433D01*
X146123697Y-125599642D01*
X146221990Y-125649726D01*
X146221993Y-125649727D01*
X146269129Y-125665042D01*
X146427903Y-125716630D01*
X146641746Y-125750500D01*
X146641747Y-125750500D01*
X146858253Y-125750500D01*
X146858254Y-125750500D01*
X147072097Y-125716630D01*
X147278009Y-125649726D01*
X147470919Y-125551433D01*
X147646078Y-125424172D01*
X147799172Y-125271078D01*
X147926433Y-125095919D01*
X148024726Y-124903009D01*
X148091630Y-124697097D01*
X148125500Y-124483254D01*
X148125500Y-123016746D01*
X148091630Y-122802903D01*
X148028135Y-122607482D01*
X148024727Y-122596993D01*
X148024726Y-122596990D01*
X147950232Y-122450789D01*
X147926433Y-122404081D01*
X147799172Y-122228922D01*
X147646078Y-122075828D01*
X147470919Y-121948567D01*
X147278009Y-121850273D01*
X147278006Y-121850272D01*
X147072098Y-121783370D01*
X146947756Y-121763676D01*
X146858254Y-121749500D01*
X146641746Y-121749500D01*
X146570465Y-121760790D01*
X146427901Y-121783370D01*
X146221993Y-121850272D01*
X146221990Y-121850273D01*
X146029080Y-121948567D01*
X145983893Y-121981398D01*
X145853922Y-122075828D01*
X145853920Y-122075830D01*
X145853919Y-122075830D01*
X145700829Y-122228920D01*
X145580009Y-122395214D01*
X145524678Y-122437879D01*
X145455065Y-122443858D01*
X145393270Y-122411252D01*
X145379373Y-122395214D01*
X145258788Y-122229245D01*
X145258788Y-122229244D01*
X145105755Y-122076211D01*
X144930657Y-121948994D01*
X144737817Y-121850736D01*
X144737814Y-121850735D01*
X144531983Y-121783857D01*
X144460000Y-121772456D01*
X144460000Y-123461184D01*
X144443940Y-123445124D01*
X144357061Y-123394964D01*
X144260160Y-123369000D01*
X144159840Y-123369000D01*
X144062939Y-123394964D01*
X143976060Y-123445124D01*
X143960000Y-123461184D01*
X143960000Y-121772456D01*
X143959999Y-121772456D01*
X143888016Y-121783857D01*
X143888015Y-121783857D01*
X143682185Y-121850735D01*
X143682182Y-121850736D01*
X143489342Y-121948994D01*
X143314245Y-122076211D01*
X143314244Y-122076211D01*
X143161211Y-122229244D01*
X143161211Y-122229245D01*
X143033994Y-122404342D01*
X142935736Y-122597182D01*
X142935735Y-122597185D01*
X142868857Y-122803018D01*
X142835000Y-123016779D01*
X142835000Y-123500000D01*
X143921184Y-123500000D01*
X143905124Y-123516060D01*
X143854964Y-123602939D01*
X143829000Y-123699840D01*
X143829000Y-123800160D01*
X143854964Y-123897061D01*
X143905124Y-123983940D01*
X143921184Y-124000000D01*
X142835000Y-124000000D01*
X142835000Y-124483220D01*
X142868857Y-124696981D01*
X142935735Y-124902814D01*
X142935736Y-124902817D01*
X143033994Y-125095657D01*
X143161211Y-125270754D01*
X143161211Y-125270755D01*
X143314244Y-125423788D01*
X143489342Y-125551005D01*
X143682182Y-125649263D01*
X143682185Y-125649264D01*
X143730745Y-125665042D01*
X143788420Y-125704479D01*
X143815619Y-125768838D01*
X143803705Y-125837684D01*
X143780108Y-125870654D01*
X140910665Y-128740098D01*
X140849342Y-128773583D01*
X140836868Y-128775637D01*
X140749950Y-128785430D01*
X140575454Y-128846488D01*
X140505675Y-128850049D01*
X140445048Y-128815320D01*
X140412821Y-128753326D01*
X140410500Y-128729446D01*
X140410500Y-123921745D01*
X140410500Y-123921743D01*
X140380081Y-123808216D01*
X140380081Y-123808215D01*
X140380081Y-123808214D01*
X140369577Y-123769016D01*
X140369574Y-123769009D01*
X140339753Y-123717358D01*
X140339751Y-123717356D01*
X140329638Y-123699840D01*
X140312955Y-123670943D01*
X140290521Y-123632085D01*
X140227115Y-123568679D01*
X140193631Y-123507355D01*
X140198616Y-123437664D01*
X140209803Y-123415026D01*
X140222409Y-123394964D01*
X140302989Y-123266722D01*
X140362568Y-123096455D01*
X140372361Y-123009529D01*
X140399426Y-122945118D01*
X140407890Y-122935743D01*
X141950885Y-121392748D01*
X142012206Y-121359265D01*
X142081898Y-121364249D01*
X142104535Y-121375437D01*
X142127374Y-121389787D01*
X142127375Y-121389787D01*
X142127378Y-121389789D01*
X142288669Y-121446227D01*
X142297645Y-121449368D01*
X142297650Y-121449369D01*
X142476896Y-121469565D01*
X142476900Y-121469565D01*
X142476904Y-121469565D01*
X142656149Y-121449369D01*
X142656152Y-121449368D01*
X142656155Y-121449368D01*
X142826422Y-121389789D01*
X142979162Y-121293816D01*
X143106716Y-121166262D01*
X143202689Y-121013522D01*
X143262268Y-120843255D01*
X143272061Y-120756329D01*
X143299126Y-120691918D01*
X143307590Y-120682543D01*
X148085706Y-115904428D01*
X148085711Y-115904424D01*
X148095914Y-115894220D01*
X148095916Y-115894220D01*
X148207720Y-115782416D01*
X148286777Y-115645484D01*
X148327700Y-115492757D01*
X148327700Y-110289843D01*
X148322728Y-110271285D01*
X148286777Y-110137115D01*
X148239377Y-110055016D01*
X148207720Y-110000184D01*
X148095916Y-109888380D01*
X148095915Y-109888379D01*
X148091585Y-109884049D01*
X148091574Y-109884039D01*
X145306573Y-107099038D01*
X145273088Y-107037715D01*
X145278072Y-106968023D01*
X145306569Y-106923680D01*
X145459172Y-106771078D01*
X145586433Y-106595919D01*
X145684726Y-106403009D01*
X145751630Y-106197097D01*
X145785500Y-105983254D01*
X145785500Y-104516746D01*
X145751630Y-104302903D01*
X145692923Y-104122218D01*
X145690928Y-104052376D01*
X145727009Y-103992544D01*
X145789710Y-103961716D01*
X145810854Y-103959900D01*
X145901003Y-103959900D01*
X145968042Y-103979585D01*
G37*
%TD.AperFunction*%
%TA.AperFunction,Conductor*%
G36*
X169990703Y-105032584D02*
G01*
X169997181Y-105038616D01*
X174463681Y-109505116D01*
X174497166Y-109566439D01*
X174500000Y-109592797D01*
X174500000Y-111211184D01*
X174483940Y-111195124D01*
X174397061Y-111144964D01*
X174300160Y-111119000D01*
X174199840Y-111119000D01*
X174102939Y-111144964D01*
X174016060Y-111195124D01*
X174000000Y-111211184D01*
X174000000Y-109522456D01*
X173999999Y-109522456D01*
X173928016Y-109533857D01*
X173928015Y-109533857D01*
X173722185Y-109600735D01*
X173722182Y-109600736D01*
X173529342Y-109698994D01*
X173354245Y-109826211D01*
X173354244Y-109826211D01*
X173201211Y-109979244D01*
X173201211Y-109979245D01*
X173073994Y-110154342D01*
X172975736Y-110347182D01*
X172975735Y-110347185D01*
X172908857Y-110553018D01*
X172875000Y-110766779D01*
X172875000Y-111250000D01*
X173961184Y-111250000D01*
X173945124Y-111266060D01*
X173894964Y-111352939D01*
X173869000Y-111449840D01*
X173869000Y-111550160D01*
X173894964Y-111647061D01*
X173945124Y-111733940D01*
X173961184Y-111750000D01*
X172875000Y-111750000D01*
X172875000Y-112233220D01*
X172908857Y-112446981D01*
X172975735Y-112652814D01*
X172975736Y-112652817D01*
X173073994Y-112845657D01*
X173201211Y-113020754D01*
X173201211Y-113020755D01*
X173354244Y-113173788D01*
X173529342Y-113301005D01*
X173722182Y-113399263D01*
X173722185Y-113399264D01*
X173928017Y-113466142D01*
X174000000Y-113477543D01*
X174000000Y-111788816D01*
X174016060Y-111804876D01*
X174102939Y-111855036D01*
X174199840Y-111881000D01*
X174300160Y-111881000D01*
X174397061Y-111855036D01*
X174483940Y-111804876D01*
X174500000Y-111788816D01*
X174500000Y-113477542D01*
X174571980Y-113466142D01*
X174571983Y-113466142D01*
X174777814Y-113399264D01*
X174777817Y-113399263D01*
X174970657Y-113301005D01*
X175145754Y-113173788D01*
X175145755Y-113173788D01*
X175298788Y-113020755D01*
X175298793Y-113020749D01*
X175419373Y-112854786D01*
X175474703Y-112812120D01*
X175544316Y-112806141D01*
X175606111Y-112838747D01*
X175620006Y-112854781D01*
X175740828Y-113021078D01*
X175893922Y-113174172D01*
X176069081Y-113301433D01*
X176261991Y-113399726D01*
X176336766Y-113424021D01*
X176394440Y-113463457D01*
X176421640Y-113527815D01*
X176409726Y-113596662D01*
X176386129Y-113629633D01*
X172788384Y-117227381D01*
X172727061Y-117260866D01*
X172700703Y-117263700D01*
X170012940Y-117263700D01*
X169972019Y-117274664D01*
X169972019Y-117274665D01*
X169949243Y-117280768D01*
X169860214Y-117304623D01*
X169860209Y-117304626D01*
X169723290Y-117383675D01*
X169723282Y-117383681D01*
X160740181Y-126366783D01*
X160678858Y-126400268D01*
X160609166Y-126395284D01*
X160553233Y-126353412D01*
X160528816Y-126287948D01*
X160528500Y-126279102D01*
X160528500Y-120028097D01*
X160548185Y-119961058D01*
X160600989Y-119915303D01*
X160670147Y-119905359D01*
X160733703Y-119934384D01*
X160740181Y-119940416D01*
X162543298Y-121743533D01*
X162576783Y-121804856D01*
X162578837Y-121817330D01*
X162588630Y-121904249D01*
X162648210Y-122074521D01*
X162684220Y-122131830D01*
X162744184Y-122227262D01*
X162871738Y-122354816D01*
X163024478Y-122450789D01*
X163194745Y-122510368D01*
X163194750Y-122510369D01*
X163373996Y-122530565D01*
X163374000Y-122530565D01*
X163374004Y-122530565D01*
X163553249Y-122510369D01*
X163553252Y-122510368D01*
X163553255Y-122510368D01*
X163723522Y-122450789D01*
X163876262Y-122354816D01*
X164003816Y-122227262D01*
X164099789Y-122074522D01*
X164159368Y-121904255D01*
X164165398Y-121850736D01*
X164179565Y-121725003D01*
X164179565Y-121724996D01*
X164159369Y-121545750D01*
X164159368Y-121545745D01*
X164132711Y-121469565D01*
X164099789Y-121375478D01*
X164092733Y-121364249D01*
X164003815Y-121222737D01*
X163876262Y-121095184D01*
X163723521Y-120999210D01*
X163553249Y-120939630D01*
X163466330Y-120929837D01*
X163401916Y-120902770D01*
X163392533Y-120894298D01*
X160553819Y-118055584D01*
X160520334Y-117994261D01*
X160517500Y-117967903D01*
X160517500Y-117942521D01*
X160537185Y-117875482D01*
X160589989Y-117829727D01*
X160627615Y-117819301D01*
X160675683Y-117813885D01*
X160717549Y-117809169D01*
X160717552Y-117809168D01*
X160717555Y-117809168D01*
X160887822Y-117749589D01*
X161040562Y-117653616D01*
X161040570Y-117653607D01*
X161043526Y-117651252D01*
X161045803Y-117650322D01*
X161046458Y-117649911D01*
X161046530Y-117650025D01*
X161108213Y-117624844D01*
X161120838Y-117624200D01*
X161517931Y-117624200D01*
X161517947Y-117624201D01*
X161525543Y-117624201D01*
X161683654Y-117624201D01*
X161683657Y-117624201D01*
X161836385Y-117583277D01*
X161929877Y-117529299D01*
X161973316Y-117504220D01*
X162085120Y-117392416D01*
X162085120Y-117392414D01*
X162095324Y-117382211D01*
X162095328Y-117382206D01*
X166804082Y-112673451D01*
X166865401Y-112639969D01*
X166935093Y-112644953D01*
X166991026Y-112686825D01*
X167002244Y-112704840D01*
X167073994Y-112845657D01*
X167201211Y-113020754D01*
X167201211Y-113020755D01*
X167354244Y-113173788D01*
X167529342Y-113301005D01*
X167722182Y-113399263D01*
X167722185Y-113399264D01*
X167928017Y-113466142D01*
X168000000Y-113477543D01*
X168000000Y-111788816D01*
X168016060Y-111804876D01*
X168102939Y-111855036D01*
X168199840Y-111881000D01*
X168300160Y-111881000D01*
X168397061Y-111855036D01*
X168483940Y-111804876D01*
X168500000Y-111788816D01*
X168500000Y-113477543D01*
X168571980Y-113466142D01*
X168571983Y-113466142D01*
X168777814Y-113399264D01*
X168777817Y-113399263D01*
X168970657Y-113301005D01*
X169145754Y-113173788D01*
X169145755Y-113173788D01*
X169298788Y-113020755D01*
X169298793Y-113020749D01*
X169419373Y-112854786D01*
X169474703Y-112812120D01*
X169544316Y-112806141D01*
X169606111Y-112838747D01*
X169620006Y-112854781D01*
X169740828Y-113021078D01*
X169893922Y-113174172D01*
X170069081Y-113301433D01*
X170152774Y-113344077D01*
X170261990Y-113399726D01*
X170261993Y-113399727D01*
X170359478Y-113431401D01*
X170467903Y-113466630D01*
X170681746Y-113500500D01*
X170681747Y-113500500D01*
X170898253Y-113500500D01*
X170898254Y-113500500D01*
X171112097Y-113466630D01*
X171318009Y-113399726D01*
X171510919Y-113301433D01*
X171686078Y-113174172D01*
X171839172Y-113021078D01*
X171966433Y-112845919D01*
X172064726Y-112653009D01*
X172131630Y-112447097D01*
X172165500Y-112233254D01*
X172165500Y-110766746D01*
X172131630Y-110552903D01*
X172098178Y-110449947D01*
X172064727Y-110346993D01*
X172064726Y-110346990D01*
X171979038Y-110178820D01*
X171966433Y-110154081D01*
X171839172Y-109978922D01*
X171686078Y-109825828D01*
X171510919Y-109698567D01*
X171509518Y-109697853D01*
X171318009Y-109600273D01*
X171318006Y-109600272D01*
X171112098Y-109533370D01*
X170933711Y-109505116D01*
X170898254Y-109499500D01*
X170681746Y-109499500D01*
X170646289Y-109505116D01*
X170467901Y-109533370D01*
X170261993Y-109600272D01*
X170261990Y-109600273D01*
X170069076Y-109698569D01*
X170051729Y-109711172D01*
X169985922Y-109734649D01*
X169917869Y-109718821D01*
X169891167Y-109698532D01*
X168365500Y-108172865D01*
X168332015Y-108111542D01*
X168329963Y-108099086D01*
X168320168Y-108012145D01*
X168260589Y-107841878D01*
X168167401Y-107693571D01*
X168148402Y-107626335D01*
X168168770Y-107559500D01*
X168184708Y-107539925D01*
X168286117Y-107438516D01*
X168347440Y-107405034D01*
X168373797Y-107402200D01*
X168489055Y-107402200D01*
X168489057Y-107402200D01*
X168641784Y-107361277D01*
X168778716Y-107282220D01*
X168890520Y-107170416D01*
X168969577Y-107033484D01*
X169001787Y-106913274D01*
X169038151Y-106853615D01*
X169065267Y-106834884D01*
X169130917Y-106801434D01*
X169130916Y-106801434D01*
X169130919Y-106801433D01*
X169306078Y-106674172D01*
X169459172Y-106521078D01*
X169586433Y-106345919D01*
X169684726Y-106153009D01*
X169751630Y-105947097D01*
X169785500Y-105733254D01*
X169785500Y-105126297D01*
X169805185Y-105059258D01*
X169857989Y-105013503D01*
X169927147Y-105003559D01*
X169990703Y-105032584D01*
G37*
%TD.AperFunction*%
%TA.AperFunction,Conductor*%
G36*
X116793369Y-106651479D02*
G01*
X116849302Y-106693351D01*
X116873719Y-106758815D01*
X116873255Y-106781543D01*
X116861735Y-106883794D01*
X116861735Y-106883803D01*
X116881930Y-107063049D01*
X116881931Y-107063054D01*
X116941511Y-107233323D01*
X117029069Y-107372669D01*
X117037484Y-107386062D01*
X117165038Y-107513616D01*
X117216230Y-107545782D01*
X117283737Y-107588200D01*
X117317778Y-107609589D01*
X117439313Y-107652116D01*
X117488045Y-107669168D01*
X117488050Y-107669169D01*
X117667296Y-107689365D01*
X117667300Y-107689365D01*
X117667303Y-107689365D01*
X117741964Y-107680952D01*
X117783716Y-107676248D01*
X117852538Y-107688302D01*
X117903917Y-107735651D01*
X117921600Y-107799468D01*
X117921600Y-125059502D01*
X117901915Y-125126541D01*
X117885281Y-125147183D01*
X117664635Y-125367829D01*
X117603312Y-125401314D01*
X117533620Y-125396330D01*
X117477687Y-125354458D01*
X117453270Y-125288994D01*
X117460771Y-125236817D01*
X117494091Y-125147483D01*
X117500500Y-125087873D01*
X117500499Y-122992128D01*
X117494091Y-122932517D01*
X117449637Y-122813332D01*
X117444654Y-122743642D01*
X117449638Y-122726667D01*
X117494091Y-122607482D01*
X117495198Y-122597185D01*
X117500500Y-122547873D01*
X117500499Y-120452128D01*
X117494091Y-120392517D01*
X117493652Y-120391341D01*
X117468648Y-120324302D01*
X117449637Y-120273332D01*
X117444654Y-120203642D01*
X117449638Y-120186667D01*
X117494091Y-120067482D01*
X117495182Y-120057335D01*
X117500500Y-120007873D01*
X117500499Y-117912128D01*
X117494091Y-117852517D01*
X117480342Y-117815655D01*
X117455701Y-117749588D01*
X117449637Y-117733332D01*
X117444654Y-117663642D01*
X117449638Y-117646667D01*
X117452802Y-117638185D01*
X117494091Y-117527483D01*
X117500500Y-117467873D01*
X117500499Y-115372128D01*
X117494091Y-115312517D01*
X117449637Y-115193332D01*
X117444654Y-115123642D01*
X117449638Y-115106667D01*
X117494091Y-114987483D01*
X117500500Y-114927873D01*
X117500499Y-112832128D01*
X117494091Y-112772517D01*
X117449370Y-112652615D01*
X117444387Y-112582927D01*
X117449371Y-112565951D01*
X117493597Y-112447376D01*
X117493598Y-112447372D01*
X117499999Y-112387844D01*
X117500000Y-112387827D01*
X117500000Y-111590000D01*
X115374000Y-111590000D01*
X115306967Y-111570316D01*
X115355036Y-111487061D01*
X115381000Y-111390160D01*
X115381000Y-111289840D01*
X115355036Y-111192939D01*
X115304876Y-111106060D01*
X115250000Y-111051184D01*
X115250000Y-109840000D01*
X115750000Y-109840000D01*
X115750000Y-111090000D01*
X117500000Y-111090000D01*
X117500000Y-110292172D01*
X117499999Y-110292155D01*
X117493598Y-110232627D01*
X117493596Y-110232620D01*
X117443354Y-110097913D01*
X117443350Y-110097906D01*
X117357190Y-109982812D01*
X117357187Y-109982809D01*
X117242093Y-109896649D01*
X117242086Y-109896645D01*
X117107379Y-109846403D01*
X117107372Y-109846401D01*
X117047844Y-109840000D01*
X115750000Y-109840000D01*
X115250000Y-109840000D01*
X114791379Y-109840000D01*
X114724340Y-109820315D01*
X114678585Y-109767511D01*
X114668641Y-109698353D01*
X114674337Y-109675046D01*
X114694599Y-109617139D01*
X114696168Y-109612655D01*
X114697563Y-109600273D01*
X114716365Y-109433403D01*
X114716365Y-109433396D01*
X114696169Y-109254150D01*
X114696168Y-109254145D01*
X114679511Y-109206541D01*
X114636589Y-109083878D01*
X114543286Y-108935387D01*
X114524286Y-108868150D01*
X114544654Y-108801315D01*
X114560594Y-108781739D01*
X116662355Y-106679978D01*
X116723677Y-106646495D01*
X116793369Y-106651479D01*
G37*
%TD.AperFunction*%
%TA.AperFunction,Conductor*%
G36*
X138250000Y-113477542D02*
G01*
X138321980Y-113466142D01*
X138321983Y-113466142D01*
X138527814Y-113399264D01*
X138527817Y-113399263D01*
X138720657Y-113301005D01*
X138895754Y-113173788D01*
X138895755Y-113173788D01*
X139048788Y-113020755D01*
X139048793Y-113020749D01*
X139169373Y-112854786D01*
X139224703Y-112812120D01*
X139294316Y-112806141D01*
X139356111Y-112838747D01*
X139370006Y-112854781D01*
X139490828Y-113021078D01*
X139643922Y-113174172D01*
X139819081Y-113301433D01*
X139902774Y-113344077D01*
X140011990Y-113399726D01*
X140011993Y-113399727D01*
X140109478Y-113431401D01*
X140217903Y-113466630D01*
X140431746Y-113500500D01*
X140431747Y-113500500D01*
X140648253Y-113500500D01*
X140648254Y-113500500D01*
X140862097Y-113466630D01*
X141068009Y-113399726D01*
X141068009Y-113399725D01*
X141068014Y-113399724D01*
X141089204Y-113388927D01*
X141157873Y-113376030D01*
X141222614Y-113402306D01*
X141262872Y-113459412D01*
X141269500Y-113499411D01*
X141269500Y-120324302D01*
X141249815Y-120391341D01*
X141233181Y-120411983D01*
X139558665Y-122086498D01*
X139497342Y-122119983D01*
X139484868Y-122122037D01*
X139397950Y-122131830D01*
X139227677Y-122191410D01*
X139079372Y-122284597D01*
X139012135Y-122303597D01*
X138945300Y-122283229D01*
X138925719Y-122267284D01*
X134950000Y-118291565D01*
X134916515Y-118230242D01*
X134921499Y-118160550D01*
X134932687Y-118137912D01*
X134987459Y-118050743D01*
X135028189Y-117985922D01*
X135087768Y-117815655D01*
X135097561Y-117728729D01*
X135124626Y-117664318D01*
X135133090Y-117654943D01*
X136484020Y-116304016D01*
X136563077Y-116167084D01*
X136604001Y-116014357D01*
X136604001Y-115856242D01*
X136604001Y-115848647D01*
X136604000Y-115848629D01*
X136604000Y-112924494D01*
X136623685Y-112857455D01*
X136676489Y-112811700D01*
X136745647Y-112801756D01*
X136809203Y-112830781D01*
X136828318Y-112851608D01*
X136951211Y-113020754D01*
X136951211Y-113020755D01*
X137104244Y-113173788D01*
X137279342Y-113301005D01*
X137472182Y-113399263D01*
X137472185Y-113399264D01*
X137678017Y-113466142D01*
X137750000Y-113477543D01*
X137750000Y-111788816D01*
X137766060Y-111804876D01*
X137852939Y-111855036D01*
X137949840Y-111881000D01*
X138050160Y-111881000D01*
X138147061Y-111855036D01*
X138233940Y-111804876D01*
X138250000Y-111788816D01*
X138250000Y-113477542D01*
G37*
%TD.AperFunction*%
%TA.AperFunction,Conductor*%
G36*
X156250000Y-113477543D02*
G01*
X156321980Y-113466142D01*
X156321983Y-113466142D01*
X156507182Y-113405968D01*
X156577023Y-113403973D01*
X156636856Y-113440054D01*
X156667684Y-113502755D01*
X156669500Y-113523899D01*
X156669500Y-117063930D01*
X156669499Y-117063948D01*
X156669499Y-117229654D01*
X156669498Y-117229654D01*
X156678621Y-117263700D01*
X156710423Y-117382385D01*
X156710424Y-117382387D01*
X156710423Y-117382387D01*
X156723258Y-117404616D01*
X156723259Y-117404618D01*
X156789475Y-117519309D01*
X156789481Y-117519317D01*
X156908349Y-117638185D01*
X156908355Y-117638190D01*
X159291181Y-120021016D01*
X159324666Y-120082339D01*
X159327500Y-120108697D01*
X159327500Y-121001103D01*
X159307815Y-121068142D01*
X159255011Y-121113897D01*
X159185853Y-121123841D01*
X159122297Y-121094816D01*
X159115819Y-121088784D01*
X154906819Y-116879784D01*
X154873334Y-116818461D01*
X154870500Y-116792103D01*
X154870500Y-113239406D01*
X154890185Y-113172367D01*
X154942989Y-113126612D01*
X155012147Y-113116668D01*
X155075703Y-113145693D01*
X155082181Y-113151725D01*
X155104244Y-113173788D01*
X155279342Y-113301005D01*
X155472182Y-113399263D01*
X155472185Y-113399264D01*
X155678017Y-113466142D01*
X155750000Y-113477543D01*
X155750000Y-111788816D01*
X155766060Y-111804876D01*
X155852939Y-111855036D01*
X155949840Y-111881000D01*
X156050160Y-111881000D01*
X156147061Y-111855036D01*
X156233940Y-111804876D01*
X156250000Y-111788816D01*
X156250000Y-113477543D01*
G37*
%TD.AperFunction*%
%TA.AperFunction,Conductor*%
G36*
X144250000Y-113477542D02*
G01*
X144321980Y-113466142D01*
X144321983Y-113466142D01*
X144527814Y-113399264D01*
X144527817Y-113399263D01*
X144720657Y-113301005D01*
X144895754Y-113173788D01*
X144895755Y-113173788D01*
X145048788Y-113020755D01*
X145048793Y-113020749D01*
X145169373Y-112854786D01*
X145224703Y-112812120D01*
X145294316Y-112806141D01*
X145356111Y-112838747D01*
X145370006Y-112854781D01*
X145490828Y-113021078D01*
X145643922Y-113174172D01*
X145819081Y-113301433D01*
X145902774Y-113344077D01*
X146011990Y-113399726D01*
X146011993Y-113399727D01*
X146109478Y-113431401D01*
X146217903Y-113466630D01*
X146431746Y-113500500D01*
X146431747Y-113500500D01*
X146648253Y-113500500D01*
X146648254Y-113500500D01*
X146862097Y-113466630D01*
X146964382Y-113433395D01*
X147034223Y-113431401D01*
X147094056Y-113467481D01*
X147124884Y-113530182D01*
X147126700Y-113551327D01*
X147126700Y-115113603D01*
X147107015Y-115180642D01*
X147090381Y-115201284D01*
X142682181Y-119609484D01*
X142620858Y-119642969D01*
X142551166Y-119637985D01*
X142495233Y-119596113D01*
X142470816Y-119530649D01*
X142470500Y-119521803D01*
X142470500Y-112650184D01*
X142490185Y-112583145D01*
X142542989Y-112537390D01*
X142612147Y-112527446D01*
X142675703Y-112556471D01*
X142712431Y-112611866D01*
X142725735Y-112652814D01*
X142725736Y-112652817D01*
X142823994Y-112845657D01*
X142951211Y-113020754D01*
X142951211Y-113020755D01*
X143104244Y-113173788D01*
X143279342Y-113301005D01*
X143472182Y-113399263D01*
X143472185Y-113399264D01*
X143678017Y-113466142D01*
X143750000Y-113477543D01*
X143750000Y-111788816D01*
X143766060Y-111804876D01*
X143852939Y-111855036D01*
X143949840Y-111881000D01*
X144050160Y-111881000D01*
X144147061Y-111855036D01*
X144233940Y-111804876D01*
X144250000Y-111788816D01*
X144250000Y-113477542D01*
G37*
%TD.AperFunction*%
%TA.AperFunction,Conductor*%
G36*
X132000000Y-113477542D02*
G01*
X132071980Y-113466142D01*
X132071983Y-113466142D01*
X132277814Y-113399264D01*
X132277817Y-113399263D01*
X132470657Y-113301005D01*
X132645754Y-113173788D01*
X132645755Y-113173788D01*
X132798788Y-113020755D01*
X132798793Y-113020749D01*
X132919373Y-112854786D01*
X132974703Y-112812120D01*
X133044316Y-112806141D01*
X133106111Y-112838747D01*
X133120006Y-112854781D01*
X133240828Y-113021078D01*
X133393922Y-113174172D01*
X133569081Y-113301433D01*
X133652774Y-113344077D01*
X133761990Y-113399726D01*
X133761993Y-113399727D01*
X133859478Y-113431401D01*
X133967903Y-113466630D01*
X134181746Y-113500500D01*
X134181747Y-113500500D01*
X134398253Y-113500500D01*
X134398254Y-113500500D01*
X134612097Y-113466630D01*
X134818009Y-113399726D01*
X135010919Y-113301433D01*
X135186078Y-113174172D01*
X135191319Y-113168931D01*
X135252642Y-113135446D01*
X135322334Y-113140430D01*
X135378267Y-113182302D01*
X135402684Y-113247766D01*
X135403000Y-113256612D01*
X135403000Y-115635202D01*
X135383315Y-115702241D01*
X135366681Y-115722883D01*
X134283865Y-116805698D01*
X134222542Y-116839183D01*
X134210068Y-116841237D01*
X134123150Y-116851030D01*
X133952878Y-116910610D01*
X133843119Y-116979577D01*
X133801816Y-117005530D01*
X133800888Y-117006113D01*
X133733652Y-117025113D01*
X133666816Y-117004745D01*
X133647235Y-116988800D01*
X130156167Y-113497732D01*
X130122682Y-113436409D01*
X130127666Y-113366717D01*
X130138848Y-113344090D01*
X130192489Y-113258722D01*
X130252068Y-113088455D01*
X130252069Y-113088449D01*
X130272265Y-112909203D01*
X130272265Y-112909197D01*
X130256865Y-112772517D01*
X130253912Y-112746312D01*
X130265966Y-112677491D01*
X130313315Y-112626111D01*
X130380926Y-112608487D01*
X130447331Y-112630213D01*
X130487617Y-112676134D01*
X130573994Y-112845657D01*
X130701211Y-113020754D01*
X130701211Y-113020755D01*
X130854244Y-113173788D01*
X131029342Y-113301005D01*
X131222182Y-113399263D01*
X131222185Y-113399264D01*
X131428017Y-113466142D01*
X131500000Y-113477543D01*
X131500000Y-111788816D01*
X131516060Y-111804876D01*
X131602939Y-111855036D01*
X131699840Y-111881000D01*
X131800160Y-111881000D01*
X131897061Y-111855036D01*
X131983940Y-111804876D01*
X132000000Y-111788816D01*
X132000000Y-113477542D01*
G37*
%TD.AperFunction*%
%TA.AperFunction,Conductor*%
G36*
X162500000Y-113477543D02*
G01*
X162571980Y-113466142D01*
X162571983Y-113466142D01*
X162757182Y-113405968D01*
X162827023Y-113403973D01*
X162886856Y-113440054D01*
X162917684Y-113502755D01*
X162919500Y-113523899D01*
X162919500Y-113673210D01*
X162899815Y-113740249D01*
X162861473Y-113778203D01*
X162825541Y-113800780D01*
X162697984Y-113928337D01*
X162602011Y-114081076D01*
X162542431Y-114251345D01*
X162542430Y-114251350D01*
X162522235Y-114430596D01*
X162522235Y-114430603D01*
X162542430Y-114609849D01*
X162542431Y-114609854D01*
X162602011Y-114780123D01*
X162655424Y-114865129D01*
X162694855Y-114927883D01*
X162701689Y-114938758D01*
X162699358Y-114940222D01*
X162721058Y-114993346D01*
X162708315Y-115062044D01*
X162685386Y-115093677D01*
X161392184Y-116386881D01*
X161330861Y-116420366D01*
X161304503Y-116423200D01*
X161120587Y-116423200D01*
X161053548Y-116403515D01*
X161043274Y-116396147D01*
X161040562Y-116393984D01*
X160887823Y-116298011D01*
X160717552Y-116238431D01*
X160627615Y-116228297D01*
X160563202Y-116201230D01*
X160523647Y-116143635D01*
X160517500Y-116105077D01*
X160517500Y-115380097D01*
X160537185Y-115313058D01*
X160553819Y-115292416D01*
X160652902Y-115193333D01*
X160799220Y-115047016D01*
X160878277Y-114910084D01*
X160919201Y-114757357D01*
X160919201Y-114599242D01*
X160919201Y-114591647D01*
X160919200Y-114591629D01*
X160919200Y-113014233D01*
X160938885Y-112947194D01*
X160991689Y-112901439D01*
X161060847Y-112891495D01*
X161124403Y-112920520D01*
X161143518Y-112941348D01*
X161201206Y-113020749D01*
X161201211Y-113020755D01*
X161354244Y-113173788D01*
X161529342Y-113301005D01*
X161722182Y-113399263D01*
X161722185Y-113399264D01*
X161928017Y-113466142D01*
X162000000Y-113477543D01*
X162000000Y-111788816D01*
X162016060Y-111804876D01*
X162102939Y-111855036D01*
X162199840Y-111881000D01*
X162300160Y-111881000D01*
X162397061Y-111855036D01*
X162483940Y-111804876D01*
X162500000Y-111788816D01*
X162500000Y-113477543D01*
G37*
%TD.AperFunction*%
%TA.AperFunction,Conductor*%
G36*
X105398749Y-102960716D02*
G01*
X105439279Y-103017629D01*
X105446100Y-103058189D01*
X105446100Y-107227602D01*
X105426415Y-107294641D01*
X105409781Y-107315283D01*
X99462180Y-113262884D01*
X99400857Y-113296369D01*
X99331165Y-113291385D01*
X99275232Y-113249513D01*
X99250815Y-113184049D01*
X99250499Y-113175203D01*
X99250499Y-112832129D01*
X99250498Y-112832123D01*
X99250497Y-112832116D01*
X99244091Y-112772517D01*
X99199370Y-112652615D01*
X99194387Y-112582927D01*
X99199371Y-112565951D01*
X99243597Y-112447376D01*
X99243598Y-112447372D01*
X99249999Y-112387844D01*
X99250000Y-112387827D01*
X99250000Y-111590000D01*
X97124000Y-111590000D01*
X97056967Y-111570316D01*
X97105036Y-111487061D01*
X97131000Y-111390160D01*
X97131000Y-111289840D01*
X97105036Y-111192939D01*
X97058881Y-111112997D01*
X97072489Y-111101206D01*
X97124000Y-111090000D01*
X99250000Y-111090000D01*
X99250000Y-110292172D01*
X99249999Y-110292155D01*
X99243598Y-110232627D01*
X99243596Y-110232620D01*
X99193354Y-110097913D01*
X99193350Y-110097906D01*
X99107190Y-109982812D01*
X99107187Y-109982809D01*
X98992093Y-109896649D01*
X98992086Y-109896645D01*
X98857379Y-109846403D01*
X98857372Y-109846401D01*
X98797844Y-109840000D01*
X98670696Y-109840000D01*
X98603657Y-109820315D01*
X98557902Y-109767511D01*
X98547958Y-109698353D01*
X98576983Y-109634797D01*
X98583015Y-109628319D01*
X101829796Y-106381538D01*
X105092106Y-103119228D01*
X105092111Y-103119224D01*
X105102314Y-103109020D01*
X105102316Y-103109020D01*
X105214120Y-102997216D01*
X105214711Y-102996191D01*
X105215435Y-102995500D01*
X105219070Y-102990765D01*
X105219808Y-102991331D01*
X105265277Y-102947975D01*
X105333883Y-102934750D01*
X105398749Y-102960716D01*
G37*
%TD.AperFunction*%
%TA.AperFunction,Conductor*%
G36*
X126453742Y-104720185D02*
G01*
X126474384Y-104736819D01*
X131178424Y-109440859D01*
X131211909Y-109502182D01*
X131206925Y-109571874D01*
X131165053Y-109627807D01*
X131147038Y-109639025D01*
X131029342Y-109698994D01*
X130854245Y-109826211D01*
X130854244Y-109826211D01*
X130701211Y-109979244D01*
X130701211Y-109979245D01*
X130573994Y-110154342D01*
X130475736Y-110347182D01*
X130475735Y-110347185D01*
X130408857Y-110553018D01*
X130375000Y-110766779D01*
X130375000Y-111250000D01*
X131461184Y-111250000D01*
X131445124Y-111266060D01*
X131394964Y-111352939D01*
X131369000Y-111449840D01*
X131369000Y-111550160D01*
X131394964Y-111647061D01*
X131445124Y-111733940D01*
X131461184Y-111750000D01*
X130375000Y-111750000D01*
X130375000Y-112233220D01*
X130408857Y-112446983D01*
X130409995Y-112451723D01*
X130407798Y-112452250D01*
X130409441Y-112512793D01*
X130373274Y-112572574D01*
X130310528Y-112603311D01*
X130241126Y-112595247D01*
X130187101Y-112550940D01*
X130184566Y-112547069D01*
X130096516Y-112406938D01*
X129968962Y-112279384D01*
X129895547Y-112233254D01*
X129816220Y-112183409D01*
X129748544Y-112159728D01*
X129691769Y-112119006D01*
X129666022Y-112054053D01*
X129665500Y-112042687D01*
X129665500Y-110766746D01*
X129631630Y-110552903D01*
X129598178Y-110449947D01*
X129564727Y-110346993D01*
X129564726Y-110346990D01*
X129479038Y-110178820D01*
X129466433Y-110154081D01*
X129339172Y-109978922D01*
X129186078Y-109825828D01*
X129010919Y-109698567D01*
X129009518Y-109697853D01*
X128818009Y-109600273D01*
X128818006Y-109600272D01*
X128612098Y-109533370D01*
X128433711Y-109505116D01*
X128398254Y-109499500D01*
X128181746Y-109499500D01*
X128146289Y-109505116D01*
X127967901Y-109533370D01*
X127761993Y-109600272D01*
X127761990Y-109600273D01*
X127569080Y-109698567D01*
X127474876Y-109767011D01*
X127393922Y-109825828D01*
X127393920Y-109825830D01*
X127393919Y-109825830D01*
X127240829Y-109978920D01*
X127120009Y-110145214D01*
X127064678Y-110187879D01*
X126995065Y-110193858D01*
X126933270Y-110161252D01*
X126919373Y-110145214D01*
X126798788Y-109979245D01*
X126798788Y-109979244D01*
X126645755Y-109826211D01*
X126470657Y-109698994D01*
X126277817Y-109600736D01*
X126277814Y-109600735D01*
X126071983Y-109533857D01*
X126000000Y-109522456D01*
X126000000Y-111211184D01*
X125983940Y-111195124D01*
X125897061Y-111144964D01*
X125800160Y-111119000D01*
X125699840Y-111119000D01*
X125602939Y-111144964D01*
X125516060Y-111195124D01*
X125500000Y-111211184D01*
X125500000Y-109522456D01*
X125499999Y-109522456D01*
X125428016Y-109533857D01*
X125428015Y-109533857D01*
X125222185Y-109600735D01*
X125222182Y-109600736D01*
X125029342Y-109698994D01*
X124854245Y-109826211D01*
X124854244Y-109826211D01*
X124701211Y-109979244D01*
X124701211Y-109979245D01*
X124573994Y-110154342D01*
X124475736Y-110347182D01*
X124475735Y-110347185D01*
X124408857Y-110553018D01*
X124375000Y-110766779D01*
X124375000Y-111278503D01*
X124355315Y-111345542D01*
X124302511Y-111391297D01*
X124233353Y-111401241D01*
X124169797Y-111372216D01*
X124163319Y-111366184D01*
X122582819Y-109785684D01*
X122549334Y-109724361D01*
X122546500Y-109698003D01*
X122546500Y-105421365D01*
X122566185Y-105354326D01*
X122618989Y-105308571D01*
X122688147Y-105298627D01*
X122693267Y-105299473D01*
X122698757Y-105300500D01*
X122698759Y-105300500D01*
X122921241Y-105300500D01*
X122921243Y-105300500D01*
X123139940Y-105259618D01*
X123347401Y-105179247D01*
X123536562Y-105062124D01*
X123700981Y-104912236D01*
X123823667Y-104749772D01*
X123879776Y-104708137D01*
X123922621Y-104700500D01*
X126386703Y-104700500D01*
X126453742Y-104720185D01*
G37*
%TD.AperFunction*%
%TA.AperFunction,Conductor*%
G36*
X164686420Y-106339172D02*
G01*
X164700313Y-106355205D01*
X164820828Y-106521078D01*
X164820829Y-106521079D01*
X164820830Y-106521080D01*
X164973426Y-106673676D01*
X165006911Y-106734999D01*
X165001927Y-106804691D01*
X164973426Y-106849038D01*
X163039481Y-108782982D01*
X163039480Y-108782984D01*
X163005860Y-108841216D01*
X162960423Y-108919915D01*
X162919499Y-109072643D01*
X162919499Y-109072645D01*
X162919499Y-109240746D01*
X162919500Y-109240759D01*
X162919500Y-109476100D01*
X162899815Y-109543139D01*
X162847011Y-109588894D01*
X162777853Y-109598838D01*
X162757183Y-109594031D01*
X162571988Y-109533858D01*
X162571983Y-109533857D01*
X162500000Y-109522456D01*
X162500000Y-111211184D01*
X162483940Y-111195124D01*
X162397061Y-111144964D01*
X162300160Y-111119000D01*
X162199840Y-111119000D01*
X162102939Y-111144964D01*
X162016060Y-111195124D01*
X162000000Y-111211184D01*
X162000000Y-109522456D01*
X161999999Y-109522456D01*
X161928016Y-109533857D01*
X161928015Y-109533857D01*
X161722185Y-109600735D01*
X161722182Y-109600736D01*
X161529342Y-109698994D01*
X161354245Y-109826211D01*
X161354244Y-109826211D01*
X161201211Y-109979244D01*
X161201211Y-109979245D01*
X161143518Y-110058652D01*
X161088188Y-110101317D01*
X161018574Y-110107296D01*
X160956779Y-110074690D01*
X160922422Y-110013851D01*
X160919200Y-109985766D01*
X160919200Y-108258097D01*
X160938885Y-108191058D01*
X160955519Y-108170416D01*
X161662176Y-107463759D01*
X162369370Y-106756564D01*
X162430691Y-106723081D01*
X162500383Y-106728065D01*
X162529929Y-106743925D01*
X162609081Y-106801433D01*
X162674732Y-106834884D01*
X162801990Y-106899726D01*
X162801993Y-106899727D01*
X162843694Y-106913276D01*
X163007903Y-106966630D01*
X163221746Y-107000500D01*
X163221747Y-107000500D01*
X163438253Y-107000500D01*
X163438254Y-107000500D01*
X163652097Y-106966630D01*
X163858009Y-106899726D01*
X164050919Y-106801433D01*
X164226078Y-106674172D01*
X164379172Y-106521078D01*
X164499683Y-106355208D01*
X164555012Y-106312545D01*
X164624625Y-106306566D01*
X164686420Y-106339172D01*
G37*
%TD.AperFunction*%
%TA.AperFunction,Conductor*%
G36*
X97596380Y-88143667D02*
G01*
X97652313Y-88185539D01*
X97676730Y-88251003D01*
X97669228Y-88303181D01*
X97635909Y-88392514D01*
X97635908Y-88392516D01*
X97629501Y-88452116D01*
X97629500Y-88452127D01*
X97629500Y-90547870D01*
X97629501Y-90547876D01*
X97635908Y-90607483D01*
X97680361Y-90726667D01*
X97685345Y-90796359D01*
X97680361Y-90813333D01*
X97635908Y-90932517D01*
X97633772Y-90952389D01*
X97629501Y-90992123D01*
X97629500Y-90992135D01*
X97629500Y-93087870D01*
X97629501Y-93087876D01*
X97635908Y-93147483D01*
X97680628Y-93267380D01*
X97685612Y-93337071D01*
X97680628Y-93354046D01*
X97636403Y-93472619D01*
X97636401Y-93472627D01*
X97630000Y-93532155D01*
X97630000Y-94330000D01*
X99841184Y-94330000D01*
X99825124Y-94346060D01*
X99774964Y-94432939D01*
X99749000Y-94529840D01*
X99749000Y-94630160D01*
X99774964Y-94727061D01*
X99825124Y-94813940D01*
X99841184Y-94830000D01*
X97630000Y-94830000D01*
X97630000Y-95627844D01*
X97636401Y-95687372D01*
X97636403Y-95687382D01*
X97680627Y-95805953D01*
X97685611Y-95875644D01*
X97680627Y-95892617D01*
X97635909Y-96012514D01*
X97635908Y-96012516D01*
X97629501Y-96072116D01*
X97629501Y-96072123D01*
X97629500Y-96072135D01*
X97629500Y-98167870D01*
X97629501Y-98167876D01*
X97635908Y-98227483D01*
X97680361Y-98346667D01*
X97685345Y-98416359D01*
X97680361Y-98433333D01*
X97635908Y-98552517D01*
X97631127Y-98596990D01*
X97629501Y-98612123D01*
X97629500Y-98612135D01*
X97629500Y-100707870D01*
X97629501Y-100707876D01*
X97635908Y-100767483D01*
X97680361Y-100886667D01*
X97685345Y-100956359D01*
X97680361Y-100973333D01*
X97635908Y-101092517D01*
X97629501Y-101152116D01*
X97629501Y-101152123D01*
X97629500Y-101152135D01*
X97629500Y-103247870D01*
X97629501Y-103247876D01*
X97635908Y-103307483D01*
X97680361Y-103426667D01*
X97685345Y-103496359D01*
X97680361Y-103513333D01*
X97635908Y-103632517D01*
X97632865Y-103660827D01*
X97629501Y-103692123D01*
X97629500Y-103692135D01*
X97629500Y-105787870D01*
X97629501Y-105787876D01*
X97635908Y-105847483D01*
X97686202Y-105982328D01*
X97686206Y-105982335D01*
X97772452Y-106097544D01*
X97772455Y-106097547D01*
X97887664Y-106183793D01*
X97887671Y-106183797D01*
X98022517Y-106234091D01*
X98022516Y-106234091D01*
X98029444Y-106234835D01*
X98082127Y-106240500D01*
X99973002Y-106240499D01*
X100040041Y-106260184D01*
X100085796Y-106312987D01*
X100095740Y-106382146D01*
X100066715Y-106445702D01*
X100060683Y-106452180D01*
X98216352Y-108296512D01*
X98155029Y-108329997D01*
X98085337Y-108325013D01*
X98051716Y-108303405D01*
X98050505Y-108304925D01*
X98045062Y-108300584D01*
X97892323Y-108204611D01*
X97722054Y-108145031D01*
X97722049Y-108145030D01*
X97542804Y-108124835D01*
X97542796Y-108124835D01*
X97363550Y-108145030D01*
X97363545Y-108145031D01*
X97193276Y-108204611D01*
X97040536Y-108300585D01*
X97037703Y-108302845D01*
X97035524Y-108303734D01*
X97034642Y-108304289D01*
X97034544Y-108304134D01*
X96973017Y-108329255D01*
X96960388Y-108329900D01*
X92927969Y-108329900D01*
X92927953Y-108329899D01*
X92920357Y-108329899D01*
X92762243Y-108329899D01*
X92670548Y-108354469D01*
X92609510Y-108370824D01*
X92609509Y-108370825D01*
X92574366Y-108391116D01*
X92574364Y-108391117D01*
X92472590Y-108449875D01*
X92472582Y-108449881D01*
X91243881Y-109678583D01*
X91182558Y-109712068D01*
X91112866Y-109707084D01*
X91056933Y-109665212D01*
X91032516Y-109599748D01*
X91032200Y-109590902D01*
X91032200Y-94656696D01*
X91051885Y-94589657D01*
X91068514Y-94569020D01*
X97465367Y-88172166D01*
X97526688Y-88138683D01*
X97596380Y-88143667D01*
G37*
%TD.AperFunction*%
%TA.AperFunction,Conductor*%
G36*
X155460000Y-101727542D02*
G01*
X155531980Y-101716142D01*
X155531983Y-101716142D01*
X155737814Y-101649264D01*
X155737817Y-101649263D01*
X155930657Y-101551005D01*
X156105754Y-101423788D01*
X156105755Y-101423788D01*
X156258788Y-101270755D01*
X156258793Y-101270749D01*
X156379373Y-101104786D01*
X156434703Y-101062120D01*
X156504316Y-101056141D01*
X156566111Y-101088747D01*
X156580006Y-101104781D01*
X156700828Y-101271078D01*
X156853922Y-101424172D01*
X157029081Y-101551433D01*
X157094350Y-101584689D01*
X157094733Y-101584884D01*
X157145529Y-101632858D01*
X157158213Y-101663275D01*
X157190423Y-101783485D01*
X157190426Y-101783490D01*
X157269475Y-101920409D01*
X157269479Y-101920414D01*
X157269480Y-101920416D01*
X157381284Y-102032220D01*
X157381286Y-102032221D01*
X157381290Y-102032224D01*
X157518209Y-102111273D01*
X157518216Y-102111277D01*
X157670943Y-102152200D01*
X159384503Y-102152200D01*
X159451542Y-102171885D01*
X159472184Y-102188519D01*
X160222093Y-102938428D01*
X160255578Y-102999751D01*
X160250594Y-103069443D01*
X160208722Y-103125376D01*
X160190708Y-103136593D01*
X160069083Y-103198565D01*
X159997357Y-103250678D01*
X159893922Y-103325828D01*
X159893920Y-103325830D01*
X159893919Y-103325830D01*
X159740830Y-103478919D01*
X159740830Y-103478920D01*
X159740828Y-103478922D01*
X159632530Y-103627979D01*
X159620318Y-103644789D01*
X159564988Y-103687454D01*
X159495374Y-103693433D01*
X159433579Y-103660827D01*
X159419682Y-103644789D01*
X159410765Y-103632516D01*
X159299172Y-103478922D01*
X159146078Y-103325828D01*
X158970919Y-103198567D01*
X158964523Y-103195308D01*
X158778009Y-103100273D01*
X158778006Y-103100272D01*
X158572098Y-103033370D01*
X158422217Y-103009631D01*
X158358254Y-102999500D01*
X158141746Y-102999500D01*
X158077783Y-103009631D01*
X157927901Y-103033370D01*
X157721993Y-103100272D01*
X157721990Y-103100273D01*
X157529080Y-103198567D01*
X157454916Y-103252451D01*
X157353922Y-103325828D01*
X157353920Y-103325830D01*
X157353919Y-103325830D01*
X157200830Y-103478919D01*
X157200830Y-103478920D01*
X157200828Y-103478922D01*
X157156145Y-103540423D01*
X157073567Y-103654080D01*
X156975273Y-103846990D01*
X156975272Y-103846993D01*
X156908370Y-104052901D01*
X156883589Y-104209359D01*
X156874500Y-104266746D01*
X156874500Y-105733254D01*
X156885024Y-105799696D01*
X156908370Y-105947098D01*
X156975272Y-106153006D01*
X156975273Y-106153009D01*
X157056562Y-106312545D01*
X157073567Y-106345919D01*
X157200828Y-106521078D01*
X157200830Y-106521080D01*
X157217826Y-106538076D01*
X157251311Y-106599399D01*
X157246327Y-106669091D01*
X157217826Y-106713438D01*
X156435582Y-107495682D01*
X156385478Y-107545784D01*
X156324155Y-107579268D01*
X156254463Y-107574282D01*
X156210118Y-107545782D01*
X154576819Y-105912483D01*
X154543334Y-105851160D01*
X154540500Y-105824802D01*
X154540500Y-101773899D01*
X154560185Y-101706860D01*
X154612989Y-101661105D01*
X154682147Y-101651161D01*
X154702818Y-101655968D01*
X154888017Y-101716142D01*
X154960000Y-101727543D01*
X154960000Y-100038816D01*
X154976060Y-100054876D01*
X155062939Y-100105036D01*
X155159840Y-100131000D01*
X155260160Y-100131000D01*
X155357061Y-100105036D01*
X155443940Y-100054876D01*
X155460000Y-100038816D01*
X155460000Y-101727542D01*
G37*
%TD.AperFunction*%
%TA.AperFunction,Conductor*%
G36*
X134326442Y-78553985D02*
G01*
X134372197Y-78606789D01*
X134382141Y-78675947D01*
X134353116Y-78739503D01*
X134347084Y-78745981D01*
X123612484Y-89480581D01*
X123551161Y-89514066D01*
X123524803Y-89516900D01*
X121538969Y-89516900D01*
X121538953Y-89516899D01*
X121531357Y-89516899D01*
X121373243Y-89516899D01*
X121220515Y-89557823D01*
X121220514Y-89557823D01*
X121220512Y-89557824D01*
X121183739Y-89579056D01*
X121183736Y-89579057D01*
X121083590Y-89636875D01*
X121083582Y-89636881D01*
X120971778Y-89748686D01*
X116499464Y-94220998D01*
X116438141Y-94254483D01*
X116368449Y-94249499D01*
X116312516Y-94207627D01*
X116300783Y-94188588D01*
X116214637Y-94015584D01*
X116214630Y-94015572D01*
X116198860Y-93994690D01*
X115540000Y-94653551D01*
X115540000Y-94603922D01*
X115516148Y-94514905D01*
X115470070Y-94435095D01*
X115404905Y-94369930D01*
X115325095Y-94323852D01*
X115236078Y-94300000D01*
X115143922Y-94300000D01*
X115054905Y-94323852D01*
X114975095Y-94369930D01*
X114909930Y-94435095D01*
X114863852Y-94514905D01*
X114840000Y-94603922D01*
X114840000Y-94696078D01*
X114863852Y-94785095D01*
X114909930Y-94864905D01*
X114975095Y-94930070D01*
X115054905Y-94976148D01*
X115143922Y-95000000D01*
X115193553Y-95000000D01*
X115190000Y-95003553D01*
X114536672Y-95656879D01*
X114536672Y-95656880D01*
X114652821Y-95728797D01*
X114652822Y-95728798D01*
X114719600Y-95754668D01*
X114775002Y-95797241D01*
X114798592Y-95863008D01*
X114782881Y-95931088D01*
X114762487Y-95957976D01*
X114607852Y-96112611D01*
X114546529Y-96146096D01*
X114476837Y-96141112D01*
X114432490Y-96112612D01*
X114391994Y-96072116D01*
X114349262Y-96029384D01*
X114280107Y-95985931D01*
X114196523Y-95933411D01*
X114026254Y-95873831D01*
X114026249Y-95873830D01*
X113847004Y-95853635D01*
X113846996Y-95853635D01*
X113667750Y-95873830D01*
X113667745Y-95873831D01*
X113497476Y-95933411D01*
X113344737Y-96029384D01*
X113217881Y-96156241D01*
X113156558Y-96189726D01*
X113086866Y-96184742D01*
X113042519Y-96156241D01*
X113027762Y-96141484D01*
X112875023Y-96045511D01*
X112704754Y-95985931D01*
X112704749Y-95985930D01*
X112525504Y-95965735D01*
X112525496Y-95965735D01*
X112346250Y-95985930D01*
X112346245Y-95985931D01*
X112175976Y-96045511D01*
X112023237Y-96141484D01*
X111895684Y-96269037D01*
X111799710Y-96421778D01*
X111740130Y-96592050D01*
X111730337Y-96678967D01*
X111703270Y-96743381D01*
X111694798Y-96752764D01*
X110462180Y-97985382D01*
X110400857Y-98018867D01*
X110331165Y-98013883D01*
X110275232Y-97972011D01*
X110250815Y-97906547D01*
X110250499Y-97897725D01*
X110250499Y-96072128D01*
X110244091Y-96012517D01*
X110234175Y-95985932D01*
X110199638Y-95893333D01*
X110194654Y-95823642D01*
X110199638Y-95806667D01*
X110244091Y-95687483D01*
X110250500Y-95627873D01*
X110250500Y-94650000D01*
X113984859Y-94650000D01*
X114005378Y-94871439D01*
X114066240Y-95085350D01*
X114165369Y-95284428D01*
X114181137Y-95305308D01*
X114181138Y-95305308D01*
X114836447Y-94650000D01*
X114181138Y-93994691D01*
X114181137Y-93994691D01*
X114165368Y-94015574D01*
X114066240Y-94214649D01*
X114005378Y-94428560D01*
X113984859Y-94649999D01*
X113984859Y-94650000D01*
X110250500Y-94650000D01*
X110250499Y-93643119D01*
X114536671Y-93643119D01*
X115190000Y-94296447D01*
X115190001Y-94296447D01*
X115843327Y-93643119D01*
X115727178Y-93571202D01*
X115727177Y-93571201D01*
X115519804Y-93490865D01*
X115301193Y-93450000D01*
X115078807Y-93450000D01*
X114860195Y-93490865D01*
X114652824Y-93571200D01*
X114652823Y-93571201D01*
X114536671Y-93643119D01*
X110250499Y-93643119D01*
X110250499Y-93532128D01*
X110244103Y-93472627D01*
X110244091Y-93472516D01*
X110199638Y-93353333D01*
X110194654Y-93283642D01*
X110199638Y-93266667D01*
X110244091Y-93147482D01*
X110244091Y-93147481D01*
X110250500Y-93087873D01*
X110250500Y-92506880D01*
X114536672Y-92506880D01*
X114652821Y-92578797D01*
X114652822Y-92578798D01*
X114860195Y-92659134D01*
X115078807Y-92700000D01*
X115301193Y-92700000D01*
X115519809Y-92659133D01*
X115727168Y-92578801D01*
X115727181Y-92578795D01*
X115843326Y-92506879D01*
X115190001Y-91853553D01*
X115190000Y-91853553D01*
X114536672Y-92506879D01*
X114536672Y-92506880D01*
X110250500Y-92506880D01*
X110250499Y-91500000D01*
X113984859Y-91500000D01*
X114005378Y-91721439D01*
X114066240Y-91935350D01*
X114165369Y-92134428D01*
X114181137Y-92155308D01*
X114181138Y-92155308D01*
X114790369Y-91546078D01*
X114840000Y-91546078D01*
X114863852Y-91635095D01*
X114909930Y-91714905D01*
X114975095Y-91780070D01*
X115054905Y-91826148D01*
X115143922Y-91850000D01*
X115236078Y-91850000D01*
X115325095Y-91826148D01*
X115404905Y-91780070D01*
X115470070Y-91714905D01*
X115516148Y-91635095D01*
X115540000Y-91546078D01*
X115540000Y-91500000D01*
X115543553Y-91500000D01*
X116198861Y-92155308D01*
X116214631Y-92134425D01*
X116214633Y-92134422D01*
X116313759Y-91935350D01*
X116374621Y-91721439D01*
X116395141Y-91500000D01*
X116395141Y-91499999D01*
X116374621Y-91278560D01*
X116313759Y-91064649D01*
X116214635Y-90865580D01*
X116214630Y-90865572D01*
X116198860Y-90844690D01*
X115543553Y-91499999D01*
X115543553Y-91500000D01*
X115540000Y-91500000D01*
X115540000Y-91453922D01*
X115516148Y-91364905D01*
X115470070Y-91285095D01*
X115404905Y-91219930D01*
X115325095Y-91173852D01*
X115236078Y-91150000D01*
X115143922Y-91150000D01*
X115054905Y-91173852D01*
X114975095Y-91219930D01*
X114909930Y-91285095D01*
X114863852Y-91364905D01*
X114840000Y-91453922D01*
X114840000Y-91546078D01*
X114790369Y-91546078D01*
X114836447Y-91500000D01*
X114181138Y-90844691D01*
X114181137Y-90844691D01*
X114165368Y-90865574D01*
X114066240Y-91064649D01*
X114005378Y-91278560D01*
X113984859Y-91499999D01*
X113984859Y-91500000D01*
X110250499Y-91500000D01*
X110250499Y-90992128D01*
X110244091Y-90932517D01*
X110199637Y-90813332D01*
X110194654Y-90743642D01*
X110199638Y-90726667D01*
X110244091Y-90607483D01*
X110250500Y-90547873D01*
X110250500Y-90493119D01*
X114536671Y-90493119D01*
X115190000Y-91146447D01*
X115190001Y-91146447D01*
X115843327Y-90493119D01*
X115727178Y-90421202D01*
X115727177Y-90421201D01*
X115519804Y-90340865D01*
X115301193Y-90300000D01*
X115078807Y-90300000D01*
X114860195Y-90340865D01*
X114652824Y-90421200D01*
X114652823Y-90421201D01*
X114536671Y-90493119D01*
X110250500Y-90493119D01*
X110250499Y-88452128D01*
X110244091Y-88392517D01*
X110199370Y-88272615D01*
X110194387Y-88202927D01*
X110199371Y-88185951D01*
X110243597Y-88067376D01*
X110243598Y-88067372D01*
X110249999Y-88007844D01*
X110250000Y-88007827D01*
X110250000Y-87210000D01*
X108038816Y-87210000D01*
X108054876Y-87193940D01*
X108105036Y-87107061D01*
X108131000Y-87010160D01*
X108131000Y-86909840D01*
X108105036Y-86812939D01*
X108054876Y-86726060D01*
X108000000Y-86671184D01*
X108000000Y-85460000D01*
X108500000Y-85460000D01*
X108500000Y-86710000D01*
X110250000Y-86710000D01*
X110250000Y-85912172D01*
X110249999Y-85912155D01*
X110243598Y-85852627D01*
X110243596Y-85852620D01*
X110193354Y-85717913D01*
X110193350Y-85717906D01*
X110107190Y-85602812D01*
X110107187Y-85602809D01*
X109992093Y-85516649D01*
X109992086Y-85516645D01*
X109857379Y-85466403D01*
X109857372Y-85466401D01*
X109797844Y-85460000D01*
X108500000Y-85460000D01*
X108000000Y-85460000D01*
X106702155Y-85460000D01*
X106642627Y-85466401D01*
X106642620Y-85466403D01*
X106507913Y-85516645D01*
X106507906Y-85516649D01*
X106392812Y-85602809D01*
X106392809Y-85602812D01*
X106306649Y-85717906D01*
X106306645Y-85717913D01*
X106256403Y-85852620D01*
X106256401Y-85852627D01*
X106250000Y-85912155D01*
X106250000Y-86710000D01*
X107461184Y-86710000D01*
X107445124Y-86726060D01*
X107394964Y-86812939D01*
X107369000Y-86909840D01*
X107369000Y-87010160D01*
X107394964Y-87107061D01*
X107445124Y-87193940D01*
X107461184Y-87210000D01*
X106250000Y-87210000D01*
X106250000Y-88007844D01*
X106256401Y-88067372D01*
X106256403Y-88067382D01*
X106300627Y-88185953D01*
X106305611Y-88255644D01*
X106300627Y-88272617D01*
X106255909Y-88392514D01*
X106255908Y-88392516D01*
X106249501Y-88452116D01*
X106249500Y-88452127D01*
X106249500Y-90547870D01*
X106249501Y-90547876D01*
X106255908Y-90607483D01*
X106300361Y-90726667D01*
X106305345Y-90796359D01*
X106300361Y-90813333D01*
X106255908Y-90932517D01*
X106253772Y-90952389D01*
X106249501Y-90992123D01*
X106249500Y-90992135D01*
X106249500Y-91389787D01*
X106229815Y-91456826D01*
X106187500Y-91497174D01*
X106079587Y-91559477D01*
X106079582Y-91559481D01*
X105670817Y-91968246D01*
X105670814Y-91968248D01*
X105670815Y-91968249D01*
X105566077Y-92072987D01*
X105565486Y-92074012D01*
X105564760Y-92074703D01*
X105561130Y-92079435D01*
X105560392Y-92078868D01*
X105514918Y-92122227D01*
X105446310Y-92135448D01*
X105381446Y-92109479D01*
X105340919Y-92052564D01*
X105334100Y-92012010D01*
X105334100Y-85916596D01*
X105353785Y-85849557D01*
X105370414Y-85828920D01*
X107612220Y-83587113D01*
X116099500Y-83587113D01*
X116129686Y-83855019D01*
X116129688Y-83855031D01*
X116189684Y-84117894D01*
X116189687Y-84117902D01*
X116278734Y-84372382D01*
X116395714Y-84615294D01*
X116395716Y-84615297D01*
X116539162Y-84843589D01*
X116707266Y-85054385D01*
X116897915Y-85245034D01*
X117108711Y-85413138D01*
X117337003Y-85556584D01*
X117579921Y-85673567D01*
X117771049Y-85740445D01*
X117834397Y-85762612D01*
X117834405Y-85762615D01*
X117834408Y-85762615D01*
X117834409Y-85762616D01*
X118097268Y-85822612D01*
X118365187Y-85852799D01*
X118365188Y-85852800D01*
X118365191Y-85852800D01*
X118634812Y-85852800D01*
X118634812Y-85852799D01*
X118902732Y-85822612D01*
X119165591Y-85762616D01*
X119420079Y-85673567D01*
X119662997Y-85556584D01*
X119891289Y-85413138D01*
X120102085Y-85245034D01*
X120292734Y-85054385D01*
X120460838Y-84843589D01*
X120604284Y-84615297D01*
X120721267Y-84372379D01*
X120810316Y-84117891D01*
X120870312Y-83855032D01*
X120900500Y-83587109D01*
X120900500Y-83317491D01*
X120870312Y-83049568D01*
X120810316Y-82786709D01*
X120721267Y-82532221D01*
X120604284Y-82289303D01*
X120460838Y-82061011D01*
X120292734Y-81850215D01*
X120102085Y-81659566D01*
X119891289Y-81491462D01*
X119662997Y-81348016D01*
X119662994Y-81348014D01*
X119420082Y-81231034D01*
X119165602Y-81141987D01*
X119165594Y-81141984D01*
X118968446Y-81096987D01*
X118902732Y-81081988D01*
X118902728Y-81081987D01*
X118902719Y-81081986D01*
X118634813Y-81051800D01*
X118634809Y-81051800D01*
X118365191Y-81051800D01*
X118365186Y-81051800D01*
X118097280Y-81081986D01*
X118097268Y-81081988D01*
X117834405Y-81141984D01*
X117834397Y-81141987D01*
X117579917Y-81231034D01*
X117337005Y-81348014D01*
X117108712Y-81491461D01*
X116897915Y-81659565D01*
X116707265Y-81850215D01*
X116539161Y-82061012D01*
X116395714Y-82289305D01*
X116278734Y-82532217D01*
X116189687Y-82786697D01*
X116189684Y-82786705D01*
X116129688Y-83049568D01*
X116129686Y-83049580D01*
X116099500Y-83317486D01*
X116099500Y-83587113D01*
X107612220Y-83587113D01*
X109396235Y-81803098D01*
X109457556Y-81769615D01*
X109470011Y-81767563D01*
X109556955Y-81757768D01*
X109727222Y-81698189D01*
X109879962Y-81602216D01*
X110007516Y-81474662D01*
X110103489Y-81321922D01*
X110163068Y-81151655D01*
X110163069Y-81151649D01*
X110183265Y-80972403D01*
X110183265Y-80972396D01*
X110163069Y-80793150D01*
X110163068Y-80793145D01*
X110103488Y-80622876D01*
X110007515Y-80470137D01*
X109879962Y-80342584D01*
X109727223Y-80246611D01*
X109556954Y-80187031D01*
X109556949Y-80187030D01*
X109377704Y-80166835D01*
X109377696Y-80166835D01*
X109198450Y-80187030D01*
X109198445Y-80187031D01*
X109028176Y-80246611D01*
X108875437Y-80342584D01*
X108747884Y-80470137D01*
X108651910Y-80622878D01*
X108592330Y-80793150D01*
X108582537Y-80880068D01*
X108555470Y-80944482D01*
X108546998Y-80953865D01*
X104364886Y-85135978D01*
X104253081Y-85247782D01*
X104253079Y-85247785D01*
X104202961Y-85334594D01*
X104202959Y-85334596D01*
X104174025Y-85384709D01*
X104174024Y-85384710D01*
X104174023Y-85384715D01*
X104133099Y-85537443D01*
X104133099Y-85537445D01*
X104133099Y-85705546D01*
X104133100Y-85705559D01*
X104133100Y-102328402D01*
X104113415Y-102395441D01*
X104096781Y-102416083D01*
X101842180Y-104670684D01*
X101780857Y-104704169D01*
X101711165Y-104699185D01*
X101655232Y-104657313D01*
X101630815Y-104591849D01*
X101630499Y-104583003D01*
X101630499Y-103692129D01*
X101630498Y-103692123D01*
X101630497Y-103692116D01*
X101624091Y-103632517D01*
X101579637Y-103513332D01*
X101574654Y-103443642D01*
X101579638Y-103426667D01*
X101580558Y-103424200D01*
X101624091Y-103307483D01*
X101630500Y-103247873D01*
X101630499Y-101152128D01*
X101624091Y-101092517D01*
X101622843Y-101089172D01*
X101579638Y-100973333D01*
X101574654Y-100903642D01*
X101579638Y-100886667D01*
X101624091Y-100767483D01*
X101630500Y-100707873D01*
X101630499Y-98612128D01*
X101624091Y-98552517D01*
X101607485Y-98507995D01*
X101579638Y-98433333D01*
X101574654Y-98363642D01*
X101579638Y-98346667D01*
X101580900Y-98343284D01*
X101624091Y-98227483D01*
X101630500Y-98167873D01*
X101630499Y-96072128D01*
X101624091Y-96012517D01*
X101579370Y-95892615D01*
X101574387Y-95822927D01*
X101579371Y-95805951D01*
X101623597Y-95687376D01*
X101623598Y-95687372D01*
X101629999Y-95627844D01*
X101630000Y-95627827D01*
X101630000Y-94830000D01*
X100418816Y-94830000D01*
X100434876Y-94813940D01*
X100485036Y-94727061D01*
X100511000Y-94630160D01*
X100511000Y-94529840D01*
X100485036Y-94432939D01*
X100434876Y-94346060D01*
X100418816Y-94330000D01*
X101630000Y-94330000D01*
X101630000Y-93532172D01*
X101629999Y-93532155D01*
X101623598Y-93472627D01*
X101623597Y-93472623D01*
X101579371Y-93354049D01*
X101574387Y-93284357D01*
X101579367Y-93267393D01*
X101624091Y-93147483D01*
X101630500Y-93087873D01*
X101630499Y-90992128D01*
X101624091Y-90932517D01*
X101579637Y-90813332D01*
X101574654Y-90743642D01*
X101579638Y-90726667D01*
X101624091Y-90607483D01*
X101630500Y-90547873D01*
X101630499Y-88452128D01*
X101624091Y-88392517D01*
X101619353Y-88379815D01*
X101590771Y-88303181D01*
X101579637Y-88273332D01*
X101574654Y-88203642D01*
X101579638Y-88186667D01*
X101624091Y-88067483D01*
X101630500Y-88007873D01*
X101630499Y-87182395D01*
X101650183Y-87115357D01*
X101702987Y-87069602D01*
X101772146Y-87059658D01*
X101835702Y-87088683D01*
X101842180Y-87094715D01*
X102075181Y-87327716D01*
X102108666Y-87389039D01*
X102111500Y-87415397D01*
X102111500Y-88917587D01*
X102091815Y-88984626D01*
X102084450Y-88994896D01*
X102082186Y-88997734D01*
X101986211Y-89150476D01*
X101926631Y-89320745D01*
X101926630Y-89320750D01*
X101906435Y-89499996D01*
X101906435Y-89500003D01*
X101926630Y-89679249D01*
X101926631Y-89679254D01*
X101986211Y-89849523D01*
X102069755Y-89982482D01*
X102082184Y-90002262D01*
X102209738Y-90129816D01*
X102300080Y-90186582D01*
X102359907Y-90224174D01*
X102362478Y-90225789D01*
X102515298Y-90279263D01*
X102532745Y-90285368D01*
X102532750Y-90285369D01*
X102711996Y-90305565D01*
X102712000Y-90305565D01*
X102712004Y-90305565D01*
X102891249Y-90285369D01*
X102891252Y-90285368D01*
X102891255Y-90285368D01*
X103061522Y-90225789D01*
X103214262Y-90129816D01*
X103341816Y-90002262D01*
X103437789Y-89849522D01*
X103497368Y-89679255D01*
X103499824Y-89657461D01*
X103517565Y-89500003D01*
X103517565Y-89499996D01*
X103497369Y-89320750D01*
X103497368Y-89320745D01*
X103437788Y-89150476D01*
X103341813Y-88997734D01*
X103339550Y-88994896D01*
X103338659Y-88992715D01*
X103338111Y-88991842D01*
X103338264Y-88991745D01*
X103313144Y-88930209D01*
X103312500Y-88917587D01*
X103312500Y-87204359D01*
X103312501Y-87204346D01*
X103312501Y-87036245D01*
X103312501Y-87036243D01*
X103271577Y-86883515D01*
X103219039Y-86792517D01*
X103192520Y-86746584D01*
X103080716Y-86634780D01*
X103080715Y-86634779D01*
X103076385Y-86630449D01*
X103076374Y-86630439D01*
X101199390Y-84753455D01*
X101199388Y-84753452D01*
X101080517Y-84634581D01*
X101080516Y-84634580D01*
X100993704Y-84584460D01*
X100993704Y-84584459D01*
X100993700Y-84584458D01*
X100943585Y-84555523D01*
X100790857Y-84514599D01*
X100632743Y-84514599D01*
X100625147Y-84514599D01*
X100625131Y-84514600D01*
X99727797Y-84514600D01*
X99660758Y-84494915D01*
X99615003Y-84442111D01*
X99605059Y-84372953D01*
X99634084Y-84309397D01*
X99640116Y-84302919D01*
X105372416Y-78570619D01*
X105433739Y-78537134D01*
X105460097Y-78534300D01*
X134259403Y-78534300D01*
X134326442Y-78553985D01*
G37*
%TD.AperFunction*%
%TA.AperFunction,Conductor*%
G36*
X114840000Y-97846078D02*
G01*
X114863852Y-97935095D01*
X114909930Y-98014905D01*
X114975095Y-98080070D01*
X115054905Y-98126148D01*
X115143922Y-98150000D01*
X115193553Y-98150000D01*
X115190000Y-98153553D01*
X114536672Y-98806879D01*
X114536672Y-98806880D01*
X114652821Y-98878797D01*
X114652828Y-98878801D01*
X114695741Y-98895425D01*
X114751144Y-98937997D01*
X114774735Y-99003763D01*
X114759025Y-99071844D01*
X114738630Y-99098733D01*
X113706181Y-100131183D01*
X113644858Y-100164668D01*
X113575166Y-100159684D01*
X113519233Y-100117812D01*
X113494816Y-100052348D01*
X113494500Y-100043502D01*
X113494500Y-98975796D01*
X113514185Y-98908757D01*
X113530814Y-98888120D01*
X113986795Y-98432139D01*
X114048114Y-98398657D01*
X114117805Y-98403641D01*
X114173426Y-98445097D01*
X114181137Y-98455308D01*
X114181138Y-98455308D01*
X114840000Y-97796446D01*
X114840000Y-97846078D01*
G37*
%TD.AperFunction*%
%TA.AperFunction,Conductor*%
G36*
X121610931Y-90910517D02*
G01*
X121666864Y-90952389D01*
X121691281Y-91017853D01*
X121686863Y-91060633D01*
X121624885Y-91278461D01*
X121624884Y-91278464D01*
X121604357Y-91499999D01*
X121604357Y-91500000D01*
X121624884Y-91721534D01*
X121630923Y-91742756D01*
X121630337Y-91812623D01*
X121592070Y-91871082D01*
X121573657Y-91884078D01*
X121498487Y-91927477D01*
X121498482Y-91927481D01*
X121138817Y-92287146D01*
X121138814Y-92287148D01*
X121138815Y-92287149D01*
X121034077Y-92391887D01*
X121016243Y-92422779D01*
X121016242Y-92422781D01*
X120967961Y-92506405D01*
X120959674Y-92520760D01*
X120955023Y-92528815D01*
X120914099Y-92681543D01*
X120914099Y-92681545D01*
X120914099Y-92849646D01*
X120914100Y-92849659D01*
X120914100Y-92871902D01*
X120894415Y-92938941D01*
X120877781Y-92959583D01*
X116488461Y-97348902D01*
X116427138Y-97382387D01*
X116357446Y-97377403D01*
X116301513Y-97335531D01*
X116289780Y-97316492D01*
X116214637Y-97165584D01*
X116214630Y-97165572D01*
X116198860Y-97144690D01*
X115540000Y-97803551D01*
X115540000Y-97753922D01*
X115516148Y-97664905D01*
X115470070Y-97585095D01*
X115404905Y-97519930D01*
X115325095Y-97473852D01*
X115236078Y-97450000D01*
X115186446Y-97450000D01*
X115843327Y-96793119D01*
X115843326Y-96793117D01*
X115842090Y-96792352D01*
X115795455Y-96740323D01*
X115784352Y-96671341D01*
X115812306Y-96607308D01*
X115819666Y-96599268D01*
X121479918Y-90939016D01*
X121541239Y-90905533D01*
X121610931Y-90910517D01*
G37*
%TD.AperFunction*%
%TD*%
M02*
