%TF.GenerationSoftware,KiCad,Pcbnew,8.0.1*%
%TF.CreationDate,2024-04-15T10:29:33-04:00*%
%TF.ProjectId,Baja Dashboard Schematic Part 2,42616a61-2044-4617-9368-626f61726420,rev?*%
%TF.SameCoordinates,Original*%
%TF.FileFunction,Soldermask,Top*%
%TF.FilePolarity,Negative*%
%FSLAX46Y46*%
G04 Gerber Fmt 4.6, Leading zero omitted, Abs format (unit mm)*
G04 Created by KiCad (PCBNEW 8.0.1) date 2024-04-15 10:29:33*
%MOMM*%
%LPD*%
G01*
G04 APERTURE LIST*
%ADD10O,1.750000X3.000000*%
%ADD11C,3.000000*%
%ADD12R,4.000000X1.750000*%
%ADD13C,4.300000*%
%ADD14O,3.500000X1.750000*%
%ADD15O,3.000000X1.750000*%
G04 APERTURE END LIST*
D10*
%TO.C,D4*%
X162250000Y-111500000D03*
X164790000Y-111500000D03*
%TD*%
%TO.C,D2*%
X150000000Y-111500000D03*
X152540000Y-111500000D03*
%TD*%
D11*
%TO.C,R10*%
X172500000Y-131250000D03*
X164880000Y-131250000D03*
%TD*%
D12*
%TO.C,U8*%
X192500000Y-89000000D03*
X192500000Y-91540000D03*
X192500000Y-94080000D03*
%TD*%
D10*
%TO.C,D1*%
X144000000Y-111500000D03*
X146540000Y-111500000D03*
%TD*%
D11*
%TO.C,R5*%
X124250000Y-126120000D03*
X124250000Y-118500000D03*
%TD*%
D10*
%TO.C,D6*%
X174250000Y-111500000D03*
X176790000Y-111500000D03*
%TD*%
%TO.C,D13*%
X166500000Y-123750000D03*
X169040000Y-123750000D03*
%TD*%
%TO.C,D9*%
X131750000Y-111500000D03*
X134290000Y-111500000D03*
%TD*%
D11*
%TO.C,R2*%
X91750000Y-106370000D03*
X91750000Y-98750000D03*
%TD*%
D10*
%TO.C,U5*%
X168410000Y-74520000D03*
X165870000Y-74520000D03*
X163330000Y-74520000D03*
X160790000Y-74520000D03*
X158250000Y-74520000D03*
X158250000Y-105000000D03*
X160790000Y-105000000D03*
X163330000Y-105000000D03*
X165870000Y-105000000D03*
X168410000Y-105000000D03*
%TD*%
%TO.C,D3*%
X156000000Y-111500000D03*
X158540000Y-111500000D03*
%TD*%
D11*
%TO.C,R3*%
X124120000Y-91500000D03*
X116500000Y-91500000D03*
%TD*%
D13*
%TO.C,H1*%
X184000000Y-83500000D03*
%TD*%
D11*
%TO.C,R1*%
X86500000Y-106370000D03*
X86500000Y-98750000D03*
%TD*%
D10*
%TO.C,D12*%
X155750000Y-123750000D03*
X158290000Y-123750000D03*
%TD*%
%TO.C,D11*%
X144210000Y-123750000D03*
X146750000Y-123750000D03*
%TD*%
D11*
%TO.C,R4*%
X124000000Y-97200000D03*
X116380000Y-97200000D03*
%TD*%
D10*
%TO.C,D8*%
X138000000Y-111500000D03*
X140540000Y-111500000D03*
%TD*%
%TO.C,D7*%
X133210000Y-123750000D03*
X135750000Y-123750000D03*
%TD*%
%TO.C,U6*%
X144410000Y-74770000D03*
X141870000Y-74770000D03*
X139330000Y-74770000D03*
X136790000Y-74770000D03*
X134250000Y-74770000D03*
X134250000Y-105250000D03*
X136790000Y-105250000D03*
X139330000Y-105250000D03*
X141870000Y-105250000D03*
X144410000Y-105250000D03*
%TD*%
D11*
%TO.C,R6*%
X116380000Y-102750000D03*
X124000000Y-102750000D03*
%TD*%
D10*
%TO.C,U8_Left1*%
X93260000Y-139000000D03*
X95800000Y-139000000D03*
X98340000Y-139000000D03*
X100880000Y-139000000D03*
X103420000Y-139000000D03*
X105960000Y-139000000D03*
X108500000Y-139000000D03*
%TD*%
D14*
%TO.C,J1*%
X169000000Y-96520000D03*
X169000000Y-93980000D03*
X169000000Y-91440000D03*
X169000000Y-88900000D03*
%TD*%
D11*
%TO.C,R9*%
X158750000Y-131250000D03*
X151130000Y-131250000D03*
%TD*%
D13*
%TO.C,H3*%
X83997200Y-132764800D03*
%TD*%
D10*
%TO.C,D10*%
X125750000Y-111500000D03*
X128290000Y-111500000D03*
%TD*%
D13*
%TO.C,H4*%
X218500000Y-132750000D03*
%TD*%
D10*
%TO.C,U7_Right1*%
X194000000Y-139000000D03*
X196540000Y-139000000D03*
X199080000Y-139000000D03*
X201620000Y-139000000D03*
X204160000Y-139000000D03*
X206700000Y-139000000D03*
X209240000Y-139000000D03*
%TD*%
D11*
%TO.C,R7*%
X123630000Y-131250000D03*
X131250000Y-131250000D03*
%TD*%
D13*
%TO.C,H2*%
X118500000Y-83452300D03*
%TD*%
D10*
%TO.C,D5*%
X168250000Y-111500000D03*
X170790000Y-111500000D03*
%TD*%
D11*
%TO.C,R8*%
X136880000Y-131250000D03*
X144500000Y-131250000D03*
%TD*%
D15*
%TO.C,U2*%
X97000000Y-111340000D03*
X97000000Y-113880000D03*
X97000000Y-116420000D03*
X97000000Y-118960000D03*
X97000000Y-121500000D03*
X97000000Y-124040000D03*
X97000000Y-126580000D03*
X97000000Y-129120000D03*
X88880000Y-129120000D03*
X88880000Y-126580000D03*
X88880000Y-124040000D03*
X88880000Y-121500000D03*
X88880000Y-118960000D03*
X88880000Y-116420000D03*
X88880000Y-113880000D03*
X88880000Y-111340000D03*
%TD*%
D10*
%TO.C,U4*%
X215060000Y-126500000D03*
X212520000Y-126500000D03*
X209980000Y-126500000D03*
X207440000Y-126500000D03*
X204900000Y-126500000D03*
X202360000Y-126500000D03*
X199820000Y-126500000D03*
X197280000Y-126500000D03*
X194740000Y-126500000D03*
X192200000Y-126500000D03*
X189660000Y-126500000D03*
X187120000Y-126500000D03*
X184580000Y-126500000D03*
X182040000Y-126500000D03*
X179500000Y-126500000D03*
X179500000Y-100600000D03*
X182040000Y-100600000D03*
X184580000Y-100600000D03*
X187120000Y-100600000D03*
X189660000Y-100600000D03*
X192200000Y-100600000D03*
X194740000Y-100600000D03*
X197280000Y-100600000D03*
X199820000Y-100600000D03*
X202360000Y-100600000D03*
X204900000Y-100600000D03*
X207440000Y-100600000D03*
X209980000Y-100600000D03*
X212520000Y-100600000D03*
X215060000Y-100600000D03*
%TD*%
%TO.C,U7*%
X157750000Y-99750000D03*
X155210000Y-99750000D03*
X152670000Y-99750000D03*
X150130000Y-99750000D03*
X147590000Y-99750000D03*
X145050000Y-99750000D03*
X142510000Y-99750000D03*
%TD*%
D15*
%TO.C,U3*%
X108000000Y-86960000D03*
X108000000Y-89500000D03*
X108000000Y-92040000D03*
X108000000Y-94580000D03*
X108000000Y-97120000D03*
X108000000Y-99660000D03*
X108000000Y-102200000D03*
X108000000Y-104740000D03*
X99880000Y-104740000D03*
X99880000Y-102200000D03*
X99880000Y-99660000D03*
X99880000Y-97120000D03*
X99880000Y-94580000D03*
X99880000Y-92040000D03*
X99880000Y-89500000D03*
X99880000Y-86960000D03*
%TD*%
%TO.C,U1*%
X115250000Y-111340000D03*
X115250000Y-113880000D03*
X115250000Y-116420000D03*
X115250000Y-118960000D03*
X115250000Y-121500000D03*
X115250000Y-124040000D03*
X115250000Y-126580000D03*
X115250000Y-129120000D03*
X107130000Y-129120000D03*
X107130000Y-126580000D03*
X107130000Y-124040000D03*
X107130000Y-121500000D03*
X107130000Y-118960000D03*
X107130000Y-116420000D03*
X107130000Y-113880000D03*
X107130000Y-111340000D03*
%TD*%
M02*
