%TF.GenerationSoftware,KiCad,Pcbnew,8.0.1*%
%TF.CreationDate,2024-04-10T11:02:19-04:00*%
%TF.ProjectId,Baja Dashboard Schematic Part 2,42616a61-2044-4617-9368-626f61726420,rev?*%
%TF.SameCoordinates,Original*%
%TF.FileFunction,Copper,L1,Top*%
%TF.FilePolarity,Positive*%
%FSLAX46Y46*%
G04 Gerber Fmt 4.6, Leading zero omitted, Abs format (unit mm)*
G04 Created by KiCad (PCBNEW 8.0.1) date 2024-04-10 11:02:19*
%MOMM*%
%LPD*%
G01*
G04 APERTURE LIST*
%TA.AperFunction,ComponentPad*%
%ADD10O,1.750000X3.000000*%
%TD*%
%TA.AperFunction,ComponentPad*%
%ADD11C,1.400000*%
%TD*%
%TA.AperFunction,ComponentPad*%
%ADD12O,1.400000X1.400000*%
%TD*%
%TA.AperFunction,ComponentPad*%
%ADD13R,1.700000X1.700000*%
%TD*%
%TA.AperFunction,ComponentPad*%
%ADD14O,1.700000X1.700000*%
%TD*%
%TA.AperFunction,ComponentPad*%
%ADD15R,4.000000X1.750000*%
%TD*%
%TA.AperFunction,ComponentPad*%
%ADD16C,1.600000*%
%TD*%
%TA.AperFunction,ComponentPad*%
%ADD17O,1.600000X1.600000*%
%TD*%
%TA.AperFunction,ComponentPad*%
%ADD18R,3.000000X2.000000*%
%TD*%
%TA.AperFunction,ComponentPad*%
%ADD19R,1.700000X3.000000*%
%TD*%
%TA.AperFunction,ViaPad*%
%ADD20C,0.600000*%
%TD*%
%TA.AperFunction,Conductor*%
%ADD21C,0.200000*%
%TD*%
G04 APERTURE END LIST*
D10*
%TO.P,D4,1,K*%
%TO.N,GND*%
X162250000Y-111500000D03*
%TO.P,D4,2,A*%
%TO.N,Net-(D4-A)*%
X164790000Y-111500000D03*
%TD*%
%TO.P,D2,1,K*%
%TO.N,GND*%
X150000000Y-111500000D03*
%TO.P,D2,2,A*%
%TO.N,Net-(D2-A)*%
X152540000Y-111500000D03*
%TD*%
D11*
%TO.P,R10,1*%
%TO.N,Net-(U4-D27)*%
X125000000Y-127620000D03*
D12*
%TO.P,R10,2*%
%TO.N,Net-(D13-A)*%
X125000000Y-120000000D03*
%TD*%
D13*
%TO.P,J1,1,Pin_1*%
%TO.N,Net-(J1-Pin_1)*%
X203250000Y-87750000D03*
D14*
%TO.P,J1,2,Pin_2*%
%TO.N,GND*%
X203250000Y-90290000D03*
%TO.P,J1,3,Pin_3*%
%TO.N,Net-(J1-Pin_3)*%
X203250000Y-92830000D03*
%TO.P,J1,4,Pin_4*%
%TO.N,+12V*%
X203250000Y-95370000D03*
%TD*%
D15*
%TO.P,U8,1,Vin*%
%TO.N,+12V*%
X192500000Y-89000000D03*
%TO.P,U8,2,GND*%
%TO.N,GND*%
X192500000Y-91540000D03*
%TO.P,U8,3,Vout*%
%TO.N,+5V*%
X192500000Y-94080000D03*
%TD*%
D10*
%TO.P,D1,1,K*%
%TO.N,GND*%
X144000000Y-111500000D03*
%TO.P,D1,2,A*%
%TO.N,Net-(D1-A)*%
X146540000Y-111500000D03*
%TD*%
D16*
%TO.P,R5,1*%
%TO.N,Net-(U4-D14)*%
X122000000Y-127810000D03*
D17*
%TO.P,R5,2*%
%TO.N,Net-(D8-A)*%
X122000000Y-120190000D03*
%TD*%
D10*
%TO.P,D6,1,K*%
%TO.N,GND*%
X174250000Y-111500000D03*
%TO.P,D6,2,A*%
%TO.N,Net-(D6-A)*%
X176790000Y-111500000D03*
%TD*%
%TO.P,D13,1,K*%
%TO.N,GND*%
X166500000Y-123750000D03*
%TO.P,D13,2,A*%
%TO.N,Net-(D13-A)*%
X169040000Y-123750000D03*
%TD*%
%TO.P,D9,1,K*%
%TO.N,GND*%
X131750000Y-111500000D03*
%TO.P,D9,2,A*%
%TO.N,Net-(D9-A)*%
X134290000Y-111500000D03*
%TD*%
D11*
%TO.P,R2,1*%
%TO.N,GND*%
X115190000Y-94650000D03*
D12*
%TO.P,R2,2*%
%TO.N,Net-(U2-R-EXT)*%
X122810000Y-94650000D03*
%TD*%
D10*
%TO.P,U5,1,2*%
%TO.N,Net-(U1-~{OUT2})*%
X168410000Y-74520000D03*
%TO.P,U5,2,1*%
%TO.N,Net-(U1-~{OUT1})*%
X165870000Y-74520000D03*
%TO.P,U5,3,GND*%
%TO.N,+5V*%
X163330000Y-74520000D03*
%TO.P,U5,4,6*%
%TO.N,Net-(U1-~{OUT6})*%
X160790000Y-74520000D03*
%TO.P,U5,5,5*%
%TO.N,Net-(U1-~{OUT5})*%
X158250000Y-74520000D03*
%TO.P,U5,6,4*%
%TO.N,Net-(U1-~{OUT4})*%
X158250000Y-105000000D03*
%TO.P,U5,7,7*%
%TO.N,Net-(U1-~{OUT7})*%
X160790000Y-105000000D03*
%TO.P,U5,8,GND*%
%TO.N,+5V*%
X163330000Y-105000000D03*
%TO.P,U5,9,3*%
%TO.N,Net-(U1-~{OUT3})*%
X165870000Y-105000000D03*
%TO.P,U5,10,0*%
%TO.N,Net-(U1-~{OUT0})*%
X168410000Y-105000000D03*
%TD*%
%TO.P,D3,1,K*%
%TO.N,GND*%
X156000000Y-111500000D03*
%TO.P,D3,2,A*%
%TO.N,Net-(D3-A)*%
X158540000Y-111500000D03*
%TD*%
D11*
%TO.P,R3,1*%
%TO.N,GND*%
X115190000Y-97800000D03*
D12*
%TO.P,R3,2*%
%TO.N,Net-(U3-R-EXT)*%
X122810000Y-97800000D03*
%TD*%
D11*
%TO.P,R1,1*%
%TO.N,GND*%
X115190000Y-91500000D03*
D12*
%TO.P,R1,2*%
%TO.N,Net-(U1-R-EXT)*%
X122810000Y-91500000D03*
%TD*%
D10*
%TO.P,D12,1,K*%
%TO.N,GND*%
X155750000Y-123750000D03*
%TO.P,D12,2,A*%
%TO.N,Net-(D12-A)*%
X158290000Y-123750000D03*
%TD*%
%TO.P,D11,1,K*%
%TO.N,GND*%
X144210000Y-123750000D03*
%TO.P,D11,2,A*%
%TO.N,Net-(D11-A)*%
X146750000Y-123750000D03*
%TD*%
D11*
%TO.P,R4,1*%
%TO.N,+3.3V*%
X115190000Y-100950000D03*
D12*
%TO.P,R4,2*%
%TO.N,Net-(D7-A)*%
X122810000Y-100950000D03*
%TD*%
D10*
%TO.P,D8,1,K*%
%TO.N,GND*%
X138000000Y-111500000D03*
%TO.P,D8,2,A*%
%TO.N,Net-(D8-A)*%
X140540000Y-111500000D03*
%TD*%
%TO.P,D7,1,K*%
%TO.N,GND*%
X133210000Y-123750000D03*
%TO.P,D7,2,A*%
%TO.N,Net-(D7-A)*%
X135750000Y-123750000D03*
%TD*%
%TO.P,U6,1,2*%
%TO.N,Net-(U2-~{OUT2})*%
X144410000Y-74770000D03*
%TO.P,U6,2,1*%
%TO.N,Net-(U2-~{OUT1})*%
X141870000Y-74770000D03*
%TO.P,U6,3,GND*%
%TO.N,+5V*%
X139330000Y-74770000D03*
%TO.P,U6,4,6*%
%TO.N,Net-(U2-~{OUT6})*%
X136790000Y-74770000D03*
%TO.P,U6,5,5*%
%TO.N,Net-(U2-~{OUT5})*%
X134250000Y-74770000D03*
%TO.P,U6,6,4*%
%TO.N,Net-(U2-~{OUT4})*%
X134250000Y-105250000D03*
%TO.P,U6,7,7*%
%TO.N,Net-(U2-~{OUT7})*%
X136790000Y-105250000D03*
%TO.P,U6,8,GND*%
%TO.N,+5V*%
X139330000Y-105250000D03*
%TO.P,U6,9,3*%
%TO.N,Net-(U2-~{OUT3})*%
X141870000Y-105250000D03*
%TO.P,U6,10,0*%
%TO.N,Net-(U2-~{OUT0})*%
X144410000Y-105250000D03*
%TD*%
D11*
%TO.P,R6,1*%
%TO.N,Net-(U4-D13)*%
X115190000Y-104100000D03*
D12*
%TO.P,R6,2*%
%TO.N,Net-(D9-A)*%
X122810000Y-104100000D03*
%TD*%
D10*
%TO.P,U8_Left1,1,RST*%
%TO.N,unconnected-(U8_Left1-RST-Pad1)*%
X93260000Y-139000000D03*
%TO.P,U8_Left1,2,ES*%
%TO.N,Net-(U4-TX2)*%
X95800000Y-139000000D03*
%TO.P,U8_Left1,3,DC*%
%TO.N,Net-(U4-RX2)*%
X98340000Y-139000000D03*
%TO.P,U8_Left1,4,SDA*%
%TO.N,Net-(U4-D23)*%
X100880000Y-139000000D03*
%TO.P,U8_Left1,5,SCL*%
%TO.N,Net-(U4-D18)*%
X103420000Y-139000000D03*
%TO.P,U8_Left1,6,GND*%
%TO.N,GND*%
X105960000Y-139000000D03*
%TO.P,U8_Left1,7,VCC*%
%TO.N,+3.3V*%
X108500000Y-139000000D03*
%TD*%
D11*
%TO.P,R9,1*%
%TO.N,Net-(U4-D15)*%
X128000000Y-127620000D03*
D12*
%TO.P,R9,2*%
%TO.N,Net-(D12-A)*%
X128000000Y-120000000D03*
%TD*%
D10*
%TO.P,D10,1,K*%
%TO.N,GND*%
X125750000Y-111500000D03*
%TO.P,D10,2,A*%
%TO.N,Net-(D10-A)*%
X128290000Y-111500000D03*
%TD*%
%TO.P,U7_Right1,1,RST*%
%TO.N,unconnected-(U7_Right1-RST-Pad1)*%
X194000000Y-139000000D03*
%TO.P,U7_Right1,2,ES*%
%TO.N,Net-(U4-D5)*%
X196540000Y-139000000D03*
%TO.P,U7_Right1,3,DC*%
%TO.N,Net-(U4-D4)*%
X199080000Y-139000000D03*
%TO.P,U7_Right1,4,SDA*%
%TO.N,Net-(U4-D23)*%
X201620000Y-139000000D03*
%TO.P,U7_Right1,5,SCL*%
%TO.N,Net-(U4-D18)*%
X204160000Y-139000000D03*
%TO.P,U7_Right1,6,GND*%
%TO.N,GND*%
X206700000Y-139000000D03*
%TO.P,U7_Right1,7,VCC*%
%TO.N,+3.3V*%
X209240000Y-139000000D03*
%TD*%
D11*
%TO.P,R7,1*%
%TO.N,Net-(U4-D12)*%
X132190000Y-131000000D03*
D12*
%TO.P,R7,2*%
%TO.N,Net-(D10-A)*%
X139810000Y-131000000D03*
%TD*%
D10*
%TO.P,D5,1,K*%
%TO.N,GND*%
X168250000Y-111500000D03*
%TO.P,D5,2,A*%
%TO.N,Net-(D5-A)*%
X170790000Y-111500000D03*
%TD*%
D11*
%TO.P,R8,1*%
%TO.N,Net-(U4-D2)*%
X122190000Y-131000000D03*
D12*
%TO.P,R8,2*%
%TO.N,Net-(D11-A)*%
X129810000Y-131000000D03*
%TD*%
D18*
%TO.P,U2,1,GND*%
%TO.N,GND*%
X97250000Y-111340000D03*
%TO.P,U2,2,SDI*%
%TO.N,Net-(U1-SDO)*%
X97250000Y-113880000D03*
%TO.P,U2,3,CLK*%
%TO.N,Net-(U1-CLK)*%
X97250000Y-116420000D03*
%TO.P,U2,4,LE(ED1)*%
%TO.N,Net-(U1-LE(ED1))*%
X97250000Y-118960000D03*
%TO.P,U2,5,~{OUT0}*%
%TO.N,Net-(U2-~{OUT0})*%
X97250000Y-121500000D03*
%TO.P,U2,6,~{OUT1}*%
%TO.N,Net-(U2-~{OUT1})*%
X97250000Y-124040000D03*
%TO.P,U2,7,~{OUT2}*%
%TO.N,Net-(U2-~{OUT2})*%
X97250000Y-126580000D03*
%TO.P,U2,8,~{OUT3}*%
%TO.N,Net-(U2-~{OUT3})*%
X97250000Y-129120000D03*
%TO.P,U2,9,~{OUT4}*%
%TO.N,Net-(U2-~{OUT4})*%
X88630000Y-129120000D03*
%TO.P,U2,10,~{OUT5}*%
%TO.N,Net-(U2-~{OUT5})*%
X88630000Y-126580000D03*
%TO.P,U2,11,~{OUT6}*%
%TO.N,Net-(U2-~{OUT6})*%
X88630000Y-124040000D03*
%TO.P,U2,12,~{OUT7}*%
%TO.N,Net-(U2-~{OUT7})*%
X88630000Y-121500000D03*
%TO.P,U2,13,~{OE}(ED2)*%
%TO.N,Net-(U1-~{OE}(ED2))*%
X88630000Y-118960000D03*
%TO.P,U2,14,SDO*%
%TO.N,Net-(U2-SDO)*%
X88630000Y-116420000D03*
%TO.P,U2,15,R-EXT*%
%TO.N,Net-(U2-R-EXT)*%
X88630000Y-113880000D03*
%TO.P,U2,16,VDD*%
%TO.N,+5V*%
X88630000Y-111340000D03*
%TD*%
D19*
%TO.P,U4,1,3V3*%
%TO.N,+3.3V*%
X215060000Y-126750000D03*
%TO.P,U4,2,GND*%
%TO.N,GND*%
X212520000Y-126750000D03*
%TO.P,U4,3,D15*%
%TO.N,Net-(U4-D15)*%
X209980000Y-126750000D03*
%TO.P,U4,4,D2*%
%TO.N,Net-(U4-D2)*%
X207440000Y-126750000D03*
%TO.P,U4,5,D4*%
%TO.N,Net-(U4-D4)*%
X204900000Y-126750000D03*
%TO.P,U4,6,RX2*%
%TO.N,Net-(U4-RX2)*%
X202360000Y-126750000D03*
%TO.P,U4,7,TX2*%
%TO.N,Net-(U4-TX2)*%
X199820000Y-126750000D03*
%TO.P,U4,8,D5*%
%TO.N,Net-(U4-D5)*%
X197280000Y-126750000D03*
%TO.P,U4,9,D18*%
%TO.N,Net-(U4-D18)*%
X194740000Y-126750000D03*
%TO.P,U4,10,D19*%
%TO.N,unconnected-(U4-D19-Pad10)*%
X192200000Y-126750000D03*
%TO.P,U4,11,D21*%
%TO.N,Net-(U4-D21)*%
X189660000Y-126750000D03*
%TO.P,U4,12,RX0*%
%TO.N,unconnected-(U4-RX0-Pad12)*%
X187120000Y-126750000D03*
%TO.P,U4,13,TX0*%
%TO.N,unconnected-(U4-TX0-Pad13)*%
X184580000Y-126750000D03*
%TO.P,U4,14,D22*%
%TO.N,Net-(U4-D22)*%
X182040000Y-126750000D03*
%TO.P,U4,15,D23*%
%TO.N,Net-(U4-D23)*%
X179500000Y-126750000D03*
%TO.P,U4,16,EN*%
%TO.N,unconnected-(U4-EN-Pad16)*%
X179500000Y-100350000D03*
%TO.P,U4,17,UP*%
%TO.N,unconnected-(U4-UP-Pad17)*%
X182040000Y-100350000D03*
%TO.P,U4,18,UN*%
%TO.N,unconnected-(U4-UN-Pad18)*%
X184580000Y-100350000D03*
%TO.P,U4,19,D34*%
%TO.N,unconnected-(U4-D34-Pad19)*%
X187120000Y-100350000D03*
%TO.P,U4,20,D35*%
%TO.N,unconnected-(U4-D35-Pad20)*%
X189660000Y-100350000D03*
%TO.P,U4,21,D32*%
%TO.N,Net-(U1-SDI)*%
X192200000Y-100350000D03*
%TO.P,U4,22,D33*%
%TO.N,Net-(U1-CLK)*%
X194740000Y-100350000D03*
%TO.P,U4,23,D25*%
%TO.N,Net-(U1-LE(ED1))*%
X197280000Y-100350000D03*
%TO.P,U4,24,D26*%
%TO.N,Net-(U1-~{OE}(ED2))*%
X199820000Y-100350000D03*
%TO.P,U4,25,D27*%
%TO.N,Net-(U4-D27)*%
X202360000Y-100350000D03*
%TO.P,U4,26,D14*%
%TO.N,Net-(U4-D14)*%
X204900000Y-100350000D03*
%TO.P,U4,27,D12*%
%TO.N,Net-(U4-D12)*%
X207440000Y-100350000D03*
%TO.P,U4,28,D13*%
%TO.N,Net-(U4-D13)*%
X209980000Y-100350000D03*
%TO.P,U4,29,GND*%
%TO.N,GND*%
X212520000Y-100350000D03*
%TO.P,U4,30,VIN*%
%TO.N,+5V*%
X215060000Y-100350000D03*
%TD*%
D10*
%TO.P,U7,1,Vcc*%
%TO.N,+3.3V*%
X157750000Y-99750000D03*
%TO.P,U7,2,GND(Logic)*%
%TO.N,GND*%
X155210000Y-99750000D03*
%TO.P,U7,3,RX*%
%TO.N,Net-(U4-D22)*%
X152670000Y-99750000D03*
%TO.P,U7,4,TX*%
%TO.N,Net-(U4-D21)*%
X150130000Y-99750000D03*
%TO.P,U7,5,SLNT*%
%TO.N,unconnected-(U7-SLNT-Pad5)*%
X147590000Y-99750000D03*
%TO.P,U7,6,CANH*%
%TO.N,Net-(J1-Pin_1)*%
X145050000Y-99750000D03*
%TO.P,U7,7,CANL*%
%TO.N,Net-(J1-Pin_3)*%
X142510000Y-99750000D03*
%TD*%
D18*
%TO.P,U3,1,GND*%
%TO.N,GND*%
X108250000Y-86960000D03*
%TO.P,U3,2,SDI*%
%TO.N,Net-(U2-SDO)*%
X108250000Y-89500000D03*
%TO.P,U3,3,CLK*%
%TO.N,Net-(U1-CLK)*%
X108250000Y-92040000D03*
%TO.P,U3,4,LE(ED1)*%
%TO.N,Net-(U1-LE(ED1))*%
X108250000Y-94580000D03*
%TO.P,U3,5,~{OUT0}*%
%TO.N,Net-(D1-A)*%
X108250000Y-97120000D03*
%TO.P,U3,6,~{OUT1}*%
%TO.N,Net-(D2-A)*%
X108250000Y-99660000D03*
%TO.P,U3,7,~{OUT2}*%
%TO.N,Net-(D3-A)*%
X108250000Y-102200000D03*
%TO.P,U3,8,~{OUT3}*%
%TO.N,Net-(D4-A)*%
X108250000Y-104740000D03*
%TO.P,U3,9,~{OUT4}*%
%TO.N,Net-(D5-A)*%
X99630000Y-104740000D03*
%TO.P,U3,10,~{OUT5}*%
%TO.N,Net-(D6-A)*%
X99630000Y-102200000D03*
%TO.P,U3,11,~{OUT6}*%
%TO.N,unconnected-(U3-~{OUT6}-Pad11)*%
X99630000Y-99660000D03*
%TO.P,U3,12,~{OUT7}*%
%TO.N,unconnected-(U3-~{OUT7}-Pad12)*%
X99630000Y-97120000D03*
%TO.P,U3,13,~{OE}(ED2)*%
%TO.N,GND*%
X99630000Y-94580000D03*
%TO.P,U3,14,SDO*%
%TO.N,unconnected-(U3-SDO-Pad14)*%
X99630000Y-92040000D03*
%TO.P,U3,15,R-EXT*%
%TO.N,Net-(U3-R-EXT)*%
X99630000Y-89500000D03*
%TO.P,U3,16,VDD*%
%TO.N,+5V*%
X99630000Y-86960000D03*
%TD*%
%TO.P,U1,1,GND*%
%TO.N,GND*%
X115500000Y-111340000D03*
%TO.P,U1,2,SDI*%
%TO.N,Net-(U1-SDI)*%
X115500000Y-113880000D03*
%TO.P,U1,3,CLK*%
%TO.N,Net-(U1-CLK)*%
X115500000Y-116420000D03*
%TO.P,U1,4,LE(ED1)*%
%TO.N,Net-(U1-LE(ED1))*%
X115500000Y-118960000D03*
%TO.P,U1,5,~{OUT0}*%
%TO.N,Net-(U1-~{OUT0})*%
X115500000Y-121500000D03*
%TO.P,U1,6,~{OUT1}*%
%TO.N,Net-(U1-~{OUT1})*%
X115500000Y-124040000D03*
%TO.P,U1,7,~{OUT2}*%
%TO.N,Net-(U1-~{OUT2})*%
X115500000Y-126580000D03*
%TO.P,U1,8,~{OUT3}*%
%TO.N,Net-(U1-~{OUT3})*%
X115500000Y-129120000D03*
%TO.P,U1,9,~{OUT4}*%
%TO.N,Net-(U1-~{OUT4})*%
X106880000Y-129120000D03*
%TO.P,U1,10,~{OUT5}*%
%TO.N,Net-(U1-~{OUT5})*%
X106880000Y-126580000D03*
%TO.P,U1,11,~{OUT6}*%
%TO.N,Net-(U1-~{OUT6})*%
X106880000Y-124040000D03*
%TO.P,U1,12,~{OUT7}*%
%TO.N,Net-(U1-~{OUT7})*%
X106880000Y-121500000D03*
%TO.P,U1,13,~{OE}(ED2)*%
%TO.N,Net-(U1-~{OE}(ED2))*%
X106880000Y-118960000D03*
%TO.P,U1,14,SDO*%
%TO.N,Net-(U1-SDO)*%
X106880000Y-116420000D03*
%TO.P,U1,15,R-EXT*%
%TO.N,Net-(U1-R-EXT)*%
X106880000Y-113880000D03*
%TO.P,U1,16,VDD*%
%TO.N,+5V*%
X106880000Y-111340000D03*
%TD*%
D20*
%TO.N,Net-(U4-D22)*%
X158760800Y-129317900D03*
%TO.N,Net-(U4-D18)*%
X108991400Y-131626900D03*
%TO.N,Net-(U4-D21)*%
X158108700Y-129962000D03*
%TO.N,Net-(U4-D23)*%
X178194000Y-133279900D03*
%TO.N,Net-(U2-~{OUT3})*%
X139577200Y-122917200D03*
%TO.N,Net-(U1-~{OUT7})*%
X157468200Y-108211400D03*
%TO.N,Net-(U2-SDO)*%
X102712000Y-89500000D03*
%TO.N,Net-(U2-~{OUT2})*%
X109377700Y-80972400D03*
%TO.N,Net-(U2-~{OUT0})*%
X142476900Y-120664000D03*
%TO.N,Net-(U1-~{OUT0})*%
X160538300Y-117023800D03*
%TO.N,Net-(U1-~{OUT5})*%
X135862900Y-80118500D03*
%TO.N,Net-(U1-LE(ED1))*%
X112868100Y-110476100D03*
X106939000Y-109034800D03*
%TO.N,Net-(U1-~{OE}(ED2))*%
X172008500Y-87274900D03*
X122116300Y-93009700D03*
%TO.N,Net-(U1-~{OUT4})*%
X159047100Y-118076900D03*
%TO.N,Net-(U1-~{OUT3})*%
X163327800Y-114430600D03*
%TO.N,Net-(U1-~{OUT6})*%
X138705000Y-83018600D03*
%TO.N,Net-(U1-CLK)*%
X107706900Y-108633100D03*
X113910800Y-109433400D03*
%TO.N,Net-(U1-~{OUT2})*%
X134921000Y-85442000D03*
%TO.N,+5V*%
X97542800Y-108930400D03*
%TO.N,Net-(U1-~{OUT1})*%
X134302400Y-117636400D03*
%TO.N,+3.3V*%
X120898300Y-102276800D03*
X163374000Y-121725000D03*
%TO.N,Net-(U2-R-EXT)*%
X117667300Y-106883800D03*
%TO.N,Net-(D13-A)*%
X128808400Y-123330300D03*
%TO.N,Net-(D11-A)*%
X140929200Y-129570800D03*
%TO.N,Net-(D10-A)*%
X129466700Y-112909200D03*
%TO.N,Net-(D6-A)*%
X168554700Y-102746900D03*
%TO.N,Net-(D5-A)*%
X167534800Y-108191400D03*
%TO.N,Net-(D4-A)*%
X111326400Y-105465000D03*
X121344300Y-105475900D03*
X127619800Y-116495400D03*
%TO.N,Net-(D3-A)*%
X113847000Y-96659200D03*
X144578700Y-97546500D03*
%TO.N,Net-(D2-A)*%
X112525500Y-96771300D03*
X140807500Y-100524500D03*
%TO.N,Net-(D1-A)*%
X140809700Y-101452600D03*
%TD*%
D21*
%TO.N,Net-(U4-D22)*%
X182040000Y-126250000D02*
X182040000Y-128551700D01*
X181273800Y-129317900D02*
X158760800Y-129317900D01*
X182040000Y-128551700D02*
X181273800Y-129317900D01*
%TO.N,Net-(U4-D18)*%
X194740000Y-126250000D02*
X194740000Y-128551700D01*
X120587000Y-131626900D02*
X108991400Y-131626900D01*
X120961800Y-132001700D02*
X120587000Y-131626900D01*
X157616600Y-132001700D02*
X120961800Y-132001700D01*
X158016800Y-131601500D02*
X157616600Y-132001700D01*
X191690200Y-131601500D02*
X158016800Y-131601500D01*
X194740000Y-128551700D02*
X191690200Y-131601500D01*
%TO.N,Net-(U4-D21)*%
X189660000Y-126250000D02*
X189660000Y-128551700D01*
X188249700Y-129962000D02*
X158108700Y-129962000D01*
X189660000Y-128551700D02*
X188249700Y-129962000D01*
%TO.N,Net-(U4-D23)*%
X104798400Y-133279900D02*
X100880000Y-137198300D01*
X178194000Y-133279900D02*
X104798400Y-133279900D01*
X100880000Y-139000000D02*
X100880000Y-137198300D01*
%TO.N,Net-(U4-RX2)*%
X202360000Y-126250000D02*
X202360000Y-128551700D01*
X98340000Y-139000000D02*
X98340000Y-137198300D01*
X198275600Y-132636100D02*
X202360000Y-128551700D01*
X158318400Y-132636100D02*
X198275600Y-132636100D01*
X158149400Y-132805100D02*
X158318400Y-132636100D01*
X120429300Y-132805100D02*
X158149400Y-132805100D01*
X120260300Y-132636100D02*
X120429300Y-132805100D01*
X116480600Y-132636100D02*
X120260300Y-132636100D01*
X116474100Y-132642600D02*
X116480600Y-132636100D01*
X102895700Y-132642600D02*
X116474100Y-132642600D01*
X98340000Y-137198300D02*
X102895700Y-132642600D01*
%TO.N,Net-(U4-TX2)*%
X199820000Y-126250000D02*
X199820000Y-128551700D01*
X95800000Y-139000000D02*
X95800000Y-137198300D01*
X196368500Y-132003200D02*
X199820000Y-128551700D01*
X158383300Y-132003200D02*
X196368500Y-132003200D01*
X157983100Y-132403400D02*
X158383300Y-132003200D01*
X120595600Y-132403400D02*
X157983100Y-132403400D01*
X120373300Y-132181100D02*
X120595600Y-132403400D01*
X116367600Y-132181100D02*
X120373300Y-132181100D01*
X116307800Y-132240900D02*
X116367600Y-132181100D01*
X100757400Y-132240900D02*
X116307800Y-132240900D01*
X95800000Y-137198300D02*
X100757400Y-132240900D01*
%TO.N,Net-(U2-~{OUT3})*%
X96750000Y-129120000D02*
X99051700Y-129120000D01*
X136740700Y-125753700D02*
X139577200Y-122917200D01*
X128310700Y-125753700D02*
X136740700Y-125753700D01*
X124509300Y-129555100D02*
X128310700Y-125753700D01*
X119588200Y-129555100D02*
X124509300Y-129555100D01*
X117918100Y-131225200D02*
X119588200Y-129555100D01*
X112758000Y-131225200D02*
X117918100Y-131225200D01*
X112556200Y-131023400D02*
X112758000Y-131225200D01*
X100955100Y-131023400D02*
X112556200Y-131023400D01*
X99051700Y-129120000D02*
X100955100Y-131023400D01*
%TO.N,Net-(U1-~{OUT7})*%
X107380000Y-121500000D02*
X108681700Y-121500000D01*
X115983600Y-108211400D02*
X157468200Y-108211400D01*
X115983600Y-108211500D02*
X115983600Y-108211400D01*
X114160000Y-110035100D02*
X115983600Y-108211500D01*
X113808600Y-110035100D02*
X114160000Y-110035100D01*
X113469800Y-110373900D02*
X113808600Y-110035100D01*
X113469800Y-116711900D02*
X113469800Y-110373900D01*
X108681700Y-121500000D02*
X113469800Y-116711900D01*
%TO.N,Net-(U2-SDO)*%
X107750000Y-89500000D02*
X102712000Y-89500000D01*
%TO.N,Net-(U2-~{OUT7})*%
X89130000Y-121500000D02*
X90431700Y-121500000D01*
X136790000Y-105250000D02*
X136790000Y-107051700D01*
X90431700Y-115190700D02*
X90431700Y-121500000D01*
X98136900Y-107485500D02*
X90431700Y-115190700D01*
X136356200Y-107485500D02*
X98136900Y-107485500D01*
X136790000Y-107051700D02*
X136356200Y-107485500D01*
%TO.N,Net-(U2-~{OUT2})*%
X144410000Y-74770000D02*
X144410000Y-76571700D01*
X138410700Y-76571700D02*
X144410000Y-76571700D01*
X134231800Y-80750600D02*
X138410700Y-76571700D01*
X109599500Y-80750600D02*
X134231800Y-80750600D01*
X109377700Y-80972400D02*
X109599500Y-80750600D01*
%TO.N,Net-(U2-~{OUT0})*%
X96750000Y-121500000D02*
X99051700Y-121500000D01*
X132515700Y-120664000D02*
X142476900Y-120664000D01*
X130852900Y-122326800D02*
X132515700Y-120664000D01*
X128189400Y-122326800D02*
X130852900Y-122326800D01*
X124416200Y-126100000D02*
X128189400Y-122326800D01*
X122120200Y-126100000D02*
X124416200Y-126100000D01*
X117396700Y-130823500D02*
X122120200Y-126100000D01*
X112924300Y-130823500D02*
X117396700Y-130823500D01*
X112522600Y-130421800D02*
X112924300Y-130823500D01*
X105189200Y-130421800D02*
X112522600Y-130421800D01*
X99051700Y-124284300D02*
X105189200Y-130421800D01*
X99051700Y-121500000D02*
X99051700Y-124284300D01*
%TO.N,Net-(U1-SDI)*%
X192200000Y-100850000D02*
X192200000Y-102151700D01*
X115000000Y-113880000D02*
X117301700Y-113880000D01*
X185538600Y-108813100D02*
X192200000Y-102151700D01*
X122368600Y-108813100D02*
X185538600Y-108813100D01*
X117301700Y-113880000D02*
X122368600Y-108813100D01*
%TO.N,Net-(U1-~{OUT0})*%
X129408900Y-117023800D02*
X160538300Y-117023800D01*
X124932700Y-121500000D02*
X129408900Y-117023800D01*
X115000000Y-121500000D02*
X124932700Y-121500000D01*
%TO.N,Net-(U1-~{OUT5})*%
X158250000Y-74520000D02*
X158250000Y-76321700D01*
X154453200Y-80118500D02*
X135862900Y-80118500D01*
X158250000Y-76321700D02*
X154453200Y-80118500D01*
%TO.N,Net-(U1-LE(ED1))*%
X197280000Y-100850000D02*
X197280000Y-102151700D01*
X115000000Y-118960000D02*
X117301700Y-118960000D01*
X189780800Y-109650900D02*
X197280000Y-102151700D01*
X137533700Y-109650900D02*
X189780800Y-109650900D01*
X136430100Y-110754500D02*
X137533700Y-109650900D01*
X136430100Y-110754600D02*
X136430100Y-110754500D01*
X136546700Y-110871200D02*
X136430100Y-110754600D01*
X136546700Y-111203800D02*
X136546700Y-110871200D01*
X136193900Y-111556600D02*
X136546700Y-111203800D01*
X136193800Y-111556600D02*
X136193900Y-111556600D01*
X136193800Y-112546600D02*
X136193800Y-111556600D01*
X134624500Y-114115900D02*
X136193800Y-112546600D01*
X122145800Y-114115900D02*
X134624500Y-114115900D01*
X117301700Y-118960000D02*
X122145800Y-114115900D01*
X112079000Y-109687000D02*
X112868100Y-110476100D01*
X107591200Y-109687000D02*
X112079000Y-109687000D01*
X106939000Y-109034800D02*
X107591200Y-109687000D01*
%TO.N,Net-(U1-~{OE}(ED2))*%
X149022200Y-93009700D02*
X122116300Y-93009700D01*
X154757000Y-87274900D02*
X149022200Y-93009700D01*
X172008500Y-87274900D02*
X154757000Y-87274900D01*
%TO.N,Net-(U1-~{OUT4})*%
X144098900Y-118076900D02*
X159047100Y-118076900D01*
X141913500Y-120262300D02*
X144098900Y-118076900D01*
X132244500Y-120262300D02*
X141913500Y-120262300D01*
X130581700Y-121925100D02*
X132244500Y-120262300D01*
X128023100Y-121925100D02*
X130581700Y-121925100D01*
X124434400Y-125513800D02*
X128023100Y-121925100D01*
X122100100Y-125513800D02*
X124434400Y-125513800D01*
X117192100Y-130421800D02*
X122100100Y-125513800D01*
X113190500Y-130421800D02*
X117192100Y-130421800D01*
X111888700Y-129120000D02*
X113190500Y-130421800D01*
X107380000Y-129120000D02*
X111888700Y-129120000D01*
%TO.N,Net-(U1-~{OUT3})*%
X121309600Y-125112100D02*
X117301700Y-129120000D01*
X124268100Y-125112100D02*
X121309600Y-125112100D01*
X127856800Y-121523400D02*
X124268100Y-125112100D01*
X130415400Y-121523400D02*
X127856800Y-121523400D01*
X132078200Y-119860600D02*
X130415400Y-121523400D01*
X133422000Y-119860600D02*
X132078200Y-119860600D01*
X135807400Y-117475200D02*
X133422000Y-119860600D01*
X159296300Y-117475200D02*
X135807400Y-117475200D01*
X159554500Y-117733400D02*
X159296300Y-117475200D01*
X160681900Y-117733400D02*
X159554500Y-117733400D01*
X163327800Y-115087500D02*
X160681900Y-117733400D01*
X163327800Y-114430600D02*
X163327800Y-115087500D01*
X115000000Y-129120000D02*
X117301700Y-129120000D01*
%TO.N,Net-(U1-~{OUT6})*%
X160790000Y-74520000D02*
X160790000Y-76321700D01*
X154093100Y-83018600D02*
X160790000Y-76321700D01*
X138705000Y-83018600D02*
X154093100Y-83018600D01*
%TO.N,Net-(U1-CLK)*%
X194740000Y-100850000D02*
X194740000Y-102151700D01*
X187676900Y-109214800D02*
X194740000Y-102151700D01*
X137401800Y-109214800D02*
X187676900Y-109214800D01*
X136003600Y-110613000D02*
X137401800Y-109214800D01*
X136003600Y-110896100D02*
X136003600Y-110613000D01*
X136103700Y-110996200D02*
X136003600Y-110896100D01*
X136103700Y-111078800D02*
X136103700Y-110996200D01*
X136027600Y-111154900D02*
X136103700Y-111078800D01*
X135886200Y-111154900D02*
X136027600Y-111154900D01*
X135753000Y-111288100D02*
X135886200Y-111154900D01*
X135753000Y-112419400D02*
X135753000Y-111288100D01*
X134458200Y-113714200D02*
X135753000Y-112419400D01*
X121390100Y-113714200D02*
X134458200Y-113714200D01*
X118684300Y-116420000D02*
X121390100Y-113714200D01*
X115000000Y-116420000D02*
X118684300Y-116420000D01*
X113110500Y-108633100D02*
X113910800Y-109433400D01*
X107706900Y-108633100D02*
X113110500Y-108633100D01*
%TO.N,Net-(U1-~{OUT2})*%
X168410000Y-74520000D02*
X168410000Y-76321700D01*
X159289700Y-85442000D02*
X134921000Y-85442000D01*
X168410000Y-76321700D02*
X159289700Y-85442000D01*
%TO.N,+5V*%
X215060000Y-100850000D02*
X215060000Y-98548300D01*
X192500000Y-94080000D02*
X192500000Y-95256700D01*
X163330000Y-74520000D02*
X163330000Y-72718300D01*
X163330000Y-105000000D02*
X163330000Y-103198300D01*
X139330000Y-105250000D02*
X139330000Y-103448300D01*
X194265100Y-97021800D02*
X192500000Y-95256700D01*
X213533500Y-97021800D02*
X194265100Y-97021800D01*
X215060000Y-98548300D02*
X213533500Y-97021800D01*
X139330000Y-74501900D02*
X139330000Y-72968300D01*
X139330000Y-74501900D02*
X139330000Y-74516900D01*
X139330000Y-74770000D02*
X139330000Y-74516900D01*
X100130000Y-86960000D02*
X101431700Y-86960000D01*
X102668700Y-108930400D02*
X97542800Y-108930400D01*
X105078300Y-111340000D02*
X102668700Y-108930400D01*
X107380000Y-111340000D02*
X105078300Y-111340000D01*
X139831100Y-72467200D02*
X139330000Y-72968300D01*
X163078900Y-72467200D02*
X139831100Y-72467200D01*
X163330000Y-72718300D02*
X163078900Y-72467200D01*
X162824100Y-103198300D02*
X163330000Y-103198300D01*
X161966700Y-104055700D02*
X162824100Y-103198300D01*
X161966700Y-106112400D02*
X161966700Y-104055700D01*
X161277400Y-106801700D02*
X161966700Y-106112400D01*
X157762600Y-106801700D02*
X161277400Y-106801700D01*
X154409200Y-103448300D02*
X157762600Y-106801700D01*
X139330000Y-103448300D02*
X154409200Y-103448300D01*
X108042800Y-80348900D02*
X101431700Y-86960000D01*
X133586000Y-80348900D02*
X108042800Y-80348900D01*
X139330000Y-74604900D02*
X133586000Y-80348900D01*
X139330000Y-74516900D02*
X139330000Y-74604900D01*
%TO.N,Net-(U1-SDO)*%
X100867700Y-113880000D02*
X96750000Y-113880000D01*
X103407700Y-116420000D02*
X100867700Y-113880000D01*
X107380000Y-116420000D02*
X103407700Y-116420000D01*
%TO.N,Net-(U1-~{OUT1})*%
X115000000Y-124040000D02*
X117301700Y-124040000D01*
X117910600Y-124648900D02*
X117301700Y-124040000D01*
X124163300Y-124648900D02*
X117910600Y-124648900D01*
X127690500Y-121121700D02*
X124163300Y-124648900D01*
X128705400Y-121121700D02*
X127690500Y-121121700D01*
X132190700Y-117636400D02*
X128705400Y-121121700D01*
X134302400Y-117636400D02*
X132190700Y-117636400D01*
%TO.N,Net-(U4-D15)*%
X209527900Y-124496200D02*
X209980000Y-124948300D01*
X176477900Y-124496200D02*
X209527900Y-124496200D01*
X173354100Y-127620000D02*
X176477900Y-124496200D01*
X128000000Y-127620000D02*
X173354100Y-127620000D01*
X209980000Y-126250000D02*
X209980000Y-124948300D01*
%TO.N,Net-(U4-D2)*%
X207440000Y-126250000D02*
X207440000Y-124948300D01*
X177693800Y-124948300D02*
X207440000Y-124948300D01*
X173925900Y-128716200D02*
X177693800Y-124948300D01*
X126954300Y-128716200D02*
X173925900Y-128716200D01*
X124670500Y-131000000D02*
X126954300Y-128716200D01*
X122190000Y-131000000D02*
X124670500Y-131000000D01*
%TO.N,Net-(U4-D13)*%
X209980000Y-100850000D02*
X209980000Y-98548300D01*
X116356400Y-102933600D02*
X115190000Y-104100000D01*
X121960300Y-102933600D02*
X116356400Y-102933600D01*
X122360500Y-102533400D02*
X121960300Y-102933600D01*
X159189900Y-102533400D02*
X122360500Y-102533400D01*
X163175000Y-98548300D02*
X159189900Y-102533400D01*
X209980000Y-98548300D02*
X163175000Y-98548300D01*
%TO.N,Net-(U4-D14)*%
X204900000Y-100850000D02*
X204900000Y-102151700D01*
X123274200Y-127810000D02*
X122000000Y-127810000D01*
X128355700Y-122728500D02*
X123274200Y-127810000D01*
X131019300Y-122728500D02*
X128355700Y-122728500D01*
X132224400Y-121523400D02*
X131019300Y-122728500D01*
X162724900Y-121523400D02*
X132224400Y-121523400D01*
X162724900Y-121523300D02*
X162724900Y-121523400D01*
X163126500Y-121121700D02*
X162724900Y-121523300D01*
X185930000Y-121121700D02*
X163126500Y-121121700D01*
X204900000Y-102151700D02*
X185930000Y-121121700D01*
%TO.N,+3.3V*%
X211635100Y-121523400D02*
X215060000Y-124948300D01*
X163575600Y-121523400D02*
X211635100Y-121523400D01*
X163374000Y-121725000D02*
X163575600Y-121523400D01*
X215060000Y-126250000D02*
X215060000Y-124948300D01*
X116516800Y-102276800D02*
X120898300Y-102276800D01*
X115190000Y-100950000D02*
X116516800Y-102276800D01*
X121043400Y-102131700D02*
X120898300Y-102276800D01*
X157170000Y-102131700D02*
X121043400Y-102131700D01*
X157750000Y-101551700D02*
X157170000Y-102131700D01*
X157750000Y-99750000D02*
X157750000Y-101551700D01*
%TO.N,Net-(U3-R-EXT)*%
X100130000Y-89500000D02*
X101431700Y-89500000D01*
X122810000Y-97800000D02*
X122810000Y-96798300D01*
X105273400Y-85658300D02*
X101431700Y-89500000D01*
X111670000Y-85658300D02*
X105273400Y-85658300D01*
X122810000Y-96798300D02*
X111670000Y-85658300D01*
%TO.N,Net-(U2-R-EXT)*%
X89130000Y-113880000D02*
X90431700Y-113880000D01*
X97427900Y-106883800D02*
X117667300Y-106883800D01*
X90431700Y-113880000D02*
X97427900Y-106883800D01*
%TO.N,Net-(J1-Pin_1)*%
X145050000Y-99750000D02*
X145050000Y-97948300D01*
X172899200Y-87750000D02*
X203250000Y-87750000D01*
X172515100Y-88134100D02*
X172899200Y-87750000D01*
X154864200Y-88134100D02*
X172515100Y-88134100D01*
X145050000Y-97948300D02*
X154864200Y-88134100D01*
%TO.N,Net-(J1-Pin_3)*%
X150692800Y-101551700D02*
X142510000Y-101551700D01*
X151400000Y-100844500D02*
X150692800Y-101551700D01*
X151400000Y-98727500D02*
X151400000Y-100844500D01*
X157297500Y-92830000D02*
X151400000Y-98727500D01*
X203250000Y-92830000D02*
X157297500Y-92830000D01*
X142510000Y-99750000D02*
X142510000Y-101551700D01*
%TO.N,Net-(D13-A)*%
X169040000Y-123750000D02*
X167863300Y-123750000D01*
X167863300Y-122776500D02*
X167863300Y-123750000D01*
X167013400Y-121926600D02*
X167863300Y-122776500D01*
X165375700Y-121926600D02*
X167013400Y-121926600D01*
X164975600Y-122326700D02*
X165375700Y-121926600D01*
X163124900Y-122326700D02*
X164975600Y-122326700D01*
X162724800Y-121926600D02*
X163124900Y-122326700D01*
X132694300Y-121926600D02*
X162724800Y-121926600D01*
X131290600Y-123330300D02*
X132694300Y-121926600D01*
X128808400Y-123330300D02*
X131290600Y-123330300D01*
%TO.N,Net-(D11-A)*%
X129810000Y-131000000D02*
X130645400Y-131000000D01*
X132074600Y-129570800D02*
X130645400Y-131000000D01*
X140929200Y-129570800D02*
X132074600Y-129570800D01*
%TO.N,Net-(D10-A)*%
X128290000Y-111500000D02*
X129466700Y-111500000D01*
X129466700Y-112909200D02*
X129466700Y-111500000D01*
%TO.N,Net-(D8-A)*%
X122000000Y-120190000D02*
X123101700Y-120190000D01*
X140540000Y-111500000D02*
X139363300Y-111500000D01*
X123101700Y-120162700D02*
X123101700Y-120190000D01*
X127370700Y-115893700D02*
X123101700Y-120162700D01*
X135943100Y-115893700D02*
X127370700Y-115893700D01*
X139363300Y-112473500D02*
X135943100Y-115893700D01*
X139363300Y-111500000D02*
X139363300Y-112473500D01*
%TO.N,Net-(D6-A)*%
X102783400Y-102200000D02*
X100130000Y-102200000D01*
X102783400Y-102200100D02*
X102783400Y-102200000D01*
X106625000Y-106041700D02*
X102783400Y-102200100D01*
X109903900Y-106041700D02*
X106625000Y-106041700D01*
X110286900Y-105658700D02*
X109903900Y-106041700D01*
X110286900Y-105530900D02*
X110286900Y-105658700D01*
X111015900Y-104801900D02*
X110286900Y-105530900D01*
X111514200Y-104801900D02*
X111015900Y-104801900D01*
X111814000Y-105101700D02*
X111514200Y-104801900D01*
X120360200Y-105101700D02*
X111814000Y-105101700D01*
X122526800Y-102935100D02*
X120360200Y-105101700D01*
X158788400Y-102935100D02*
X122526800Y-102935100D01*
X158929700Y-103076400D02*
X158788400Y-102935100D01*
X162378000Y-103076400D02*
X158929700Y-103076400D01*
X162707500Y-102746900D02*
X162378000Y-103076400D01*
X168554700Y-102746900D02*
X162707500Y-102746900D01*
%TO.N,Net-(D5-A)*%
X100130000Y-104740000D02*
X101431700Y-104740000D01*
X166546800Y-107203400D02*
X167534800Y-108191400D01*
X138937700Y-107203400D02*
X166546800Y-107203400D01*
X138060000Y-106325700D02*
X138937700Y-107203400D01*
X138060000Y-104152200D02*
X138060000Y-106325700D01*
X137348700Y-103440900D02*
X138060000Y-104152200D01*
X125611800Y-103440900D02*
X137348700Y-103440900D01*
X122975100Y-106077600D02*
X125611800Y-103440900D01*
X111286300Y-106077600D02*
X122975100Y-106077600D01*
X110910000Y-106453900D02*
X111286300Y-106077600D01*
X103145600Y-106453900D02*
X110910000Y-106453900D01*
X101431700Y-104740000D02*
X103145600Y-106453900D01*
%TO.N,Net-(D4-A)*%
X163613300Y-112473500D02*
X163613300Y-111500000D01*
X159591400Y-116495400D02*
X163613300Y-112473500D01*
X127619800Y-116495400D02*
X159591400Y-116495400D01*
X164790000Y-111500000D02*
X163613300Y-111500000D01*
X121293800Y-105526400D02*
X121344300Y-105475900D01*
X111387800Y-105526400D02*
X121293800Y-105526400D01*
X111326400Y-105465000D02*
X111387800Y-105526400D01*
%TO.N,Net-(D3-A)*%
X116448800Y-96659200D02*
X113847000Y-96659200D01*
X118592500Y-98802900D02*
X116448800Y-96659200D01*
X139650900Y-98802900D02*
X118592500Y-98802900D01*
X140907300Y-97546500D02*
X139650900Y-98802900D01*
X144578700Y-97546500D02*
X140907300Y-97546500D01*
%TO.N,Net-(D2-A)*%
X139581700Y-99298700D02*
X140807500Y-100524500D01*
X116980000Y-99298700D02*
X139581700Y-99298700D01*
X116483000Y-98801700D02*
X116980000Y-99298700D01*
X114775100Y-98801700D02*
X116483000Y-98801700D01*
X113093400Y-97120000D02*
X114775100Y-98801700D01*
X113093400Y-97020000D02*
X113093400Y-97120000D01*
X112844700Y-96771300D02*
X113093400Y-97020000D01*
X112525500Y-96771300D02*
X112844700Y-96771300D01*
%TO.N,Net-(D1-A)*%
X139161900Y-99804800D02*
X140809700Y-101452600D01*
X115210200Y-99804800D02*
X139161900Y-99804800D01*
X112776600Y-97371200D02*
X115210200Y-99804800D01*
X112776500Y-97371200D02*
X112776600Y-97371200D01*
X112774700Y-97373000D02*
X112776500Y-97371200D01*
X110304700Y-97373000D02*
X112774700Y-97373000D01*
X110051700Y-97120000D02*
X110304700Y-97373000D01*
X107750000Y-97120000D02*
X110051700Y-97120000D01*
%TD*%
%TA.AperFunction,Conductor*%
%TO.N,GND*%
G36*
X175392539Y-67570185D02*
G01*
X175438294Y-67622989D01*
X175449500Y-67674500D01*
X175449500Y-76927525D01*
X175449500Y-77072475D01*
X175487016Y-77212485D01*
X175487017Y-77212488D01*
X175559488Y-77338011D01*
X175559490Y-77338013D01*
X175559491Y-77338015D01*
X175661985Y-77440509D01*
X175661986Y-77440510D01*
X175661988Y-77440511D01*
X175787511Y-77512982D01*
X175787512Y-77512982D01*
X175787515Y-77512984D01*
X175927525Y-77550500D01*
X217325500Y-77550500D01*
X217392539Y-77570185D01*
X217438294Y-77622989D01*
X217449500Y-77674500D01*
X217449500Y-96927525D01*
X217449500Y-97072475D01*
X217487016Y-97212485D01*
X217487017Y-97212488D01*
X217559488Y-97338011D01*
X217559490Y-97338013D01*
X217559491Y-97338015D01*
X217661985Y-97440509D01*
X217661986Y-97440510D01*
X217661988Y-97440511D01*
X217787511Y-97512982D01*
X217787512Y-97512982D01*
X217787515Y-97512984D01*
X217927525Y-97550500D01*
X226325500Y-97550500D01*
X226392539Y-97570185D01*
X226438294Y-97622989D01*
X226449500Y-97674500D01*
X226449500Y-142325500D01*
X226429815Y-142392539D01*
X226377011Y-142438294D01*
X226325500Y-142449500D01*
X189674500Y-142449500D01*
X189607461Y-142429815D01*
X189561706Y-142377011D01*
X189550500Y-142325500D01*
X189550500Y-139733253D01*
X192624500Y-139733253D01*
X192658370Y-139947098D01*
X192725272Y-140153006D01*
X192725273Y-140153009D01*
X192806345Y-140312120D01*
X192823567Y-140345919D01*
X192950828Y-140521078D01*
X193103922Y-140674172D01*
X193279081Y-140801433D01*
X193373697Y-140849642D01*
X193471990Y-140899726D01*
X193471993Y-140899727D01*
X193574947Y-140933178D01*
X193677903Y-140966630D01*
X193891746Y-141000500D01*
X193891747Y-141000500D01*
X194108253Y-141000500D01*
X194108254Y-141000500D01*
X194322097Y-140966630D01*
X194528009Y-140899726D01*
X194720919Y-140801433D01*
X194896078Y-140674172D01*
X195049172Y-140521078D01*
X195169683Y-140355208D01*
X195225012Y-140312545D01*
X195294625Y-140306566D01*
X195356420Y-140339172D01*
X195370313Y-140355205D01*
X195490828Y-140521078D01*
X195643922Y-140674172D01*
X195819081Y-140801433D01*
X195913697Y-140849642D01*
X196011990Y-140899726D01*
X196011993Y-140899727D01*
X196114947Y-140933178D01*
X196217903Y-140966630D01*
X196431746Y-141000500D01*
X196431747Y-141000500D01*
X196648253Y-141000500D01*
X196648254Y-141000500D01*
X196862097Y-140966630D01*
X197068009Y-140899726D01*
X197260919Y-140801433D01*
X197436078Y-140674172D01*
X197589172Y-140521078D01*
X197709683Y-140355208D01*
X197765012Y-140312545D01*
X197834625Y-140306566D01*
X197896420Y-140339172D01*
X197910313Y-140355205D01*
X198030828Y-140521078D01*
X198183922Y-140674172D01*
X198359081Y-140801433D01*
X198453697Y-140849642D01*
X198551990Y-140899726D01*
X198551993Y-140899727D01*
X198654947Y-140933178D01*
X198757903Y-140966630D01*
X198971746Y-141000500D01*
X198971747Y-141000500D01*
X199188253Y-141000500D01*
X199188254Y-141000500D01*
X199402097Y-140966630D01*
X199608009Y-140899726D01*
X199800919Y-140801433D01*
X199976078Y-140674172D01*
X200129172Y-140521078D01*
X200249683Y-140355208D01*
X200305012Y-140312545D01*
X200374625Y-140306566D01*
X200436420Y-140339172D01*
X200450313Y-140355205D01*
X200570828Y-140521078D01*
X200723922Y-140674172D01*
X200899081Y-140801433D01*
X200993697Y-140849642D01*
X201091990Y-140899726D01*
X201091993Y-140899727D01*
X201194947Y-140933178D01*
X201297903Y-140966630D01*
X201511746Y-141000500D01*
X201511747Y-141000500D01*
X201728253Y-141000500D01*
X201728254Y-141000500D01*
X201942097Y-140966630D01*
X202148009Y-140899726D01*
X202340919Y-140801433D01*
X202516078Y-140674172D01*
X202669172Y-140521078D01*
X202789683Y-140355208D01*
X202845012Y-140312545D01*
X202914625Y-140306566D01*
X202976420Y-140339172D01*
X202990313Y-140355205D01*
X203110828Y-140521078D01*
X203263922Y-140674172D01*
X203439081Y-140801433D01*
X203533697Y-140849642D01*
X203631990Y-140899726D01*
X203631993Y-140899727D01*
X203734947Y-140933178D01*
X203837903Y-140966630D01*
X204051746Y-141000500D01*
X204051747Y-141000500D01*
X204268253Y-141000500D01*
X204268254Y-141000500D01*
X204482097Y-140966630D01*
X204688009Y-140899726D01*
X204880919Y-140801433D01*
X205056078Y-140674172D01*
X205209172Y-140521078D01*
X205329991Y-140354784D01*
X205385320Y-140312120D01*
X205454933Y-140306141D01*
X205516728Y-140338747D01*
X205530626Y-140354785D01*
X205651211Y-140520754D01*
X205651211Y-140520755D01*
X205804244Y-140673788D01*
X205979342Y-140801005D01*
X206172182Y-140899263D01*
X206172185Y-140899264D01*
X206378017Y-140966142D01*
X206450000Y-140977543D01*
X206450000Y-139288816D01*
X206466060Y-139304876D01*
X206552939Y-139355036D01*
X206649840Y-139381000D01*
X206750160Y-139381000D01*
X206847061Y-139355036D01*
X206933940Y-139304876D01*
X206950000Y-139288816D01*
X206950000Y-140977542D01*
X207021980Y-140966142D01*
X207021983Y-140966142D01*
X207227814Y-140899264D01*
X207227817Y-140899263D01*
X207420657Y-140801005D01*
X207595754Y-140673788D01*
X207595755Y-140673788D01*
X207748788Y-140520755D01*
X207748793Y-140520749D01*
X207869373Y-140354786D01*
X207924703Y-140312120D01*
X207994316Y-140306141D01*
X208056111Y-140338747D01*
X208070006Y-140354781D01*
X208190828Y-140521078D01*
X208343922Y-140674172D01*
X208519081Y-140801433D01*
X208613697Y-140849642D01*
X208711990Y-140899726D01*
X208711993Y-140899727D01*
X208814947Y-140933178D01*
X208917903Y-140966630D01*
X209131746Y-141000500D01*
X209131747Y-141000500D01*
X209348253Y-141000500D01*
X209348254Y-141000500D01*
X209562097Y-140966630D01*
X209768009Y-140899726D01*
X209960919Y-140801433D01*
X210136078Y-140674172D01*
X210289172Y-140521078D01*
X210416433Y-140345919D01*
X210514726Y-140153009D01*
X210581630Y-139947097D01*
X210615500Y-139733254D01*
X210615500Y-138266746D01*
X210581630Y-138052903D01*
X210514726Y-137846991D01*
X210514726Y-137846990D01*
X210433437Y-137687454D01*
X210416433Y-137654081D01*
X210289172Y-137478922D01*
X210136078Y-137325828D01*
X209960919Y-137198567D01*
X209954523Y-137195308D01*
X209768009Y-137100273D01*
X209768006Y-137100272D01*
X209562098Y-137033370D01*
X209455175Y-137016435D01*
X209348254Y-136999500D01*
X209131746Y-136999500D01*
X209060465Y-137010790D01*
X208917901Y-137033370D01*
X208711993Y-137100272D01*
X208711990Y-137100273D01*
X208519080Y-137198567D01*
X208444916Y-137252451D01*
X208343922Y-137325828D01*
X208343920Y-137325830D01*
X208343919Y-137325830D01*
X208190829Y-137478920D01*
X208070009Y-137645214D01*
X208014678Y-137687879D01*
X207945065Y-137693858D01*
X207883270Y-137661252D01*
X207869373Y-137645214D01*
X207748788Y-137479245D01*
X207748788Y-137479244D01*
X207595755Y-137326211D01*
X207420657Y-137198994D01*
X207227817Y-137100736D01*
X207227814Y-137100735D01*
X207021983Y-137033857D01*
X206950000Y-137022456D01*
X206950000Y-138711184D01*
X206933940Y-138695124D01*
X206847061Y-138644964D01*
X206750160Y-138619000D01*
X206649840Y-138619000D01*
X206552939Y-138644964D01*
X206466060Y-138695124D01*
X206450000Y-138711184D01*
X206450000Y-137022456D01*
X206449999Y-137022456D01*
X206378016Y-137033857D01*
X206378015Y-137033857D01*
X206172185Y-137100735D01*
X206172182Y-137100736D01*
X205979342Y-137198994D01*
X205804245Y-137326211D01*
X205804244Y-137326211D01*
X205651210Y-137479245D01*
X205530626Y-137645214D01*
X205475295Y-137687879D01*
X205405682Y-137693858D01*
X205343887Y-137661252D01*
X205329994Y-137645219D01*
X205209172Y-137478922D01*
X205056078Y-137325828D01*
X204880919Y-137198567D01*
X204874523Y-137195308D01*
X204688009Y-137100273D01*
X204688006Y-137100272D01*
X204482098Y-137033370D01*
X204375175Y-137016435D01*
X204268254Y-136999500D01*
X204051746Y-136999500D01*
X203980465Y-137010790D01*
X203837901Y-137033370D01*
X203631993Y-137100272D01*
X203631990Y-137100273D01*
X203439080Y-137198567D01*
X203364916Y-137252451D01*
X203263922Y-137325828D01*
X203263920Y-137325830D01*
X203263919Y-137325830D01*
X203110830Y-137478919D01*
X203110830Y-137478920D01*
X203110828Y-137478922D01*
X203002530Y-137627979D01*
X202990318Y-137644789D01*
X202934988Y-137687454D01*
X202865374Y-137693433D01*
X202803579Y-137660827D01*
X202789682Y-137644789D01*
X202785061Y-137638429D01*
X202669172Y-137478922D01*
X202516078Y-137325828D01*
X202340919Y-137198567D01*
X202334523Y-137195308D01*
X202148009Y-137100273D01*
X202148006Y-137100272D01*
X201942098Y-137033370D01*
X201835175Y-137016435D01*
X201728254Y-136999500D01*
X201511746Y-136999500D01*
X201440465Y-137010790D01*
X201297901Y-137033370D01*
X201091993Y-137100272D01*
X201091990Y-137100273D01*
X200899080Y-137198567D01*
X200824916Y-137252451D01*
X200723922Y-137325828D01*
X200723920Y-137325830D01*
X200723919Y-137325830D01*
X200570830Y-137478919D01*
X200570830Y-137478920D01*
X200570828Y-137478922D01*
X200462530Y-137627979D01*
X200450318Y-137644789D01*
X200394988Y-137687454D01*
X200325374Y-137693433D01*
X200263579Y-137660827D01*
X200249682Y-137644789D01*
X200245061Y-137638429D01*
X200129172Y-137478922D01*
X199976078Y-137325828D01*
X199800919Y-137198567D01*
X199794523Y-137195308D01*
X199608009Y-137100273D01*
X199608006Y-137100272D01*
X199402098Y-137033370D01*
X199295175Y-137016435D01*
X199188254Y-136999500D01*
X198971746Y-136999500D01*
X198900465Y-137010790D01*
X198757901Y-137033370D01*
X198551993Y-137100272D01*
X198551990Y-137100273D01*
X198359080Y-137198567D01*
X198284916Y-137252451D01*
X198183922Y-137325828D01*
X198183920Y-137325830D01*
X198183919Y-137325830D01*
X198030830Y-137478919D01*
X198030830Y-137478920D01*
X198030828Y-137478922D01*
X197922530Y-137627979D01*
X197910318Y-137644789D01*
X197854988Y-137687454D01*
X197785374Y-137693433D01*
X197723579Y-137660827D01*
X197709682Y-137644789D01*
X197705061Y-137638429D01*
X197589172Y-137478922D01*
X197436078Y-137325828D01*
X197260919Y-137198567D01*
X197254523Y-137195308D01*
X197068009Y-137100273D01*
X197068006Y-137100272D01*
X196862098Y-137033370D01*
X196755175Y-137016435D01*
X196648254Y-136999500D01*
X196431746Y-136999500D01*
X196360465Y-137010790D01*
X196217901Y-137033370D01*
X196011993Y-137100272D01*
X196011990Y-137100273D01*
X195819080Y-137198567D01*
X195744916Y-137252451D01*
X195643922Y-137325828D01*
X195643920Y-137325830D01*
X195643919Y-137325830D01*
X195490830Y-137478919D01*
X195490830Y-137478920D01*
X195490828Y-137478922D01*
X195382530Y-137627979D01*
X195370318Y-137644789D01*
X195314988Y-137687454D01*
X195245374Y-137693433D01*
X195183579Y-137660827D01*
X195169682Y-137644789D01*
X195165061Y-137638429D01*
X195049172Y-137478922D01*
X194896078Y-137325828D01*
X194720919Y-137198567D01*
X194714523Y-137195308D01*
X194528009Y-137100273D01*
X194528006Y-137100272D01*
X194322098Y-137033370D01*
X194215175Y-137016435D01*
X194108254Y-136999500D01*
X193891746Y-136999500D01*
X193820465Y-137010790D01*
X193677901Y-137033370D01*
X193471993Y-137100272D01*
X193471990Y-137100273D01*
X193279080Y-137198567D01*
X193204916Y-137252451D01*
X193103922Y-137325828D01*
X193103920Y-137325830D01*
X193103919Y-137325830D01*
X192950830Y-137478919D01*
X192950830Y-137478920D01*
X192950828Y-137478922D01*
X192896174Y-137554145D01*
X192823567Y-137654080D01*
X192725273Y-137846990D01*
X192725272Y-137846993D01*
X192658370Y-138052901D01*
X192624500Y-138266746D01*
X192624500Y-139733253D01*
X189550500Y-139733253D01*
X189550500Y-133927527D01*
X189550500Y-133927525D01*
X189512984Y-133787515D01*
X189440509Y-133661985D01*
X189338015Y-133559491D01*
X189338013Y-133559490D01*
X189338011Y-133559488D01*
X189212487Y-133487017D01*
X189212486Y-133487016D01*
X189212485Y-133487016D01*
X189187697Y-133480374D01*
X189128038Y-133444010D01*
X189097509Y-133381163D01*
X189105804Y-133311788D01*
X189150289Y-133257910D01*
X189216841Y-133236635D01*
X189219792Y-133236600D01*
X198188931Y-133236600D01*
X198188947Y-133236601D01*
X198196543Y-133236601D01*
X198354654Y-133236601D01*
X198354657Y-133236601D01*
X198507385Y-133195677D01*
X198557504Y-133166739D01*
X198644316Y-133116620D01*
X198756120Y-133004816D01*
X198756120Y-133004814D01*
X198766328Y-132994607D01*
X198766330Y-132994604D01*
X198876121Y-132884813D01*
X216099500Y-132884813D01*
X216129686Y-133152719D01*
X216129688Y-133152731D01*
X216189684Y-133415594D01*
X216189687Y-133415602D01*
X216278734Y-133670082D01*
X216395714Y-133912994D01*
X216404846Y-133927527D01*
X216539162Y-134141289D01*
X216707266Y-134352085D01*
X216897915Y-134542734D01*
X217108711Y-134710838D01*
X217337003Y-134854284D01*
X217579921Y-134971267D01*
X217771049Y-135038145D01*
X217834397Y-135060312D01*
X217834405Y-135060315D01*
X217834408Y-135060315D01*
X217834409Y-135060316D01*
X218097268Y-135120312D01*
X218365187Y-135150499D01*
X218365188Y-135150500D01*
X218365191Y-135150500D01*
X218634812Y-135150500D01*
X218634812Y-135150499D01*
X218902732Y-135120312D01*
X219165591Y-135060316D01*
X219420079Y-134971267D01*
X219662997Y-134854284D01*
X219891289Y-134710838D01*
X220102085Y-134542734D01*
X220292734Y-134352085D01*
X220460838Y-134141289D01*
X220604284Y-133912997D01*
X220721267Y-133670079D01*
X220810316Y-133415591D01*
X220870312Y-133152732D01*
X220900500Y-132884809D01*
X220900500Y-132615191D01*
X220870312Y-132347268D01*
X220810316Y-132084409D01*
X220721267Y-131829921D01*
X220604284Y-131587003D01*
X220460838Y-131358711D01*
X220292734Y-131147915D01*
X220102085Y-130957266D01*
X219891289Y-130789162D01*
X219662997Y-130645716D01*
X219662994Y-130645714D01*
X219420082Y-130528734D01*
X219165602Y-130439687D01*
X219165594Y-130439684D01*
X218932932Y-130386581D01*
X218902732Y-130379688D01*
X218902728Y-130379687D01*
X218902719Y-130379686D01*
X218634813Y-130349500D01*
X218634809Y-130349500D01*
X218365191Y-130349500D01*
X218365186Y-130349500D01*
X218097280Y-130379686D01*
X218097268Y-130379688D01*
X217834405Y-130439684D01*
X217834397Y-130439687D01*
X217579917Y-130528734D01*
X217337005Y-130645714D01*
X217108712Y-130789161D01*
X216897915Y-130957265D01*
X216707265Y-131147915D01*
X216539161Y-131358712D01*
X216395714Y-131587005D01*
X216278734Y-131829917D01*
X216189687Y-132084397D01*
X216189684Y-132084405D01*
X216129688Y-132347268D01*
X216129686Y-132347280D01*
X216099500Y-132615186D01*
X216099500Y-132884813D01*
X198876121Y-132884813D01*
X202718506Y-129042428D01*
X202718511Y-129042424D01*
X202728714Y-129032220D01*
X202728716Y-129032220D01*
X202840520Y-128920416D01*
X202902825Y-128812498D01*
X202953391Y-128764284D01*
X203010212Y-128750499D01*
X203257871Y-128750499D01*
X203257872Y-128750499D01*
X203317483Y-128744091D01*
X203452331Y-128693796D01*
X203555690Y-128616421D01*
X203621152Y-128592004D01*
X203689425Y-128606855D01*
X203704303Y-128616416D01*
X203801598Y-128689251D01*
X203807668Y-128693795D01*
X203807671Y-128693797D01*
X203942517Y-128744091D01*
X203942516Y-128744091D01*
X203949444Y-128744835D01*
X204002127Y-128750500D01*
X205797872Y-128750499D01*
X205857483Y-128744091D01*
X205992331Y-128693796D01*
X206095690Y-128616421D01*
X206161152Y-128592004D01*
X206229425Y-128606855D01*
X206244303Y-128616416D01*
X206341598Y-128689251D01*
X206347668Y-128693795D01*
X206347671Y-128693797D01*
X206482517Y-128744091D01*
X206482516Y-128744091D01*
X206489444Y-128744835D01*
X206542127Y-128750500D01*
X208337872Y-128750499D01*
X208397483Y-128744091D01*
X208532331Y-128693796D01*
X208635690Y-128616421D01*
X208701152Y-128592004D01*
X208769425Y-128606855D01*
X208784303Y-128616416D01*
X208881598Y-128689251D01*
X208887668Y-128693795D01*
X208887671Y-128693797D01*
X209022517Y-128744091D01*
X209022516Y-128744091D01*
X209029444Y-128744835D01*
X209082127Y-128750500D01*
X210877872Y-128750499D01*
X210937483Y-128744091D01*
X211072331Y-128693796D01*
X211176106Y-128616109D01*
X211241570Y-128591692D01*
X211309843Y-128606543D01*
X211324729Y-128616110D01*
X211427910Y-128693352D01*
X211427913Y-128693354D01*
X211562620Y-128743596D01*
X211562627Y-128743598D01*
X211622155Y-128749999D01*
X211622172Y-128750000D01*
X212270000Y-128750000D01*
X212270000Y-126538816D01*
X212286060Y-126554876D01*
X212372939Y-126605036D01*
X212469840Y-126631000D01*
X212570160Y-126631000D01*
X212667061Y-126605036D01*
X212753940Y-126554876D01*
X212770000Y-126538816D01*
X212770000Y-128750000D01*
X213417828Y-128750000D01*
X213417844Y-128749999D01*
X213477372Y-128743598D01*
X213477379Y-128743596D01*
X213612086Y-128693354D01*
X213612089Y-128693352D01*
X213715271Y-128616110D01*
X213780735Y-128591692D01*
X213849008Y-128606543D01*
X213863888Y-128616105D01*
X213961598Y-128689251D01*
X213967668Y-128693795D01*
X213967671Y-128693797D01*
X214102517Y-128744091D01*
X214102516Y-128744091D01*
X214109444Y-128744835D01*
X214162127Y-128750500D01*
X215957872Y-128750499D01*
X216017483Y-128744091D01*
X216152331Y-128693796D01*
X216267546Y-128607546D01*
X216353796Y-128492331D01*
X216404091Y-128357483D01*
X216410500Y-128297873D01*
X216410499Y-125202128D01*
X216404091Y-125142517D01*
X216399206Y-125129420D01*
X216353797Y-125007671D01*
X216353793Y-125007664D01*
X216267547Y-124892455D01*
X216267544Y-124892452D01*
X216152335Y-124806206D01*
X216152328Y-124806202D01*
X216017482Y-124755908D01*
X216017483Y-124755908D01*
X215957883Y-124749501D01*
X215957881Y-124749500D01*
X215957873Y-124749500D01*
X215957865Y-124749500D01*
X215710212Y-124749500D01*
X215643173Y-124729815D01*
X215602827Y-124687503D01*
X215590640Y-124666396D01*
X215590637Y-124666392D01*
X215540520Y-124579584D01*
X215428716Y-124467780D01*
X215428715Y-124467779D01*
X215424385Y-124463449D01*
X215424374Y-124463439D01*
X212122690Y-121161755D01*
X212122688Y-121161752D01*
X212003817Y-121042881D01*
X212003809Y-121042875D01*
X211908784Y-120988013D01*
X211908782Y-120988012D01*
X211866890Y-120963825D01*
X211866889Y-120963824D01*
X211842071Y-120957174D01*
X211714157Y-120922899D01*
X211556043Y-120922899D01*
X211548447Y-120922899D01*
X211548431Y-120922900D01*
X187277397Y-120922900D01*
X187210358Y-120903215D01*
X187164603Y-120850411D01*
X187154659Y-120781253D01*
X187183684Y-120717697D01*
X187189716Y-120711219D01*
X191664524Y-116236411D01*
X205258506Y-102642427D01*
X205258511Y-102642424D01*
X205268714Y-102632220D01*
X205268716Y-102632220D01*
X205380520Y-102520416D01*
X205417586Y-102456215D01*
X205431691Y-102431785D01*
X205431691Y-102431784D01*
X205442826Y-102412498D01*
X205493394Y-102364283D01*
X205550213Y-102350499D01*
X205797871Y-102350499D01*
X205797872Y-102350499D01*
X205857483Y-102344091D01*
X205992331Y-102293796D01*
X206095690Y-102216421D01*
X206161152Y-102192004D01*
X206229425Y-102206855D01*
X206244303Y-102216416D01*
X206316813Y-102270697D01*
X206347668Y-102293795D01*
X206347671Y-102293797D01*
X206482517Y-102344091D01*
X206482516Y-102344091D01*
X206489444Y-102344835D01*
X206542127Y-102350500D01*
X208337872Y-102350499D01*
X208397483Y-102344091D01*
X208532331Y-102293796D01*
X208635690Y-102216421D01*
X208701152Y-102192004D01*
X208769425Y-102206855D01*
X208784303Y-102216416D01*
X208856813Y-102270697D01*
X208887668Y-102293795D01*
X208887671Y-102293797D01*
X209022517Y-102344091D01*
X209022516Y-102344091D01*
X209029444Y-102344835D01*
X209082127Y-102350500D01*
X210877872Y-102350499D01*
X210937483Y-102344091D01*
X211072331Y-102293796D01*
X211176106Y-102216109D01*
X211241570Y-102191692D01*
X211309843Y-102206543D01*
X211324729Y-102216110D01*
X211427910Y-102293352D01*
X211427913Y-102293354D01*
X211562620Y-102343596D01*
X211562627Y-102343598D01*
X211622155Y-102349999D01*
X211622172Y-102350000D01*
X212270000Y-102350000D01*
X212270000Y-101138816D01*
X212286060Y-101154876D01*
X212372939Y-101205036D01*
X212469840Y-101231000D01*
X212570160Y-101231000D01*
X212667061Y-101205036D01*
X212753940Y-101154876D01*
X212770000Y-101138816D01*
X212770000Y-102350000D01*
X213417828Y-102350000D01*
X213417844Y-102349999D01*
X213477372Y-102343598D01*
X213477379Y-102343596D01*
X213612086Y-102293354D01*
X213612089Y-102293352D01*
X213715271Y-102216110D01*
X213780735Y-102191692D01*
X213849008Y-102206543D01*
X213863888Y-102216105D01*
X213936813Y-102270697D01*
X213967668Y-102293795D01*
X213967671Y-102293797D01*
X214102517Y-102344091D01*
X214102516Y-102344091D01*
X214109444Y-102344835D01*
X214162127Y-102350500D01*
X215957872Y-102350499D01*
X216017483Y-102344091D01*
X216152331Y-102293796D01*
X216267546Y-102207546D01*
X216353796Y-102092331D01*
X216404091Y-101957483D01*
X216410500Y-101897873D01*
X216410499Y-98802128D01*
X216404091Y-98742517D01*
X216357475Y-98617534D01*
X216353797Y-98607671D01*
X216353793Y-98607664D01*
X216267547Y-98492455D01*
X216267544Y-98492452D01*
X216152335Y-98406206D01*
X216152328Y-98406202D01*
X216017482Y-98355908D01*
X216017483Y-98355908D01*
X215957883Y-98349501D01*
X215957881Y-98349500D01*
X215957873Y-98349500D01*
X215957865Y-98349500D01*
X215710213Y-98349500D01*
X215643174Y-98329815D01*
X215602827Y-98287501D01*
X215577320Y-98243323D01*
X215577318Y-98243321D01*
X215540521Y-98179586D01*
X215540520Y-98179584D01*
X215428716Y-98067780D01*
X215428715Y-98067779D01*
X215424385Y-98063449D01*
X215424374Y-98063439D01*
X214021090Y-96660155D01*
X214021088Y-96660152D01*
X213902217Y-96541281D01*
X213902209Y-96541275D01*
X213795981Y-96479945D01*
X213795980Y-96479944D01*
X213795980Y-96479945D01*
X213765285Y-96462223D01*
X213612557Y-96421299D01*
X213454443Y-96421299D01*
X213446847Y-96421299D01*
X213446831Y-96421300D01*
X204400730Y-96421300D01*
X204333691Y-96401615D01*
X204287936Y-96348811D01*
X204277992Y-96279653D01*
X204299154Y-96226178D01*
X204424035Y-96047830D01*
X204523903Y-95833663D01*
X204585063Y-95605408D01*
X204605659Y-95370000D01*
X204585063Y-95134592D01*
X204523903Y-94906337D01*
X204424035Y-94692171D01*
X204346630Y-94581624D01*
X204288494Y-94498597D01*
X204121402Y-94331506D01*
X204121396Y-94331501D01*
X203935842Y-94201575D01*
X203892217Y-94146998D01*
X203885023Y-94077500D01*
X203916546Y-94015145D01*
X203935842Y-93998425D01*
X204026943Y-93934635D01*
X204121401Y-93868495D01*
X204288495Y-93701401D01*
X204424035Y-93507830D01*
X204523903Y-93293663D01*
X204585063Y-93065408D01*
X204605659Y-92830000D01*
X204585063Y-92594592D01*
X204534629Y-92406366D01*
X204523905Y-92366344D01*
X204523904Y-92366343D01*
X204523903Y-92366337D01*
X204424035Y-92152171D01*
X204424034Y-92152169D01*
X204288494Y-91958597D01*
X204121402Y-91791506D01*
X204121401Y-91791505D01*
X203935405Y-91661269D01*
X203891781Y-91606692D01*
X203884588Y-91537193D01*
X203916110Y-91474839D01*
X203935405Y-91458119D01*
X204121082Y-91328105D01*
X204288105Y-91161082D01*
X204423600Y-90967578D01*
X204523429Y-90753492D01*
X204523432Y-90753486D01*
X204580636Y-90540000D01*
X203683012Y-90540000D01*
X203715925Y-90482993D01*
X203750000Y-90355826D01*
X203750000Y-90224174D01*
X203715925Y-90097007D01*
X203683012Y-90040000D01*
X204580636Y-90040000D01*
X204580635Y-90039999D01*
X204523432Y-89826513D01*
X204523429Y-89826507D01*
X204423600Y-89612422D01*
X204423599Y-89612420D01*
X204288113Y-89418926D01*
X204288108Y-89418920D01*
X204166053Y-89296865D01*
X204132568Y-89235542D01*
X204137552Y-89165850D01*
X204179424Y-89109917D01*
X204210400Y-89093002D01*
X204342331Y-89043796D01*
X204457546Y-88957546D01*
X204543796Y-88842331D01*
X204594091Y-88707483D01*
X204600500Y-88647873D01*
X204600499Y-86852128D01*
X204594091Y-86792517D01*
X204586676Y-86772637D01*
X204543797Y-86657671D01*
X204543793Y-86657664D01*
X204457547Y-86542455D01*
X204457544Y-86542452D01*
X204342335Y-86456206D01*
X204342328Y-86456202D01*
X204207482Y-86405908D01*
X204207483Y-86405908D01*
X204147883Y-86399501D01*
X204147881Y-86399500D01*
X204147873Y-86399500D01*
X204147864Y-86399500D01*
X202352129Y-86399500D01*
X202352123Y-86399501D01*
X202292516Y-86405908D01*
X202157671Y-86456202D01*
X202157664Y-86456206D01*
X202042455Y-86542452D01*
X202042452Y-86542455D01*
X201956206Y-86657664D01*
X201956202Y-86657671D01*
X201905908Y-86792517D01*
X201903713Y-86812939D01*
X201899501Y-86852123D01*
X201899500Y-86852135D01*
X201899500Y-87025500D01*
X201879815Y-87092539D01*
X201827011Y-87138294D01*
X201775500Y-87149500D01*
X172900696Y-87149500D01*
X172833657Y-87129815D01*
X172787902Y-87077011D01*
X172783654Y-87066455D01*
X172769323Y-87025500D01*
X172734289Y-86925378D01*
X172638316Y-86772638D01*
X172510762Y-86645084D01*
X172358023Y-86549111D01*
X172187754Y-86489531D01*
X172187749Y-86489530D01*
X172008504Y-86469335D01*
X172008496Y-86469335D01*
X171829250Y-86489530D01*
X171829245Y-86489531D01*
X171658976Y-86549111D01*
X171506236Y-86645085D01*
X171503403Y-86647345D01*
X171501224Y-86648234D01*
X171500342Y-86648789D01*
X171500244Y-86648634D01*
X171438717Y-86673755D01*
X171426088Y-86674400D01*
X154843669Y-86674400D01*
X154843653Y-86674399D01*
X154836057Y-86674399D01*
X154677943Y-86674399D01*
X154525215Y-86715323D01*
X154525214Y-86715323D01*
X154525212Y-86715324D01*
X154502887Y-86728214D01*
X154502885Y-86728215D01*
X154388290Y-86794375D01*
X154388282Y-86794381D01*
X154276478Y-86906186D01*
X148809784Y-92372881D01*
X148748461Y-92406366D01*
X148722103Y-92409200D01*
X123876783Y-92409200D01*
X123809744Y-92389515D01*
X123763989Y-92336711D01*
X123754045Y-92267553D01*
X123777829Y-92210474D01*
X123835052Y-92134697D01*
X123835052Y-92134696D01*
X123835058Y-92134689D01*
X123934229Y-91935528D01*
X123995115Y-91721536D01*
X124015643Y-91500000D01*
X124005722Y-91392939D01*
X123995115Y-91278464D01*
X123995114Y-91278462D01*
X123982783Y-91235124D01*
X123934229Y-91064472D01*
X123934224Y-91064461D01*
X123835061Y-90865316D01*
X123835056Y-90865308D01*
X123700979Y-90687761D01*
X123536562Y-90537876D01*
X123536560Y-90537874D01*
X123347404Y-90420754D01*
X123347398Y-90420752D01*
X123139940Y-90340382D01*
X122921243Y-90299500D01*
X122698757Y-90299500D01*
X122480060Y-90340382D01*
X122348864Y-90391207D01*
X122272601Y-90420752D01*
X122272595Y-90420754D01*
X122083439Y-90537874D01*
X122083437Y-90537876D01*
X121919020Y-90687761D01*
X121784943Y-90865308D01*
X121784938Y-90865316D01*
X121685775Y-91064461D01*
X121685769Y-91064476D01*
X121624885Y-91278462D01*
X121624884Y-91278464D01*
X121604357Y-91499999D01*
X121604357Y-91500000D01*
X121624884Y-91721535D01*
X121624885Y-91721537D01*
X121685769Y-91935523D01*
X121685777Y-91935543D01*
X121787154Y-92139135D01*
X121799415Y-92207920D01*
X121772542Y-92272415D01*
X121742127Y-92299399D01*
X121614039Y-92379882D01*
X121486484Y-92507437D01*
X121390511Y-92660176D01*
X121330931Y-92830445D01*
X121330930Y-92830450D01*
X121310735Y-93009696D01*
X121310735Y-93009703D01*
X121330930Y-93188949D01*
X121330931Y-93188954D01*
X121390511Y-93359223D01*
X121461768Y-93472627D01*
X121486484Y-93511962D01*
X121614038Y-93639516D01*
X121712529Y-93701402D01*
X121766780Y-93735490D01*
X121787862Y-93742867D01*
X121844639Y-93783587D01*
X121870388Y-93848539D01*
X121856933Y-93917101D01*
X121845865Y-93934635D01*
X121784942Y-94015309D01*
X121784938Y-94015316D01*
X121685775Y-94214461D01*
X121685769Y-94214476D01*
X121624885Y-94428462D01*
X121624885Y-94428464D01*
X121620806Y-94472480D01*
X121595019Y-94537417D01*
X121538218Y-94578104D01*
X121468437Y-94581624D01*
X121409654Y-94548719D01*
X112157590Y-85296655D01*
X112157588Y-85296652D01*
X112038717Y-85177781D01*
X112038716Y-85177780D01*
X111951904Y-85127660D01*
X111951904Y-85127659D01*
X111951900Y-85127658D01*
X111901785Y-85098723D01*
X111749057Y-85057799D01*
X111590943Y-85057799D01*
X111583347Y-85057799D01*
X111583331Y-85057800D01*
X105352457Y-85057800D01*
X105194342Y-85057800D01*
X105041615Y-85098723D01*
X105041614Y-85098723D01*
X105041612Y-85098724D01*
X105041609Y-85098725D01*
X104991496Y-85127659D01*
X104991495Y-85127660D01*
X104948089Y-85152720D01*
X104904685Y-85177779D01*
X104904682Y-85177781D01*
X104792878Y-85289586D01*
X101794635Y-88287828D01*
X101733312Y-88321313D01*
X101663620Y-88316329D01*
X101607687Y-88274457D01*
X101583270Y-88208993D01*
X101590771Y-88156817D01*
X101624091Y-88067483D01*
X101630500Y-88007873D01*
X101630499Y-87610210D01*
X101650183Y-87543172D01*
X101692494Y-87502827D01*
X101713604Y-87490639D01*
X101800416Y-87440520D01*
X101912220Y-87328716D01*
X101912220Y-87328714D01*
X101922428Y-87318507D01*
X101922429Y-87318504D01*
X108255216Y-80985719D01*
X108316539Y-80952234D01*
X108342897Y-80949400D01*
X108458730Y-80949400D01*
X108525769Y-80969085D01*
X108571524Y-81021889D01*
X108581950Y-81059517D01*
X108592330Y-81151649D01*
X108592331Y-81151654D01*
X108651911Y-81321923D01*
X108729276Y-81445047D01*
X108747884Y-81474662D01*
X108875438Y-81602216D01*
X109028178Y-81698189D01*
X109054116Y-81707265D01*
X109198445Y-81757768D01*
X109198450Y-81757769D01*
X109377696Y-81777965D01*
X109377700Y-81777965D01*
X109377704Y-81777965D01*
X109556949Y-81757769D01*
X109556952Y-81757768D01*
X109556955Y-81757768D01*
X109727222Y-81698189D01*
X109879962Y-81602216D01*
X110007516Y-81474662D01*
X110026124Y-81445047D01*
X110048695Y-81409127D01*
X110101029Y-81362837D01*
X110153688Y-81351100D01*
X116930347Y-81351100D01*
X116997386Y-81370785D01*
X117043141Y-81423589D01*
X117053085Y-81492747D01*
X117024060Y-81556303D01*
X117007660Y-81572047D01*
X116897915Y-81659565D01*
X116707265Y-81850215D01*
X116539161Y-82061012D01*
X116395714Y-82289305D01*
X116278734Y-82532217D01*
X116189687Y-82786697D01*
X116189684Y-82786705D01*
X116129688Y-83049568D01*
X116129686Y-83049580D01*
X116099500Y-83317486D01*
X116099500Y-83587113D01*
X116129686Y-83855019D01*
X116129688Y-83855031D01*
X116189684Y-84117894D01*
X116189687Y-84117902D01*
X116278734Y-84372382D01*
X116395714Y-84615294D01*
X116395716Y-84615297D01*
X116539162Y-84843589D01*
X116707266Y-85054385D01*
X116897915Y-85245034D01*
X117108711Y-85413138D01*
X117337003Y-85556584D01*
X117579921Y-85673567D01*
X117771049Y-85740445D01*
X117834397Y-85762612D01*
X117834405Y-85762615D01*
X117834408Y-85762615D01*
X117834409Y-85762616D01*
X118097268Y-85822612D01*
X118365187Y-85852799D01*
X118365188Y-85852800D01*
X118365191Y-85852800D01*
X118634812Y-85852800D01*
X118634812Y-85852799D01*
X118902732Y-85822612D01*
X119165591Y-85762616D01*
X119420079Y-85673567D01*
X119662997Y-85556584D01*
X119891289Y-85413138D01*
X120102085Y-85245034D01*
X120292734Y-85054385D01*
X120460838Y-84843589D01*
X120604284Y-84615297D01*
X120721267Y-84372379D01*
X120810316Y-84117891D01*
X120870312Y-83855032D01*
X120900500Y-83587109D01*
X120900500Y-83317491D01*
X120870312Y-83049568D01*
X120810316Y-82786709D01*
X120721267Y-82532221D01*
X120604284Y-82289303D01*
X120460838Y-82061011D01*
X120292734Y-81850215D01*
X120102085Y-81659566D01*
X120102084Y-81659565D01*
X119992340Y-81572047D01*
X119952200Y-81514859D01*
X119949350Y-81445047D01*
X119984696Y-81384777D01*
X120047014Y-81353184D01*
X120069653Y-81351100D01*
X134145131Y-81351100D01*
X134145147Y-81351101D01*
X134152743Y-81351101D01*
X134310854Y-81351101D01*
X134310857Y-81351101D01*
X134463585Y-81310177D01*
X134521182Y-81276923D01*
X134600516Y-81231120D01*
X134712320Y-81119316D01*
X134712320Y-81119314D01*
X134722524Y-81109111D01*
X134722528Y-81109106D01*
X135134298Y-80697335D01*
X135195619Y-80663852D01*
X135265311Y-80668836D01*
X135309657Y-80697336D01*
X135356933Y-80744611D01*
X135360638Y-80748316D01*
X135513378Y-80844289D01*
X135683645Y-80903868D01*
X135683650Y-80903869D01*
X135862896Y-80924065D01*
X135862900Y-80924065D01*
X135862904Y-80924065D01*
X136042149Y-80903869D01*
X136042152Y-80903868D01*
X136042155Y-80903868D01*
X136212422Y-80844289D01*
X136365162Y-80748316D01*
X136365167Y-80748310D01*
X136367997Y-80746055D01*
X136370175Y-80745165D01*
X136371058Y-80744611D01*
X136371155Y-80744765D01*
X136432683Y-80719645D01*
X136445312Y-80719000D01*
X154366531Y-80719000D01*
X154366547Y-80719001D01*
X154374143Y-80719001D01*
X154532254Y-80719001D01*
X154532257Y-80719001D01*
X154684985Y-80678077D01*
X154735104Y-80649139D01*
X154821916Y-80599020D01*
X154933720Y-80487216D01*
X154933720Y-80487214D01*
X154943928Y-80477007D01*
X154943930Y-80477004D01*
X158608506Y-76812428D01*
X158608511Y-76812424D01*
X158618714Y-76802220D01*
X158618716Y-76802220D01*
X158730520Y-76690416D01*
X158783010Y-76599500D01*
X158809577Y-76553485D01*
X158841787Y-76433274D01*
X158878151Y-76373615D01*
X158905267Y-76354884D01*
X158970917Y-76321434D01*
X158970916Y-76321434D01*
X158970919Y-76321433D01*
X159146078Y-76194172D01*
X159299172Y-76041078D01*
X159419683Y-75875208D01*
X159475012Y-75832545D01*
X159544625Y-75826566D01*
X159606420Y-75859172D01*
X159620313Y-75875205D01*
X159740828Y-76041078D01*
X159740829Y-76041079D01*
X159740830Y-76041080D01*
X159893425Y-76193675D01*
X159926910Y-76254998D01*
X159921926Y-76324690D01*
X159893425Y-76369037D01*
X153880684Y-82381781D01*
X153819361Y-82415266D01*
X153793003Y-82418100D01*
X139287412Y-82418100D01*
X139220373Y-82398415D01*
X139210097Y-82391045D01*
X139207263Y-82388785D01*
X139207262Y-82388784D01*
X139150496Y-82353115D01*
X139054523Y-82292811D01*
X138884254Y-82233231D01*
X138884249Y-82233230D01*
X138705004Y-82213035D01*
X138704996Y-82213035D01*
X138525750Y-82233230D01*
X138525745Y-82233231D01*
X138355476Y-82292811D01*
X138202737Y-82388784D01*
X138075184Y-82516337D01*
X137979211Y-82669076D01*
X137919631Y-82839345D01*
X137919630Y-82839350D01*
X137899435Y-83018596D01*
X137899435Y-83018603D01*
X137919630Y-83197849D01*
X137919631Y-83197854D01*
X137979211Y-83368123D01*
X138075184Y-83520862D01*
X138202738Y-83648416D01*
X138355478Y-83744389D01*
X138525745Y-83803968D01*
X138525750Y-83803969D01*
X138704996Y-83824165D01*
X138705000Y-83824165D01*
X138705004Y-83824165D01*
X138884249Y-83803969D01*
X138884252Y-83803968D01*
X138884255Y-83803968D01*
X139054522Y-83744389D01*
X139207262Y-83648416D01*
X139207267Y-83648410D01*
X139210097Y-83646155D01*
X139212275Y-83645265D01*
X139213158Y-83644711D01*
X139213255Y-83644865D01*
X139274783Y-83619745D01*
X139287412Y-83619100D01*
X154006431Y-83619100D01*
X154006447Y-83619101D01*
X154014043Y-83619101D01*
X154172154Y-83619101D01*
X154172157Y-83619101D01*
X154324885Y-83578177D01*
X154375004Y-83549239D01*
X154461816Y-83499120D01*
X154573620Y-83387316D01*
X154573620Y-83387314D01*
X154583828Y-83377107D01*
X154583829Y-83377104D01*
X161270520Y-76690416D01*
X161349577Y-76553485D01*
X161381788Y-76433271D01*
X161418151Y-76373615D01*
X161445265Y-76354885D01*
X161510919Y-76321433D01*
X161686078Y-76194172D01*
X161839172Y-76041078D01*
X161959683Y-75875208D01*
X162015012Y-75832545D01*
X162084625Y-75826566D01*
X162146420Y-75859172D01*
X162160313Y-75875205D01*
X162280828Y-76041078D01*
X162433922Y-76194172D01*
X162609081Y-76321433D01*
X162674732Y-76354884D01*
X162801990Y-76419726D01*
X162801993Y-76419727D01*
X162843694Y-76433276D01*
X163007903Y-76486630D01*
X163221746Y-76520500D01*
X163221747Y-76520500D01*
X163438253Y-76520500D01*
X163438254Y-76520500D01*
X163652097Y-76486630D01*
X163858009Y-76419726D01*
X164050919Y-76321433D01*
X164226078Y-76194172D01*
X164379172Y-76041078D01*
X164499683Y-75875208D01*
X164555012Y-75832545D01*
X164624625Y-75826566D01*
X164686420Y-75859172D01*
X164700313Y-75875205D01*
X164820828Y-76041078D01*
X164973922Y-76194172D01*
X165149081Y-76321433D01*
X165214732Y-76354884D01*
X165341990Y-76419726D01*
X165341993Y-76419727D01*
X165383694Y-76433276D01*
X165547903Y-76486630D01*
X165761746Y-76520500D01*
X165761747Y-76520500D01*
X165978253Y-76520500D01*
X165978254Y-76520500D01*
X166192097Y-76486630D01*
X166398009Y-76419726D01*
X166590919Y-76321433D01*
X166766078Y-76194172D01*
X166919172Y-76041078D01*
X167039683Y-75875208D01*
X167095012Y-75832545D01*
X167164625Y-75826566D01*
X167226420Y-75859172D01*
X167240313Y-75875205D01*
X167360828Y-76041078D01*
X167360829Y-76041079D01*
X167360830Y-76041080D01*
X167513426Y-76193676D01*
X167546911Y-76254999D01*
X167541927Y-76324691D01*
X167513426Y-76369038D01*
X159077284Y-84805181D01*
X159015961Y-84838666D01*
X158989603Y-84841500D01*
X135503412Y-84841500D01*
X135436373Y-84821815D01*
X135426097Y-84814445D01*
X135423263Y-84812185D01*
X135423262Y-84812184D01*
X135366496Y-84776515D01*
X135270523Y-84716211D01*
X135100254Y-84656631D01*
X135100249Y-84656630D01*
X134921004Y-84636435D01*
X134920996Y-84636435D01*
X134741750Y-84656630D01*
X134741745Y-84656631D01*
X134571476Y-84716211D01*
X134418737Y-84812184D01*
X134291184Y-84939737D01*
X134195211Y-85092476D01*
X134135631Y-85262745D01*
X134135630Y-85262750D01*
X134115435Y-85441996D01*
X134115435Y-85442003D01*
X134135630Y-85621249D01*
X134135631Y-85621254D01*
X134195211Y-85791523D01*
X134291184Y-85944262D01*
X134418738Y-86071816D01*
X134571478Y-86167789D01*
X134741745Y-86227368D01*
X134741750Y-86227369D01*
X134920996Y-86247565D01*
X134921000Y-86247565D01*
X134921004Y-86247565D01*
X135100249Y-86227369D01*
X135100252Y-86227368D01*
X135100255Y-86227368D01*
X135270522Y-86167789D01*
X135423262Y-86071816D01*
X135423267Y-86071810D01*
X135426097Y-86069555D01*
X135428275Y-86068665D01*
X135429158Y-86068111D01*
X135429255Y-86068265D01*
X135490783Y-86043145D01*
X135503412Y-86042500D01*
X159203031Y-86042500D01*
X159203047Y-86042501D01*
X159210643Y-86042501D01*
X159368754Y-86042501D01*
X159368757Y-86042501D01*
X159521485Y-86001577D01*
X159571604Y-85972639D01*
X159658416Y-85922520D01*
X159770220Y-85810716D01*
X159770220Y-85810714D01*
X159780428Y-85800507D01*
X159780430Y-85800504D01*
X161946121Y-83634813D01*
X181599500Y-83634813D01*
X181629686Y-83902719D01*
X181629688Y-83902731D01*
X181689684Y-84165594D01*
X181689687Y-84165602D01*
X181778734Y-84420082D01*
X181895714Y-84662994D01*
X181895716Y-84662997D01*
X182039162Y-84891289D01*
X182207266Y-85102085D01*
X182397915Y-85292734D01*
X182608711Y-85460838D01*
X182837003Y-85604284D01*
X183079921Y-85721267D01*
X183271049Y-85788145D01*
X183334397Y-85810312D01*
X183334405Y-85810315D01*
X183334408Y-85810315D01*
X183334409Y-85810316D01*
X183597268Y-85870312D01*
X183865187Y-85900499D01*
X183865188Y-85900500D01*
X183865191Y-85900500D01*
X184134812Y-85900500D01*
X184134812Y-85900499D01*
X184402732Y-85870312D01*
X184665591Y-85810316D01*
X184920079Y-85721267D01*
X185162997Y-85604284D01*
X185391289Y-85460838D01*
X185602085Y-85292734D01*
X185792734Y-85102085D01*
X185960838Y-84891289D01*
X186104284Y-84662997D01*
X186221267Y-84420079D01*
X186310316Y-84165591D01*
X186370312Y-83902732D01*
X186400500Y-83634809D01*
X186400500Y-83365191D01*
X186370312Y-83097268D01*
X186310316Y-82834409D01*
X186221267Y-82579921D01*
X186104284Y-82337003D01*
X185960838Y-82108711D01*
X185792734Y-81897915D01*
X185602085Y-81707266D01*
X185391289Y-81539162D01*
X185207356Y-81423589D01*
X185162994Y-81395714D01*
X184920082Y-81278734D01*
X184665602Y-81189687D01*
X184665594Y-81189684D01*
X184468446Y-81144687D01*
X184402732Y-81129688D01*
X184402728Y-81129687D01*
X184402719Y-81129686D01*
X184134813Y-81099500D01*
X184134809Y-81099500D01*
X183865191Y-81099500D01*
X183865186Y-81099500D01*
X183597280Y-81129686D01*
X183597268Y-81129688D01*
X183334405Y-81189684D01*
X183334397Y-81189687D01*
X183079917Y-81278734D01*
X182837005Y-81395714D01*
X182608712Y-81539161D01*
X182397915Y-81707265D01*
X182207265Y-81897915D01*
X182039161Y-82108712D01*
X181895714Y-82337005D01*
X181778734Y-82579917D01*
X181689687Y-82834397D01*
X181689684Y-82834405D01*
X181629688Y-83097268D01*
X181629686Y-83097280D01*
X181599500Y-83365186D01*
X181599500Y-83634813D01*
X161946121Y-83634813D01*
X168768506Y-76812428D01*
X168768511Y-76812424D01*
X168778714Y-76802220D01*
X168778716Y-76802220D01*
X168890520Y-76690416D01*
X168943010Y-76599500D01*
X168969577Y-76553485D01*
X169001788Y-76433271D01*
X169038151Y-76373615D01*
X169065265Y-76354885D01*
X169130919Y-76321433D01*
X169306078Y-76194172D01*
X169459172Y-76041078D01*
X169586433Y-75865919D01*
X169684726Y-75673009D01*
X169751630Y-75467097D01*
X169785500Y-75253254D01*
X169785500Y-73786746D01*
X169751630Y-73572903D01*
X169705467Y-73430827D01*
X169684727Y-73366993D01*
X169684726Y-73366990D01*
X169632548Y-73264586D01*
X169586433Y-73174081D01*
X169459172Y-72998922D01*
X169306078Y-72845828D01*
X169130919Y-72718567D01*
X168938009Y-72620273D01*
X168938006Y-72620272D01*
X168732098Y-72553370D01*
X168625175Y-72536435D01*
X168518254Y-72519500D01*
X168301746Y-72519500D01*
X168230465Y-72530790D01*
X168087901Y-72553370D01*
X167881993Y-72620272D01*
X167881990Y-72620273D01*
X167689080Y-72718567D01*
X167618978Y-72769500D01*
X167513922Y-72845828D01*
X167513920Y-72845830D01*
X167513919Y-72845830D01*
X167360830Y-72998919D01*
X167360830Y-72998920D01*
X167360828Y-72998922D01*
X167290420Y-73095830D01*
X167240318Y-73164789D01*
X167184988Y-73207454D01*
X167115374Y-73213433D01*
X167053579Y-73180827D01*
X167039682Y-73164789D01*
X167021809Y-73140189D01*
X166919172Y-72998922D01*
X166766078Y-72845828D01*
X166590919Y-72718567D01*
X166398009Y-72620273D01*
X166398006Y-72620272D01*
X166192098Y-72553370D01*
X166085175Y-72536435D01*
X165978254Y-72519500D01*
X165761746Y-72519500D01*
X165690465Y-72530790D01*
X165547901Y-72553370D01*
X165341993Y-72620272D01*
X165341990Y-72620273D01*
X165149080Y-72718567D01*
X165078978Y-72769500D01*
X164973922Y-72845828D01*
X164973920Y-72845830D01*
X164973919Y-72845830D01*
X164820830Y-72998919D01*
X164820830Y-72998920D01*
X164820828Y-72998922D01*
X164750420Y-73095830D01*
X164700318Y-73164789D01*
X164644988Y-73207454D01*
X164575374Y-73213433D01*
X164513579Y-73180827D01*
X164499682Y-73164789D01*
X164481809Y-73140189D01*
X164379172Y-72998922D01*
X164226078Y-72845828D01*
X164050919Y-72718567D01*
X163985265Y-72685114D01*
X163934470Y-72637140D01*
X163921789Y-72606730D01*
X163889577Y-72486515D01*
X163860639Y-72436395D01*
X163810520Y-72349584D01*
X163698716Y-72237780D01*
X163698715Y-72237779D01*
X163694385Y-72233449D01*
X163694374Y-72233439D01*
X163566490Y-72105555D01*
X163566488Y-72105552D01*
X163447617Y-71986681D01*
X163447616Y-71986680D01*
X163360804Y-71936560D01*
X163360804Y-71936559D01*
X163360800Y-71936558D01*
X163310685Y-71907623D01*
X163157957Y-71866699D01*
X162999843Y-71866699D01*
X162992247Y-71866699D01*
X162992231Y-71866700D01*
X139752040Y-71866700D01*
X139711119Y-71877664D01*
X139711119Y-71877665D01*
X139673851Y-71887651D01*
X139599314Y-71907623D01*
X139599309Y-71907626D01*
X139462390Y-71986675D01*
X139462382Y-71986681D01*
X138849481Y-72599582D01*
X138849479Y-72599585D01*
X138799361Y-72686394D01*
X138799359Y-72686396D01*
X138770425Y-72736509D01*
X138770424Y-72736510D01*
X138756030Y-72790227D01*
X138741133Y-72845828D01*
X138738213Y-72856724D01*
X138701847Y-72916384D01*
X138674734Y-72935114D01*
X138609083Y-72968565D01*
X138567301Y-72998922D01*
X138433922Y-73095828D01*
X138433920Y-73095830D01*
X138433919Y-73095830D01*
X138280830Y-73248919D01*
X138280830Y-73248920D01*
X138280828Y-73248922D01*
X138195044Y-73366993D01*
X138160318Y-73414789D01*
X138104988Y-73457454D01*
X138035374Y-73463433D01*
X137973579Y-73430827D01*
X137959682Y-73414789D01*
X137924956Y-73366993D01*
X137839172Y-73248922D01*
X137686078Y-73095828D01*
X137510919Y-72968567D01*
X137510915Y-72968565D01*
X137318009Y-72870273D01*
X137318006Y-72870272D01*
X137112098Y-72803370D01*
X137005175Y-72786435D01*
X136898254Y-72769500D01*
X136681746Y-72769500D01*
X136610465Y-72780790D01*
X136467901Y-72803370D01*
X136261993Y-72870272D01*
X136261990Y-72870273D01*
X136069080Y-72968567D01*
X136027301Y-72998922D01*
X135893922Y-73095828D01*
X135893920Y-73095830D01*
X135893919Y-73095830D01*
X135740830Y-73248919D01*
X135740830Y-73248920D01*
X135740828Y-73248922D01*
X135655044Y-73366993D01*
X135620318Y-73414789D01*
X135564988Y-73457454D01*
X135495374Y-73463433D01*
X135433579Y-73430827D01*
X135419682Y-73414789D01*
X135384956Y-73366993D01*
X135299172Y-73248922D01*
X135146078Y-73095828D01*
X134970919Y-72968567D01*
X134970915Y-72968565D01*
X134778009Y-72870273D01*
X134778006Y-72870272D01*
X134572098Y-72803370D01*
X134465175Y-72786435D01*
X134358254Y-72769500D01*
X134141746Y-72769500D01*
X134070465Y-72780790D01*
X133927901Y-72803370D01*
X133721993Y-72870272D01*
X133721990Y-72870273D01*
X133529080Y-72968567D01*
X133487301Y-72998922D01*
X133353922Y-73095828D01*
X133353920Y-73095830D01*
X133353919Y-73095830D01*
X133200830Y-73248919D01*
X133200830Y-73248920D01*
X133200828Y-73248922D01*
X133146174Y-73324145D01*
X133073567Y-73424080D01*
X132975273Y-73616990D01*
X132975272Y-73616993D01*
X132908370Y-73822901D01*
X132874500Y-74036746D01*
X132874500Y-75503253D01*
X132908370Y-75717098D01*
X132975272Y-75923006D01*
X132975273Y-75923009D01*
X133056562Y-76082545D01*
X133073567Y-76115919D01*
X133200828Y-76291078D01*
X133353922Y-76444172D01*
X133529081Y-76571433D01*
X133594732Y-76604884D01*
X133721990Y-76669726D01*
X133721993Y-76669727D01*
X133763694Y-76683276D01*
X133927903Y-76736630D01*
X134141746Y-76770500D01*
X134141747Y-76770500D01*
X134358253Y-76770500D01*
X134358254Y-76770500D01*
X134572097Y-76736630D01*
X134778009Y-76669726D01*
X134970919Y-76571433D01*
X135146078Y-76444172D01*
X135299172Y-76291078D01*
X135419683Y-76125208D01*
X135475012Y-76082545D01*
X135544625Y-76076566D01*
X135606420Y-76109172D01*
X135620313Y-76125205D01*
X135740828Y-76291078D01*
X135893922Y-76444172D01*
X136069081Y-76571433D01*
X136134732Y-76604884D01*
X136211905Y-76644206D01*
X136262701Y-76692181D01*
X136279496Y-76760002D01*
X136256958Y-76826137D01*
X136243291Y-76842372D01*
X133373584Y-79712081D01*
X133312261Y-79745566D01*
X133285903Y-79748400D01*
X108121857Y-79748400D01*
X107963742Y-79748400D01*
X107811015Y-79789323D01*
X107811014Y-79789323D01*
X107811012Y-79789324D01*
X107811009Y-79789325D01*
X107760896Y-79818259D01*
X107760895Y-79818260D01*
X107717489Y-79843320D01*
X107674085Y-79868379D01*
X107674082Y-79868381D01*
X107562278Y-79980186D01*
X101778416Y-85764047D01*
X101717093Y-85797532D01*
X101647401Y-85792548D01*
X101591468Y-85750676D01*
X101574551Y-85719693D01*
X101574394Y-85719273D01*
X101573796Y-85717669D01*
X101573794Y-85717666D01*
X101573793Y-85717664D01*
X101487547Y-85602455D01*
X101487544Y-85602452D01*
X101372335Y-85516206D01*
X101372328Y-85516202D01*
X101237482Y-85465908D01*
X101237483Y-85465908D01*
X101177883Y-85459501D01*
X101177881Y-85459500D01*
X101177873Y-85459500D01*
X101177864Y-85459500D01*
X98082129Y-85459500D01*
X98082123Y-85459501D01*
X98022516Y-85465908D01*
X97887671Y-85516202D01*
X97887664Y-85516206D01*
X97772455Y-85602452D01*
X97772452Y-85602455D01*
X97686206Y-85717664D01*
X97686202Y-85717671D01*
X97635908Y-85852517D01*
X97629501Y-85912116D01*
X97629500Y-85912135D01*
X97629500Y-88007870D01*
X97629501Y-88007876D01*
X97635908Y-88067483D01*
X97680361Y-88186667D01*
X97685345Y-88256359D01*
X97680361Y-88273333D01*
X97635908Y-88392517D01*
X97629516Y-88451981D01*
X97629501Y-88452123D01*
X97629500Y-88452135D01*
X97629500Y-90547870D01*
X97629501Y-90547876D01*
X97635908Y-90607483D01*
X97680361Y-90726667D01*
X97685345Y-90796359D01*
X97680361Y-90813333D01*
X97635908Y-90932517D01*
X97632139Y-90967578D01*
X97629501Y-90992123D01*
X97629500Y-90992135D01*
X97629500Y-93087870D01*
X97629501Y-93087876D01*
X97635908Y-93147483D01*
X97680628Y-93267380D01*
X97685612Y-93337071D01*
X97680628Y-93354046D01*
X97636403Y-93472619D01*
X97636401Y-93472627D01*
X97630000Y-93532155D01*
X97630000Y-94330000D01*
X99841184Y-94330000D01*
X99825124Y-94346060D01*
X99774964Y-94432939D01*
X99749000Y-94529840D01*
X99749000Y-94630160D01*
X99774964Y-94727061D01*
X99825124Y-94813940D01*
X99841184Y-94830000D01*
X97630000Y-94830000D01*
X97630000Y-95627844D01*
X97636401Y-95687372D01*
X97636403Y-95687382D01*
X97680627Y-95805953D01*
X97685611Y-95875644D01*
X97680627Y-95892617D01*
X97635909Y-96012514D01*
X97635908Y-96012516D01*
X97629501Y-96072116D01*
X97629501Y-96072123D01*
X97629500Y-96072135D01*
X97629500Y-98167870D01*
X97629501Y-98167876D01*
X97635908Y-98227483D01*
X97680361Y-98346667D01*
X97685345Y-98416359D01*
X97680361Y-98433333D01*
X97635908Y-98552517D01*
X97631127Y-98596990D01*
X97629501Y-98612123D01*
X97629500Y-98612135D01*
X97629500Y-100707870D01*
X97629501Y-100707876D01*
X97635908Y-100767483D01*
X97680361Y-100886667D01*
X97685345Y-100956359D01*
X97680361Y-100973333D01*
X97635908Y-101092517D01*
X97629501Y-101152116D01*
X97629501Y-101152123D01*
X97629500Y-101152135D01*
X97629500Y-103247870D01*
X97629501Y-103247876D01*
X97635908Y-103307483D01*
X97680361Y-103426667D01*
X97685345Y-103496359D01*
X97680361Y-103513333D01*
X97635908Y-103632517D01*
X97630163Y-103685958D01*
X97629501Y-103692123D01*
X97629500Y-103692135D01*
X97629500Y-105787870D01*
X97629501Y-105787876D01*
X97635908Y-105847483D01*
X97686202Y-105982328D01*
X97686203Y-105982330D01*
X97763054Y-106084989D01*
X97787471Y-106150453D01*
X97772620Y-106218726D01*
X97723215Y-106268132D01*
X97663787Y-106283300D01*
X97514569Y-106283300D01*
X97514553Y-106283299D01*
X97506957Y-106283299D01*
X97348843Y-106283299D01*
X97262011Y-106306566D01*
X97196114Y-106324223D01*
X97161542Y-106344184D01*
X97161541Y-106344184D01*
X97059187Y-106403277D01*
X97059182Y-106403281D01*
X96947378Y-106515086D01*
X90794635Y-112667828D01*
X90733312Y-112701313D01*
X90663620Y-112696329D01*
X90607687Y-112654457D01*
X90583270Y-112588993D01*
X90590771Y-112536817D01*
X90624091Y-112447483D01*
X90630500Y-112387873D01*
X90630499Y-110292128D01*
X90624091Y-110232517D01*
X90604522Y-110180051D01*
X90573797Y-110097671D01*
X90573793Y-110097664D01*
X90487547Y-109982455D01*
X90487544Y-109982452D01*
X90372335Y-109896206D01*
X90372328Y-109896202D01*
X90237482Y-109845908D01*
X90237483Y-109845908D01*
X90177883Y-109839501D01*
X90177881Y-109839500D01*
X90177873Y-109839500D01*
X90177864Y-109839500D01*
X87082129Y-109839500D01*
X87082123Y-109839501D01*
X87022516Y-109845908D01*
X86887671Y-109896202D01*
X86887664Y-109896206D01*
X86772455Y-109982452D01*
X86772452Y-109982455D01*
X86686206Y-110097664D01*
X86686202Y-110097671D01*
X86635908Y-110232517D01*
X86631762Y-110271085D01*
X86629501Y-110292123D01*
X86629500Y-110292135D01*
X86629500Y-112387870D01*
X86629501Y-112387876D01*
X86635908Y-112447483D01*
X86680361Y-112566667D01*
X86685345Y-112636359D01*
X86680361Y-112653333D01*
X86635908Y-112772517D01*
X86631651Y-112812120D01*
X86629501Y-112832123D01*
X86629500Y-112832135D01*
X86629500Y-114927870D01*
X86629501Y-114927876D01*
X86635908Y-114987483D01*
X86680361Y-115106667D01*
X86685345Y-115176359D01*
X86680361Y-115193333D01*
X86635908Y-115312517D01*
X86629501Y-115372116D01*
X86629501Y-115372123D01*
X86629500Y-115372135D01*
X86629500Y-117467870D01*
X86629501Y-117467876D01*
X86635908Y-117527483D01*
X86680361Y-117646667D01*
X86685345Y-117716359D01*
X86680361Y-117733333D01*
X86635908Y-117852517D01*
X86629516Y-117911981D01*
X86629501Y-117912123D01*
X86629500Y-117912135D01*
X86629500Y-120007870D01*
X86629501Y-120007876D01*
X86635908Y-120067483D01*
X86680361Y-120186667D01*
X86685345Y-120256359D01*
X86680361Y-120273333D01*
X86635908Y-120392517D01*
X86630932Y-120438804D01*
X86629501Y-120452123D01*
X86629500Y-120452135D01*
X86629500Y-122547870D01*
X86629501Y-122547876D01*
X86635908Y-122607483D01*
X86680361Y-122726667D01*
X86685345Y-122796359D01*
X86680361Y-122813333D01*
X86635908Y-122932517D01*
X86629501Y-122992116D01*
X86629501Y-122992123D01*
X86629500Y-122992135D01*
X86629500Y-125087870D01*
X86629501Y-125087876D01*
X86635908Y-125147483D01*
X86680361Y-125266667D01*
X86685345Y-125336359D01*
X86680361Y-125353333D01*
X86635908Y-125472517D01*
X86631991Y-125508958D01*
X86629501Y-125532123D01*
X86629500Y-125532135D01*
X86629500Y-127627870D01*
X86629501Y-127627876D01*
X86635908Y-127687483D01*
X86680361Y-127806667D01*
X86685345Y-127876359D01*
X86680361Y-127893333D01*
X86635908Y-128012517D01*
X86631131Y-128056953D01*
X86629501Y-128072123D01*
X86629500Y-128072135D01*
X86629500Y-130167870D01*
X86629501Y-130167876D01*
X86635908Y-130227483D01*
X86686202Y-130362328D01*
X86686206Y-130362335D01*
X86772452Y-130477544D01*
X86772455Y-130477547D01*
X86887664Y-130563793D01*
X86887671Y-130563797D01*
X87022517Y-130614091D01*
X87022516Y-130614091D01*
X87029444Y-130614835D01*
X87082127Y-130620500D01*
X90177872Y-130620499D01*
X90237483Y-130614091D01*
X90372331Y-130563796D01*
X90487546Y-130477546D01*
X90573796Y-130362331D01*
X90624091Y-130227483D01*
X90630500Y-130167873D01*
X90630499Y-128072128D01*
X90624091Y-128012517D01*
X90579637Y-127893332D01*
X90574654Y-127823642D01*
X90579638Y-127806667D01*
X90624091Y-127687482D01*
X90624091Y-127687481D01*
X90630500Y-127627873D01*
X90630499Y-125532128D01*
X90624091Y-125472517D01*
X90606059Y-125424172D01*
X90579638Y-125353333D01*
X90574654Y-125283642D01*
X90579638Y-125266667D01*
X90586874Y-125247266D01*
X90624091Y-125147483D01*
X90630500Y-125087873D01*
X90630499Y-122992128D01*
X90624091Y-122932517D01*
X90622108Y-122927201D01*
X90579638Y-122813333D01*
X90574654Y-122743642D01*
X90579638Y-122726667D01*
X90591295Y-122695413D01*
X90624091Y-122607483D01*
X90630500Y-122547873D01*
X90630499Y-122150211D01*
X90650183Y-122083173D01*
X90692497Y-122042825D01*
X90800416Y-121980520D01*
X90912220Y-121868716D01*
X90991277Y-121731784D01*
X91032200Y-121579057D01*
X91032200Y-115490796D01*
X91051885Y-115423757D01*
X91068514Y-115403120D01*
X95038319Y-111433314D01*
X95099642Y-111399830D01*
X95169334Y-111404814D01*
X95225267Y-111446686D01*
X95249684Y-111512150D01*
X95250000Y-111520996D01*
X95250000Y-112387844D01*
X95256401Y-112447372D01*
X95256403Y-112447382D01*
X95300627Y-112565953D01*
X95305611Y-112635644D01*
X95300627Y-112652617D01*
X95255909Y-112772514D01*
X95255908Y-112772516D01*
X95251651Y-112812120D01*
X95249501Y-112832123D01*
X95249500Y-112832135D01*
X95249500Y-114927870D01*
X95249501Y-114927876D01*
X95255908Y-114987483D01*
X95300361Y-115106667D01*
X95305345Y-115176359D01*
X95300361Y-115193333D01*
X95255908Y-115312517D01*
X95249501Y-115372116D01*
X95249501Y-115372123D01*
X95249500Y-115372135D01*
X95249500Y-117467870D01*
X95249501Y-117467876D01*
X95255908Y-117527483D01*
X95300361Y-117646667D01*
X95305345Y-117716359D01*
X95300361Y-117733333D01*
X95255908Y-117852517D01*
X95249516Y-117911981D01*
X95249501Y-117912123D01*
X95249500Y-117912135D01*
X95249500Y-120007870D01*
X95249501Y-120007876D01*
X95255908Y-120067483D01*
X95300361Y-120186667D01*
X95305345Y-120256359D01*
X95300361Y-120273333D01*
X95255908Y-120392517D01*
X95250932Y-120438804D01*
X95249501Y-120452123D01*
X95249500Y-120452135D01*
X95249500Y-122547870D01*
X95249501Y-122547876D01*
X95255908Y-122607483D01*
X95300361Y-122726667D01*
X95305345Y-122796359D01*
X95300361Y-122813333D01*
X95255908Y-122932517D01*
X95249501Y-122992116D01*
X95249501Y-122992123D01*
X95249500Y-122992135D01*
X95249500Y-125087870D01*
X95249501Y-125087876D01*
X95255908Y-125147483D01*
X95300361Y-125266667D01*
X95305345Y-125336359D01*
X95300361Y-125353333D01*
X95255908Y-125472517D01*
X95251991Y-125508958D01*
X95249501Y-125532123D01*
X95249500Y-125532135D01*
X95249500Y-127627870D01*
X95249501Y-127627876D01*
X95255908Y-127687483D01*
X95300361Y-127806667D01*
X95305345Y-127876359D01*
X95300361Y-127893333D01*
X95255908Y-128012517D01*
X95251131Y-128056953D01*
X95249501Y-128072123D01*
X95249500Y-128072135D01*
X95249500Y-130167870D01*
X95249501Y-130167876D01*
X95255908Y-130227483D01*
X95306202Y-130362328D01*
X95306206Y-130362335D01*
X95392452Y-130477544D01*
X95392455Y-130477547D01*
X95507664Y-130563793D01*
X95507671Y-130563797D01*
X95642517Y-130614091D01*
X95642516Y-130614091D01*
X95649444Y-130614835D01*
X95702127Y-130620500D01*
X98797872Y-130620499D01*
X98857483Y-130614091D01*
X98992331Y-130563796D01*
X99107546Y-130477546D01*
X99193796Y-130362331D01*
X99194550Y-130360309D01*
X99195844Y-130358580D01*
X99198047Y-130354546D01*
X99198626Y-130354862D01*
X99236413Y-130304374D01*
X99301875Y-130279949D01*
X99370149Y-130294793D01*
X99398416Y-130315951D01*
X100470239Y-131387774D01*
X100470249Y-131387785D01*
X100474579Y-131392115D01*
X100474580Y-131392116D01*
X100562805Y-131480341D01*
X100596289Y-131541662D01*
X100591305Y-131611354D01*
X100549434Y-131667288D01*
X100532472Y-131676947D01*
X100532653Y-131677260D01*
X100525616Y-131681322D01*
X100525615Y-131681323D01*
X100492260Y-131700581D01*
X100440472Y-131730480D01*
X100388685Y-131760379D01*
X100388682Y-131760381D01*
X95319481Y-136829582D01*
X95319479Y-136829585D01*
X95269361Y-136916394D01*
X95269359Y-136916396D01*
X95240425Y-136966509D01*
X95240424Y-136966510D01*
X95226030Y-137020227D01*
X95222379Y-137033857D01*
X95208213Y-137086724D01*
X95171847Y-137146384D01*
X95144734Y-137165114D01*
X95079083Y-137198565D01*
X95078493Y-137198994D01*
X94903922Y-137325828D01*
X94903920Y-137325830D01*
X94903919Y-137325830D01*
X94750830Y-137478919D01*
X94750830Y-137478920D01*
X94750828Y-137478922D01*
X94642530Y-137627979D01*
X94630318Y-137644789D01*
X94574988Y-137687454D01*
X94505374Y-137693433D01*
X94443579Y-137660827D01*
X94429682Y-137644789D01*
X94425061Y-137638429D01*
X94309172Y-137478922D01*
X94156078Y-137325828D01*
X93980919Y-137198567D01*
X93974523Y-137195308D01*
X93788009Y-137100273D01*
X93788006Y-137100272D01*
X93582098Y-137033370D01*
X93475175Y-137016435D01*
X93368254Y-136999500D01*
X93151746Y-136999500D01*
X93080465Y-137010790D01*
X92937901Y-137033370D01*
X92731993Y-137100272D01*
X92731990Y-137100273D01*
X92539080Y-137198567D01*
X92464916Y-137252451D01*
X92363922Y-137325828D01*
X92363920Y-137325830D01*
X92363919Y-137325830D01*
X92210830Y-137478919D01*
X92210830Y-137478920D01*
X92210828Y-137478922D01*
X92156174Y-137554145D01*
X92083567Y-137654080D01*
X91985273Y-137846990D01*
X91985272Y-137846993D01*
X91918370Y-138052901D01*
X91884500Y-138266746D01*
X91884500Y-139733253D01*
X91918370Y-139947098D01*
X91985272Y-140153006D01*
X91985273Y-140153009D01*
X92066345Y-140312120D01*
X92083567Y-140345919D01*
X92210828Y-140521078D01*
X92363922Y-140674172D01*
X92539081Y-140801433D01*
X92633697Y-140849642D01*
X92731990Y-140899726D01*
X92731993Y-140899727D01*
X92834947Y-140933178D01*
X92937903Y-140966630D01*
X93151746Y-141000500D01*
X93151747Y-141000500D01*
X93368253Y-141000500D01*
X93368254Y-141000500D01*
X93582097Y-140966630D01*
X93788009Y-140899726D01*
X93980919Y-140801433D01*
X94156078Y-140674172D01*
X94309172Y-140521078D01*
X94429683Y-140355208D01*
X94485012Y-140312545D01*
X94554625Y-140306566D01*
X94616420Y-140339172D01*
X94630313Y-140355205D01*
X94750828Y-140521078D01*
X94903922Y-140674172D01*
X95079081Y-140801433D01*
X95173697Y-140849642D01*
X95271990Y-140899726D01*
X95271993Y-140899727D01*
X95374947Y-140933178D01*
X95477903Y-140966630D01*
X95691746Y-141000500D01*
X95691747Y-141000500D01*
X95908253Y-141000500D01*
X95908254Y-141000500D01*
X96122097Y-140966630D01*
X96328009Y-140899726D01*
X96520919Y-140801433D01*
X96696078Y-140674172D01*
X96849172Y-140521078D01*
X96969683Y-140355208D01*
X97025012Y-140312545D01*
X97094625Y-140306566D01*
X97156420Y-140339172D01*
X97170313Y-140355205D01*
X97290828Y-140521078D01*
X97443922Y-140674172D01*
X97619081Y-140801433D01*
X97713697Y-140849642D01*
X97811990Y-140899726D01*
X97811993Y-140899727D01*
X97914947Y-140933178D01*
X98017903Y-140966630D01*
X98231746Y-141000500D01*
X98231747Y-141000500D01*
X98448253Y-141000500D01*
X98448254Y-141000500D01*
X98662097Y-140966630D01*
X98868009Y-140899726D01*
X99060919Y-140801433D01*
X99236078Y-140674172D01*
X99389172Y-140521078D01*
X99509683Y-140355208D01*
X99565012Y-140312545D01*
X99634625Y-140306566D01*
X99696420Y-140339172D01*
X99710313Y-140355205D01*
X99830828Y-140521078D01*
X99983922Y-140674172D01*
X100159081Y-140801433D01*
X100253697Y-140849642D01*
X100351990Y-140899726D01*
X100351993Y-140899727D01*
X100454947Y-140933178D01*
X100557903Y-140966630D01*
X100771746Y-141000500D01*
X100771747Y-141000500D01*
X100988253Y-141000500D01*
X100988254Y-141000500D01*
X101202097Y-140966630D01*
X101408009Y-140899726D01*
X101600919Y-140801433D01*
X101776078Y-140674172D01*
X101929172Y-140521078D01*
X102049683Y-140355208D01*
X102105012Y-140312545D01*
X102174625Y-140306566D01*
X102236420Y-140339172D01*
X102250313Y-140355205D01*
X102370828Y-140521078D01*
X102523922Y-140674172D01*
X102699081Y-140801433D01*
X102793697Y-140849642D01*
X102891990Y-140899726D01*
X102891993Y-140899727D01*
X102994947Y-140933178D01*
X103097903Y-140966630D01*
X103311746Y-141000500D01*
X103311747Y-141000500D01*
X103528253Y-141000500D01*
X103528254Y-141000500D01*
X103742097Y-140966630D01*
X103948009Y-140899726D01*
X104140919Y-140801433D01*
X104316078Y-140674172D01*
X104469172Y-140521078D01*
X104589991Y-140354784D01*
X104645320Y-140312120D01*
X104714933Y-140306141D01*
X104776728Y-140338747D01*
X104790626Y-140354785D01*
X104911211Y-140520754D01*
X104911211Y-140520755D01*
X105064244Y-140673788D01*
X105239342Y-140801005D01*
X105432182Y-140899263D01*
X105432185Y-140899264D01*
X105638017Y-140966142D01*
X105710000Y-140977543D01*
X105710000Y-139288816D01*
X105726060Y-139304876D01*
X105812939Y-139355036D01*
X105909840Y-139381000D01*
X106010160Y-139381000D01*
X106107061Y-139355036D01*
X106193940Y-139304876D01*
X106210000Y-139288816D01*
X106210000Y-140977542D01*
X106281980Y-140966142D01*
X106281983Y-140966142D01*
X106487814Y-140899264D01*
X106487817Y-140899263D01*
X106680657Y-140801005D01*
X106855754Y-140673788D01*
X106855755Y-140673788D01*
X107008788Y-140520755D01*
X107008793Y-140520749D01*
X107129373Y-140354786D01*
X107184703Y-140312120D01*
X107254316Y-140306141D01*
X107316111Y-140338747D01*
X107330006Y-140354781D01*
X107450828Y-140521078D01*
X107603922Y-140674172D01*
X107779081Y-140801433D01*
X107873697Y-140849642D01*
X107971990Y-140899726D01*
X107971993Y-140899727D01*
X108074947Y-140933178D01*
X108177903Y-140966630D01*
X108391746Y-141000500D01*
X108391747Y-141000500D01*
X108608253Y-141000500D01*
X108608254Y-141000500D01*
X108822097Y-140966630D01*
X109028009Y-140899726D01*
X109220919Y-140801433D01*
X109396078Y-140674172D01*
X109549172Y-140521078D01*
X109676433Y-140345919D01*
X109774726Y-140153009D01*
X109841630Y-139947097D01*
X109875500Y-139733254D01*
X109875500Y-138266746D01*
X109841630Y-138052903D01*
X109774726Y-137846991D01*
X109774726Y-137846990D01*
X109693437Y-137687454D01*
X109676433Y-137654081D01*
X109549172Y-137478922D01*
X109396078Y-137325828D01*
X109220919Y-137198567D01*
X109214523Y-137195308D01*
X109028009Y-137100273D01*
X109028006Y-137100272D01*
X108822098Y-137033370D01*
X108715175Y-137016435D01*
X108608254Y-136999500D01*
X108391746Y-136999500D01*
X108320465Y-137010790D01*
X108177901Y-137033370D01*
X107971993Y-137100272D01*
X107971990Y-137100273D01*
X107779080Y-137198567D01*
X107704916Y-137252451D01*
X107603922Y-137325828D01*
X107603920Y-137325830D01*
X107603919Y-137325830D01*
X107450829Y-137478920D01*
X107330009Y-137645214D01*
X107274678Y-137687879D01*
X107205065Y-137693858D01*
X107143270Y-137661252D01*
X107129373Y-137645214D01*
X107008788Y-137479245D01*
X107008788Y-137479244D01*
X106855755Y-137326211D01*
X106680657Y-137198994D01*
X106487817Y-137100736D01*
X106487814Y-137100735D01*
X106281983Y-137033857D01*
X106210000Y-137022456D01*
X106210000Y-138711184D01*
X106193940Y-138695124D01*
X106107061Y-138644964D01*
X106010160Y-138619000D01*
X105909840Y-138619000D01*
X105812939Y-138644964D01*
X105726060Y-138695124D01*
X105710000Y-138711184D01*
X105710000Y-137022456D01*
X105709999Y-137022456D01*
X105638016Y-137033857D01*
X105638015Y-137033857D01*
X105432185Y-137100735D01*
X105432182Y-137100736D01*
X105239342Y-137198994D01*
X105064245Y-137326211D01*
X105064244Y-137326211D01*
X104911210Y-137479245D01*
X104790626Y-137645214D01*
X104735295Y-137687879D01*
X104665682Y-137693858D01*
X104603887Y-137661252D01*
X104589994Y-137645219D01*
X104469172Y-137478922D01*
X104316078Y-137325828D01*
X104140919Y-137198567D01*
X104134523Y-137195308D01*
X103948009Y-137100273D01*
X103948006Y-137100272D01*
X103742098Y-137033370D01*
X103635175Y-137016435D01*
X103528254Y-136999500D01*
X103311746Y-136999500D01*
X103240465Y-137010790D01*
X103097901Y-137033370D01*
X102891993Y-137100272D01*
X102891990Y-137100273D01*
X102699080Y-137198567D01*
X102624916Y-137252451D01*
X102523922Y-137325828D01*
X102523920Y-137325830D01*
X102523919Y-137325830D01*
X102370830Y-137478919D01*
X102370830Y-137478920D01*
X102370828Y-137478922D01*
X102262530Y-137627979D01*
X102250318Y-137644789D01*
X102194988Y-137687454D01*
X102125374Y-137693433D01*
X102063579Y-137660827D01*
X102049682Y-137644789D01*
X102045061Y-137638429D01*
X101929172Y-137478922D01*
X101776573Y-137326323D01*
X101743088Y-137265000D01*
X101748072Y-137195308D01*
X101776573Y-137150961D01*
X105010816Y-133916719D01*
X105072139Y-133883234D01*
X105098497Y-133880400D01*
X113325500Y-133880400D01*
X113392539Y-133900085D01*
X113438294Y-133952889D01*
X113449500Y-134004400D01*
X113449500Y-142325500D01*
X113429815Y-142392539D01*
X113377011Y-142438294D01*
X113325500Y-142449500D01*
X79674500Y-142449500D01*
X79607461Y-142429815D01*
X79561706Y-142377011D01*
X79550500Y-142325500D01*
X79550500Y-132899613D01*
X81596700Y-132899613D01*
X81626886Y-133167519D01*
X81626888Y-133167531D01*
X81686884Y-133430394D01*
X81686887Y-133430402D01*
X81775934Y-133684882D01*
X81892914Y-133927794D01*
X81892916Y-133927797D01*
X82036362Y-134156089D01*
X82161773Y-134313349D01*
X82192662Y-134352084D01*
X82204466Y-134366885D01*
X82395115Y-134557534D01*
X82605911Y-134725638D01*
X82834203Y-134869084D01*
X83077121Y-134986067D01*
X83268249Y-135052945D01*
X83331597Y-135075112D01*
X83331605Y-135075115D01*
X83331608Y-135075115D01*
X83331609Y-135075116D01*
X83594468Y-135135112D01*
X83862387Y-135165299D01*
X83862388Y-135165300D01*
X83862391Y-135165300D01*
X84132012Y-135165300D01*
X84132012Y-135165299D01*
X84399932Y-135135112D01*
X84662791Y-135075116D01*
X84917279Y-134986067D01*
X85160197Y-134869084D01*
X85388489Y-134725638D01*
X85599285Y-134557534D01*
X85789934Y-134366885D01*
X85958038Y-134156089D01*
X86101484Y-133927797D01*
X86218467Y-133684879D01*
X86307516Y-133430391D01*
X86367512Y-133167532D01*
X86397700Y-132899609D01*
X86397700Y-132629991D01*
X86367512Y-132362068D01*
X86307516Y-132099209D01*
X86218467Y-131844721D01*
X86101484Y-131601803D01*
X85958038Y-131373511D01*
X85789934Y-131162715D01*
X85599285Y-130972066D01*
X85594418Y-130968185D01*
X85431724Y-130838441D01*
X85388489Y-130803962D01*
X85160197Y-130660516D01*
X85160194Y-130660514D01*
X84917282Y-130543534D01*
X84662802Y-130454487D01*
X84662794Y-130454484D01*
X84438167Y-130403215D01*
X84399932Y-130394488D01*
X84399928Y-130394487D01*
X84399919Y-130394486D01*
X84132013Y-130364300D01*
X84132009Y-130364300D01*
X83862391Y-130364300D01*
X83862386Y-130364300D01*
X83594480Y-130394486D01*
X83594468Y-130394488D01*
X83331605Y-130454484D01*
X83331597Y-130454487D01*
X83077117Y-130543534D01*
X82834205Y-130660514D01*
X82605912Y-130803961D01*
X82395115Y-130972065D01*
X82204465Y-131162715D01*
X82036361Y-131373512D01*
X81892914Y-131601805D01*
X81775934Y-131844717D01*
X81686887Y-132099197D01*
X81686884Y-132099205D01*
X81626888Y-132362068D01*
X81626886Y-132362080D01*
X81596700Y-132629986D01*
X81596700Y-132899613D01*
X79550500Y-132899613D01*
X79550500Y-77674500D01*
X79570185Y-77607461D01*
X79622989Y-77561706D01*
X79674500Y-77550500D01*
X122072472Y-77550500D01*
X122072475Y-77550500D01*
X122212485Y-77512984D01*
X122338015Y-77440509D01*
X122440509Y-77338015D01*
X122512984Y-77212485D01*
X122550500Y-77072475D01*
X122550500Y-67674500D01*
X122570185Y-67607461D01*
X122622989Y-67561706D01*
X122674500Y-67550500D01*
X164927525Y-67550500D01*
X175325500Y-67550500D01*
X175392539Y-67570185D01*
G37*
%TD.AperFunction*%
%TA.AperFunction,Conductor*%
G36*
X211402042Y-122143585D02*
G01*
X211422684Y-122160219D01*
X213924240Y-124661775D01*
X213957725Y-124723098D01*
X213952741Y-124792790D01*
X213910871Y-124848722D01*
X213863895Y-124883889D01*
X213798431Y-124908307D01*
X213730158Y-124893456D01*
X213715272Y-124883890D01*
X213612088Y-124806646D01*
X213612086Y-124806645D01*
X213477379Y-124756403D01*
X213477372Y-124756401D01*
X213417844Y-124750000D01*
X212770000Y-124750000D01*
X212770000Y-125961184D01*
X212753940Y-125945124D01*
X212667061Y-125894964D01*
X212570160Y-125869000D01*
X212469840Y-125869000D01*
X212372939Y-125894964D01*
X212286060Y-125945124D01*
X212270000Y-125961184D01*
X212270000Y-124750000D01*
X211622155Y-124750000D01*
X211562627Y-124756401D01*
X211562620Y-124756403D01*
X211427913Y-124806645D01*
X211427910Y-124806647D01*
X211324727Y-124883890D01*
X211259262Y-124908307D01*
X211190989Y-124893455D01*
X211176105Y-124883889D01*
X211072335Y-124806206D01*
X211072328Y-124806202D01*
X210937482Y-124755908D01*
X210937483Y-124755908D01*
X210877883Y-124749501D01*
X210877881Y-124749500D01*
X210877873Y-124749500D01*
X210877865Y-124749500D01*
X210630212Y-124749500D01*
X210563173Y-124729815D01*
X210522827Y-124687503D01*
X210510640Y-124666396D01*
X210510637Y-124666392D01*
X210460520Y-124579584D01*
X210348716Y-124467780D01*
X210348715Y-124467779D01*
X210344385Y-124463449D01*
X210344374Y-124463439D01*
X210015490Y-124134555D01*
X210015488Y-124134552D01*
X209896617Y-124015681D01*
X209896616Y-124015680D01*
X209801808Y-123960943D01*
X209759685Y-123936623D01*
X209606957Y-123895699D01*
X209448843Y-123895699D01*
X209441247Y-123895699D01*
X209441231Y-123895700D01*
X176398840Y-123895700D01*
X176357919Y-123906664D01*
X176357919Y-123906665D01*
X176320651Y-123916651D01*
X176246114Y-123936623D01*
X176246109Y-123936626D01*
X176109190Y-124015675D01*
X176109182Y-124015681D01*
X176052981Y-124071883D01*
X175997380Y-124127484D01*
X175997378Y-124127486D01*
X174556380Y-125568485D01*
X173141684Y-126983181D01*
X173080361Y-127016666D01*
X173054003Y-127019500D01*
X129112621Y-127019500D01*
X129045582Y-126999815D01*
X129013667Y-126970227D01*
X128890979Y-126807761D01*
X128726562Y-126657876D01*
X128726560Y-126657874D01*
X128606646Y-126583627D01*
X128560010Y-126531599D01*
X128548906Y-126462618D01*
X128576859Y-126398583D01*
X128634994Y-126359827D01*
X128671923Y-126354200D01*
X136654031Y-126354200D01*
X136654047Y-126354201D01*
X136661643Y-126354201D01*
X136819754Y-126354201D01*
X136819757Y-126354201D01*
X136972485Y-126313277D01*
X137022604Y-126284339D01*
X137109416Y-126234220D01*
X137221220Y-126122416D01*
X137221220Y-126122414D01*
X137231428Y-126112207D01*
X137231429Y-126112204D01*
X139595736Y-123747898D01*
X139657057Y-123714415D01*
X139669510Y-123712363D01*
X139756455Y-123702568D01*
X139926722Y-123642989D01*
X140079462Y-123547016D01*
X140207016Y-123419462D01*
X140302989Y-123266722D01*
X140362568Y-123096455D01*
X140367667Y-123051201D01*
X140382765Y-122917203D01*
X140382765Y-122917196D01*
X140362569Y-122737950D01*
X140362566Y-122737937D01*
X140346511Y-122692055D01*
X140342948Y-122622277D01*
X140377677Y-122561649D01*
X140439670Y-122529421D01*
X140463552Y-122527100D01*
X142787837Y-122527100D01*
X142854876Y-122546785D01*
X142900631Y-122599589D01*
X142910575Y-122668747D01*
X142905768Y-122689418D01*
X142868857Y-122803018D01*
X142835000Y-123016779D01*
X142835000Y-123500000D01*
X143921184Y-123500000D01*
X143905124Y-123516060D01*
X143854964Y-123602939D01*
X143829000Y-123699840D01*
X143829000Y-123800160D01*
X143854964Y-123897061D01*
X143905124Y-123983940D01*
X143921184Y-124000000D01*
X142835000Y-124000000D01*
X142835000Y-124483220D01*
X142868857Y-124696981D01*
X142935735Y-124902814D01*
X142935736Y-124902817D01*
X143033994Y-125095657D01*
X143161211Y-125270754D01*
X143161211Y-125270755D01*
X143314244Y-125423788D01*
X143489342Y-125551005D01*
X143682182Y-125649263D01*
X143682185Y-125649264D01*
X143888017Y-125716142D01*
X143960000Y-125727543D01*
X143960000Y-124038816D01*
X143976060Y-124054876D01*
X144062939Y-124105036D01*
X144159840Y-124131000D01*
X144260160Y-124131000D01*
X144357061Y-124105036D01*
X144443940Y-124054876D01*
X144460000Y-124038816D01*
X144460000Y-125727542D01*
X144531980Y-125716142D01*
X144531983Y-125716142D01*
X144737814Y-125649264D01*
X144737817Y-125649263D01*
X144930657Y-125551005D01*
X145105754Y-125423788D01*
X145105755Y-125423788D01*
X145258788Y-125270755D01*
X145258793Y-125270749D01*
X145379373Y-125104786D01*
X145434703Y-125062120D01*
X145504316Y-125056141D01*
X145566111Y-125088747D01*
X145580006Y-125104781D01*
X145700828Y-125271078D01*
X145853922Y-125424172D01*
X146029081Y-125551433D01*
X146095193Y-125585119D01*
X146221990Y-125649726D01*
X146221993Y-125649727D01*
X146293006Y-125672800D01*
X146427903Y-125716630D01*
X146641746Y-125750500D01*
X146641747Y-125750500D01*
X146858253Y-125750500D01*
X146858254Y-125750500D01*
X147072097Y-125716630D01*
X147278009Y-125649726D01*
X147470919Y-125551433D01*
X147646078Y-125424172D01*
X147799172Y-125271078D01*
X147926433Y-125095919D01*
X148024726Y-124903009D01*
X148091630Y-124697097D01*
X148125500Y-124483254D01*
X148125500Y-123016746D01*
X148091630Y-122802903D01*
X148054757Y-122689418D01*
X148052762Y-122619577D01*
X148088842Y-122559744D01*
X148151543Y-122528916D01*
X148172688Y-122527100D01*
X154327837Y-122527100D01*
X154394876Y-122546785D01*
X154440631Y-122599589D01*
X154450575Y-122668747D01*
X154445768Y-122689418D01*
X154408857Y-122803018D01*
X154375000Y-123016779D01*
X154375000Y-123500000D01*
X155461184Y-123500000D01*
X155445124Y-123516060D01*
X155394964Y-123602939D01*
X155369000Y-123699840D01*
X155369000Y-123800160D01*
X155394964Y-123897061D01*
X155445124Y-123983940D01*
X155461184Y-124000000D01*
X154375000Y-124000000D01*
X154375000Y-124483220D01*
X154408857Y-124696981D01*
X154475735Y-124902814D01*
X154475736Y-124902817D01*
X154573994Y-125095657D01*
X154701211Y-125270754D01*
X154701211Y-125270755D01*
X154854244Y-125423788D01*
X155029342Y-125551005D01*
X155222182Y-125649263D01*
X155222185Y-125649264D01*
X155428017Y-125716142D01*
X155500000Y-125727543D01*
X155500000Y-124038816D01*
X155516060Y-124054876D01*
X155602939Y-124105036D01*
X155699840Y-124131000D01*
X155800160Y-124131000D01*
X155897061Y-124105036D01*
X155983940Y-124054876D01*
X156000000Y-124038816D01*
X156000000Y-125727542D01*
X156071980Y-125716142D01*
X156071983Y-125716142D01*
X156277814Y-125649264D01*
X156277817Y-125649263D01*
X156470657Y-125551005D01*
X156645754Y-125423788D01*
X156645755Y-125423788D01*
X156798788Y-125270755D01*
X156798793Y-125270749D01*
X156919373Y-125104786D01*
X156974703Y-125062120D01*
X157044316Y-125056141D01*
X157106111Y-125088747D01*
X157120006Y-125104781D01*
X157240828Y-125271078D01*
X157393922Y-125424172D01*
X157569081Y-125551433D01*
X157635193Y-125585119D01*
X157761990Y-125649726D01*
X157761993Y-125649727D01*
X157833006Y-125672800D01*
X157967903Y-125716630D01*
X158181746Y-125750500D01*
X158181747Y-125750500D01*
X158398253Y-125750500D01*
X158398254Y-125750500D01*
X158612097Y-125716630D01*
X158818009Y-125649726D01*
X159010919Y-125551433D01*
X159186078Y-125424172D01*
X159339172Y-125271078D01*
X159466433Y-125095919D01*
X159564726Y-124903009D01*
X159631630Y-124697097D01*
X159665500Y-124483254D01*
X159665500Y-123016746D01*
X159631630Y-122802903D01*
X159594757Y-122689418D01*
X159592762Y-122619577D01*
X159628842Y-122559744D01*
X159691543Y-122528916D01*
X159712688Y-122527100D01*
X162424703Y-122527100D01*
X162491742Y-122546785D01*
X162512384Y-122563419D01*
X162640039Y-122691074D01*
X162640049Y-122691085D01*
X162644379Y-122695415D01*
X162644380Y-122695416D01*
X162756184Y-122807220D01*
X162829901Y-122849780D01*
X162829902Y-122849781D01*
X162893109Y-122886274D01*
X162893112Y-122886276D01*
X162893114Y-122886276D01*
X162893115Y-122886277D01*
X163045843Y-122927201D01*
X163045846Y-122927201D01*
X163211553Y-122927201D01*
X163211569Y-122927200D01*
X164888931Y-122927200D01*
X164888947Y-122927201D01*
X165001000Y-122927201D01*
X165068039Y-122946886D01*
X165113794Y-122999690D01*
X165125000Y-123051201D01*
X165125000Y-123500000D01*
X166211184Y-123500000D01*
X166195124Y-123516060D01*
X166144964Y-123602939D01*
X166119000Y-123699840D01*
X166119000Y-123800160D01*
X166144964Y-123897061D01*
X166195124Y-123983940D01*
X166211184Y-124000000D01*
X165125000Y-124000000D01*
X165125000Y-124483220D01*
X165158857Y-124696981D01*
X165225735Y-124902814D01*
X165225736Y-124902817D01*
X165323994Y-125095657D01*
X165451211Y-125270754D01*
X165451211Y-125270755D01*
X165604244Y-125423788D01*
X165779342Y-125551005D01*
X165972182Y-125649263D01*
X165972185Y-125649264D01*
X166178017Y-125716142D01*
X166250000Y-125727543D01*
X166250000Y-124038816D01*
X166266060Y-124054876D01*
X166352939Y-124105036D01*
X166449840Y-124131000D01*
X166550160Y-124131000D01*
X166647061Y-124105036D01*
X166733940Y-124054876D01*
X166750000Y-124038816D01*
X166750000Y-125727542D01*
X166821980Y-125716142D01*
X166821983Y-125716142D01*
X167027814Y-125649264D01*
X167027817Y-125649263D01*
X167220657Y-125551005D01*
X167395754Y-125423788D01*
X167395755Y-125423788D01*
X167548788Y-125270755D01*
X167548793Y-125270749D01*
X167669373Y-125104786D01*
X167724703Y-125062120D01*
X167794316Y-125056141D01*
X167856111Y-125088747D01*
X167870006Y-125104781D01*
X167990828Y-125271078D01*
X168143922Y-125424172D01*
X168319081Y-125551433D01*
X168385193Y-125585119D01*
X168511990Y-125649726D01*
X168511993Y-125649727D01*
X168583006Y-125672800D01*
X168717903Y-125716630D01*
X168931746Y-125750500D01*
X168931747Y-125750500D01*
X169148253Y-125750500D01*
X169148254Y-125750500D01*
X169362097Y-125716630D01*
X169568009Y-125649726D01*
X169760919Y-125551433D01*
X169936078Y-125424172D01*
X170089172Y-125271078D01*
X170216433Y-125095919D01*
X170314726Y-124903009D01*
X170381630Y-124697097D01*
X170415500Y-124483254D01*
X170415500Y-123016746D01*
X170381630Y-122802903D01*
X170314726Y-122596991D01*
X170314726Y-122596990D01*
X170216432Y-122404080D01*
X170155915Y-122320786D01*
X170132435Y-122254980D01*
X170148260Y-122186926D01*
X170198366Y-122138231D01*
X170256233Y-122123900D01*
X211335003Y-122123900D01*
X211402042Y-122143585D01*
G37*
%TD.AperFunction*%
%TA.AperFunction,Conductor*%
G36*
X203689425Y-102206855D02*
G01*
X203704300Y-102216413D01*
X203750872Y-102251277D01*
X203792741Y-102307209D01*
X203797725Y-102376901D01*
X203764240Y-102438223D01*
X185717584Y-120484881D01*
X185656261Y-120518366D01*
X185629903Y-120521200D01*
X163205557Y-120521200D01*
X163047443Y-120521200D01*
X162894715Y-120562123D01*
X162894714Y-120562123D01*
X162894712Y-120562124D01*
X162894709Y-120562125D01*
X162855191Y-120584942D01*
X162855189Y-120584943D01*
X162757790Y-120641175D01*
X162757782Y-120641181D01*
X162645978Y-120752985D01*
X162645978Y-120752986D01*
X162512382Y-120886582D01*
X162451062Y-120920066D01*
X162424703Y-120922900D01*
X143392050Y-120922900D01*
X143325011Y-120903215D01*
X143279256Y-120850411D01*
X143268830Y-120785016D01*
X143282465Y-120664002D01*
X143282465Y-120663996D01*
X143262269Y-120484750D01*
X143262268Y-120484745D01*
X143250803Y-120451981D01*
X143202689Y-120314478D01*
X143106716Y-120161738D01*
X143072687Y-120127709D01*
X143039202Y-120066386D01*
X143044186Y-119996694D01*
X143072687Y-119952347D01*
X143674174Y-119350861D01*
X144311316Y-118713719D01*
X144372639Y-118680234D01*
X144398997Y-118677400D01*
X158464688Y-118677400D01*
X158531727Y-118697085D01*
X158542003Y-118704455D01*
X158544836Y-118706714D01*
X158544838Y-118706716D01*
X158697578Y-118802689D01*
X158834857Y-118850725D01*
X158867845Y-118862268D01*
X158867850Y-118862269D01*
X159047096Y-118882465D01*
X159047100Y-118882465D01*
X159047104Y-118882465D01*
X159226349Y-118862269D01*
X159226352Y-118862268D01*
X159226355Y-118862268D01*
X159396622Y-118802689D01*
X159549362Y-118706716D01*
X159676916Y-118579162D01*
X159772889Y-118426422D01*
X159776205Y-118416946D01*
X159816926Y-118360170D01*
X159881879Y-118334422D01*
X159893247Y-118333900D01*
X160595231Y-118333900D01*
X160595247Y-118333901D01*
X160602843Y-118333901D01*
X160760954Y-118333901D01*
X160760957Y-118333901D01*
X160913685Y-118292977D01*
X160977462Y-118256155D01*
X161050616Y-118213920D01*
X161162420Y-118102116D01*
X161162420Y-118102114D01*
X161172624Y-118091911D01*
X161172627Y-118091906D01*
X163808320Y-115456216D01*
X163887377Y-115319284D01*
X163928301Y-115166557D01*
X163928301Y-115013010D01*
X163947986Y-114945971D01*
X163955359Y-114935691D01*
X163957609Y-114932868D01*
X163957616Y-114932862D01*
X164053589Y-114780122D01*
X164113168Y-114609855D01*
X164113169Y-114609849D01*
X164133365Y-114430603D01*
X164133365Y-114430596D01*
X164113169Y-114251350D01*
X164113168Y-114251345D01*
X164053588Y-114081076D01*
X163957615Y-113928337D01*
X163830062Y-113800784D01*
X163677319Y-113704809D01*
X163533128Y-113654354D01*
X163476352Y-113613633D01*
X163450605Y-113548680D01*
X163464061Y-113480118D01*
X163486400Y-113449634D01*
X163742549Y-113193484D01*
X163803870Y-113160001D01*
X163873561Y-113164985D01*
X163903106Y-113180845D01*
X164069081Y-113301433D01*
X164163697Y-113349642D01*
X164261990Y-113399726D01*
X164261993Y-113399727D01*
X164364947Y-113433178D01*
X164467903Y-113466630D01*
X164681746Y-113500500D01*
X164681747Y-113500500D01*
X164898253Y-113500500D01*
X164898254Y-113500500D01*
X165112097Y-113466630D01*
X165318009Y-113399726D01*
X165510919Y-113301433D01*
X165686078Y-113174172D01*
X165839172Y-113021078D01*
X165966433Y-112845919D01*
X166064726Y-112653009D01*
X166131630Y-112447097D01*
X166165500Y-112233254D01*
X166165500Y-110766746D01*
X166131630Y-110552903D01*
X166086407Y-110413718D01*
X166084412Y-110343876D01*
X166120493Y-110284044D01*
X166183194Y-110253216D01*
X166204338Y-110251400D01*
X166836187Y-110251400D01*
X166903226Y-110271085D01*
X166948981Y-110323889D01*
X166958925Y-110393047D01*
X166954118Y-110413718D01*
X166908857Y-110553018D01*
X166875000Y-110766779D01*
X166875000Y-111250000D01*
X167961184Y-111250000D01*
X167945124Y-111266060D01*
X167894964Y-111352939D01*
X167869000Y-111449840D01*
X167869000Y-111550160D01*
X167894964Y-111647061D01*
X167945124Y-111733940D01*
X167961184Y-111750000D01*
X166875000Y-111750000D01*
X166875000Y-112233220D01*
X166908857Y-112446981D01*
X166975735Y-112652814D01*
X166975736Y-112652817D01*
X167073994Y-112845657D01*
X167201211Y-113020754D01*
X167201211Y-113020755D01*
X167354244Y-113173788D01*
X167529342Y-113301005D01*
X167722182Y-113399263D01*
X167722185Y-113399264D01*
X167928017Y-113466142D01*
X168000000Y-113477543D01*
X168000000Y-111788816D01*
X168016060Y-111804876D01*
X168102939Y-111855036D01*
X168199840Y-111881000D01*
X168300160Y-111881000D01*
X168397061Y-111855036D01*
X168483940Y-111804876D01*
X168500000Y-111788816D01*
X168500000Y-113477542D01*
X168571980Y-113466142D01*
X168571983Y-113466142D01*
X168777814Y-113399264D01*
X168777817Y-113399263D01*
X168970657Y-113301005D01*
X169145754Y-113173788D01*
X169145755Y-113173788D01*
X169298788Y-113020755D01*
X169298793Y-113020749D01*
X169419373Y-112854786D01*
X169474703Y-112812120D01*
X169544316Y-112806141D01*
X169606111Y-112838747D01*
X169620006Y-112854781D01*
X169740828Y-113021078D01*
X169893922Y-113174172D01*
X170069081Y-113301433D01*
X170163697Y-113349642D01*
X170261990Y-113399726D01*
X170261993Y-113399727D01*
X170364947Y-113433178D01*
X170467903Y-113466630D01*
X170681746Y-113500500D01*
X170681747Y-113500500D01*
X170898253Y-113500500D01*
X170898254Y-113500500D01*
X171112097Y-113466630D01*
X171318009Y-113399726D01*
X171510919Y-113301433D01*
X171686078Y-113174172D01*
X171839172Y-113021078D01*
X171966433Y-112845919D01*
X172064726Y-112653009D01*
X172131630Y-112447097D01*
X172165500Y-112233254D01*
X172165500Y-110766746D01*
X172131630Y-110552903D01*
X172086407Y-110413718D01*
X172084412Y-110343876D01*
X172120493Y-110284044D01*
X172183194Y-110253216D01*
X172204338Y-110251400D01*
X172836187Y-110251400D01*
X172903226Y-110271085D01*
X172948981Y-110323889D01*
X172958925Y-110393047D01*
X172954118Y-110413718D01*
X172908857Y-110553018D01*
X172875000Y-110766779D01*
X172875000Y-111250000D01*
X173961184Y-111250000D01*
X173945124Y-111266060D01*
X173894964Y-111352939D01*
X173869000Y-111449840D01*
X173869000Y-111550160D01*
X173894964Y-111647061D01*
X173945124Y-111733940D01*
X173961184Y-111750000D01*
X172875000Y-111750000D01*
X172875000Y-112233220D01*
X172908857Y-112446981D01*
X172975735Y-112652814D01*
X172975736Y-112652817D01*
X173073994Y-112845657D01*
X173201211Y-113020754D01*
X173201211Y-113020755D01*
X173354244Y-113173788D01*
X173529342Y-113301005D01*
X173722182Y-113399263D01*
X173722185Y-113399264D01*
X173928017Y-113466142D01*
X174000000Y-113477543D01*
X174000000Y-111788816D01*
X174016060Y-111804876D01*
X174102939Y-111855036D01*
X174199840Y-111881000D01*
X174300160Y-111881000D01*
X174397061Y-111855036D01*
X174483940Y-111804876D01*
X174500000Y-111788816D01*
X174500000Y-113477542D01*
X174571980Y-113466142D01*
X174571983Y-113466142D01*
X174777814Y-113399264D01*
X174777817Y-113399263D01*
X174970657Y-113301005D01*
X175145754Y-113173788D01*
X175145755Y-113173788D01*
X175298788Y-113020755D01*
X175298793Y-113020749D01*
X175419373Y-112854786D01*
X175474703Y-112812120D01*
X175544316Y-112806141D01*
X175606111Y-112838747D01*
X175620006Y-112854781D01*
X175740828Y-113021078D01*
X175893922Y-113174172D01*
X176069081Y-113301433D01*
X176163697Y-113349642D01*
X176261990Y-113399726D01*
X176261993Y-113399727D01*
X176364947Y-113433178D01*
X176467903Y-113466630D01*
X176681746Y-113500500D01*
X176681747Y-113500500D01*
X176898253Y-113500500D01*
X176898254Y-113500500D01*
X177112097Y-113466630D01*
X177318009Y-113399726D01*
X177510919Y-113301433D01*
X177686078Y-113174172D01*
X177839172Y-113021078D01*
X177966433Y-112845919D01*
X178064726Y-112653009D01*
X178131630Y-112447097D01*
X178165500Y-112233254D01*
X178165500Y-110766746D01*
X178131630Y-110552903D01*
X178086407Y-110413718D01*
X178084412Y-110343876D01*
X178120493Y-110284044D01*
X178183194Y-110253216D01*
X178204338Y-110251400D01*
X189694131Y-110251400D01*
X189694147Y-110251401D01*
X189701743Y-110251401D01*
X189859854Y-110251401D01*
X189859857Y-110251401D01*
X190012585Y-110210477D01*
X190086990Y-110167519D01*
X190149516Y-110131420D01*
X190261320Y-110019616D01*
X190261320Y-110019614D01*
X190271524Y-110009411D01*
X190271528Y-110009406D01*
X197638506Y-102642428D01*
X197638511Y-102642424D01*
X197648714Y-102632220D01*
X197648716Y-102632220D01*
X197760520Y-102520416D01*
X197822825Y-102412498D01*
X197873391Y-102364284D01*
X197930212Y-102350499D01*
X198177871Y-102350499D01*
X198177872Y-102350499D01*
X198237483Y-102344091D01*
X198372331Y-102293796D01*
X198475690Y-102216421D01*
X198541152Y-102192004D01*
X198609425Y-102206855D01*
X198624303Y-102216416D01*
X198696813Y-102270697D01*
X198727668Y-102293795D01*
X198727671Y-102293797D01*
X198862517Y-102344091D01*
X198862516Y-102344091D01*
X198869444Y-102344835D01*
X198922127Y-102350500D01*
X200717872Y-102350499D01*
X200777483Y-102344091D01*
X200912331Y-102293796D01*
X201015690Y-102216421D01*
X201081152Y-102192004D01*
X201149425Y-102206855D01*
X201164303Y-102216416D01*
X201236813Y-102270697D01*
X201267668Y-102293795D01*
X201267671Y-102293797D01*
X201402517Y-102344091D01*
X201402516Y-102344091D01*
X201409444Y-102344835D01*
X201462127Y-102350500D01*
X203257872Y-102350499D01*
X203317483Y-102344091D01*
X203452331Y-102293796D01*
X203555690Y-102216421D01*
X203621152Y-102192004D01*
X203689425Y-102206855D01*
G37*
%TD.AperFunction*%
%TA.AperFunction,Conductor*%
G36*
X142653226Y-110271085D02*
G01*
X142698981Y-110323889D01*
X142708925Y-110393047D01*
X142704118Y-110413718D01*
X142658857Y-110553018D01*
X142625000Y-110766779D01*
X142625000Y-111250000D01*
X143711184Y-111250000D01*
X143695124Y-111266060D01*
X143644964Y-111352939D01*
X143619000Y-111449840D01*
X143619000Y-111550160D01*
X143644964Y-111647061D01*
X143695124Y-111733940D01*
X143711184Y-111750000D01*
X142625000Y-111750000D01*
X142625000Y-112233220D01*
X142658857Y-112446981D01*
X142725735Y-112652814D01*
X142725736Y-112652817D01*
X142823994Y-112845657D01*
X142951211Y-113020754D01*
X142951211Y-113020755D01*
X143104244Y-113173788D01*
X143279342Y-113301005D01*
X143472182Y-113399263D01*
X143472185Y-113399264D01*
X143678017Y-113466142D01*
X143750000Y-113477543D01*
X143750000Y-111788816D01*
X143766060Y-111804876D01*
X143852939Y-111855036D01*
X143949840Y-111881000D01*
X144050160Y-111881000D01*
X144147061Y-111855036D01*
X144233940Y-111804876D01*
X144250000Y-111788816D01*
X144250000Y-113477542D01*
X144321980Y-113466142D01*
X144321983Y-113466142D01*
X144527814Y-113399264D01*
X144527817Y-113399263D01*
X144720657Y-113301005D01*
X144895754Y-113173788D01*
X144895755Y-113173788D01*
X145048788Y-113020755D01*
X145048793Y-113020749D01*
X145169373Y-112854786D01*
X145224703Y-112812120D01*
X145294316Y-112806141D01*
X145356111Y-112838747D01*
X145370006Y-112854781D01*
X145490828Y-113021078D01*
X145643922Y-113174172D01*
X145819081Y-113301433D01*
X145913697Y-113349642D01*
X146011990Y-113399726D01*
X146011993Y-113399727D01*
X146114947Y-113433178D01*
X146217903Y-113466630D01*
X146431746Y-113500500D01*
X146431747Y-113500500D01*
X146648253Y-113500500D01*
X146648254Y-113500500D01*
X146862097Y-113466630D01*
X147068009Y-113399726D01*
X147260919Y-113301433D01*
X147436078Y-113174172D01*
X147589172Y-113021078D01*
X147716433Y-112845919D01*
X147814726Y-112653009D01*
X147881630Y-112447097D01*
X147915500Y-112233254D01*
X147915500Y-110766746D01*
X147881630Y-110552903D01*
X147836407Y-110413718D01*
X147834412Y-110343876D01*
X147870493Y-110284044D01*
X147933194Y-110253216D01*
X147954338Y-110251400D01*
X148586187Y-110251400D01*
X148653226Y-110271085D01*
X148698981Y-110323889D01*
X148708925Y-110393047D01*
X148704118Y-110413718D01*
X148658857Y-110553018D01*
X148625000Y-110766779D01*
X148625000Y-111250000D01*
X149711184Y-111250000D01*
X149695124Y-111266060D01*
X149644964Y-111352939D01*
X149619000Y-111449840D01*
X149619000Y-111550160D01*
X149644964Y-111647061D01*
X149695124Y-111733940D01*
X149711184Y-111750000D01*
X148625000Y-111750000D01*
X148625000Y-112233220D01*
X148658857Y-112446981D01*
X148725735Y-112652814D01*
X148725736Y-112652817D01*
X148823994Y-112845657D01*
X148951211Y-113020754D01*
X148951211Y-113020755D01*
X149104244Y-113173788D01*
X149279342Y-113301005D01*
X149472182Y-113399263D01*
X149472185Y-113399264D01*
X149678017Y-113466142D01*
X149750000Y-113477543D01*
X149750000Y-111788816D01*
X149766060Y-111804876D01*
X149852939Y-111855036D01*
X149949840Y-111881000D01*
X150050160Y-111881000D01*
X150147061Y-111855036D01*
X150233940Y-111804876D01*
X150250000Y-111788816D01*
X150250000Y-113477542D01*
X150321980Y-113466142D01*
X150321983Y-113466142D01*
X150527814Y-113399264D01*
X150527817Y-113399263D01*
X150720657Y-113301005D01*
X150895754Y-113173788D01*
X150895755Y-113173788D01*
X151048788Y-113020755D01*
X151048793Y-113020749D01*
X151169373Y-112854786D01*
X151224703Y-112812120D01*
X151294316Y-112806141D01*
X151356111Y-112838747D01*
X151370006Y-112854781D01*
X151490828Y-113021078D01*
X151643922Y-113174172D01*
X151819081Y-113301433D01*
X151913697Y-113349642D01*
X152011990Y-113399726D01*
X152011993Y-113399727D01*
X152114947Y-113433178D01*
X152217903Y-113466630D01*
X152431746Y-113500500D01*
X152431747Y-113500500D01*
X152648253Y-113500500D01*
X152648254Y-113500500D01*
X152862097Y-113466630D01*
X153068009Y-113399726D01*
X153260919Y-113301433D01*
X153436078Y-113174172D01*
X153589172Y-113021078D01*
X153716433Y-112845919D01*
X153814726Y-112653009D01*
X153881630Y-112447097D01*
X153915500Y-112233254D01*
X153915500Y-110766746D01*
X153881630Y-110552903D01*
X153836407Y-110413718D01*
X153834412Y-110343876D01*
X153870493Y-110284044D01*
X153933194Y-110253216D01*
X153954338Y-110251400D01*
X154586187Y-110251400D01*
X154653226Y-110271085D01*
X154698981Y-110323889D01*
X154708925Y-110393047D01*
X154704118Y-110413718D01*
X154658857Y-110553018D01*
X154625000Y-110766779D01*
X154625000Y-111250000D01*
X155711184Y-111250000D01*
X155695124Y-111266060D01*
X155644964Y-111352939D01*
X155619000Y-111449840D01*
X155619000Y-111550160D01*
X155644964Y-111647061D01*
X155695124Y-111733940D01*
X155711184Y-111750000D01*
X154625000Y-111750000D01*
X154625000Y-112233220D01*
X154658857Y-112446981D01*
X154725735Y-112652814D01*
X154725736Y-112652817D01*
X154823994Y-112845657D01*
X154951211Y-113020754D01*
X154951211Y-113020755D01*
X155104244Y-113173788D01*
X155279342Y-113301005D01*
X155472182Y-113399263D01*
X155472185Y-113399264D01*
X155678017Y-113466142D01*
X155750000Y-113477543D01*
X155750000Y-111788816D01*
X155766060Y-111804876D01*
X155852939Y-111855036D01*
X155949840Y-111881000D01*
X156050160Y-111881000D01*
X156147061Y-111855036D01*
X156233940Y-111804876D01*
X156250000Y-111788816D01*
X156250000Y-113477542D01*
X156321980Y-113466142D01*
X156321983Y-113466142D01*
X156527814Y-113399264D01*
X156527817Y-113399263D01*
X156720657Y-113301005D01*
X156895754Y-113173788D01*
X156895755Y-113173788D01*
X157048788Y-113020755D01*
X157048793Y-113020749D01*
X157169373Y-112854786D01*
X157224703Y-112812120D01*
X157294316Y-112806141D01*
X157356111Y-112838747D01*
X157370006Y-112854781D01*
X157490828Y-113021078D01*
X157643922Y-113174172D01*
X157819081Y-113301433D01*
X157913697Y-113349642D01*
X158011990Y-113399726D01*
X158011993Y-113399727D01*
X158114947Y-113433178D01*
X158217903Y-113466630D01*
X158431746Y-113500500D01*
X158431747Y-113500500D01*
X158648253Y-113500500D01*
X158648254Y-113500500D01*
X158862097Y-113466630D01*
X159068009Y-113399726D01*
X159260919Y-113301433D01*
X159436078Y-113174172D01*
X159589172Y-113021078D01*
X159716433Y-112845919D01*
X159814726Y-112653009D01*
X159881630Y-112447097D01*
X159915500Y-112233254D01*
X159915500Y-110766746D01*
X159881630Y-110552903D01*
X159836407Y-110413718D01*
X159834412Y-110343876D01*
X159870493Y-110284044D01*
X159933194Y-110253216D01*
X159954338Y-110251400D01*
X160836187Y-110251400D01*
X160903226Y-110271085D01*
X160948981Y-110323889D01*
X160958925Y-110393047D01*
X160954118Y-110413718D01*
X160908857Y-110553018D01*
X160875000Y-110766779D01*
X160875000Y-111250000D01*
X161961184Y-111250000D01*
X161945124Y-111266060D01*
X161894964Y-111352939D01*
X161869000Y-111449840D01*
X161869000Y-111550160D01*
X161894964Y-111647061D01*
X161945124Y-111733940D01*
X161961184Y-111750000D01*
X160875000Y-111750000D01*
X160875000Y-112233220D01*
X160908857Y-112446981D01*
X160975735Y-112652814D01*
X160975736Y-112652817D01*
X161073994Y-112845657D01*
X161201211Y-113020754D01*
X161201211Y-113020755D01*
X161354244Y-113173788D01*
X161529342Y-113301005D01*
X161647036Y-113360974D01*
X161697832Y-113408949D01*
X161714627Y-113476770D01*
X161692089Y-113542905D01*
X161678422Y-113559140D01*
X159378984Y-115858581D01*
X159317661Y-115892066D01*
X159291303Y-115894900D01*
X137090497Y-115894900D01*
X137023458Y-115875215D01*
X136977703Y-115822411D01*
X136967759Y-115753253D01*
X136996784Y-115689697D01*
X137002816Y-115683219D01*
X137579368Y-115106667D01*
X139492549Y-113193484D01*
X139553870Y-113160001D01*
X139623562Y-113164985D01*
X139653106Y-113180845D01*
X139819081Y-113301433D01*
X139913697Y-113349642D01*
X140011990Y-113399726D01*
X140011993Y-113399727D01*
X140114947Y-113433178D01*
X140217903Y-113466630D01*
X140431746Y-113500500D01*
X140431747Y-113500500D01*
X140648253Y-113500500D01*
X140648254Y-113500500D01*
X140862097Y-113466630D01*
X141068009Y-113399726D01*
X141260919Y-113301433D01*
X141436078Y-113174172D01*
X141589172Y-113021078D01*
X141716433Y-112845919D01*
X141814726Y-112653009D01*
X141881630Y-112447097D01*
X141915500Y-112233254D01*
X141915500Y-110766746D01*
X141881630Y-110552903D01*
X141836407Y-110413718D01*
X141834412Y-110343876D01*
X141870493Y-110284044D01*
X141933194Y-110253216D01*
X141954338Y-110251400D01*
X142586187Y-110251400D01*
X142653226Y-110271085D01*
G37*
%TD.AperFunction*%
%TA.AperFunction,Conductor*%
G36*
X102435642Y-109550585D02*
G01*
X102456284Y-109567219D01*
X104593439Y-111704374D01*
X104593449Y-111704385D01*
X104597779Y-111708715D01*
X104597780Y-111708716D01*
X104709584Y-111820520D01*
X104793063Y-111868716D01*
X104817499Y-111882824D01*
X104865715Y-111933391D01*
X104879500Y-111990212D01*
X104879500Y-112387870D01*
X104879501Y-112387876D01*
X104885908Y-112447483D01*
X104930361Y-112566667D01*
X104935345Y-112636359D01*
X104930361Y-112653333D01*
X104885908Y-112772517D01*
X104881651Y-112812120D01*
X104879501Y-112832123D01*
X104879500Y-112832135D01*
X104879500Y-114927870D01*
X104879501Y-114927876D01*
X104885908Y-114987483D01*
X104930361Y-115106667D01*
X104935345Y-115176359D01*
X104930361Y-115193333D01*
X104885908Y-115312517D01*
X104879501Y-115372116D01*
X104879501Y-115372123D01*
X104879500Y-115372135D01*
X104879500Y-115695500D01*
X104859815Y-115762539D01*
X104807011Y-115808294D01*
X104755500Y-115819500D01*
X103707797Y-115819500D01*
X103640758Y-115799815D01*
X103620116Y-115783181D01*
X101355290Y-113518355D01*
X101355288Y-113518352D01*
X101236417Y-113399481D01*
X101236416Y-113399480D01*
X101139853Y-113343730D01*
X101139852Y-113343729D01*
X101099483Y-113320422D01*
X101028614Y-113301433D01*
X100946757Y-113279499D01*
X100788643Y-113279499D01*
X100781047Y-113279499D01*
X100781031Y-113279500D01*
X99374499Y-113279500D01*
X99307460Y-113259815D01*
X99261705Y-113207011D01*
X99250499Y-113155500D01*
X99250499Y-112832129D01*
X99250498Y-112832123D01*
X99250497Y-112832116D01*
X99244091Y-112772517D01*
X99199370Y-112652615D01*
X99194387Y-112582927D01*
X99199371Y-112565951D01*
X99243597Y-112447376D01*
X99243598Y-112447372D01*
X99249999Y-112387844D01*
X99250000Y-112387827D01*
X99250000Y-111590000D01*
X97124000Y-111590000D01*
X97056967Y-111570316D01*
X97105036Y-111487061D01*
X97131000Y-111390160D01*
X97131000Y-111289840D01*
X97105036Y-111192939D01*
X97058881Y-111112997D01*
X97072489Y-111101206D01*
X97124000Y-111090000D01*
X99250000Y-111090000D01*
X99250000Y-110292172D01*
X99249999Y-110292155D01*
X99243598Y-110232627D01*
X99243596Y-110232620D01*
X99193354Y-110097913D01*
X99193350Y-110097906D01*
X99107190Y-109982812D01*
X99107187Y-109982809D01*
X98992093Y-109896649D01*
X98992086Y-109896645D01*
X98857379Y-109846403D01*
X98857372Y-109846401D01*
X98797844Y-109840000D01*
X98030202Y-109840000D01*
X97963163Y-109820315D01*
X97917408Y-109767511D01*
X97907464Y-109698353D01*
X97936489Y-109634797D01*
X97964230Y-109611006D01*
X98045062Y-109560216D01*
X98045067Y-109560210D01*
X98047897Y-109557955D01*
X98050075Y-109557065D01*
X98050958Y-109556511D01*
X98051055Y-109556665D01*
X98112583Y-109531545D01*
X98125212Y-109530900D01*
X102368603Y-109530900D01*
X102435642Y-109550585D01*
G37*
%TD.AperFunction*%
%TA.AperFunction,Conductor*%
G36*
X125140001Y-109433285D02*
G01*
X125185756Y-109486089D01*
X125195700Y-109555247D01*
X125166675Y-109618803D01*
X125129257Y-109648085D01*
X125029342Y-109698994D01*
X124854245Y-109826211D01*
X124854244Y-109826211D01*
X124701211Y-109979244D01*
X124701211Y-109979245D01*
X124573994Y-110154342D01*
X124475736Y-110347182D01*
X124475735Y-110347185D01*
X124408857Y-110553018D01*
X124375000Y-110766779D01*
X124375000Y-111250000D01*
X125461184Y-111250000D01*
X125445124Y-111266060D01*
X125394964Y-111352939D01*
X125369000Y-111449840D01*
X125369000Y-111550160D01*
X125394964Y-111647061D01*
X125445124Y-111733940D01*
X125461184Y-111750000D01*
X124375000Y-111750000D01*
X124375000Y-112233220D01*
X124408857Y-112446981D01*
X124475735Y-112652814D01*
X124475736Y-112652817D01*
X124573994Y-112845657D01*
X124625693Y-112916814D01*
X124649173Y-112982621D01*
X124633348Y-113050675D01*
X124583242Y-113099369D01*
X124525375Y-113113700D01*
X121311043Y-113113700D01*
X121158314Y-113154623D01*
X121158313Y-113154623D01*
X121128458Y-113171861D01*
X121124456Y-113174172D01*
X121091003Y-113193486D01*
X121021384Y-113233679D01*
X121021382Y-113233681D01*
X120909578Y-113345486D01*
X118471884Y-115783181D01*
X118410561Y-115816666D01*
X118384203Y-115819500D01*
X117624499Y-115819500D01*
X117557460Y-115799815D01*
X117511705Y-115747011D01*
X117500499Y-115695500D01*
X117500499Y-115372129D01*
X117500498Y-115372123D01*
X117500497Y-115372116D01*
X117494091Y-115312517D01*
X117449637Y-115193332D01*
X117444654Y-115123642D01*
X117449638Y-115106667D01*
X117494091Y-114987483D01*
X117500500Y-114927873D01*
X117500499Y-114530210D01*
X117520183Y-114463172D01*
X117562494Y-114422827D01*
X117583604Y-114410639D01*
X117670416Y-114360520D01*
X117782220Y-114248716D01*
X117782220Y-114248714D01*
X117792428Y-114238507D01*
X117792429Y-114238504D01*
X122581017Y-109449919D01*
X122642340Y-109416434D01*
X122668698Y-109413600D01*
X125072962Y-109413600D01*
X125140001Y-109433285D01*
G37*
%TD.AperFunction*%
%TA.AperFunction,Conductor*%
G36*
X121288241Y-108831585D02*
G01*
X121333996Y-108884389D01*
X121343940Y-108953547D01*
X121314915Y-109017103D01*
X121308883Y-109023581D01*
X117663785Y-112668678D01*
X117602462Y-112702163D01*
X117532770Y-112697179D01*
X117476837Y-112655307D01*
X117452420Y-112589843D01*
X117459922Y-112537663D01*
X117493597Y-112447376D01*
X117493598Y-112447372D01*
X117499999Y-112387844D01*
X117500000Y-112387827D01*
X117500000Y-111590000D01*
X115374000Y-111590000D01*
X115306967Y-111570316D01*
X115355036Y-111487061D01*
X115381000Y-111390160D01*
X115381000Y-111289840D01*
X115355036Y-111192939D01*
X115304876Y-111106060D01*
X115250000Y-111051184D01*
X115250000Y-109845696D01*
X115251673Y-109840000D01*
X115750000Y-109840000D01*
X115750000Y-111090000D01*
X117500000Y-111090000D01*
X117500000Y-110292172D01*
X117499999Y-110292155D01*
X117493598Y-110232627D01*
X117493596Y-110232620D01*
X117443354Y-110097913D01*
X117443350Y-110097906D01*
X117357190Y-109982812D01*
X117357187Y-109982809D01*
X117242093Y-109896649D01*
X117242086Y-109896645D01*
X117107379Y-109846403D01*
X117107372Y-109846401D01*
X117047844Y-109840000D01*
X115750000Y-109840000D01*
X115251673Y-109840000D01*
X115269685Y-109778657D01*
X115286319Y-109758015D01*
X115444061Y-109600274D01*
X116196116Y-108848219D01*
X116257439Y-108814734D01*
X116283797Y-108811900D01*
X121221202Y-108811900D01*
X121288241Y-108831585D01*
G37*
%TD.AperFunction*%
%TA.AperFunction,Conductor*%
G36*
X131140001Y-109433285D02*
G01*
X131185756Y-109486089D01*
X131195700Y-109555247D01*
X131166675Y-109618803D01*
X131129257Y-109648085D01*
X131029342Y-109698994D01*
X130854245Y-109826211D01*
X130854244Y-109826211D01*
X130701211Y-109979244D01*
X130701211Y-109979245D01*
X130573994Y-110154342D01*
X130475736Y-110347182D01*
X130475735Y-110347185D01*
X130408857Y-110553018D01*
X130375000Y-110766779D01*
X130375000Y-111250000D01*
X131461184Y-111250000D01*
X131445124Y-111266060D01*
X131394964Y-111352939D01*
X131369000Y-111449840D01*
X131369000Y-111550160D01*
X131394964Y-111647061D01*
X131445124Y-111733940D01*
X131461184Y-111750000D01*
X130375000Y-111750000D01*
X130375000Y-112233220D01*
X130408857Y-112446983D01*
X130409995Y-112451723D01*
X130407798Y-112452250D01*
X130409441Y-112512793D01*
X130373274Y-112572574D01*
X130310528Y-112603311D01*
X130241126Y-112595247D01*
X130187101Y-112550940D01*
X130184566Y-112547069D01*
X130178122Y-112536813D01*
X130096516Y-112406938D01*
X130096514Y-112406936D01*
X130096513Y-112406934D01*
X130094250Y-112404096D01*
X130093359Y-112401915D01*
X130092811Y-112401042D01*
X130092964Y-112400945D01*
X130067844Y-112339409D01*
X130067200Y-112326787D01*
X130067200Y-111420945D01*
X130067200Y-111420943D01*
X130026277Y-111268216D01*
X129994976Y-111214000D01*
X129947224Y-111131290D01*
X129947218Y-111131282D01*
X129835417Y-111019481D01*
X129835412Y-111019477D01*
X129727500Y-110957174D01*
X129679284Y-110906607D01*
X129665500Y-110849787D01*
X129665500Y-110766746D01*
X129634089Y-110568430D01*
X129631630Y-110552903D01*
X129583189Y-110403816D01*
X129564727Y-110346993D01*
X129564726Y-110346990D01*
X129479665Y-110180051D01*
X129466433Y-110154081D01*
X129339172Y-109978922D01*
X129186078Y-109825828D01*
X129010919Y-109698567D01*
X128911843Y-109648085D01*
X128861047Y-109600110D01*
X128844252Y-109532289D01*
X128866790Y-109466154D01*
X128921505Y-109422703D01*
X128968138Y-109413600D01*
X131072962Y-109413600D01*
X131140001Y-109433285D01*
G37*
%TD.AperFunction*%
%TA.AperFunction,Conductor*%
G36*
X101986130Y-89897317D02*
G01*
X102042064Y-89939187D01*
X102047788Y-89947521D01*
X102082184Y-90002262D01*
X102209738Y-90129816D01*
X102300080Y-90186582D01*
X102360426Y-90224500D01*
X102362478Y-90225789D01*
X102503878Y-90275267D01*
X102532745Y-90285368D01*
X102532750Y-90285369D01*
X102711996Y-90305565D01*
X102712000Y-90305565D01*
X102712004Y-90305565D01*
X102891249Y-90285369D01*
X102891252Y-90285368D01*
X102891255Y-90285368D01*
X103061522Y-90225789D01*
X103214262Y-90129816D01*
X103214267Y-90129810D01*
X103217097Y-90127555D01*
X103219275Y-90126665D01*
X103220158Y-90126111D01*
X103220255Y-90126265D01*
X103281783Y-90101145D01*
X103294412Y-90100500D01*
X106125501Y-90100500D01*
X106192540Y-90120185D01*
X106238295Y-90172989D01*
X106249501Y-90224500D01*
X106249501Y-90547876D01*
X106255908Y-90607483D01*
X106300361Y-90726667D01*
X106305345Y-90796359D01*
X106300361Y-90813333D01*
X106255908Y-90932517D01*
X106252139Y-90967578D01*
X106249501Y-90992123D01*
X106249500Y-90992135D01*
X106249500Y-93087870D01*
X106249501Y-93087876D01*
X106255908Y-93147483D01*
X106300361Y-93266667D01*
X106305345Y-93336359D01*
X106300361Y-93353333D01*
X106255908Y-93472517D01*
X106251668Y-93511962D01*
X106249501Y-93532123D01*
X106249500Y-93532135D01*
X106249500Y-95627870D01*
X106249501Y-95627876D01*
X106255908Y-95687483D01*
X106300361Y-95806667D01*
X106305345Y-95876359D01*
X106300361Y-95893333D01*
X106255908Y-96012517D01*
X106249501Y-96072116D01*
X106249501Y-96072123D01*
X106249500Y-96072135D01*
X106249500Y-98167870D01*
X106249501Y-98167876D01*
X106255908Y-98227483D01*
X106300361Y-98346667D01*
X106305345Y-98416359D01*
X106300361Y-98433333D01*
X106255908Y-98552517D01*
X106251127Y-98596990D01*
X106249501Y-98612123D01*
X106249500Y-98612135D01*
X106249500Y-100707870D01*
X106249501Y-100707876D01*
X106255908Y-100767483D01*
X106300361Y-100886667D01*
X106305345Y-100956359D01*
X106300361Y-100973333D01*
X106255908Y-101092517D01*
X106249501Y-101152116D01*
X106249501Y-101152123D01*
X106249500Y-101152135D01*
X106249500Y-103247870D01*
X106249501Y-103247876D01*
X106255908Y-103307483D01*
X106300361Y-103426667D01*
X106305345Y-103496359D01*
X106300361Y-103513333D01*
X106255908Y-103632517D01*
X106250163Y-103685958D01*
X106249501Y-103692123D01*
X106249500Y-103692135D01*
X106249500Y-104517603D01*
X106229815Y-104584642D01*
X106177011Y-104630397D01*
X106107853Y-104640341D01*
X106044297Y-104611316D01*
X106037819Y-104605284D01*
X103270030Y-101837495D01*
X103269314Y-101836678D01*
X103216121Y-101783485D01*
X103152116Y-101719480D01*
X103152113Y-101719478D01*
X103152109Y-101719475D01*
X103015190Y-101640426D01*
X103015186Y-101640424D01*
X103015184Y-101640423D01*
X102862457Y-101599500D01*
X102862456Y-101599500D01*
X101754499Y-101599500D01*
X101687460Y-101579815D01*
X101641705Y-101527011D01*
X101630499Y-101475500D01*
X101630499Y-101152129D01*
X101630498Y-101152123D01*
X101630497Y-101152116D01*
X101624091Y-101092517D01*
X101579637Y-100973332D01*
X101574654Y-100903642D01*
X101579638Y-100886667D01*
X101624091Y-100767483D01*
X101630500Y-100707873D01*
X101630499Y-98612128D01*
X101624091Y-98552517D01*
X101622347Y-98547842D01*
X101579638Y-98433333D01*
X101574654Y-98363642D01*
X101579638Y-98346667D01*
X101624091Y-98227483D01*
X101630500Y-98167873D01*
X101630499Y-96072128D01*
X101624091Y-96012517D01*
X101579370Y-95892615D01*
X101574387Y-95822927D01*
X101579371Y-95805951D01*
X101623597Y-95687376D01*
X101623598Y-95687372D01*
X101629999Y-95627844D01*
X101630000Y-95627827D01*
X101630000Y-94830000D01*
X100418816Y-94830000D01*
X100434876Y-94813940D01*
X100485036Y-94727061D01*
X100511000Y-94630160D01*
X100511000Y-94529840D01*
X100485036Y-94432939D01*
X100434876Y-94346060D01*
X100418816Y-94330000D01*
X101630000Y-94330000D01*
X101630000Y-93532172D01*
X101629999Y-93532155D01*
X101623598Y-93472627D01*
X101623597Y-93472623D01*
X101579371Y-93354049D01*
X101574387Y-93284357D01*
X101579367Y-93267393D01*
X101624091Y-93147483D01*
X101630500Y-93087873D01*
X101630499Y-90992128D01*
X101624091Y-90932517D01*
X101579637Y-90813332D01*
X101574654Y-90743642D01*
X101579638Y-90726667D01*
X101594149Y-90687761D01*
X101624091Y-90607483D01*
X101630500Y-90547873D01*
X101630499Y-90150210D01*
X101650183Y-90083172D01*
X101692494Y-90042827D01*
X101713604Y-90030639D01*
X101800416Y-89980520D01*
X101855119Y-89925816D01*
X101916438Y-89892333D01*
X101986130Y-89897317D01*
G37*
%TD.AperFunction*%
%TA.AperFunction,Conductor*%
G36*
X189942539Y-93450185D02*
G01*
X189988294Y-93502989D01*
X189999500Y-93554500D01*
X189999500Y-95002870D01*
X189999501Y-95002876D01*
X190005908Y-95062483D01*
X190056202Y-95197328D01*
X190056206Y-95197335D01*
X190142452Y-95312544D01*
X190142455Y-95312547D01*
X190257664Y-95398793D01*
X190257671Y-95398797D01*
X190392517Y-95449091D01*
X190392516Y-95449091D01*
X190399444Y-95449835D01*
X190452127Y-95455500D01*
X191849787Y-95455499D01*
X191916826Y-95475184D01*
X191957174Y-95517499D01*
X192019477Y-95625412D01*
X192019481Y-95625417D01*
X192138349Y-95744285D01*
X192138355Y-95744290D01*
X193780239Y-97386174D01*
X193780249Y-97386185D01*
X193784579Y-97390515D01*
X193784580Y-97390516D01*
X193896384Y-97502320D01*
X193896386Y-97502321D01*
X193896390Y-97502324D01*
X193979835Y-97550500D01*
X194033316Y-97581377D01*
X194145119Y-97611334D01*
X194186042Y-97622300D01*
X194186043Y-97622300D01*
X213233403Y-97622300D01*
X213300442Y-97641985D01*
X213321084Y-97658619D01*
X213924240Y-98261775D01*
X213957725Y-98323098D01*
X213952741Y-98392790D01*
X213910871Y-98448722D01*
X213863895Y-98483889D01*
X213798431Y-98508307D01*
X213730158Y-98493456D01*
X213715272Y-98483890D01*
X213612088Y-98406646D01*
X213612086Y-98406645D01*
X213477379Y-98356403D01*
X213477372Y-98356401D01*
X213417844Y-98350000D01*
X212770000Y-98350000D01*
X212770000Y-100561184D01*
X212753940Y-100545124D01*
X212667061Y-100494964D01*
X212570160Y-100469000D01*
X212469840Y-100469000D01*
X212372939Y-100494964D01*
X212286060Y-100545124D01*
X212270000Y-100561184D01*
X212270000Y-98350000D01*
X211622155Y-98350000D01*
X211562627Y-98356401D01*
X211562620Y-98356403D01*
X211427913Y-98406645D01*
X211427910Y-98406647D01*
X211324727Y-98483890D01*
X211259262Y-98508307D01*
X211190989Y-98493455D01*
X211176105Y-98483889D01*
X211072335Y-98406206D01*
X211072328Y-98406202D01*
X210937482Y-98355908D01*
X210937483Y-98355908D01*
X210877883Y-98349501D01*
X210877881Y-98349500D01*
X210877873Y-98349500D01*
X210877865Y-98349500D01*
X210630212Y-98349500D01*
X210563173Y-98329815D01*
X210522825Y-98287499D01*
X210460524Y-98179590D01*
X210460518Y-98179582D01*
X210348717Y-98067781D01*
X210348709Y-98067775D01*
X210211790Y-97988726D01*
X210211786Y-97988724D01*
X210211784Y-97988723D01*
X210059057Y-97947800D01*
X163254057Y-97947800D01*
X163095942Y-97947800D01*
X163095940Y-97947800D01*
X163055019Y-97958764D01*
X163055019Y-97958765D01*
X163017751Y-97968751D01*
X162943214Y-97988723D01*
X162943209Y-97988726D01*
X162806290Y-98067775D01*
X162806282Y-98067781D01*
X162747916Y-98126148D01*
X162694480Y-98179584D01*
X162694478Y-98179586D01*
X160819189Y-100054876D01*
X158977484Y-101896581D01*
X158916161Y-101930066D01*
X158889803Y-101932900D01*
X158431141Y-101932900D01*
X158364102Y-101913215D01*
X158318347Y-101860411D01*
X158308403Y-101791253D01*
X158311363Y-101776816D01*
X158341788Y-101663272D01*
X158378152Y-101603615D01*
X158405265Y-101584885D01*
X158470919Y-101551433D01*
X158646078Y-101424172D01*
X158799172Y-101271078D01*
X158926433Y-101095919D01*
X159024726Y-100903009D01*
X159091630Y-100697097D01*
X159125500Y-100483254D01*
X159125500Y-99016746D01*
X159091630Y-98802903D01*
X159029645Y-98612129D01*
X159024727Y-98596993D01*
X159024726Y-98596990D01*
X158946484Y-98443433D01*
X158926433Y-98404081D01*
X158799172Y-98228922D01*
X158646078Y-98075828D01*
X158470919Y-97948567D01*
X158444479Y-97935095D01*
X158278009Y-97850273D01*
X158278006Y-97850272D01*
X158072098Y-97783370D01*
X157933904Y-97761482D01*
X157858254Y-97749500D01*
X157641746Y-97749500D01*
X157570465Y-97760790D01*
X157427901Y-97783370D01*
X157221993Y-97850272D01*
X157221990Y-97850273D01*
X157029080Y-97948567D01*
X156954916Y-98002451D01*
X156853922Y-98075828D01*
X156853920Y-98075830D01*
X156853919Y-98075830D01*
X156700829Y-98228920D01*
X156580009Y-98395214D01*
X156524678Y-98437879D01*
X156455065Y-98443858D01*
X156393270Y-98411252D01*
X156379373Y-98395214D01*
X156258788Y-98229245D01*
X156258788Y-98229244D01*
X156105755Y-98076211D01*
X155930657Y-97948994D01*
X155737817Y-97850736D01*
X155737814Y-97850735D01*
X155531983Y-97783857D01*
X155460000Y-97772456D01*
X155460000Y-99461184D01*
X155443940Y-99445124D01*
X155357061Y-99394964D01*
X155260160Y-99369000D01*
X155159840Y-99369000D01*
X155062939Y-99394964D01*
X154976060Y-99445124D01*
X154960000Y-99461184D01*
X154960000Y-97772456D01*
X154959999Y-97772456D01*
X154888016Y-97783857D01*
X154888015Y-97783857D01*
X154682185Y-97850735D01*
X154682182Y-97850736D01*
X154489342Y-97948994D01*
X154314245Y-98076211D01*
X154314244Y-98076211D01*
X154161210Y-98229245D01*
X154040626Y-98395214D01*
X153985295Y-98437879D01*
X153915682Y-98443858D01*
X153853887Y-98411252D01*
X153839994Y-98395219D01*
X153719172Y-98228922D01*
X153566078Y-98075828D01*
X153390919Y-97948567D01*
X153364479Y-97935095D01*
X153302679Y-97903606D01*
X153251883Y-97855631D01*
X153235088Y-97787810D01*
X153257626Y-97721675D01*
X153271287Y-97705446D01*
X157509916Y-93466819D01*
X157571239Y-93433334D01*
X157597597Y-93430500D01*
X189875500Y-93430500D01*
X189942539Y-93450185D01*
G37*
%TD.AperFunction*%
%TA.AperFunction,Conductor*%
G36*
X189942539Y-88370185D02*
G01*
X189988294Y-88422989D01*
X189999500Y-88474500D01*
X189999500Y-89922870D01*
X189999501Y-89922876D01*
X190005908Y-89982483D01*
X190056202Y-90117328D01*
X190056204Y-90117331D01*
X190115174Y-90196104D01*
X190139592Y-90261569D01*
X190124741Y-90329842D01*
X190115175Y-90344727D01*
X190056647Y-90422910D01*
X190056645Y-90422913D01*
X190006403Y-90557620D01*
X190006401Y-90557627D01*
X190000000Y-90617155D01*
X190000000Y-91290000D01*
X192211184Y-91290000D01*
X192195124Y-91306060D01*
X192144964Y-91392939D01*
X192119000Y-91489840D01*
X192119000Y-91590160D01*
X192144964Y-91687061D01*
X192195124Y-91773940D01*
X192211184Y-91790000D01*
X190000000Y-91790000D01*
X190000000Y-92105500D01*
X189980315Y-92172539D01*
X189927511Y-92218294D01*
X189876000Y-92229500D01*
X157218440Y-92229500D01*
X157177519Y-92240464D01*
X157177519Y-92240465D01*
X157140251Y-92250451D01*
X157065714Y-92270423D01*
X157065709Y-92270426D01*
X156928790Y-92349475D01*
X156928782Y-92349481D01*
X151201938Y-98076326D01*
X151140615Y-98109811D01*
X151070923Y-98104827D01*
X151030115Y-98078601D01*
X151029782Y-98078992D01*
X151026917Y-98076545D01*
X151026576Y-98076326D01*
X151026080Y-98075830D01*
X151026078Y-98075828D01*
X150850919Y-97948567D01*
X150824479Y-97935095D01*
X150658009Y-97850273D01*
X150658006Y-97850272D01*
X150452098Y-97783370D01*
X150313904Y-97761482D01*
X150238254Y-97749500D01*
X150021746Y-97749500D01*
X149950465Y-97760790D01*
X149807901Y-97783370D01*
X149601993Y-97850272D01*
X149601990Y-97850273D01*
X149409080Y-97948567D01*
X149334916Y-98002451D01*
X149233922Y-98075828D01*
X149233920Y-98075830D01*
X149233919Y-98075830D01*
X149080830Y-98228919D01*
X149080830Y-98228920D01*
X149080828Y-98228922D01*
X148995281Y-98346667D01*
X148960318Y-98394789D01*
X148904988Y-98437454D01*
X148835374Y-98443433D01*
X148773579Y-98410827D01*
X148759682Y-98394789D01*
X148737052Y-98363642D01*
X148639172Y-98228922D01*
X148486078Y-98075828D01*
X148310919Y-97948567D01*
X148284479Y-97935095D01*
X148118009Y-97850273D01*
X148118006Y-97850272D01*
X147912098Y-97783370D01*
X147773904Y-97761482D01*
X147698254Y-97749500D01*
X147481746Y-97749500D01*
X147410465Y-97760790D01*
X147267901Y-97783370D01*
X147061993Y-97850272D01*
X147061990Y-97850273D01*
X146869080Y-97948567D01*
X146794916Y-98002451D01*
X146693922Y-98075828D01*
X146693920Y-98075830D01*
X146693919Y-98075830D01*
X146540830Y-98228919D01*
X146540830Y-98228920D01*
X146540828Y-98228922D01*
X146455281Y-98346667D01*
X146420318Y-98394789D01*
X146364988Y-98437454D01*
X146295374Y-98443433D01*
X146233579Y-98410827D01*
X146219682Y-98394789D01*
X146197052Y-98363642D01*
X146099172Y-98228922D01*
X145946573Y-98076323D01*
X145913088Y-98015000D01*
X145918072Y-97945308D01*
X145946573Y-97900961D01*
X148171331Y-95676204D01*
X155076617Y-88770919D01*
X155137940Y-88737434D01*
X155164298Y-88734600D01*
X172428431Y-88734600D01*
X172428447Y-88734601D01*
X172436043Y-88734601D01*
X172594154Y-88734601D01*
X172594157Y-88734601D01*
X172746885Y-88693677D01*
X172818420Y-88652376D01*
X172883816Y-88614620D01*
X172995620Y-88502816D01*
X172995620Y-88502815D01*
X173005829Y-88492607D01*
X173005831Y-88492603D01*
X173111618Y-88386818D01*
X173172941Y-88353334D01*
X173199298Y-88350500D01*
X189875500Y-88350500D01*
X189942539Y-88370185D01*
G37*
%TD.AperFunction*%
%TA.AperFunction,Conductor*%
G36*
X111436942Y-86278485D02*
G01*
X111457584Y-86295119D01*
X115250784Y-90088319D01*
X115284269Y-90149642D01*
X115279285Y-90219334D01*
X115237413Y-90275267D01*
X115171949Y-90299684D01*
X115163103Y-90300000D01*
X115078807Y-90300000D01*
X114860195Y-90340865D01*
X114652824Y-90421200D01*
X114652823Y-90421201D01*
X114536671Y-90493119D01*
X115190000Y-91146447D01*
X115193553Y-91150000D01*
X115143922Y-91150000D01*
X115054905Y-91173852D01*
X114975095Y-91219930D01*
X114909930Y-91285095D01*
X114863852Y-91364905D01*
X114840000Y-91453922D01*
X114840000Y-91546078D01*
X114863852Y-91635095D01*
X114909930Y-91714905D01*
X114975095Y-91780070D01*
X115054905Y-91826148D01*
X115143922Y-91850000D01*
X115236078Y-91850000D01*
X115325095Y-91826148D01*
X115404905Y-91780070D01*
X115470070Y-91714905D01*
X115516148Y-91635095D01*
X115540000Y-91546078D01*
X115540000Y-91496447D01*
X116198861Y-92155308D01*
X116214631Y-92134425D01*
X116214633Y-92134422D01*
X116313759Y-91935350D01*
X116374621Y-91721439D01*
X116393439Y-91518366D01*
X116419225Y-91453428D01*
X116476026Y-91412741D01*
X116545807Y-91409221D01*
X116604591Y-91442126D01*
X121948140Y-96785675D01*
X121981625Y-96846998D01*
X121976641Y-96916690D01*
X121944000Y-96964990D01*
X121919939Y-96986925D01*
X121919018Y-96987765D01*
X121784943Y-97165308D01*
X121784938Y-97165316D01*
X121685775Y-97364461D01*
X121685769Y-97364476D01*
X121624885Y-97578462D01*
X121624884Y-97578464D01*
X121604357Y-97799999D01*
X121604357Y-97800000D01*
X121624884Y-98021535D01*
X121624885Y-98021538D01*
X121631409Y-98044466D01*
X121630822Y-98114333D01*
X121592556Y-98172792D01*
X121528758Y-98201282D01*
X121512143Y-98202400D01*
X118892598Y-98202400D01*
X118825559Y-98182715D01*
X118804917Y-98166081D01*
X116936390Y-96297555D01*
X116936388Y-96297552D01*
X116817517Y-96178681D01*
X116817509Y-96178675D01*
X116715736Y-96119917D01*
X116715734Y-96119916D01*
X116680590Y-96099625D01*
X116680589Y-96099624D01*
X116668063Y-96096267D01*
X116527857Y-96058699D01*
X116369743Y-96058699D01*
X116362147Y-96058699D01*
X116362131Y-96058700D01*
X115522924Y-96058700D01*
X115455885Y-96039015D01*
X115410130Y-95986211D01*
X115400186Y-95917053D01*
X115429211Y-95853497D01*
X115487989Y-95815723D01*
X115500139Y-95812811D01*
X115519809Y-95809133D01*
X115727168Y-95728801D01*
X115727181Y-95728795D01*
X115843326Y-95656879D01*
X115190001Y-95003553D01*
X115190000Y-95003553D01*
X114536672Y-95656879D01*
X114536672Y-95656880D01*
X114652821Y-95728797D01*
X114652822Y-95728798D01*
X114860195Y-95809134D01*
X114879861Y-95812811D01*
X114942142Y-95844479D01*
X114977415Y-95904791D01*
X114974481Y-95974600D01*
X114934272Y-96031740D01*
X114869554Y-96058071D01*
X114857076Y-96058700D01*
X114429412Y-96058700D01*
X114362373Y-96039015D01*
X114352097Y-96031645D01*
X114349263Y-96029385D01*
X114349262Y-96029384D01*
X114280107Y-95985931D01*
X114196523Y-95933411D01*
X114026254Y-95873831D01*
X114026249Y-95873830D01*
X113847004Y-95853635D01*
X113846996Y-95853635D01*
X113667750Y-95873830D01*
X113667745Y-95873831D01*
X113497476Y-95933411D01*
X113344737Y-96029384D01*
X113217881Y-96156241D01*
X113156558Y-96189726D01*
X113086866Y-96184742D01*
X113042519Y-96156241D01*
X113027762Y-96141484D01*
X112875023Y-96045511D01*
X112704754Y-95985931D01*
X112704749Y-95985930D01*
X112525504Y-95965735D01*
X112525496Y-95965735D01*
X112346250Y-95985930D01*
X112346245Y-95985931D01*
X112175976Y-96045511D01*
X112023237Y-96141484D01*
X111895684Y-96269037D01*
X111799711Y-96421776D01*
X111740131Y-96592045D01*
X111740130Y-96592049D01*
X111732206Y-96662384D01*
X111705139Y-96726798D01*
X111647544Y-96766353D01*
X111608986Y-96772500D01*
X110604798Y-96772500D01*
X110537759Y-96752815D01*
X110517117Y-96736181D01*
X110420417Y-96639481D01*
X110420416Y-96639480D01*
X110333604Y-96589360D01*
X110333604Y-96589358D01*
X110333599Y-96589357D01*
X110322047Y-96582687D01*
X110312495Y-96577172D01*
X110264281Y-96526602D01*
X110250499Y-96469787D01*
X110250499Y-96072129D01*
X110250498Y-96072123D01*
X110250497Y-96072116D01*
X110244091Y-96012517D01*
X110234175Y-95985932D01*
X110199638Y-95893333D01*
X110194654Y-95823642D01*
X110199638Y-95806667D01*
X110244091Y-95687483D01*
X110250500Y-95627873D01*
X110250500Y-94650000D01*
X113984859Y-94650000D01*
X114005378Y-94871439D01*
X114066240Y-95085350D01*
X114165369Y-95284428D01*
X114181137Y-95305308D01*
X114181138Y-95305308D01*
X114790369Y-94696078D01*
X114840000Y-94696078D01*
X114863852Y-94785095D01*
X114909930Y-94864905D01*
X114975095Y-94930070D01*
X115054905Y-94976148D01*
X115143922Y-95000000D01*
X115236078Y-95000000D01*
X115325095Y-94976148D01*
X115404905Y-94930070D01*
X115470070Y-94864905D01*
X115516148Y-94785095D01*
X115540000Y-94696078D01*
X115540000Y-94650000D01*
X115543553Y-94650000D01*
X116198861Y-95305308D01*
X116214631Y-95284425D01*
X116214633Y-95284422D01*
X116313759Y-95085350D01*
X116374621Y-94871439D01*
X116395141Y-94650000D01*
X116395141Y-94649999D01*
X116374621Y-94428560D01*
X116313759Y-94214649D01*
X116214635Y-94015580D01*
X116214630Y-94015572D01*
X116198860Y-93994690D01*
X115543553Y-94649999D01*
X115543553Y-94650000D01*
X115540000Y-94650000D01*
X115540000Y-94603922D01*
X115516148Y-94514905D01*
X115470070Y-94435095D01*
X115404905Y-94369930D01*
X115325095Y-94323852D01*
X115236078Y-94300000D01*
X115143922Y-94300000D01*
X115054905Y-94323852D01*
X114975095Y-94369930D01*
X114909930Y-94435095D01*
X114863852Y-94514905D01*
X114840000Y-94603922D01*
X114840000Y-94696078D01*
X114790369Y-94696078D01*
X114836447Y-94650000D01*
X114181138Y-93994691D01*
X114181137Y-93994691D01*
X114165368Y-94015574D01*
X114066240Y-94214649D01*
X114005378Y-94428560D01*
X113984859Y-94649999D01*
X113984859Y-94650000D01*
X110250500Y-94650000D01*
X110250499Y-93643119D01*
X114536671Y-93643119D01*
X115190000Y-94296447D01*
X115190001Y-94296447D01*
X115843327Y-93643119D01*
X115727178Y-93571202D01*
X115727177Y-93571201D01*
X115519804Y-93490865D01*
X115301193Y-93450000D01*
X115078807Y-93450000D01*
X114860195Y-93490865D01*
X114652824Y-93571200D01*
X114652823Y-93571201D01*
X114536671Y-93643119D01*
X110250499Y-93643119D01*
X110250499Y-93532128D01*
X110244103Y-93472627D01*
X110244091Y-93472516D01*
X110201835Y-93359223D01*
X110199637Y-93353332D01*
X110194654Y-93283642D01*
X110199638Y-93266667D01*
X110244091Y-93147482D01*
X110244091Y-93147481D01*
X110250500Y-93087873D01*
X110250500Y-92506880D01*
X114536672Y-92506880D01*
X114652821Y-92578797D01*
X114652822Y-92578798D01*
X114860195Y-92659134D01*
X115078807Y-92700000D01*
X115301193Y-92700000D01*
X115519809Y-92659133D01*
X115727168Y-92578801D01*
X115727181Y-92578795D01*
X115843326Y-92506879D01*
X115190001Y-91853553D01*
X115190000Y-91853553D01*
X114536672Y-92506879D01*
X114536672Y-92506880D01*
X110250500Y-92506880D01*
X110250499Y-91500000D01*
X113984859Y-91500000D01*
X114005378Y-91721439D01*
X114066240Y-91935350D01*
X114165369Y-92134428D01*
X114181137Y-92155308D01*
X114181138Y-92155308D01*
X114836447Y-91500000D01*
X114181138Y-90844691D01*
X114181137Y-90844691D01*
X114165368Y-90865574D01*
X114066240Y-91064649D01*
X114005378Y-91278560D01*
X113984859Y-91499999D01*
X113984859Y-91500000D01*
X110250499Y-91500000D01*
X110250499Y-90992128D01*
X110244091Y-90932517D01*
X110199637Y-90813332D01*
X110194654Y-90743642D01*
X110199638Y-90726667D01*
X110240477Y-90617172D01*
X110244091Y-90607483D01*
X110250500Y-90547873D01*
X110250499Y-88452128D01*
X110244091Y-88392517D01*
X110199370Y-88272615D01*
X110194387Y-88202927D01*
X110199371Y-88185951D01*
X110243597Y-88067376D01*
X110243598Y-88067372D01*
X110249999Y-88007844D01*
X110250000Y-88007827D01*
X110250000Y-87210000D01*
X108038816Y-87210000D01*
X108054876Y-87193940D01*
X108105036Y-87107061D01*
X108131000Y-87010160D01*
X108131000Y-86909840D01*
X108105036Y-86812939D01*
X108054876Y-86726060D01*
X108038816Y-86710000D01*
X110250000Y-86710000D01*
X110250000Y-86382800D01*
X110269685Y-86315761D01*
X110322489Y-86270006D01*
X110374000Y-86258800D01*
X111369903Y-86258800D01*
X111436942Y-86278485D01*
G37*
%TD.AperFunction*%
%TA.AperFunction,Conductor*%
G36*
X201842540Y-88370185D02*
G01*
X201888295Y-88422989D01*
X201899501Y-88474500D01*
X201899501Y-88647876D01*
X201905908Y-88707483D01*
X201956202Y-88842328D01*
X201956206Y-88842335D01*
X202042452Y-88957544D01*
X202042455Y-88957547D01*
X202157664Y-89043793D01*
X202157671Y-89043797D01*
X202157674Y-89043798D01*
X202289598Y-89093002D01*
X202345531Y-89134873D01*
X202369949Y-89200337D01*
X202355098Y-89268610D01*
X202333947Y-89296865D01*
X202211886Y-89418926D01*
X202076400Y-89612420D01*
X202076399Y-89612422D01*
X201976570Y-89826507D01*
X201976567Y-89826513D01*
X201919364Y-90039999D01*
X201919364Y-90040000D01*
X202816988Y-90040000D01*
X202784075Y-90097007D01*
X202750000Y-90224174D01*
X202750000Y-90355826D01*
X202784075Y-90482993D01*
X202816988Y-90540000D01*
X201919364Y-90540000D01*
X201976567Y-90753486D01*
X201976570Y-90753492D01*
X202076399Y-90967578D01*
X202211894Y-91161082D01*
X202378917Y-91328105D01*
X202564595Y-91458119D01*
X202608219Y-91512696D01*
X202615412Y-91582195D01*
X202583890Y-91644549D01*
X202564595Y-91661269D01*
X202378594Y-91791508D01*
X202211506Y-91958596D01*
X202075965Y-92152170D01*
X202075962Y-92152175D01*
X202073289Y-92157909D01*
X202027115Y-92210346D01*
X201960909Y-92229500D01*
X195124000Y-92229500D01*
X195056961Y-92209815D01*
X195011206Y-92157011D01*
X195000000Y-92105500D01*
X195000000Y-91790000D01*
X192788816Y-91790000D01*
X192804876Y-91773940D01*
X192855036Y-91687061D01*
X192881000Y-91590160D01*
X192881000Y-91489840D01*
X192855036Y-91392939D01*
X192804876Y-91306060D01*
X192788816Y-91290000D01*
X195000000Y-91290000D01*
X195000000Y-90617172D01*
X194999999Y-90617155D01*
X194993598Y-90557627D01*
X194993596Y-90557620D01*
X194943354Y-90422913D01*
X194943350Y-90422906D01*
X194884825Y-90344727D01*
X194860407Y-90279263D01*
X194875258Y-90210990D01*
X194884815Y-90196118D01*
X194943796Y-90117331D01*
X194994091Y-89982483D01*
X195000500Y-89922873D01*
X195000499Y-88474499D01*
X195020184Y-88407461D01*
X195072987Y-88361706D01*
X195124499Y-88350500D01*
X201775501Y-88350500D01*
X201842540Y-88370185D01*
G37*
%TD.AperFunction*%
%TA.AperFunction,Conductor*%
G36*
X106193039Y-86278485D02*
G01*
X106238794Y-86331289D01*
X106250000Y-86382800D01*
X106250000Y-86710000D01*
X107461184Y-86710000D01*
X107445124Y-86726060D01*
X107394964Y-86812939D01*
X107369000Y-86909840D01*
X107369000Y-87010160D01*
X107394964Y-87107061D01*
X107445124Y-87193940D01*
X107461184Y-87210000D01*
X106250000Y-87210000D01*
X106250000Y-88007844D01*
X106256401Y-88067372D01*
X106256403Y-88067382D01*
X106300627Y-88185953D01*
X106305611Y-88255644D01*
X106300627Y-88272617D01*
X106255909Y-88392514D01*
X106255908Y-88392516D01*
X106249516Y-88451981D01*
X106249501Y-88452123D01*
X106249500Y-88452135D01*
X106249500Y-88775500D01*
X106229815Y-88842539D01*
X106177011Y-88888294D01*
X106125500Y-88899500D01*
X103294412Y-88899500D01*
X103227373Y-88879815D01*
X103217097Y-88872445D01*
X103214257Y-88870180D01*
X103159526Y-88835790D01*
X103113235Y-88783456D01*
X103102587Y-88714402D01*
X103130962Y-88650554D01*
X103137804Y-88643129D01*
X105485816Y-86295119D01*
X105547139Y-86261634D01*
X105573497Y-86258800D01*
X106126000Y-86258800D01*
X106193039Y-86278485D01*
G37*
%TD.AperFunction*%
%TD*%
M02*
