0
SECTION
2
HEADER
9
$INSUNITS
70
4
9
$ACADVER
1
AC1014
9
$HANDSEED
5
FFFF
0
ENDSEC
0
SECTION
2
TABLES
0
TABLE
2
VPORT
5
8
100
AcDbSymbolTable
0
ENDTAB
0
TABLE
2
LTYPE
5
5
100
AcDbSymbolTable
0
LTYPE
5
14
100
AcDbSymbolTableRecord
100
AcDbLinetypeTableRecord
2
BYBLOCK
70
0
0
LTYPE
5
15
100
AcDbSymbolTableRecord
100
AcDbLinetypeTableRecord
2
BYLAYER
70
0
0
ENDTAB
0
TABLE
2
LAYER
5
2
100
AcDbSymbolTable
70
2
0
LAYER
5
50
100
AcDbSymbolTableRecord
100
AcDbLayerTableRecord
2
0
70
0
6
CONTINUOUS
0
ENDTAB
0
TABLE
2
STYLE
5
3
100
AcDbSymbolTable
70
1
0
STYLE
5
11
100
AcDbSymbolTableRecord
100
AcDbTextStyleTableRecord
2
STANDARD
70
0
0
ENDTAB
0
TABLE
2
VIEW
5
6
100
AcDbSymbolTable
70
0
0
ENDTAB
0
TABLE
2
UCS
5
7
100
AcDbSymbolTable
70
0
0
ENDTAB
0
TABLE
2
APPID
5
9
100
AcDbSymbolTable
70
2
0
APPID
5
12
100
AcDbSymbolTableRecord
100
AcDbRegAppTableRecord
2
ACAD
70
0
0
ENDTAB
0
TABLE
2
DIMSTYLE
5
A
100
AcDbSymbolTable
70
1
0
ENDTAB
0
TABLE
2
BLOCK_RECORD
5
1
100
AcDbSymbolTable
70
1
0
BLOCK_RECORD
5
1F
100
AcDbSymbolTableRecord
100
AcDbBlockTableRecord
2
*MODEL_SPACE
0
BLOCK_RECORD
5
1B
100
AcDbSymbolTableRecord
100
AcDbBlockTableRecord
2
*PAPER_SPACE
0
ENDTAB
0
ENDSEC
0
SECTION
2
BLOCKS
0
BLOCK
5
20
100
AcDbEntity
100
AcDbBlockBegin
2
*MODEL_SPACE
0
ENDBLK
5
21
100
AcDbEntity
100
AcDbBlockEnd
0
BLOCK
5
1C
100
AcDbEntity
100
AcDbBlockBegin
2
*PAPER_SPACE
0
ENDBLK
5
1D
100
AcDbEntity
100
AcDbBlockEnd
0
ENDSEC
0
SECTION
2
ENTITIES
0
LINE
5
100
100
AcDbEntity
8
0
100
AcDbLine
10
11.300028067844163
20
-72.559999999999988
30
0
11
53.56598271959372
21
-72.559999999999988
31
0
0
ARC
5
101
100
AcDbEntity
8
0
100
AcDbCircle
10
53.565982719593734
20
-117.55999999999999
30
0
40
45.000000000000007
210
-1.144194881948754e-32
220
4.5837638621971384e-33
230
1
100
AcDbArc
50
68.168446698148927
51
90.000000000000014
0
ARC
5
102
100
AcDbEntity
8
0
100
AcDbCircle
10
82.795680350428142
20
-44.597099999999998
30
0
40
33.600000000000023
210
-1.1441948819487535e-32
220
4.583763862197137e-33
230
1
100
AcDbArc
50
-111.83155330185106
51
77.004857649921988
0
SPLINE
5
103
100
AcDbEntity
8
0
100
AcDbSpline
70
0
71
3
72
10
73
6
74
0
42
0.000000001
43
0.0000000001
44
0.0000000001
40
0
40
0
40
0
40
0
40
1.1856420919746888
40
1.1856420919746888
40
2.3712841839493777
40
2.3712841839493777
40
2.3712841839493777
40
2.3712841839493777
10
69.697877203221438
20
-0.84386996740636877
30
0
10
72.581512966068701
20
-3.5464720080591672
30
0
10
75.808659242643557
20
-5.8574510107650557
30
0
10
82.783218316445058
20
-9.5767490275556959
30
0
10
86.500337518728742
20
-10.968913485287771
30
0
10
90.351260085871004
20
-11.857625128503251
30
0
0
LINE
5
104
100
AcDbEntity
8
0
100
AcDbLine
10
69.697877203221438
20
-0.84386996740636877
30
0
11
69.326875657074496
21
-0.49615977854671867
31
0
0
SPLINE
5
105
100
AcDbEntity
8
0
100
AcDbSpline
70
0
71
3
72
14
73
10
74
0
42
0.000000001
43
0.0000000001
44
0.0000000001
40
-4.7705518386620351
40
-4.7705518386620351
40
-4.7705518386620351
40
-4.7705518386620351
40
-4.0534984521691646
40
-4.0534984521691646
40
-4.0534984521691646
40
-3.9386916654199622
40
-3.9386916654199622
40
-3.9386916654199622
40
-3.9386250532518656
40
-3.9386250532518656
40
-3.9386250532518656
40
-3.9386250532518656
10
69.326875657074552
20
-0.49615977854675802
30
0
10
68.288578797252825
20
0.47695313963500968
30
0
10
67.195193870172886
20
1.4318572827392206
30
0
10
66.004356131011704
20
2.3278369872443081
30
0
10
65.813758722904538
20
2.4712414190819949
30
0
10
65.621805708949722
20
2.612273304436842
30
0
10
65.428325313139041
20
2.7508822842746139
30
0
10
65.428213053672394
20
2.7509627067385294
30
0
10
65.428100793691897
20
2.7510431283866237
30
0
10
65.427988533197535
20
2.7511235492188755
30
0
0
SPLINE
5
106
100
AcDbEntity
8
0
100
AcDbSpline
70
0
71
3
72
20
73
16
74
0
42
0.000000001
43
0.0000000001
44
0.0000000001
40
1.7303498208011119
40
1.7303498208011119
40
1.7303498208011119
40
1.7303498208011119
40
1.730459659035011
40
1.730459659035011
40
1.730459659035011
40
1.8189860059019214
40
1.8189860059019214
40
1.8189860059019214
40
2.3763988224688291
40
2.3763988224688291
40
2.3763988224688291
40
3.9384555882072001
40
3.9384555882072001
40
3.9384555882072001
40
3.9385228480714543
40
3.9385228480714543
40
3.9385228480714543
40
3.9385228480714543
10
51.858668334413984
20
7.7728884797443021
30
0
10
51.858933979751285
20
7.7728547713041509
30
0
10
51.859199623252707
20
7.7728210608790302
30
0
10
51.859465264918505
20
7.7727873484688095
30
0
10
52.07356453995488
20
7.745616149378721
30
0
10
52.286471241566879
20
7.717155484243956
30
0
10
52.498288827986997
20
7.687345476347871
30
0
10
53.829533040440637
20
7.499993702798009
30
0
10
55.11291857496677
20
7.2572215460626763
30
0
10
56.361790447202964
20
6.9409026314384361
30
0
10
59.845488804400439
20
6.0585385493218125
30
0
10
62.807969430872191
20
4.6270028452198186
30
0
10
65.42765013634704
20
2.75136583821598
30
0
10
65.427762935940819
20
2.7512850760482737
30
0
10
65.427875734890961
20
2.7512043130492438
30
0
10
65.427988533197521
20
2.7511235492188835
30
0
0
SPLINE
5
107
100
AcDbEntity
8
0
100
AcDbSpline
70
0
71
3
72
20
73
16
74
0
42
0.000000001
43
0.0000000001
44
0.0000000001
40
-1.7301696547423531
40
-1.7301696547423531
40
-1.7301696547423531
40
-1.7301696547423531
40
-1.7300596015961385
40
-1.7300596015961385
40
-1.7300596015961385
40
-0.8650277849825927
40
-0.8650277849825927
40
-0.8650277849825927
40
-0.43251187667581986
40
-0.43251187667581986
40
-0.43251187667581986
40
-0.13303165313314325
40
-0.13303165313314325
40
-0.13303165313314325
40
4.0316309529972052e-06
40
4.0316309529972052e-06
40
4.0316309529972052e-06
40
4.0316309529972052e-06
10
51.858668334400583
20
7.7728884797460012
30
0
10
51.858402382889238
20
7.7729220912798098
30
0
10
51.858136429380366
20
7.7729557007685184
30
0
10
51.857870473873703
20
7.7729893082122716
30
0
10
49.767426147825873
20
8.0371481180379707
30
0
10
47.555032751748108
20
8.1758677002229092
30
0
10
45.144210610444581
20
8.2515342909711755
30
0
10
43.938799539792811
20
8.2893675863453087
30
0
10
42.68353397225296
20
8.3112485214328515
30
0
10
41.368225919517414
20
8.3240556313054892
30
0
10
40.457487742966151
20
8.3329234580233749
30
0
10
39.517960895899471
20
8.3374291095482072
30
0
10
38.546294613905886
20
8.3397541459750997
30
0
10
38.114659136751314
20
8.3407869781584534
30
0
10
37.675528610521141
20
8.3413895892973322
30
0
10
37.232073041895724
20
8.3417471609070528
30
0
0
LINE
5
108
100
AcDbEntity
8
0
100
AcDbLine
10
37.23162956343733
20
8.3417481361511836
30
0
11
27.639777393447655
21
8.3417481733795853
31
0
0
SPLINE
5
109
100
AcDbEntity
8
0
100
AcDbSpline
70
0
71
3
72
17
73
13
74
0
42
0.000000001
43
0.0000000001
44
0.0000000001
40
-6.5342711135568061
40
-6.5342711135568061
40
-6.5342711135568061
40
-6.5342711135568061
40
-6.4665971571908063
40
-6.4665971571908063
40
-6.4665971571908063
40
-5.4764023525755814
40
-5.4764023525755814
40
-5.4764023525755814
40
-5.411950429021207
40
-5.411950429021207
40
-5.411950429021207
40
-5.4119148144366376
40
-5.4119148144366376
40
-5.4119148144366376
40
-5.4119148144366376
10
27.639333932108748
20
8.3417471982159856
30
0
10
27.327280149128491
20
8.3414955922325298
30
0
10
27.01719431538606
20
8.3411249069490054
30
0
10
26.711324275956812
20
8.3405743419168523
30
0
10
22.235881429194816
20
8.3325185599925184
30
0
10
18.493192348298773
20
8.289444781505555
30
0
10
15.111289236776637
20
7.9958823638766185
30
0
10
14.891367906117079
20
7.9767923322028444
30
0
10
14.672602245837412
20
7.9566113993901961
30
0
10
14.454939956216537
20
7.9352626333226937
30
0
10
14.454819681264389
20
7.9352508365074463
30
0
10
14.454699406649198
20
7.9352390393355767
30
0
10
14.454579132370942
20
7.9352272418070759
30
0
0
SPLINE
5
110
100
AcDbEntity
8
0
100
AcDbSpline
70
0
71
3
72
20
73
16
74
0
42
0.000000001
43
0.0000000001
44
0.0000000001
40
3.075891736499563
40
3.075891736499563
40
3.075891736499563
40
3.075891736499563
40
3.0759743899562899
40
3.0759743899562899
40
3.0759743899562899
40
3.7125179978864269
40
3.7125179978864269
40
3.7125179978864269
40
4.5066097339452513
40
4.5066097339452513
40
4.5066097339452513
40
4.5361640777092616
40
4.5361640777092616
40
4.5361640777092616
40
4.5361904209600503
40
4.5361904209600503
40
4.5361904209600503
40
4.5361904209600503
10
-2.2128838352981663
20
1.4798125030167755
30
0
10
-2.2126497369072164
20
1.4800039777851082
30
0
10
-2.2124156342289152
20
1.4801954511031437
30
0
10
-2.2121815272628993
20
1.4803869229704487
30
0
10
-0.40924068618047482
20
2.9549797356371368
30
0
10
1.6449843710926975
20
4.3428360497436884
30
0
10
4.1127462514925446
20
5.4362678500177388
30
0
10
7.1949091620755734
20
6.8019324089948192
30
0
10
10.468448532952607
20
7.5155531840226795
30
0
10
14.051198253482406
20
7.8940986608480106
30
0
10
14.184994967287912
20
7.9082353281499262
30
0
10
14.319328376991693
20
7.9219285693036534
30
0
10
14.454218428487192
20
7.9351917763714042
30
0
10
14.45433866267286
20
7.9352035985249545
30
0
10
14.454458897300757
20
7.9352154203368404
30
0
10
14.454579132370924
20
7.9352272418070768
30
0
0
SPLINE
5
111
100
AcDbEntity
8
0
100
AcDbSpline
70
0
71
3
72
11
73
7
74
0
42
0.000000001
43
0.0000000001
44
0.0000000001
40
-3.4771178102886875
40
-3.4771178102886875
40
-3.4771178102886875
40
-3.4771178102886875
40
-3.4770123211498949
40
-3.4770123211498949
40
-3.4770123211498949
40
-3.1278639434193938
40
-3.1278639434193938
40
-3.1278639434193938
40
-3.1278639434193938
10
-2.2128838352982223
20
1.4798125030167291
30
0
10
-2.2131177158444313
20
1.4796209899812212
30
0
10
-2.2133515934070465
20
1.4794294744864067
30
0
10
-2.2135854679865257
20
1.4792379565325171
30
0
10
-2.9876644959536476
20
0.84535105905514174
30
0
10
-3.7289133273140251
20
0.1847940003243933
30
0
10
-4.4545030699947032
20
-0.49521144053427496
30
0
0
LINE
5
112
100
AcDbEntity
8
0
100
AcDbLine
10
-4.8255636190636162
20
-0.84296055744248344
30
0
11
-4.4545030699947032
21
-0.49521144053427507
31
0
0
SPLINE
5
113
100
AcDbEntity
8
0
100
AcDbSpline
70
0
71
3
72
10
73
6
74
0
42
0.000000001
43
0.0000000001
44
0.0000000001
40
0
40
0
40
0
40
0
40
1.1857977330999523
40
1.1857977330999523
40
2.371595466199905
40
2.371595466199905
40
2.371595466199905
40
2.371595466199905
10
-25.482225295068247
20
-11.856927399448958
30
0
10
-21.630715131275153
20
-10.968454833356823
30
0
10
-17.912999150857772
20
-9.5763854139113125
30
0
10
-10.937309053499398
20
-5.8570032292446577
30
0
10
-7.7096414078855311
20
-3.5458496322149036
30
0
10
-4.8255636190636375
20
-0.84296055744249254
30
0
0
ARC
5
114
100
AcDbEntity
8
0
100
AcDbCircle
10
-17.929669562990558
20
-44.597099999999998
30
0
40
33.600000000000179
210
0
220
0
230
1
100
AcDbArc
50
102.98985024370221
51
291.83155330185122
0
ARC
5
115
100
AcDbEntity
8
0
100
AcDbCircle
10
11.300028067844172
20
-117.56000000000002
30
0
40
45.000000000000028
210
0
220
0
230
1
100
AcDbArc
50
90.000000000000014
51
111.83155330185127
0
CIRCLE
5
116
100
AcDbEntity
8
0
100
AcDbCircle
10
-0.34317995721100358
20
-12.622705038277637
30
0
40
2.2499999999999991
210
-1.0542384043522331e-47
220
-2.4651903288156619e-32
230
1
0
CIRCLE
5
117
100
AcDbEntity
8
0
100
AcDbCircle
10
99.638786433790784
20
-61.765062559794551
30
0
40
2.2500000000000036
210
-1.1937153395629904e-47
220
6.41743271532804e-79
230
1
0
CIRCLE
5
118
100
AcDbEntity
8
0
100
AcDbCircle
10
-34.767425732934456
20
-61.765062559794515
30
0
40
2.2500000000000036
210
-1.0185530315223886e-47
220
4.672260685521818e-79
230
1
0
CIRCLE
5
119
100
AcDbEntity
8
0
100
AcDbCircle
10
65.214540658067364
20
-12.622705038277655
30
0
40
2.2500000000000036
210
-1.054238404352233e-47
220
5.0053844523103345e-79
230
1
0
ENDSEC
0
SECTION
2
OBJECTS
0
DICTIONARY
5
C
100
AcDbDictionary
3
ACAD_GROUP
350
D
3
ACAD_MLINESTYLE
350
17
0
DICTIONARY
5
D
100
AcDbDictionary
0
DICTIONARY
5
1A
330
C
100
AcDbDictionary
0
DICTIONARY
5
17
100
AcDbDictionary
0
ENDSEC
0
EOF
