0
SECTION
2
HEADER
9
$INSUNITS
70
4
9
$ACADVER
1
AC1014
9
$HANDSEED
5
FFFF
0
ENDSEC
0
SECTION
2
TABLES
0
TABLE
2
VPORT
5
8
100
AcDbSymbolTable
0
ENDTAB
0
TABLE
2
LTYPE
5
5
100
AcDbSymbolTable
0
LTYPE
5
14
100
AcDbSymbolTableRecord
100
AcDbLinetypeTableRecord
2
BYBLOCK
70
0
0
LTYPE
5
15
100
AcDbSymbolTableRecord
100
AcDbLinetypeTableRecord
2
BYLAYER
70
0
0
ENDTAB
0
TABLE
2
LAYER
5
2
100
AcDbSymbolTable
70
2
0
LAYER
5
50
100
AcDbSymbolTableRecord
100
AcDbLayerTableRecord
2
0
70
0
6
CONTINUOUS
0
ENDTAB
0
TABLE
2
STYLE
5
3
100
AcDbSymbolTable
70
1
0
STYLE
5
11
100
AcDbSymbolTableRecord
100
AcDbTextStyleTableRecord
2
STANDARD
70
0
0
ENDTAB
0
TABLE
2
VIEW
5
6
100
AcDbSymbolTable
70
0
0
ENDTAB
0
TABLE
2
UCS
5
7
100
AcDbSymbolTable
70
0
0
ENDTAB
0
TABLE
2
APPID
5
9
100
AcDbSymbolTable
70
2
0
APPID
5
12
100
AcDbSymbolTableRecord
100
AcDbRegAppTableRecord
2
ACAD
70
0
0
ENDTAB
0
TABLE
2
DIMSTYLE
5
A
100
AcDbSymbolTable
70
1
0
ENDTAB
0
TABLE
2
BLOCK_RECORD
5
1
100
AcDbSymbolTable
70
1
0
BLOCK_RECORD
5
1F
100
AcDbSymbolTableRecord
100
AcDbBlockTableRecord
2
*MODEL_SPACE
0
BLOCK_RECORD
5
1B
100
AcDbSymbolTableRecord
100
AcDbBlockTableRecord
2
*PAPER_SPACE
0
ENDTAB
0
ENDSEC
0
SECTION
2
BLOCKS
0
BLOCK
5
20
100
AcDbEntity
100
AcDbBlockBegin
2
*MODEL_SPACE
0
ENDBLK
5
21
100
AcDbEntity
100
AcDbBlockEnd
0
BLOCK
5
1C
100
AcDbEntity
100
AcDbBlockBegin
2
*PAPER_SPACE
0
ENDBLK
5
1D
100
AcDbEntity
100
AcDbBlockEnd
0
ENDSEC
0
SECTION
2
ENTITIES
0
LWPOLYLINE
5
100
100
AcDbEntity
8
0
100
AcDbPolyline
90
10
70
1
43
0.0
10
2.6387256433507766
20
-35.476183454183115
42
0.6504680272799469
10
-38.498064769331876
20
-35.476183454183136
42
0.29994337197476822
10
-38.135549549140968
20
-37.647618812749172
42
-0.23651156343585461
10
-37.132282069719977
20
-41.088040684970039
42
0.27935007899228786
10
-29.927618158792523
20
-59.995250988105433
10
-29.927618158792527
20
-70.476202176597297
10
-6.1503200024641034
20
-70.476202176597297
10
-6.1503200024641114
20
-60.163112600885441
42
0.28315911767751079
10
1.2729429437388746
20
-41.088040684970018
42
-0.23651156343585203
10
2.276210423159855
20
-37.647618812749151
42
0.29994337197476956
0
LWPOLYLINE
5
101
100
AcDbEntity
8
0
100
AcDbPolyline
90
10
70
1
43
0.0
10
103.00156033657856
20
-37.647618812749158
42
0.23651156343584961
10
101.99829285715759
20
-41.088040684970046
42
-0.2831591176775109
10
94.575029910954584
20
-60.163112600885484
10
94.575029910954555
20
-70.476202176597326
10
70.79773175462617
20
-70.476202176597326
10
70.79773175462617
20
-59.995250988105447
42
-0.27935007899228786
10
63.593067843698719
20
-41.088040684970039
42
0.23651156343585264
10
62.589800364277757
20
-37.647618812749165
42
-0.29994337197476784
10
62.227285144086835
20
-35.476183454183136
42
-0.6504680272799469
10
103.36407555676948
20
-35.476183454183136
42
-0.29994337197476889
0
CIRCLE
5
102
100
AcDbEntity
8
0
100
AcDbCircle
10
65.214540658067349
20
-12.622705038277658
30
0
40
2.2500000000000036
210
2.4651903288156619e-32
220
-2.6988026734670139e-79
230
1
0
CIRCLE
5
103
100
AcDbEntity
8
0
100
AcDbCircle
10
-0.34317995721102612
20
-12.62270503827764
30
0
40
2.2499999999999991
210
2.4651903288156619e-32
220
-1.349401336733507e-79
230
1
0
CIRCLE
5
104
100
AcDbEntity
8
0
100
AcDbCircle
10
99.63878643379077
20
-61.765062559794551
30
0
40
2.2500000000000036
210
2.4651903288156619e-32
220
1.4497541427855543e-67
230
1
0
CIRCLE
5
105
100
AcDbEntity
8
0
100
AcDbCircle
10
-34.767425732934484
20
-61.765062559794515
30
1.7763568394002505e-14
40
2.2500000000000036
210
2.4651903288156619e-32
220
1.4497541427855543e-67
230
1
0
LWPOLYLINE
5
106
100
AcDbEntity
8
0
100
AcDbPolyline
90
4
70
1
43
0.0
10
8.2356476395650269
20
-35.898586662298115
10
8.235647639565034
20
-1.4379168910891016
10
56.635713061291291
20
-1.4379168910891105
10
56.635713061291284
20
-35.898586662298122
0
CIRCLE
5
107
100
AcDbEntity
8
0
100
AcDbCircle
10
48.933030350428162
20
-52.829516622369333
30
1.7763568394002505e-14
40
3.2500000000000018
210
1.8251297263093871e-33
220
-3.9025827497153791e-49
230
1
0
LWPOLYLINE
5
108
100
AcDbEntity
8
0
100
AcDbPolyline
90
16
70
1
43
0.0
10
53.662874100428155
20
-41.557415116224846
42
5.3739228984112311
10
53.662874100428155
20
-39.219288437162376
42
0.68622149469386751
10
47.59796160042815
20
-39.219288437162362
42
0.68622149469386651
10
41.533049100428144
20
-39.219288437162369
42
0.68622149469386684
10
35.46813660042816
20
-39.219288437162369
42
0.68622149469386684
10
29.403224100428158
20
-39.219288437162362
42
0.68622149469386617
10
23.338311600428156
20
-39.219288437162362
42
0.68622149469386651
10
17.273399100428154
20
-39.219288437162348
42
0.68622149469386617
10
11.208486600428156
20
-39.219288437162362
42
5.373922898411184
10
11.208486600428154
20
-41.557415116224846
42
0.68622149469386529
10
17.273399100428154
20
-41.557415116224846
42
0.68622149469386551
10
23.338311600428156
20
-41.557415116224846
42
0.68622149469386651
10
29.403224100428158
20
-41.55741511622486
42
0.68622149469386651
10
35.46813660042816
20
-41.557415116224846
42
0.68622149469386684
10
41.533049100428144
20
-41.557415116224846
42
0.68622149469386551
10
47.59796160042815
20
-41.557415116224867
42
0.68622149469386551
0
CIRCLE
5
109
100
AcDbEntity
8
0
100
AcDbCircle
10
15.676030350428151
20
-52.829516622369333
30
0
40
3.2499999999999996
210
1.8251297263093871e-33
220
-3.9025827497153791e-49
230
1
0
CIRCLE
5
110
100
AcDbEntity
8
0
100
AcDbCircle
10
26.761697017094818
20
-52.829516622369333
30
0
40
3.2500000000000018
210
1.8251297263093871e-33
220
-3.9025827497153791e-49
230
1
0
CIRCLE
5
111
100
AcDbEntity
8
0
100
AcDbCircle
10
37.847363683761486
20
-52.829516622369333
30
0
40
3.2500000000000018
210
1.8251297263093871e-33
220
-3.9025827497153791e-49
230
1
0
ARC
5
112
100
AcDbEntity
8
0
100
AcDbCircle
10
-17.929669562990547
20
-44.597099999999976
30
1.7763568394002505e-14
40
30.500000000000036
210
0
220
0
230
1
100
AcDbArc
50
103.35615396798811
51
291.56925112767539
0
ARC
5
113
100
AcDbEntity
8
0
100
AcDbCircle
10
11.664184589350047
20
-119.46000000000039
30
-1.7763568394002501e-14
40
50.000000000000412
210
0
220
0
230
1
100
AcDbArc
50
90.000000000000128
51
111.56925112767519
0
LINE
5
114
100
AcDbEntity
8
0
100
AcDbLine
10
11.664184589349944
20
-69.45999999999998
30
-1.7763568394002501e-14
11
53.201826198087652
21
-69.459999999999994
31
4.3790577010150526e-46
0
ARC
5
115
100
AcDbEntity
8
0
100
AcDbCircle
10
53.201826198087574
20
-119.46000000000035
30
-1.9048900999415482e-44
40
50.000000000000355
210
1.8251297263093389e-33
220
-2.4651903288156816e-32
230
1
100
AcDbArc
50
68.430748872324756
51
89.999999999999915
0
ARC
5
116
100
AcDbEntity
8
0
100
AcDbCircle
10
82.795680350428157
20
-44.597099999999983
30
0
40
30.500000000000025
210
-1.7351118084143505e-32
220
4.6089214736962466e-32
230
1
100
AcDbArc
50
-111.5692511276753
51
76.638604110088096
0
SPLINE
5
117
100
AcDbEntity
8
0
100
AcDbSpline
70
0
71
3
72
10
73
6
74
0
42
0.000000001
43
0.0000000001
44
0.0000000001
40
0
40
0
40
0
40
0
40
1.3013311634196612
40
1.3013311634196612
40
2.6026623268392632
40
2.6026623268392632
40
2.6026623268392632
40
2.6026623268392632
10
89.843999309262941
20
-14.922680041818332
30
0
10
85.623644396914941
20
-13.920254128063871
30
0
10
81.551624779102013
20
-12.372868706342533
30
0
10
73.90960933372989
20
-8.2662139694945438
30
0
10
70.37200149456352
20
-5.7243492627331838
30
0
10
67.206994864363281
20
-2.758040726937705
30
0
0
SPLINE
5
118
100
AcDbEntity
8
0
100
AcDbSpline
70
0
71
3
72
12
73
8
74
0
42
0.000000001
43
0.0000000001
44
0.0000000001
40
-6.5314205117055621
40
-6.5314205117055621
40
-6.5314205117055621
40
-6.5314205117055621
40
-5.4740846072847225
40
-5.4740846072847225
40
-4.4018631054588342
40
-4.4018631054588342
40
-3.1264635708046602
40
-3.1264635708046602
40
-3.1264635708046602
40
-3.1264635708046602
10
37.229613735427108
20
5.2417481361592833
30
0
10
42.107302081571532
20
5.2378151083882285
30
1.7763568394002505e-14
10
46.06385392186327
20
5.2050541322378363
30
1.7763568394002505e-14
10
52.967806058329352
20
4.6057986528891659
30
0
10
56.002811202099892
20
4.0289377462442344
30
0
10
62.153663692489822
20
1.5448569858307915
30
0
10
64.693860124945232
20
-0.40267977508150465
30
0
10
67.20699486436331
20
-2.758040726937705
30
0
0
LINE
5
119
100
AcDbEntity
8
0
100
AcDbLine
10
37.229613735427108
20
5.2417481361592833
30
0
11
27.641793116981987
21
5.2417481733717741
31
0
0
SPLINE
5
120
100
AcDbEntity
8
0
100
AcDbSpline
70
0
71
3
72
12
73
8
74
0
42
0.000000001
43
0.0000000001
44
0.0000000001
40
-4.7703254171555773
40
-4.7703254171555773
40
-4.7703254171555773
40
-4.7703254171555773
40
-4.0535301703103404
40
-4.0535301703103404
40
-2.3764277751697658
40
-2.3764277751697658
40
0
40
0
40
0
40
0
10
-2.3346754051475611
20
-2.7571421802671781
30
0
10
-1.3512382769490785
20
-1.8354883053836479
30
0
10
-0.34213359275557159
20
-0.95658940763111644
30
0
10
3.2407922226440022
20
1.7392115760034743
30
0
10
5.8863605842873739
20
3.078577585372817
30
0
10
14.065966959332894
20
5.1503815803419828
30
0
10
19.720369774625667
20
5.2353612041340947
30
0
10
27.641793116981983
20
5.2417481733717741
30
0
0
SPLINE
5
121
100
AcDbEntity
8
0
100
AcDbSpline
70
0
71
3
72
10
73
6
74
0
42
0.000000001
43
0.0000000001
44
0.0000000001
40
0
40
0
40
0
40
0
40
1.3015018811839343
40
1.3015018811839343
40
2.6030037623678677
40
2.6030037623678677
40
2.6030037623678677
40
2.6030037623678677
10
-2.334675405147566
20
-2.7571421802671869
30
0
10
-5.5001669243627394
20
-5.723765506701981
30
0
10
-9.0383456837973917
20
-8.2658232267453755
30
0
10
-16.681599765987432
20
-12.372577311392533
30
0
10
-20.754273342094891
20
-13.919864074802209
30
0
10
-24.975273615356425
20
-14.922035323789228
30
0
0
ENDSEC
0
SECTION
2
OBJECTS
0
DICTIONARY
5
C
100
AcDbDictionary
3
ACAD_GROUP
350
D
3
ACAD_MLINESTYLE
350
17
0
DICTIONARY
5
D
100
AcDbDictionary
0
DICTIONARY
5
1A
330
C
100
AcDbDictionary
0
DICTIONARY
5
17
100
AcDbDictionary
0
ENDSEC
0
EOF
