%TF.GenerationSoftware,KiCad,Pcbnew,8.0.1*%
%TF.CreationDate,2024-04-10T11:02:20-04:00*%
%TF.ProjectId,Baja Dashboard Schematic Part 2,42616a61-2044-4617-9368-626f61726420,rev?*%
%TF.SameCoordinates,Original*%
%TF.FileFunction,Soldermask,Bot*%
%TF.FilePolarity,Negative*%
%FSLAX46Y46*%
G04 Gerber Fmt 4.6, Leading zero omitted, Abs format (unit mm)*
G04 Created by KiCad (PCBNEW 8.0.1) date 2024-04-10 11:02:20*
%MOMM*%
%LPD*%
G01*
G04 APERTURE LIST*
%ADD10O,1.750000X3.000000*%
%ADD11C,1.400000*%
%ADD12O,1.400000X1.400000*%
%ADD13R,1.700000X1.700000*%
%ADD14O,1.700000X1.700000*%
%ADD15R,4.000000X1.750000*%
%ADD16C,1.600000*%
%ADD17O,1.600000X1.600000*%
%ADD18C,4.300000*%
%ADD19R,3.000000X2.000000*%
%ADD20R,1.700000X3.000000*%
G04 APERTURE END LIST*
D10*
%TO.C,D4*%
X162250000Y-111500000D03*
X164790000Y-111500000D03*
%TD*%
%TO.C,D2*%
X150000000Y-111500000D03*
X152540000Y-111500000D03*
%TD*%
D11*
%TO.C,R10*%
X125000000Y-127620000D03*
D12*
X125000000Y-120000000D03*
%TD*%
D13*
%TO.C,J1*%
X203250000Y-87750000D03*
D14*
X203250000Y-90290000D03*
X203250000Y-92830000D03*
X203250000Y-95370000D03*
%TD*%
D15*
%TO.C,U8*%
X192500000Y-89000000D03*
X192500000Y-91540000D03*
X192500000Y-94080000D03*
%TD*%
D10*
%TO.C,D1*%
X144000000Y-111500000D03*
X146540000Y-111500000D03*
%TD*%
D16*
%TO.C,R5*%
X122000000Y-127810000D03*
D17*
X122000000Y-120190000D03*
%TD*%
D10*
%TO.C,D6*%
X174250000Y-111500000D03*
X176790000Y-111500000D03*
%TD*%
%TO.C,D13*%
X166500000Y-123750000D03*
X169040000Y-123750000D03*
%TD*%
%TO.C,D9*%
X131750000Y-111500000D03*
X134290000Y-111500000D03*
%TD*%
D11*
%TO.C,R2*%
X115190000Y-94650000D03*
D12*
X122810000Y-94650000D03*
%TD*%
D10*
%TO.C,U5*%
X168410000Y-74520000D03*
X165870000Y-74520000D03*
X163330000Y-74520000D03*
X160790000Y-74520000D03*
X158250000Y-74520000D03*
X158250000Y-105000000D03*
X160790000Y-105000000D03*
X163330000Y-105000000D03*
X165870000Y-105000000D03*
X168410000Y-105000000D03*
%TD*%
%TO.C,D3*%
X156000000Y-111500000D03*
X158540000Y-111500000D03*
%TD*%
D11*
%TO.C,R3*%
X115190000Y-97800000D03*
D12*
X122810000Y-97800000D03*
%TD*%
D18*
%TO.C,H1*%
X184000000Y-83500000D03*
%TD*%
D11*
%TO.C,R1*%
X115190000Y-91500000D03*
D12*
X122810000Y-91500000D03*
%TD*%
D10*
%TO.C,D12*%
X155750000Y-123750000D03*
X158290000Y-123750000D03*
%TD*%
%TO.C,D11*%
X144210000Y-123750000D03*
X146750000Y-123750000D03*
%TD*%
D11*
%TO.C,R4*%
X115190000Y-100950000D03*
D12*
X122810000Y-100950000D03*
%TD*%
D10*
%TO.C,D8*%
X138000000Y-111500000D03*
X140540000Y-111500000D03*
%TD*%
%TO.C,D7*%
X133210000Y-123750000D03*
X135750000Y-123750000D03*
%TD*%
%TO.C,U6*%
X144410000Y-74770000D03*
X141870000Y-74770000D03*
X139330000Y-74770000D03*
X136790000Y-74770000D03*
X134250000Y-74770000D03*
X134250000Y-105250000D03*
X136790000Y-105250000D03*
X139330000Y-105250000D03*
X141870000Y-105250000D03*
X144410000Y-105250000D03*
%TD*%
D11*
%TO.C,R6*%
X115190000Y-104100000D03*
D12*
X122810000Y-104100000D03*
%TD*%
D10*
%TO.C,U8_Left1*%
X93260000Y-139000000D03*
X95800000Y-139000000D03*
X98340000Y-139000000D03*
X100880000Y-139000000D03*
X103420000Y-139000000D03*
X105960000Y-139000000D03*
X108500000Y-139000000D03*
%TD*%
D11*
%TO.C,R9*%
X128000000Y-127620000D03*
D12*
X128000000Y-120000000D03*
%TD*%
D18*
%TO.C,H3*%
X83997200Y-132764800D03*
%TD*%
D10*
%TO.C,D10*%
X125750000Y-111500000D03*
X128290000Y-111500000D03*
%TD*%
D18*
%TO.C,H4*%
X218500000Y-132750000D03*
%TD*%
D10*
%TO.C,U7_Right1*%
X194000000Y-139000000D03*
X196540000Y-139000000D03*
X199080000Y-139000000D03*
X201620000Y-139000000D03*
X204160000Y-139000000D03*
X206700000Y-139000000D03*
X209240000Y-139000000D03*
%TD*%
D11*
%TO.C,R7*%
X132190000Y-131000000D03*
D12*
X139810000Y-131000000D03*
%TD*%
D18*
%TO.C,H2*%
X118500000Y-83452300D03*
%TD*%
D10*
%TO.C,D5*%
X168250000Y-111500000D03*
X170790000Y-111500000D03*
%TD*%
D11*
%TO.C,R8*%
X122190000Y-131000000D03*
D12*
X129810000Y-131000000D03*
%TD*%
D19*
%TO.C,U2*%
X97250000Y-111340000D03*
X97250000Y-113880000D03*
X97250000Y-116420000D03*
X97250000Y-118960000D03*
X97250000Y-121500000D03*
X97250000Y-124040000D03*
X97250000Y-126580000D03*
X97250000Y-129120000D03*
X88630000Y-129120000D03*
X88630000Y-126580000D03*
X88630000Y-124040000D03*
X88630000Y-121500000D03*
X88630000Y-118960000D03*
X88630000Y-116420000D03*
X88630000Y-113880000D03*
X88630000Y-111340000D03*
%TD*%
D20*
%TO.C,U4*%
X215060000Y-126750000D03*
X212520000Y-126750000D03*
X209980000Y-126750000D03*
X207440000Y-126750000D03*
X204900000Y-126750000D03*
X202360000Y-126750000D03*
X199820000Y-126750000D03*
X197280000Y-126750000D03*
X194740000Y-126750000D03*
X192200000Y-126750000D03*
X189660000Y-126750000D03*
X187120000Y-126750000D03*
X184580000Y-126750000D03*
X182040000Y-126750000D03*
X179500000Y-126750000D03*
X179500000Y-100350000D03*
X182040000Y-100350000D03*
X184580000Y-100350000D03*
X187120000Y-100350000D03*
X189660000Y-100350000D03*
X192200000Y-100350000D03*
X194740000Y-100350000D03*
X197280000Y-100350000D03*
X199820000Y-100350000D03*
X202360000Y-100350000D03*
X204900000Y-100350000D03*
X207440000Y-100350000D03*
X209980000Y-100350000D03*
X212520000Y-100350000D03*
X215060000Y-100350000D03*
%TD*%
D10*
%TO.C,U7*%
X157750000Y-99750000D03*
X155210000Y-99750000D03*
X152670000Y-99750000D03*
X150130000Y-99750000D03*
X147590000Y-99750000D03*
X145050000Y-99750000D03*
X142510000Y-99750000D03*
%TD*%
D19*
%TO.C,U3*%
X108250000Y-86960000D03*
X108250000Y-89500000D03*
X108250000Y-92040000D03*
X108250000Y-94580000D03*
X108250000Y-97120000D03*
X108250000Y-99660000D03*
X108250000Y-102200000D03*
X108250000Y-104740000D03*
X99630000Y-104740000D03*
X99630000Y-102200000D03*
X99630000Y-99660000D03*
X99630000Y-97120000D03*
X99630000Y-94580000D03*
X99630000Y-92040000D03*
X99630000Y-89500000D03*
X99630000Y-86960000D03*
%TD*%
%TO.C,U1*%
X115500000Y-111340000D03*
X115500000Y-113880000D03*
X115500000Y-116420000D03*
X115500000Y-118960000D03*
X115500000Y-121500000D03*
X115500000Y-124040000D03*
X115500000Y-126580000D03*
X115500000Y-129120000D03*
X106880000Y-129120000D03*
X106880000Y-126580000D03*
X106880000Y-124040000D03*
X106880000Y-121500000D03*
X106880000Y-118960000D03*
X106880000Y-116420000D03*
X106880000Y-113880000D03*
X106880000Y-111340000D03*
%TD*%
M02*
