M48
; DRILL file {KiCad 8.0.1} date 2024-04-15T10:29:28-0400
; FORMAT={-:-/ absolute / inch / decimal}
; #@! TF.CreationDate,2024-04-15T10:29:28-04:00
; #@! TF.GenerationSoftware,Kicad,Pcbnew,8.0.1
; #@! TF.FileFunction,Plated,1,2,PTH
FMAT,2
INCH
; #@! TA.AperFunction,Plated,PTH,ViaDrill
T1C0.0197
; #@! TA.AperFunction,Plated,PTH,ComponentDrill
T2C0.0300
; #@! TA.AperFunction,Plated,PTH,ComponentDrill
T3C0.0394
; #@! TA.AperFunction,Plated,PTH,ComponentDrill
T4C0.0433
%
G90
G05
T1
X3.5347Y-4.2405
X3.5981Y-3.4226
X3.6466Y-5.0052
X3.6569Y-4.9569
X3.7872Y-3.2779
X4.0844Y-3.6228
X4.0927Y-4.9755
X4.1017Y-4.3728
X4.3005Y-4.748
X4.3181Y-5.1739
X4.3499Y-4.8985
X4.3512Y-3.7823
X4.3665Y-3.7077
X4.3758Y-4.3948
X4.473Y-3.9601
X4.6368Y-4.2865
X4.6973Y-4.7126
X4.7364Y-4.3145
X4.7754Y-5.197
X4.8483Y-4.7895
X4.8576Y-4.5073
X4.8851Y-5.0762
X4.986Y-4.0798
X5.0015Y-4.7066
X5.02Y-4.1601
X5.0898Y-4.2228
X5.1926Y-3.3491
X5.2981Y-5.0835
X5.3672Y-4.0187
X5.4383Y-4.9128
X5.4409Y-4.2265
X5.4414Y-4.5073
X5.4862Y-3.4221
X5.5081Y-3.8668
X5.5854Y-3.2425
X5.6102Y-3.7894
X5.6409Y-4.9825
X5.642Y-5.2501
X5.6946Y-4.6576
X5.8453Y-4.0135
X5.8917Y-3.0166
X6.1824Y-5.0434
X6.2106Y-4.2717
X6.3583Y-3.7992
X6.4496Y-4.2714
X6.5316Y-3.2915
X6.6378Y-3.9764
X6.8222Y-3.3491
X6.8672Y-4.7431
X6.9882Y-4.872
X7.0255Y-4.2166
X7.0337Y-4.7037
X7.1174Y-3.4023
X7.1483Y-4.6576
X7.2835Y-4.7441
X7.4211Y-4.5737
X7.4996Y-4.7832
X7.7417Y-4.0533
X7.7464Y-3.4419
X8.0451Y-4.8406
T2
X3.6717Y-5.4724
X3.7717Y-5.4724
X3.8717Y-5.4724
X3.9717Y-5.4724
X4.0717Y-5.4724
X4.1717Y-5.4724
X4.2717Y-5.4724
X5.6106Y-3.9272
X5.7106Y-3.9272
X5.8106Y-3.9272
X5.9106Y-3.9272
X6.0106Y-3.9272
X6.1106Y-3.9272
X6.2106Y-3.9272
X7.5787Y-3.5039
X7.5787Y-3.6039
X7.5787Y-3.7039
X7.6378Y-5.4724
X7.7378Y-5.4724
X7.8378Y-5.4724
X7.9378Y-5.4724
X8.0378Y-5.4724
X8.1378Y-5.4724
X8.2378Y-5.4724
T3
X3.4055Y-3.8878
X3.4055Y-4.1878
X3.6122Y-3.8878
X3.6122Y-4.1878
X4.5819Y-3.8268
X4.5819Y-4.0453
X4.5866Y-3.6024
X4.8673Y-5.1673
X4.8819Y-3.8268
X4.8819Y-4.0453
X4.8866Y-3.6024
X4.8917Y-4.6654
X4.8917Y-4.9654
X4.9508Y-4.3898
X5.0508Y-4.3898
X5.1673Y-5.1673
X5.187Y-4.3898
X5.2445Y-4.872
X5.2854Y-2.9437
X5.2854Y-4.1437
X5.287Y-4.3898
X5.3445Y-4.872
X5.3854Y-2.9437
X5.3854Y-4.1437
X5.389Y-5.1673
X5.4331Y-4.3898
X5.4854Y-2.9437
X5.4854Y-4.1437
X5.5331Y-4.3898
X5.5854Y-2.9437
X5.5854Y-4.1437
X5.6693Y-4.3898
X5.6776Y-4.872
X5.6854Y-2.9437
X5.6854Y-4.1437
X5.689Y-5.1673
X5.7693Y-4.3898
X5.7776Y-4.872
X5.9055Y-4.3898
X5.95Y-5.1673
X6.0055Y-4.3898
X6.1319Y-4.872
X6.1417Y-4.3898
X6.2303Y-2.9339
X6.2303Y-4.1339
X6.2319Y-4.872
X6.2417Y-4.3898
X6.25Y-5.1673
X6.3303Y-2.9339
X6.3303Y-4.1339
X6.3878Y-4.3898
X6.4303Y-2.9339
X6.4303Y-4.1339
X6.4878Y-4.3898
X6.4913Y-5.1673
X6.5303Y-2.9339
X6.5303Y-4.1339
X6.5551Y-4.872
X6.624Y-4.3898
X6.6303Y-2.9339
X6.6303Y-4.1339
X6.6551Y-4.872
X6.724Y-4.3898
X6.7913Y-5.1673
X6.8602Y-4.3898
X6.9602Y-4.3898
T4
X3.5091Y-4.3835
X3.5091Y-4.4835
X3.5091Y-4.5835
X3.5091Y-4.6835
X3.5091Y-4.7835
X3.5091Y-4.8835
X3.5091Y-4.9835
X3.5091Y-5.0835
X3.8091Y-4.3835
X3.8091Y-4.4835
X3.8091Y-4.5835
X3.8091Y-4.6835
X3.8091Y-4.7835
X3.8091Y-4.8835
X3.8091Y-4.9835
X3.8091Y-5.0835
X3.9421Y-3.4236
X3.9421Y-3.5236
X3.9421Y-3.6236
X3.9421Y-3.7236
X3.9421Y-3.8236
X3.9421Y-3.9236
X3.9421Y-4.0236
X3.9421Y-4.1236
X4.2276Y-4.3835
X4.2276Y-4.4835
X4.2276Y-4.5835
X4.2276Y-4.6835
X4.2276Y-4.7835
X4.2276Y-4.8835
X4.2276Y-4.9835
X4.2276Y-5.0835
X4.2421Y-3.4236
X4.2421Y-3.5236
X4.2421Y-3.6236
X4.2421Y-3.7236
X4.2421Y-3.8236
X4.2421Y-3.9236
X4.2421Y-4.0236
X4.2421Y-4.1236
X4.5276Y-4.3835
X4.5276Y-4.4835
X4.5276Y-4.5835
X4.5276Y-4.6835
X4.5276Y-4.7835
X4.5276Y-4.8835
X4.5276Y-4.9835
X4.5276Y-5.0835
X6.6535Y-3.5
X6.6535Y-3.6
X6.6535Y-3.7
X6.6535Y-3.8
X7.0669Y-3.9705
X7.0669Y-4.9705
X7.1669Y-3.9705
X7.1669Y-4.9705
X7.2669Y-3.9705
X7.2669Y-4.9705
X7.3669Y-3.9705
X7.3669Y-4.9705
X7.4669Y-3.9705
X7.4669Y-4.9705
X7.5669Y-3.9705
X7.5669Y-4.9705
X7.6669Y-3.9705
X7.6669Y-4.9705
X7.7669Y-3.9705
X7.7669Y-4.9705
X7.8669Y-3.9705
X7.8669Y-4.9705
X7.9669Y-3.9705
X7.9669Y-4.9705
X8.0669Y-3.9705
X8.0669Y-4.9705
X8.1669Y-3.9705
X8.1669Y-4.9705
X8.2669Y-3.9705
X8.2669Y-4.9705
X8.3669Y-3.9705
X8.3669Y-4.9705
X8.4669Y-3.9705
X8.4669Y-4.9705
M30
