M48
; DRILL file {KiCad 8.0.1} date 2024-04-10T11:02:09-0400
; FORMAT={-:-/ absolute / inch / decimal}
; #@! TF.CreationDate,2024-04-10T11:02:09-04:00
; #@! TF.GenerationSoftware,Kicad,Pcbnew,8.0.1
; #@! TF.FileFunction,Plated,1,2,PTH
FMAT,2
INCH
; #@! TA.AperFunction,Plated,PTH,ViaDrill
T1C0.0118
; #@! TA.AperFunction,Plated,PTH,ComponentDrill
T2C0.0276
; #@! TA.AperFunction,Plated,PTH,ComponentDrill
T3C0.0300
; #@! TA.AperFunction,Plated,PTH,ComponentDrill
T4C0.0315
; #@! TA.AperFunction,Plated,PTH,ComponentDrill
T5C0.0394
%
G90
G05
T1
X3.8403Y-4.2886
X4.0438Y-3.5236
X4.2102Y-4.2927
X4.2404Y-4.2769
X4.291Y-5.1822
X4.3062Y-3.1879
X4.3829Y-4.1522
X4.4301Y-3.8099
X4.4436Y-4.3495
X4.4822Y-3.8055
X4.4847Y-4.3084
X4.6326Y-4.208
X4.7598Y-4.0266
X4.7773Y-4.1526
X4.8077Y-3.6618
X5.0244Y-4.5864
X5.0712Y-4.8555
X5.0971Y-4.4452
X5.2875Y-4.6314
X5.3119Y-3.3639
X5.3489Y-3.1543
X5.4608Y-3.2684
X5.4952Y-4.8393
X5.5436Y-3.9577
X5.5437Y-3.9942
X5.5484Y-5.1012
X5.6093Y-4.7506
X5.6921Y-3.8404
X6.1995Y-4.2603
X6.2248Y-5.1166
X6.2504Y-5.0913
X6.2617Y-4.6487
X6.3204Y-4.6072
X6.4302Y-4.5051
X6.432Y-4.7923
X6.5959Y-4.2595
X6.636Y-4.0452
X6.772Y-3.436
X7.0155Y-5.2472
T2
X4.535Y-3.6024
X4.535Y-3.7264
X4.535Y-3.8504
X4.535Y-3.9744
X4.535Y-4.0984
X4.8106Y-5.1575
X4.835Y-3.6024
X4.835Y-3.7264
X4.835Y-3.8504
X4.835Y-3.9744
X4.835Y-4.0984
X4.9213Y-4.7244
X4.9213Y-5.0244
X5.0394Y-4.7244
X5.0394Y-5.0244
X5.1106Y-5.1575
X5.2043Y-5.1575
X5.5043Y-5.1575
T3
X3.5091Y-4.3835
X3.5091Y-4.4835
X3.5091Y-4.5835
X3.5091Y-4.6835
X3.5091Y-4.7835
X3.5091Y-4.8835
X3.5091Y-4.9835
X3.5091Y-5.0835
X3.6717Y-5.4724
X3.7717Y-5.4724
X3.8091Y-4.3835
X3.8091Y-4.4835
X3.8091Y-4.5835
X3.8091Y-4.6835
X3.8091Y-4.7835
X3.8091Y-4.8835
X3.8091Y-4.9835
X3.8091Y-5.0835
X3.8717Y-5.4724
X3.9421Y-3.4236
X3.9421Y-3.5236
X3.9421Y-3.6236
X3.9421Y-3.7236
X3.9421Y-3.8236
X3.9421Y-3.9236
X3.9421Y-4.0236
X3.9421Y-4.1236
X3.9717Y-5.4724
X4.0717Y-5.4724
X4.1717Y-5.4724
X4.2276Y-4.3835
X4.2276Y-4.4835
X4.2276Y-4.5835
X4.2276Y-4.6835
X4.2276Y-4.7835
X4.2276Y-4.8835
X4.2276Y-4.9835
X4.2276Y-5.0835
X4.2421Y-3.4236
X4.2421Y-3.5236
X4.2421Y-3.6236
X4.2421Y-3.7236
X4.2421Y-3.8236
X4.2421Y-3.9236
X4.2421Y-4.0236
X4.2421Y-4.1236
X4.2717Y-5.4724
X4.5276Y-4.3835
X4.5276Y-4.4835
X4.5276Y-4.5835
X4.5276Y-4.6835
X4.5276Y-4.7835
X4.5276Y-4.8835
X4.5276Y-4.9835
X4.5276Y-5.0835
X4.9508Y-4.3898
X5.0508Y-4.3898
X5.187Y-4.3898
X5.2445Y-4.872
X5.2854Y-2.9437
X5.2854Y-4.1437
X5.287Y-4.3898
X5.3445Y-4.872
X5.3854Y-2.9437
X5.3854Y-4.1437
X5.4331Y-4.3898
X5.4854Y-2.9437
X5.4854Y-4.1437
X5.5331Y-4.3898
X5.5854Y-2.9437
X5.5854Y-4.1437
X5.6106Y-3.9272
X5.6693Y-4.3898
X5.6776Y-4.872
X5.6854Y-2.9437
X5.6854Y-4.1437
X5.7106Y-3.9272
X5.7693Y-4.3898
X5.7776Y-4.872
X5.8106Y-3.9272
X5.9055Y-4.3898
X5.9106Y-3.9272
X6.0055Y-4.3898
X6.0106Y-3.9272
X6.1106Y-3.9272
X6.1319Y-4.872
X6.1417Y-4.3898
X6.2106Y-3.9272
X6.2303Y-2.9339
X6.2303Y-4.1339
X6.2319Y-4.872
X6.2417Y-4.3898
X6.3303Y-2.9339
X6.3303Y-4.1339
X6.3878Y-4.3898
X6.4303Y-2.9339
X6.4303Y-4.1339
X6.4878Y-4.3898
X6.5303Y-2.9339
X6.5303Y-4.1339
X6.5551Y-4.872
X6.624Y-4.3898
X6.6303Y-2.9339
X6.6303Y-4.1339
X6.6551Y-4.872
X6.724Y-4.3898
X6.8602Y-4.3898
X6.9602Y-4.3898
X7.0669Y-3.9705
X7.0669Y-4.9705
X7.1669Y-3.9705
X7.1669Y-4.9705
X7.2669Y-3.9705
X7.2669Y-4.9705
X7.3669Y-3.9705
X7.3669Y-4.9705
X7.4669Y-3.9705
X7.4669Y-4.9705
X7.5669Y-3.9705
X7.5669Y-4.9705
X7.5787Y-3.5039
X7.5787Y-3.6039
X7.5787Y-3.7039
X7.6378Y-5.4724
X7.6669Y-3.9705
X7.6669Y-4.9705
X7.7378Y-5.4724
X7.7669Y-3.9705
X7.7669Y-4.9705
X7.8378Y-5.4724
X7.8669Y-3.9705
X7.8669Y-4.9705
X7.9378Y-5.4724
X7.9669Y-3.9705
X7.9669Y-4.9705
X8.0378Y-5.4724
X8.0669Y-3.9705
X8.0669Y-4.9705
X8.1378Y-5.4724
X8.1669Y-3.9705
X8.1669Y-4.9705
X8.2378Y-5.4724
X8.2669Y-3.9705
X8.2669Y-4.9705
X8.3669Y-3.9705
X8.3669Y-4.9705
X8.4669Y-3.9705
X8.4669Y-4.9705
T4
X4.8031Y-4.7319
X4.8031Y-5.0319
T5
X8.002Y-3.4547
X8.002Y-3.5547
X8.002Y-3.6547
X8.002Y-3.7547
M30
